<svg width="125" height="124" viewBox="0 0 125 124" fill="none" xmlns="http://www.w3.org/2000/svg">
<path d="M91.6074 41.3333H93.6658C95.9267 41.3333 97.9025 42.5402 98.9854 44.3485L105.185 54.6818" stroke="url(#paint0_linear)" stroke-width="2" stroke-miterlimit="10"/>
<path d="M106.066 92.9999V111.6C106.066 115.024 103.29 117.8 99.8659 117.8H23.3992C19.9748 117.8 17.1992 115.024 17.1992 111.6V53.7333C17.1992 46.8843 22.7503 41.3333 29.5992 41.3333H62.6638" stroke="url(#paint1_linear)" stroke-width="2" stroke-miterlimit="10"/>
<path d="M31.666 76.4666V109.533" stroke="url(#paint2_linear)" stroke-width="2" stroke-miterlimit="10"/>
<path d="M39.9326 76.4666V82.6666" stroke="url(#paint3_linear)" stroke-width="2" stroke-miterlimit="10"/>
<path d="M43.0325 93.0001C45.8866 93.0001 48.1992 90.6875 48.1992 87.8334C48.1992 84.9793 45.8866 82.6667 43.0325 82.6667H25.4658" stroke="url(#paint4_linear)" stroke-width="2" stroke-miterlimit="10"/>
<path d="M39.9326 103.333V109.533" stroke="url(#paint5_linear)" stroke-width="2" stroke-miterlimit="10"/>
<path d="M25.4658 103.333H45.0992C47.9532 103.333 50.2658 101.021 50.2658 98.1667C50.2658 95.3126 47.9532 93 45.0992 93H31.6658" stroke="url(#paint6_linear)" stroke-width="2" stroke-miterlimit="10"/>
<path d="M99.8658 107.467H95.7324V111.6H99.8658V107.467Z" fill="url(#paint7_linear)"/>
<path d="M91.5992 107.467H87.4658V111.6H91.5992V107.467Z" fill="url(#paint8_linear)"/>
<path d="M83.3326 107.467H79.1992V111.6H83.3326V107.467Z" fill="url(#paint9_linear)"/>
<path d="M67.0102 51.6688C64.3297 49.0441 62.666 45.382 62.666 41.3334C62.666 33.3436 69.1429 26.8667 77.1327 26.8667C85.1224 26.8667 91.5994 33.3436 91.5994 41.3334C91.5994 45.382 89.9357 49.042 87.2552 51.6688" stroke="url(#paint10_linear)" stroke-width="2" stroke-miterlimit="10"/>
<path d="M70.9326 41.3333C70.9326 37.9088 73.7082 35.1333 77.1326 35.1333" stroke="url(#paint11_linear)" stroke-width="2" stroke-miterlimit="10"/>
<path d="M41.9996 33.0666C48.8479 33.0666 54.3996 27.5149 54.3996 20.6666C54.3996 13.8183 48.8479 8.2666 41.9996 8.2666C35.1513 8.2666 29.5996 13.8183 29.5996 20.6666C29.5996 27.5149 35.1513 33.0666 41.9996 33.0666Z" stroke="url(#paint12_linear)" stroke-width="2" stroke-miterlimit="10"/>
<path d="M37.8662 20.6665C37.8662 18.3829 39.7159 16.5332 41.9995 16.5332" stroke="url(#paint13_linear)" stroke-width="2" stroke-miterlimit="10"/>
<path d="M82.6988 27.9846C81.7895 26.445 81.2666 24.6511 81.2666 22.7332C81.2666 17.0272 85.8939 12.3999 91.5999 12.3999C97.306 12.3999 101.933 17.0272 101.933 22.7332C101.933 28.4393 97.306 33.0666 91.5999 33.0666C90.5935 33.0666 89.6201 32.9219 88.7004 32.6532" stroke="url(#paint14_linear)" stroke-width="2" stroke-miterlimit="10"/>
<path d="M6.86621 68.2V64.0667" stroke="url(#paint15_linear)" stroke-width="2" stroke-miterlimit="10"/>
<path d="M6.86621 59.9333V39.2666" stroke="url(#paint16_linear)" stroke-width="2" stroke-miterlimit="10"/>
<path d="M21.333 35.1333V31" stroke="url(#paint17_linear)" stroke-width="2" stroke-miterlimit="10"/>
<path d="M21.333 26.8667V22.7334" stroke="url(#paint18_linear)" stroke-width="2" stroke-miterlimit="10"/>
<path d="M11 28.9334V24.8" stroke="url(#paint19_linear)" stroke-width="2" stroke-miterlimit="10"/>
<path d="M11 20.6666V4.1333" stroke="url(#paint20_linear)" stroke-width="2" stroke-miterlimit="10"/>
<path d="M75.0664 18.5999V14.4666" stroke="url(#paint21_linear)" stroke-width="2" stroke-miterlimit="10"/>
<path d="M75.0664 10.3333V6.19995" stroke="url(#paint22_linear)" stroke-width="2" stroke-miterlimit="10"/>
<path d="M62.666 20.6666V4.1333" stroke="url(#paint23_linear)" stroke-width="2" stroke-miterlimit="10"/>
<path d="M114.333 49.5999V45.4666" stroke="url(#paint24_linear)" stroke-width="2" stroke-miterlimit="10"/>
<path d="M114.333 41.3334V20.6667" stroke="url(#paint25_linear)" stroke-width="2" stroke-miterlimit="10"/>
<path d="M118.466 12.4V2.06665" stroke="url(#paint26_linear)" stroke-width="2" stroke-miterlimit="10"/>
<path d="M108.133 10.3333V6.19995" stroke="url(#paint27_linear)" stroke-width="2" stroke-miterlimit="10"/>
<path d="M106.066 76.4668V57.8667C106.066 54.4423 103.29 51.6667 99.8658 51.6667H25.4658" stroke="url(#paint28_linear)" stroke-width="2" stroke-miterlimit="10"/>
<path d="M93.6661 92.9999C89.1008 92.9999 85.3994 89.2985 85.3994 84.7332C85.3994 80.168 89.1008 76.4666 93.6661 76.4666H108.133C109.274 76.4666 110.199 77.3924 110.199 78.5332V90.9332C110.199 92.074 109.274 92.9999 108.133 92.9999H93.6661Z" stroke="url(#paint29_linear)" stroke-width="2" stroke-miterlimit="10"/>
<path d="M95.7329 82.6667H91.5996V86.8001H95.7329V82.6667Z" fill="url(#paint30_linear)"/>
<defs>
<linearGradient id="paint0_linear" x1="95.3514" y1="43.6244" x2="102.316" y2="56.4879" gradientUnits="userSpaceOnUse">
<stop stop-color="#A874B9"/>
<stop offset="1" stop-color="#485E8B"/>
</linearGradient>
<linearGradient id="paint1_linear" x1="41.7029" y1="54.4581" x2="78.5782" y2="132.273" gradientUnits="userSpaceOnUse">
<stop stop-color="#A874B9"/>
<stop offset="1" stop-color="#485E8B"/>
</linearGradient>
<linearGradient id="paint2_linear" x1="31.9418" y1="82.1422" x2="34.1977" y2="82.2661" gradientUnits="userSpaceOnUse">
<stop stop-color="#A874B9"/>
<stop offset="1" stop-color="#485E8B"/>
</linearGradient>
<linearGradient id="paint3_linear" x1="40.2084" y1="77.5307" x2="42.2923" y2="78.1411" gradientUnits="userSpaceOnUse">
<stop stop-color="#A874B9"/>
<stop offset="1" stop-color="#485E8B"/>
</linearGradient>
<linearGradient id="paint4_linear" x1="31.7342" y1="84.4404" x2="34.7676" y2="96.5579" gradientUnits="userSpaceOnUse">
<stop stop-color="#A874B9"/>
<stop offset="1" stop-color="#485E8B"/>
</linearGradient>
<linearGradient id="paint5_linear" x1="40.2084" y1="104.397" x2="42.2923" y2="105.008" gradientUnits="userSpaceOnUse">
<stop stop-color="#A874B9"/>
<stop offset="1" stop-color="#485E8B"/>
</linearGradient>
<linearGradient id="paint6_linear" x1="32.3041" y1="94.7736" x2="35.1111" y2="107.006" gradientUnits="userSpaceOnUse">
<stop stop-color="#A874B9"/>
<stop offset="1" stop-color="#485E8B"/>
</linearGradient>
<linearGradient id="paint7_linear" x1="96.8721" y1="108.176" x2="99.0487" y2="112.128" gradientUnits="userSpaceOnUse">
<stop stop-color="#A874B9"/>
<stop offset="1" stop-color="#485E8B"/>
</linearGradient>
<linearGradient id="paint8_linear" x1="88.6055" y1="108.176" x2="90.7821" y2="112.128" gradientUnits="userSpaceOnUse">
<stop stop-color="#A874B9"/>
<stop offset="1" stop-color="#485E8B"/>
</linearGradient>
<linearGradient id="paint9_linear" x1="80.3389" y1="108.176" x2="82.5155" y2="112.128" gradientUnits="userSpaceOnUse">
<stop stop-color="#A874B9"/>
<stop offset="1" stop-color="#485E8B"/>
</linearGradient>
<linearGradient id="paint10_linear" x1="70.644" y1="31.1238" x2="82.5758" y2="56.3979" gradientUnits="userSpaceOnUse">
<stop stop-color="#A874B9"/>
<stop offset="1" stop-color="#485E8B"/>
</linearGradient>
<linearGradient id="paint11_linear" x1="72.6422" y1="36.1975" x2="75.907" y2="42.1256" gradientUnits="userSpaceOnUse">
<stop stop-color="#A874B9"/>
<stop offset="1" stop-color="#485E8B"/>
</linearGradient>
<linearGradient id="paint12_linear" x1="36.4378" y1="12.5233" x2="49.4971" y2="36.2357" gradientUnits="userSpaceOnUse">
<stop stop-color="#A874B9"/>
<stop offset="1" stop-color="#485E8B"/>
</linearGradient>
<linearGradient id="paint13_linear" x1="39.0059" y1="17.2427" x2="41.1825" y2="21.1947" gradientUnits="userSpaceOnUse">
<stop stop-color="#A874B9"/>
<stop offset="1" stop-color="#485E8B"/>
</linearGradient>
<linearGradient id="paint14_linear" x1="86.9651" y1="15.9472" x2="97.8478" y2="35.7075" gradientUnits="userSpaceOnUse">
<stop stop-color="#A874B9"/>
<stop offset="1" stop-color="#485E8B"/>
</linearGradient>
<linearGradient id="paint15_linear" x1="7.14195" y1="64.7761" x2="9.03863" y2="65.6093" gradientUnits="userSpaceOnUse">
<stop stop-color="#A874B9"/>
<stop offset="1" stop-color="#485E8B"/>
</linearGradient>
<linearGradient id="paint16_linear" x1="7.14195" y1="42.8139" x2="9.38732" y2="43.0111" gradientUnits="userSpaceOnUse">
<stop stop-color="#A874B9"/>
<stop offset="1" stop-color="#485E8B"/>
</linearGradient>
<linearGradient id="paint17_linear" x1="21.6087" y1="31.7095" x2="23.5054" y2="32.5427" gradientUnits="userSpaceOnUse">
<stop stop-color="#A874B9"/>
<stop offset="1" stop-color="#485E8B"/>
</linearGradient>
<linearGradient id="paint18_linear" x1="21.6087" y1="23.4429" x2="23.5054" y2="24.2761" gradientUnits="userSpaceOnUse">
<stop stop-color="#A874B9"/>
<stop offset="1" stop-color="#485E8B"/>
</linearGradient>
<linearGradient id="paint19_linear" x1="11.2757" y1="25.5095" x2="13.1724" y2="26.3427" gradientUnits="userSpaceOnUse">
<stop stop-color="#A874B9"/>
<stop offset="1" stop-color="#485E8B"/>
</linearGradient>
<linearGradient id="paint20_linear" x1="11.2757" y1="6.97111" x2="13.5115" y2="7.21665" gradientUnits="userSpaceOnUse">
<stop stop-color="#A874B9"/>
<stop offset="1" stop-color="#485E8B"/>
</linearGradient>
<linearGradient id="paint21_linear" x1="75.3421" y1="15.176" x2="77.2388" y2="16.0092" gradientUnits="userSpaceOnUse">
<stop stop-color="#A874B9"/>
<stop offset="1" stop-color="#485E8B"/>
</linearGradient>
<linearGradient id="paint22_linear" x1="75.3421" y1="6.9094" x2="77.2388" y2="7.74261" gradientUnits="userSpaceOnUse">
<stop stop-color="#A874B9"/>
<stop offset="1" stop-color="#485E8B"/>
</linearGradient>
<linearGradient id="paint23_linear" x1="62.9418" y1="6.97111" x2="65.1775" y2="7.21665" gradientUnits="userSpaceOnUse">
<stop stop-color="#A874B9"/>
<stop offset="1" stop-color="#485E8B"/>
</linearGradient>
<linearGradient id="paint24_linear" x1="114.609" y1="46.176" x2="116.505" y2="47.0092" gradientUnits="userSpaceOnUse">
<stop stop-color="#A874B9"/>
<stop offset="1" stop-color="#485E8B"/>
</linearGradient>
<linearGradient id="paint25_linear" x1="114.609" y1="24.214" x2="116.854" y2="24.4113" gradientUnits="userSpaceOnUse">
<stop stop-color="#A874B9"/>
<stop offset="1" stop-color="#485E8B"/>
</linearGradient>
<linearGradient id="paint26_linear" x1="118.742" y1="3.84028" x2="120.936" y2="4.22597" gradientUnits="userSpaceOnUse">
<stop stop-color="#A874B9"/>
<stop offset="1" stop-color="#485E8B"/>
</linearGradient>
<linearGradient id="paint27_linear" x1="108.409" y1="6.9094" x2="110.305" y2="7.74261" gradientUnits="userSpaceOnUse">
<stop stop-color="#A874B9"/>
<stop offset="1" stop-color="#485E8B"/>
</linearGradient>
<linearGradient id="paint28_linear" x1="47.6901" y1="55.9235" x2="52.7809" y2="85.9654" gradientUnits="userSpaceOnUse">
<stop stop-color="#A874B9"/>
<stop offset="1" stop-color="#485E8B"/>
</linearGradient>
<linearGradient id="paint29_linear" x1="92.2376" y1="79.3044" x2="98.9036" y2="97.46" gradientUnits="userSpaceOnUse">
<stop stop-color="#A874B9"/>
<stop offset="1" stop-color="#485E8B"/>
</linearGradient>
<linearGradient id="paint30_linear" x1="92.7393" y1="83.3762" x2="94.9158" y2="87.3283" gradientUnits="userSpaceOnUse">
<stop stop-color="#A874B9"/>
<stop offset="1" stop-color="#485E8B"/>
</linearGradient>
</defs>
</svg>
