<svg width="19" height="18" viewBox="0 0 19 18" fill="none" xmlns="http://www.w3.org/2000/svg">
<path d="M9.5 1.46252C5.36 1.46252 2 4.82252 2 8.96253C2 13.1025 5.36 16.4625 9.5 16.4625H13.25V14.9625H9.5C6.245 14.9625 3.5 12.2175 3.5 8.96253C3.5 5.70752 6.245 2.96252 9.5 2.96252C12.755 2.96252 15.5 5.70752 15.5 8.96253V10.035C15.5 10.6275 14.9675 11.2125 14.375 11.2125C13.7825 11.2125 13.25 10.6275 13.25 10.035V8.96253C13.25 6.89253 11.57 5.21253 9.5 5.21253C7.43 5.21253 5.75 6.89253 5.75 8.96253C5.75 11.0325 7.43 12.7125 9.5 12.7125C10.535 12.7125 11.48 12.2925 12.155 11.61C12.6425 12.2775 13.4825 12.7125 14.375 12.7125C15.8525 12.7125 17 11.5125 17 10.035V8.96253C17 4.82252 13.64 1.46252 9.5 1.46252V1.46252ZM9.5 11.2125C8.255 11.2125 7.25 10.2075 7.25 8.96253C7.25 7.71753 8.255 6.71253 9.5 6.71253C10.745 6.71253 11.75 7.71753 11.75 8.96253C11.75 10.2075 10.745 11.2125 9.5 11.2125Z" fill="url(#paint0_linear)"/>
<defs>
<linearGradient id="paint0_linear" x1="6.13603" y1="4.03715" x2="14.0348" y2="18.3793" gradientUnits="userSpaceOnUse">
<stop stop-color="#A874B9"/>
<stop offset="1" stop-color="#485E8B"/>
</linearGradient>
</defs>
</svg>
