<svg width="19" height="18" viewBox="0 0 19 18" fill="none" xmlns="http://www.w3.org/2000/svg">
<path d="M9.25 4.425C10.12 4.425 10.825 5.13 10.825 6C10.825 6.87 10.12 7.575 9.25 7.575C8.38 7.575 7.675 6.87 7.675 6C7.675 5.13 8.38 4.425 9.25 4.425ZM9.25 11.175C11.4775 11.175 13.825 12.27 13.825 12.75V13.575H4.675V12.75C4.675 12.27 7.0225 11.175 9.25 11.175ZM9.25 3C7.5925 3 6.25 4.3425 6.25 6C6.25 7.6575 7.5925 9 9.25 9C10.9075 9 12.25 7.6575 12.25 6C12.25 4.3425 10.9075 3 9.25 3ZM9.25 9.75C7.2475 9.75 3.25 10.755 3.25 12.75V15H15.25V12.75C15.25 10.755 11.2525 9.75 9.25 9.75Z" fill="url(#paint0_linear)"/>
<defs>
<linearGradient id="paint0_linear" x1="6.55882" y1="5.0597" x2="12.8778" y2="16.5334" gradientUnits="userSpaceOnUse">
<stop stop-color="#A874B9"/>
<stop offset="1" stop-color="#485E8B"/>
</linearGradient>
</defs>
</svg>
