<svg width="61" height="61" viewBox="0 0 61 61" fill="none" xmlns="http://www.w3.org/2000/svg">
<g clip-path="url(#clip0)">
<path d="M17.0362 58.762L28.4612 52.151C29.7852 51.383 30.8542 50.247 31.5642 48.891C32.3232 47.442 33.5182 45.461 35.0832 43.811C38.0032 40.73 45.9312 34.674 45.9312 34.674C46.4872 34.246 46.8012 33.538 46.8012 32.78C46.8012 31.399 45.6822 30.28 44.3012 30.28C43.7522 30.28 43.2352 30.441 42.8342 30.756L35.0682 36.857C34.3902 37.389 33.6842 37.884 32.9532 38.34L24.4942 43.617C23.8752 44.003 23.1312 44.28 22.3012 44.28C20.3682 44.28 18.8012 42.937 18.8012 41.28V32.78C18.8012 31.399 17.6822 30.28 16.3012 30.28C14.9202 30.28 13.8012 31.399 13.8012 32.78V35.403C13.8012 37.632 12.8972 38.869 11.7882 40.815C10.4592 43.151 10.2592 44.719 9.36916 48.72C8.67116 51.864 7.47816 53.238 4.28516 57.967" stroke="url(#paint0_linear)" stroke-width="2" stroke-miterlimit="10"/>
<path d="M52.8008 26.28H7.80078C7.24778 26.28 6.80078 26.727 6.80078 27.28V29.28C6.80078 29.833 7.24778 30.28 7.80078 30.28H52.8008C53.3538 30.28 53.8008 29.833 53.8008 29.28V27.28C53.8008 26.727 53.3538 26.28 52.8008 26.28Z" stroke="url(#paint1_linear)" stroke-width="2" stroke-miterlimit="10"/>
<path d="M25.2979 43.116L29.6739 32.16C30.1279 31.025 31.2289 30.28 32.4509 30.28" stroke="url(#paint2_linear)" stroke-width="2" stroke-miterlimit="10"/>
<path d="M26.4102 26.28L28.4802 19.35C28.6692 18.715 29.2542 18.28 29.9182 18.28H33.6842C34.3462 18.28 34.9312 18.716 35.1222 19.35L37.1922 26.28" stroke="url(#paint3_linear)" stroke-width="2" stroke-miterlimit="10"/>
<path d="M33.6836 18.28H47.6836C48.3456 18.28 48.9306 18.716 49.1216 19.35L51.1916 26.28" stroke="url(#paint4_linear)" stroke-width="2" stroke-miterlimit="10"/>
<path d="M46.8008 21.28H44.8008V23.28H46.8008V21.28Z" fill="url(#paint5_linear)"/>
<path d="M42.8008 21.28H40.8008V23.28H42.8008V21.28Z" fill="url(#paint6_linear)"/>
<path d="M18.4102 18.28L20.4802 11.35C20.6692 10.715 21.2542 10.28 21.9182 10.28H25.6842C26.3462 10.28 26.9312 10.716 27.1222 11.35L29.1922 18.28" stroke="url(#paint7_linear)" stroke-width="2" stroke-miterlimit="10"/>
<path d="M25.6836 10.28H39.6836C40.3456 10.28 40.9306 10.716 41.1216 11.35L43.1916 18.28" stroke="url(#paint8_linear)" stroke-width="2" stroke-miterlimit="10"/>
<path d="M38.8008 13.28H36.8008V15.28H38.8008V13.28Z" fill="url(#paint9_linear)"/>
<path d="M34.8008 13.28H32.8008V15.28H34.8008V13.28Z" fill="url(#paint10_linear)"/>
<path d="M9.41016 26.28L11.4802 19.35C11.6692 18.715 12.2542 18.28 12.9182 18.28H16.6842C17.3462 18.28 17.9312 18.716 18.1222 19.35L20.1922 26.28" stroke="url(#paint11_linear)" stroke-width="2" stroke-miterlimit="10"/>
<path d="M16.6836 18.28H29.9176" stroke="url(#paint12_linear)" stroke-width="2" stroke-miterlimit="10"/>
<path d="M30.8008 5.28003V0.280029" stroke="url(#paint13_linear)" stroke-width="2" stroke-miterlimit="10"/>
<path d="M16.0718 6.96803L14.4258 2.53003" stroke="url(#paint14_linear)" stroke-width="2" stroke-miterlimit="10"/>
<path d="M4.4668 11.676L7.2388 15.822" stroke="url(#paint15_linear)" stroke-width="2" stroke-miterlimit="10"/>
<path d="M45.5303 6.96803L47.1763 2.53003" stroke="url(#paint16_linear)" stroke-width="2" stroke-miterlimit="10"/>
<path d="M57.1343 11.676L54.3643 15.822" stroke="url(#paint17_linear)" stroke-width="2" stroke-miterlimit="10"/>
<path d="M47.8008 43.28V48.28" stroke="url(#paint18_linear)" stroke-width="2" stroke-miterlimit="10"/>
<path d="M47.8008 52.28V57.28" stroke="url(#paint19_linear)" stroke-width="2" stroke-miterlimit="10"/>
<path d="M54.8008 50.28H49.8008" stroke="url(#paint20_linear)" stroke-width="2" stroke-miterlimit="10"/>
<path d="M45.8008 50.28H40.8008" stroke="url(#paint21_linear)" stroke-width="2" stroke-miterlimit="10"/>
<path d="M32.1895 38.816L34.6815 32.58C34.7595 32.382 34.8005 32.171 34.8005 31.958C34.8005 31.031 34.0495 30.28 33.1225 30.28" stroke="url(#paint22_linear)" stroke-width="2" stroke-miterlimit="10"/>
</g>
<defs>
<linearGradient id="paint0_linear" x1="25.5432" y1="30.28" x2="25.5432" y2="58.762" gradientUnits="userSpaceOnUse">
<stop stop-color="#BEBCE7"/>
<stop offset="1" stop-color="#BE8BD5"/>
</linearGradient>
<linearGradient id="paint1_linear" x1="30.3008" y1="26.28" x2="30.3008" y2="30.28" gradientUnits="userSpaceOnUse">
<stop stop-color="#BEBCE7"/>
<stop offset="1" stop-color="#BE8BD5"/>
</linearGradient>
<linearGradient id="paint2_linear" x1="28.8744" y1="30.28" x2="28.8744" y2="43.116" gradientUnits="userSpaceOnUse">
<stop stop-color="#BEBCE7"/>
<stop offset="1" stop-color="#BE8BD5"/>
</linearGradient>
<linearGradient id="paint3_linear" x1="31.8012" y1="18.28" x2="31.8012" y2="26.28" gradientUnits="userSpaceOnUse">
<stop stop-color="#BEBCE7"/>
<stop offset="1" stop-color="#BE8BD5"/>
</linearGradient>
<linearGradient id="paint4_linear" x1="42.4376" y1="18.28" x2="42.4376" y2="26.28" gradientUnits="userSpaceOnUse">
<stop stop-color="#BEBCE7"/>
<stop offset="1" stop-color="#BE8BD5"/>
</linearGradient>
<linearGradient id="paint5_linear" x1="45.8008" y1="21.28" x2="45.8008" y2="23.28" gradientUnits="userSpaceOnUse">
<stop stop-color="#BEBCE7"/>
<stop offset="1" stop-color="#BE8BD5"/>
</linearGradient>
<linearGradient id="paint6_linear" x1="41.8008" y1="21.28" x2="41.8008" y2="23.28" gradientUnits="userSpaceOnUse">
<stop stop-color="#BEBCE7"/>
<stop offset="1" stop-color="#BE8BD5"/>
</linearGradient>
<linearGradient id="paint7_linear" x1="23.8012" y1="10.28" x2="23.8012" y2="18.28" gradientUnits="userSpaceOnUse">
<stop stop-color="#BEBCE7"/>
<stop offset="1" stop-color="#BE8BD5"/>
</linearGradient>
<linearGradient id="paint8_linear" x1="34.4376" y1="10.28" x2="34.4376" y2="18.28" gradientUnits="userSpaceOnUse">
<stop stop-color="#BEBCE7"/>
<stop offset="1" stop-color="#BE8BD5"/>
</linearGradient>
<linearGradient id="paint9_linear" x1="37.8008" y1="13.28" x2="37.8008" y2="15.28" gradientUnits="userSpaceOnUse">
<stop stop-color="#BEBCE7"/>
<stop offset="1" stop-color="#BE8BD5"/>
</linearGradient>
<linearGradient id="paint10_linear" x1="33.8008" y1="13.28" x2="33.8008" y2="15.28" gradientUnits="userSpaceOnUse">
<stop stop-color="#BEBCE7"/>
<stop offset="1" stop-color="#BE8BD5"/>
</linearGradient>
<linearGradient id="paint11_linear" x1="14.8012" y1="18.28" x2="14.8012" y2="26.28" gradientUnits="userSpaceOnUse">
<stop stop-color="#BEBCE7"/>
<stop offset="1" stop-color="#BE8BD5"/>
</linearGradient>
<linearGradient id="paint12_linear" x1="23.3006" y1="18.28" x2="23.3006" y2="19.28" gradientUnits="userSpaceOnUse">
<stop stop-color="#BEBCE7"/>
<stop offset="1" stop-color="#BE8BD5"/>
</linearGradient>
<linearGradient id="paint13_linear" x1="31.3008" y1="0.280029" x2="31.3008" y2="5.28003" gradientUnits="userSpaceOnUse">
<stop stop-color="#BEBCE7"/>
<stop offset="1" stop-color="#BE8BD5"/>
</linearGradient>
<linearGradient id="paint14_linear" x1="15.2488" y1="2.53003" x2="15.2488" y2="6.96803" gradientUnits="userSpaceOnUse">
<stop stop-color="#BEBCE7"/>
<stop offset="1" stop-color="#BE8BD5"/>
</linearGradient>
<linearGradient id="paint15_linear" x1="5.8528" y1="11.676" x2="5.8528" y2="15.822" gradientUnits="userSpaceOnUse">
<stop stop-color="#BEBCE7"/>
<stop offset="1" stop-color="#BE8BD5"/>
</linearGradient>
<linearGradient id="paint16_linear" x1="46.3533" y1="2.53003" x2="46.3533" y2="6.96803" gradientUnits="userSpaceOnUse">
<stop stop-color="#BEBCE7"/>
<stop offset="1" stop-color="#BE8BD5"/>
</linearGradient>
<linearGradient id="paint17_linear" x1="55.7493" y1="11.676" x2="55.7493" y2="15.822" gradientUnits="userSpaceOnUse">
<stop stop-color="#BEBCE7"/>
<stop offset="1" stop-color="#BE8BD5"/>
</linearGradient>
<linearGradient id="paint18_linear" x1="48.3008" y1="43.28" x2="48.3008" y2="48.28" gradientUnits="userSpaceOnUse">
<stop stop-color="#BEBCE7"/>
<stop offset="1" stop-color="#BE8BD5"/>
</linearGradient>
<linearGradient id="paint19_linear" x1="48.3008" y1="52.28" x2="48.3008" y2="57.28" gradientUnits="userSpaceOnUse">
<stop stop-color="#BEBCE7"/>
<stop offset="1" stop-color="#BE8BD5"/>
</linearGradient>
<linearGradient id="paint20_linear" x1="52.3008" y1="50.28" x2="52.3008" y2="51.28" gradientUnits="userSpaceOnUse">
<stop stop-color="#BEBCE7"/>
<stop offset="1" stop-color="#BE8BD5"/>
</linearGradient>
<linearGradient id="paint21_linear" x1="43.3008" y1="50.28" x2="43.3008" y2="51.28" gradientUnits="userSpaceOnUse">
<stop stop-color="#BEBCE7"/>
<stop offset="1" stop-color="#BE8BD5"/>
</linearGradient>
<linearGradient id="paint22_linear" x1="33.495" y1="30.28" x2="33.495" y2="38.816" gradientUnits="userSpaceOnUse">
<stop stop-color="#BEBCE7"/>
<stop offset="1" stop-color="#BE8BD5"/>
</linearGradient>
<clipPath id="clip0">
<rect width="60" height="60" fill="white" transform="translate(0.800781 0.280029)"/>
</clipPath>
</defs>
</svg>
