<svg width="124" height="125" viewBox="0 0 124 125" fill="none" xmlns="http://www.w3.org/2000/svg">
<g clip-path="url(#clip0)">
<path d="M56.4828 113.582L55.5941 109.211C55.1374 106.975 52.955 105.53 50.7189 105.985L11.5783 113.946C9.34213 114.402 7.89753 116.583 8.35219 118.821L9.00526 122.047" stroke="url(#paint0_linear)" stroke-width="2" stroke-miterlimit="10"/>
<path d="M45.4671 107.055C45.4671 94.5333 51.3778 87.3992 56.8007 83.115L67.9091 75.6337C69.3454 74.4991 70.2671 72.7403 70.2671 70.7667C70.2671 67.3422 67.4895 64.5667 64.0671 64.5667C62.7341 64.5667 61.5003 64.9862 60.4877 65.7033L48.1001 72.6659C46.0479 74.1188 43.5947 74.9 41.0796 74.9C34.8755 74.9 28.9338 69.4626 28.9338 62.7542C28.9338 49.8417 35.0615 41.5461 41.1375 38.5432C45.0703 36.5985 56.9867 30.9999 56.9867 30.9999C58.731 30.167 59.9338 28.3917 59.9338 26.3333C59.9338 23.4793 57.6212 21.1667 54.7671 21.1667C54.1699 21.1667 53.5974 21.2679 53.0601 21.456C53.0601 21.456 39.5379 25.9407 35.1338 27.7118C33.0237 28.5612 28.8801 30.4419 26.8671 31.5C21.8286 34.1474 17.7841 37.018 15.6431 39.7667C11.4085 45.1999 4.13379 61.0368 4.13379 64.8085C4.13379 66.5817 4.45206 68.328 4.83646 70.0599C7.25859 80.9822 12.3426 113.791 12.3426 113.791" stroke="url(#paint1_linear)" stroke-width="2" stroke-miterlimit="10"/>
<path d="M59.7021 24.8123L102.639 10.9553C102.856 10.8767 103.09 10.8333 103.334 10.8333C104.226 10.8333 104.985 11.3975 105.274 12.1891L105.272 12.1849L119.739 51.4516L119.741 51.4557C119.824 51.6789 119.867 51.9166 119.867 52.1667C119.867 53.0657 119.294 53.8303 118.495 54.1135L70.2029 69.8842" stroke="url(#paint2_linear)" stroke-width="2" stroke-miterlimit="10"/>
<path d="M50.6465 33.9903L62.0442 64.9056" stroke="url(#paint3_linear)" stroke-width="2" stroke-miterlimit="10"/>
<path d="M49.3666 55.7833L48.2568 52.7784" stroke="url(#paint4_linear)" stroke-width="2" stroke-miterlimit="10"/>
<path d="M35.2646 43.2965L46.4495 73.6497" stroke="url(#paint5_linear)" stroke-width="2" stroke-miterlimit="10"/>
<path d="M107.466 66.6333H103.333V70.7667H107.466V66.6333Z" fill="url(#paint6_linear)"/>
<path d="M115.733 70.7667H111.6V74.9H115.733V70.7667Z" fill="url(#paint7_linear)"/>
<path d="M95.0669 79.0333H90.9336V83.1667H95.0669V79.0333Z" fill="url(#paint8_linear)"/>
<path d="M119.867 79.0333H115.733V83.1667H119.867V79.0333Z" fill="url(#paint9_linear)"/>
<path d="M107.466 91.4333H103.333V95.5667H107.466V91.4333Z" fill="url(#paint10_linear)"/>
<path d="M99.1997 87.3H95.0664V91.4333H99.1997V87.3Z" fill="url(#paint11_linear)"/>
<path d="M115.733 87.3H111.6V91.4333H115.733V87.3Z" fill="url(#paint12_linear)"/>
<path d="M99.1997 70.7667H95.0664V74.9H99.1997V70.7667Z" fill="url(#paint13_linear)"/>
<path d="M18.6001 0.5H14.4668V4.63333H18.6001V0.5Z" fill="url(#paint14_linear)"/>
<path d="M26.8667 4.63333H22.7334V8.76666H26.8667V4.63333Z" fill="url(#paint15_linear)"/>
<path d="M6.19974 12.9H2.06641V17.0333H6.19974V12.9Z" fill="url(#paint16_linear)"/>
<path d="M30.9995 12.9H26.8662V17.0333H30.9995V12.9Z" fill="url(#paint17_linear)"/>
<path d="M18.6001 25.3H14.4668V29.4333H18.6001V25.3Z" fill="url(#paint18_linear)"/>
<path d="M10.3335 21.1667H6.2002V25.3H10.3335V21.1667Z" fill="url(#paint19_linear)"/>
<path d="M26.8667 21.1667H22.7334V25.3H26.8667V21.1667Z" fill="url(#paint20_linear)"/>
<path d="M10.3335 4.63333H6.2002V8.76666H10.3335V4.63333Z" fill="url(#paint21_linear)"/>
<path d="M84.7329 101.767H80.5996V105.9H84.7329V101.767Z" fill="url(#paint22_linear)"/>
<path d="M80.6001 112.1H76.4668V116.233H80.6001V112.1Z" fill="url(#paint23_linear)"/>
<path d="M70.2671 87.3H66.1338V91.4333H70.2671V87.3Z" fill="url(#paint24_linear)"/>
<path d="M59.9331 91.4333H55.7998V95.5667H59.9331V91.4333Z" fill="url(#paint25_linear)"/>
<path d="M80.6001 91.4333H76.4668V95.5667H80.6001V91.4333Z" fill="url(#paint26_linear)"/>
<path d="M70.2671 116.233H66.1338V120.367H70.2671V116.233Z" fill="url(#paint27_linear)"/>
<path d="M90.4811 38.9896L82.2145 49.3229C81.8363 49.7983 81.2535 50.1 80.6004 50.1C79.6911 50.1 78.9181 49.5131 78.6433 48.6947L74.5058 36.2885C74.4376 36.0839 74.4004 35.8627 74.4004 35.6333C74.4004 34.4905 75.3242 33.5667 76.4671 33.5667C76.5849 33.5667 89.2101 35.6623 89.206 35.6623C90.1877 35.8235 90.9337 36.6749 90.9337 37.7C90.9337 38.1877 90.7643 38.6362 90.4811 38.9896V38.9896Z" stroke="url(#paint28_linear)" stroke-width="2" stroke-miterlimit="10"/>
</g>
<defs>
<linearGradient id="paint0_linear" x1="21.5629" y1="108.672" x2="25.1516" y2="128.131" gradientUnits="userSpaceOnUse">
<stop stop-color="#A874B9"/>
<stop offset="1" stop-color="#485E8B"/>
</linearGradient>
<linearGradient id="paint1_linear" x1="22.3691" y1="37.0648" x2="78.1889" y2="109.432" gradientUnits="userSpaceOnUse">
<stop stop-color="#A874B9"/>
<stop offset="1" stop-color="#485E8B"/>
</linearGradient>
<linearGradient id="paint2_linear" x1="76.2917" y1="20.9689" x2="107.074" y2="77.9164" gradientUnits="userSpaceOnUse">
<stop stop-color="#A874B9"/>
<stop offset="1" stop-color="#485E8B"/>
</linearGradient>
<linearGradient id="paint3_linear" x1="53.7892" y1="39.2967" x2="71.5982" y2="51.2184" gradientUnits="userSpaceOnUse">
<stop stop-color="#A874B9"/>
<stop offset="1" stop-color="#485E8B"/>
</linearGradient>
<linearGradient id="paint4_linear" x1="48.5628" y1="53.2942" x2="50.295" y2="54.4558" gradientUnits="userSpaceOnUse">
<stop stop-color="#A874B9"/>
<stop offset="1" stop-color="#485E8B"/>
</linearGradient>
<linearGradient id="paint5_linear" x1="38.3487" y1="48.5064" x2="55.8305" y2="60.2032" gradientUnits="userSpaceOnUse">
<stop stop-color="#A874B9"/>
<stop offset="1" stop-color="#485E8B"/>
</linearGradient>
<linearGradient id="paint6_linear" x1="104.473" y1="67.3428" x2="106.649" y2="71.2948" gradientUnits="userSpaceOnUse">
<stop stop-color="#A874B9"/>
<stop offset="1" stop-color="#485E8B"/>
</linearGradient>
<linearGradient id="paint7_linear" x1="112.739" y1="71.4761" x2="114.916" y2="75.4282" gradientUnits="userSpaceOnUse">
<stop stop-color="#A874B9"/>
<stop offset="1" stop-color="#485E8B"/>
</linearGradient>
<linearGradient id="paint8_linear" x1="92.0733" y1="79.7428" x2="94.2498" y2="83.6948" gradientUnits="userSpaceOnUse">
<stop stop-color="#A874B9"/>
<stop offset="1" stop-color="#485E8B"/>
</linearGradient>
<linearGradient id="paint9_linear" x1="116.873" y1="79.7428" x2="119.05" y2="83.6948" gradientUnits="userSpaceOnUse">
<stop stop-color="#A874B9"/>
<stop offset="1" stop-color="#485E8B"/>
</linearGradient>
<linearGradient id="paint10_linear" x1="104.473" y1="92.1428" x2="106.649" y2="96.0949" gradientUnits="userSpaceOnUse">
<stop stop-color="#A874B9"/>
<stop offset="1" stop-color="#485E8B"/>
</linearGradient>
<linearGradient id="paint11_linear" x1="96.2061" y1="88.0094" x2="98.3827" y2="91.9615" gradientUnits="userSpaceOnUse">
<stop stop-color="#A874B9"/>
<stop offset="1" stop-color="#485E8B"/>
</linearGradient>
<linearGradient id="paint12_linear" x1="112.739" y1="88.0094" x2="114.916" y2="91.9615" gradientUnits="userSpaceOnUse">
<stop stop-color="#A874B9"/>
<stop offset="1" stop-color="#485E8B"/>
</linearGradient>
<linearGradient id="paint13_linear" x1="96.2061" y1="71.4761" x2="98.3827" y2="75.4282" gradientUnits="userSpaceOnUse">
<stop stop-color="#A874B9"/>
<stop offset="1" stop-color="#485E8B"/>
</linearGradient>
<linearGradient id="paint14_linear" x1="15.6065" y1="1.20945" x2="17.783" y2="5.16152" gradientUnits="userSpaceOnUse">
<stop stop-color="#A874B9"/>
<stop offset="1" stop-color="#485E8B"/>
</linearGradient>
<linearGradient id="paint15_linear" x1="23.8731" y1="5.34278" x2="26.0496" y2="9.29485" gradientUnits="userSpaceOnUse">
<stop stop-color="#A874B9"/>
<stop offset="1" stop-color="#485E8B"/>
</linearGradient>
<linearGradient id="paint16_linear" x1="3.20611" y1="13.6094" x2="5.38265" y2="17.5615" gradientUnits="userSpaceOnUse">
<stop stop-color="#A874B9"/>
<stop offset="1" stop-color="#485E8B"/>
</linearGradient>
<linearGradient id="paint17_linear" x1="28.0059" y1="13.6094" x2="30.1825" y2="17.5615" gradientUnits="userSpaceOnUse">
<stop stop-color="#A874B9"/>
<stop offset="1" stop-color="#485E8B"/>
</linearGradient>
<linearGradient id="paint18_linear" x1="15.6065" y1="26.0095" x2="17.783" y2="29.9615" gradientUnits="userSpaceOnUse">
<stop stop-color="#A874B9"/>
<stop offset="1" stop-color="#485E8B"/>
</linearGradient>
<linearGradient id="paint19_linear" x1="7.3399" y1="21.8761" x2="9.51644" y2="25.8282" gradientUnits="userSpaceOnUse">
<stop stop-color="#A874B9"/>
<stop offset="1" stop-color="#485E8B"/>
</linearGradient>
<linearGradient id="paint20_linear" x1="23.8731" y1="21.8761" x2="26.0496" y2="25.8282" gradientUnits="userSpaceOnUse">
<stop stop-color="#A874B9"/>
<stop offset="1" stop-color="#485E8B"/>
</linearGradient>
<linearGradient id="paint21_linear" x1="7.3399" y1="5.34278" x2="9.51644" y2="9.29485" gradientUnits="userSpaceOnUse">
<stop stop-color="#A874B9"/>
<stop offset="1" stop-color="#485E8B"/>
</linearGradient>
<linearGradient id="paint22_linear" x1="81.7393" y1="102.476" x2="83.9159" y2="106.428" gradientUnits="userSpaceOnUse">
<stop stop-color="#A874B9"/>
<stop offset="1" stop-color="#485E8B"/>
</linearGradient>
<linearGradient id="paint23_linear" x1="77.6065" y1="112.809" x2="79.783" y2="116.762" gradientUnits="userSpaceOnUse">
<stop stop-color="#A874B9"/>
<stop offset="1" stop-color="#485E8B"/>
</linearGradient>
<linearGradient id="paint24_linear" x1="67.2735" y1="88.0094" x2="69.45" y2="91.9615" gradientUnits="userSpaceOnUse">
<stop stop-color="#A874B9"/>
<stop offset="1" stop-color="#485E8B"/>
</linearGradient>
<linearGradient id="paint25_linear" x1="56.9395" y1="92.1428" x2="59.1161" y2="96.0949" gradientUnits="userSpaceOnUse">
<stop stop-color="#A874B9"/>
<stop offset="1" stop-color="#485E8B"/>
</linearGradient>
<linearGradient id="paint26_linear" x1="77.6065" y1="92.1428" x2="79.783" y2="96.0949" gradientUnits="userSpaceOnUse">
<stop stop-color="#A874B9"/>
<stop offset="1" stop-color="#485E8B"/>
</linearGradient>
<linearGradient id="paint27_linear" x1="67.2735" y1="116.943" x2="69.45" y2="120.895" gradientUnits="userSpaceOnUse">
<stop stop-color="#A874B9"/>
<stop offset="1" stop-color="#485E8B"/>
</linearGradient>
<linearGradient id="paint28_linear" x1="78.9592" y1="36.4045" x2="87.6654" y2="52.2128" gradientUnits="userSpaceOnUse">
<stop stop-color="#A874B9"/>
<stop offset="1" stop-color="#485E8B"/>
</linearGradient>
<clipPath id="clip0">
<rect width="124" height="124" fill="white" transform="translate(0 0.5)"/>
</clipPath>
</defs>
</svg>
