<svg width="61" height="61" viewBox="0 0 61 61" fill="none" xmlns="http://www.w3.org/2000/svg">
<path d="M25.4004 23.28H35.4004C36.5044 23.28 37.4004 24.176 37.4004 25.28V35.28C37.4004 36.384 36.5044 37.28 35.4004 37.28H25.4004C24.2964 37.28 23.4004 36.384 23.4004 35.28V25.28C23.4004 24.176 24.2964 23.28 25.4004 23.28Z" stroke="url(#paint0_linear)" stroke-width="2" stroke-miterlimit="10"/>
<path d="M19.4004 18.28H41.4004C41.9524 18.28 42.4004 18.727 42.4004 19.28V41.28C42.4004 41.833 41.9524 42.28 41.4004 42.28H19.4004C18.8484 42.28 18.4004 41.833 18.4004 41.28V19.28C18.4004 18.727 18.8484 18.28 19.4004 18.28Z" stroke="url(#paint1_linear)" stroke-width="2" stroke-miterlimit="10"/>
<path d="M26.4004 27.28H30.4004" stroke="url(#paint2_linear)" stroke-width="2" stroke-miterlimit="10"/>
<path d="M32.4004 27.28H34.4004" stroke="url(#paint3_linear)" stroke-width="2" stroke-miterlimit="10"/>
<path d="M22.4004 18.28V12.28C22.4004 11.727 21.9524 11.28 21.4004 11.28H10.4004C9.84839 11.28 9.40039 10.833 9.40039 10.28V5.28003" stroke="url(#paint4_linear)" stroke-width="2" stroke-miterlimit="10"/>
<path d="M31.4004 18.28V15.28C31.4004 14.727 30.9524 14.28 30.4004 14.28H27.4004C26.8484 14.28 26.4004 13.833 26.4004 13.28V2.28003" stroke="url(#paint5_linear)" stroke-width="2" stroke-miterlimit="10"/>
<path d="M37.4004 18.28V9.28003C37.4004 8.72703 37.8484 8.28003 38.4004 8.28003H44.4004C44.9524 8.28003 45.4004 7.83303 45.4004 7.28003V2.28003" stroke="url(#paint6_linear)" stroke-width="2" stroke-miterlimit="10"/>
<path d="M42.4004 23.28H48.4004C48.9524 23.28 49.4004 22.833 49.4004 22.28V15.28C49.4004 14.727 49.8484 14.28 50.4004 14.28H56.4004" stroke="url(#paint7_linear)" stroke-width="2" stroke-miterlimit="10"/>
<path d="M42.4004 29.28H49.4004C49.9524 29.28 50.4004 29.727 50.4004 30.28V32.28C50.4004 32.833 50.8484 33.28 51.4004 33.28H56.4004" stroke="url(#paint8_linear)" stroke-width="2" stroke-miterlimit="10"/>
<path d="M42.4004 37.28H46.4004C46.9524 37.28 47.4004 37.727 47.4004 38.28V48.28C47.4004 48.833 47.8484 49.28 48.4004 49.28H56.4004" stroke="url(#paint9_linear)" stroke-width="2" stroke-miterlimit="10"/>
<path d="M37.4004 42.28V47.28C37.4004 47.833 37.8484 48.28 38.4004 48.28H41.4004C41.9524 48.28 42.4004 48.727 42.4004 49.28V53.28C42.4004 53.833 42.8484 54.28 43.4004 54.28H48.4004C48.9524 54.28 49.4004 54.727 49.4004 55.28V59.28" stroke="url(#paint10_linear)" stroke-width="2" stroke-miterlimit="10"/>
<path d="M30.4004 42.28V51.28C30.4004 51.833 30.8484 52.28 31.4004 52.28H34.4004C34.9524 52.28 35.4004 52.727 35.4004 53.28V58.28" stroke="url(#paint11_linear)" stroke-width="2" stroke-miterlimit="10"/>
<path d="M23.4004 42.28V49.28C23.4004 49.833 22.9524 50.28 22.4004 50.28H17.4004C16.8484 50.28 16.4004 50.727 16.4004 51.28V57.28" stroke="url(#paint12_linear)" stroke-width="2" stroke-miterlimit="10"/>
<path d="M6.40039 56.28V48.28C6.40039 47.727 6.84839 47.28 7.40039 47.28H11.4004C11.9524 47.28 12.4004 46.833 12.4004 46.28V39.28C12.4004 38.727 12.8484 38.28 13.4004 38.28H18.4004" stroke="url(#paint13_linear)" stroke-width="2" stroke-miterlimit="10"/>
<path d="M5.40039 34.28H10.4004C10.9524 34.28 11.4004 33.833 11.4004 33.28V31.28C11.4004 30.727 11.8484 30.28 12.4004 30.28H18.4004" stroke="url(#paint14_linear)" stroke-width="2" stroke-miterlimit="10"/>
<path d="M6.40039 19.28H12.4004C12.9524 19.28 13.4004 19.727 13.4004 20.28V23.28C13.4004 23.833 13.8484 24.28 14.4004 24.28H18.4004" stroke="url(#paint15_linear)" stroke-width="2" stroke-miterlimit="10"/>
<defs>
<linearGradient id="paint0_linear" x1="30.4004" y1="23.28" x2="30.4004" y2="37.28" gradientUnits="userSpaceOnUse">
<stop stop-color="#BEBCE7"/>
<stop offset="1" stop-color="#BE8BD5"/>
</linearGradient>
<linearGradient id="paint1_linear" x1="30.4004" y1="18.28" x2="30.4004" y2="42.28" gradientUnits="userSpaceOnUse">
<stop stop-color="#BEBCE7"/>
<stop offset="1" stop-color="#BE8BD5"/>
</linearGradient>
<linearGradient id="paint2_linear" x1="28.4004" y1="27.28" x2="28.4004" y2="28.28" gradientUnits="userSpaceOnUse">
<stop stop-color="#BEBCE7"/>
<stop offset="1" stop-color="#BE8BD5"/>
</linearGradient>
<linearGradient id="paint3_linear" x1="33.4004" y1="27.28" x2="33.4004" y2="28.28" gradientUnits="userSpaceOnUse">
<stop stop-color="#BEBCE7"/>
<stop offset="1" stop-color="#BE8BD5"/>
</linearGradient>
<linearGradient id="paint4_linear" x1="15.9004" y1="5.28003" x2="15.9004" y2="18.28" gradientUnits="userSpaceOnUse">
<stop stop-color="#BEBCE7"/>
<stop offset="1" stop-color="#BE8BD5"/>
</linearGradient>
<linearGradient id="paint5_linear" x1="28.9004" y1="2.28003" x2="28.9004" y2="18.28" gradientUnits="userSpaceOnUse">
<stop stop-color="#BEBCE7"/>
<stop offset="1" stop-color="#BE8BD5"/>
</linearGradient>
<linearGradient id="paint6_linear" x1="41.4004" y1="2.28003" x2="41.4004" y2="18.28" gradientUnits="userSpaceOnUse">
<stop stop-color="#BEBCE7"/>
<stop offset="1" stop-color="#BE8BD5"/>
</linearGradient>
<linearGradient id="paint7_linear" x1="49.4004" y1="14.28" x2="49.4004" y2="23.28" gradientUnits="userSpaceOnUse">
<stop stop-color="#BEBCE7"/>
<stop offset="1" stop-color="#BE8BD5"/>
</linearGradient>
<linearGradient id="paint8_linear" x1="49.4004" y1="29.28" x2="49.4004" y2="33.28" gradientUnits="userSpaceOnUse">
<stop stop-color="#BEBCE7"/>
<stop offset="1" stop-color="#BE8BD5"/>
</linearGradient>
<linearGradient id="paint9_linear" x1="49.4004" y1="37.28" x2="49.4004" y2="49.28" gradientUnits="userSpaceOnUse">
<stop stop-color="#BEBCE7"/>
<stop offset="1" stop-color="#BE8BD5"/>
</linearGradient>
<linearGradient id="paint10_linear" x1="43.4004" y1="42.28" x2="43.4004" y2="59.28" gradientUnits="userSpaceOnUse">
<stop stop-color="#BEBCE7"/>
<stop offset="1" stop-color="#BE8BD5"/>
</linearGradient>
<linearGradient id="paint11_linear" x1="32.9004" y1="42.28" x2="32.9004" y2="58.28" gradientUnits="userSpaceOnUse">
<stop stop-color="#BEBCE7"/>
<stop offset="1" stop-color="#BE8BD5"/>
</linearGradient>
<linearGradient id="paint12_linear" x1="19.9004" y1="42.28" x2="19.9004" y2="57.28" gradientUnits="userSpaceOnUse">
<stop stop-color="#BEBCE7"/>
<stop offset="1" stop-color="#BE8BD5"/>
</linearGradient>
<linearGradient id="paint13_linear" x1="12.4004" y1="38.28" x2="12.4004" y2="56.28" gradientUnits="userSpaceOnUse">
<stop stop-color="#BEBCE7"/>
<stop offset="1" stop-color="#BE8BD5"/>
</linearGradient>
<linearGradient id="paint14_linear" x1="11.9004" y1="30.28" x2="11.9004" y2="34.28" gradientUnits="userSpaceOnUse">
<stop stop-color="#BEBCE7"/>
<stop offset="1" stop-color="#BE8BD5"/>
</linearGradient>
<linearGradient id="paint15_linear" x1="12.4004" y1="19.28" x2="12.4004" y2="24.28" gradientUnits="userSpaceOnUse">
<stop stop-color="#BEBCE7"/>
<stop offset="1" stop-color="#BE8BD5"/>
</linearGradient>
</defs>
</svg>
