<svg width="124" height="124" viewBox="0 0 124 124" fill="none" xmlns="http://www.w3.org/2000/svg">
<path d="M76.4666 107.467C79.8908 107.467 82.6666 104.691 82.6666 101.267C82.6666 97.8425 79.8908 95.0667 76.4666 95.0667C73.0424 95.0667 70.2666 97.8425 70.2666 101.267C70.2666 104.691 73.0424 107.467 76.4666 107.467Z" stroke="url(#paint0_linear)" stroke-width="2" stroke-miterlimit="10"/>
<path d="M76.4667 115.733C84.4564 115.733 90.9333 109.256 90.9333 101.267C90.9333 93.277 84.4564 86.8 76.4667 86.8C68.4769 86.8 62 93.277 62 101.267C62 109.256 68.4769 115.733 76.4667 115.733Z" stroke="url(#paint1_linear)" stroke-width="2" stroke-miterlimit="10"/>
<path d="M63.1303 95.6536L34.3023 91.3818C26.2361 90.1873 24.7998 83.4417 24.7998 74.4V62H90.9331C92.0739 62 92.9998 62.9259 92.9998 64.0667V74.4C92.9998 81.2448 91.4519 87.73 88.6867 93.5208" stroke="url(#paint2_linear)" stroke-width="2" stroke-miterlimit="10"/>
<path d="M86.7997 70.2667H64.0664" stroke="url(#paint3_linear)" stroke-width="2" stroke-miterlimit="10"/>
<path d="M59.9331 70.2667H55.7998" stroke="url(#paint4_linear)" stroke-width="2" stroke-miterlimit="10"/>
<path d="M51.6665 70.2667H47.5332" stroke="url(#paint5_linear)" stroke-width="2" stroke-miterlimit="10"/>
<path d="M26.8662 86.5107V111.443C26.8662 113.811 28.7882 115.733 31.1587 115.733C33.0621 115.733 34.7381 114.479 35.2755 112.652L37.5798 104.817C37.8402 103.937 38.6462 103.333 39.5638 103.333H62.1463" stroke="url(#paint6_linear)" stroke-width="2" stroke-miterlimit="10"/>
<path d="M111.6 115.733H107.467" stroke="url(#paint7_linear)" stroke-width="2" stroke-miterlimit="10"/>
<path d="M103.333 115.733H14.4668" stroke="url(#paint8_linear)" stroke-width="2" stroke-miterlimit="10"/>
<path d="M0 33.0667H8.26667C11.6911 33.0667 14.4667 35.8422 14.4667 39.2666V43.4C14.4667 52.8302 24.8 62 24.8 62" stroke="url(#paint9_linear)" stroke-width="2" stroke-miterlimit="10"/>
<path d="M30.4981 61.9979C29.5102 60.5203 28.9336 58.745 28.9336 56.8333C28.9336 51.6977 33.0979 47.5333 38.2336 47.5333C43.3693 47.5333 47.5336 51.6977 47.5336 56.8333C47.5336 58.745 46.957 60.5223 45.9671 62" stroke="url(#paint10_linear)" stroke-width="2" stroke-miterlimit="10"/>
<path d="M66.9915 61.9979C66.4397 60.7331 66.1338 59.3361 66.1338 57.8667C66.1338 52.1606 70.7611 47.5333 76.4671 47.5333C82.1732 47.5333 86.8004 52.1606 86.8004 57.8667C86.8004 59.3361 86.4946 60.7352 85.9407 62" stroke="url(#paint11_linear)" stroke-width="2" stroke-miterlimit="10"/>
<path d="M46.3682 52.3219C47.3602 51.9003 48.4534 51.6667 49.6004 51.6667C54.1657 51.6667 57.8671 55.3681 57.8671 59.9334C57.8671 60.6464 57.7762 61.3387 57.6067 62.0001" stroke="url(#paint12_linear)" stroke-width="2" stroke-miterlimit="10"/>
<path d="M54.9131 53.6074C56.3598 51.2059 58.9927 49.6001 61.9997 49.6001C64.2834 49.6001 66.35 50.526 67.8442 52.0222" stroke="url(#paint13_linear)" stroke-width="2" stroke-miterlimit="10"/>
<path d="M41.4404 48.1017C42.1658 43.1045 46.4686 39.2667 51.6663 39.2667C57.3724 39.2667 61.9996 43.894 61.9996 49.6001" stroke="url(#paint14_linear)" stroke-width="2" stroke-miterlimit="10"/>
<path d="M99.1996 18.6H51.6663C50.5255 18.6 49.5996 17.6742 49.5996 16.5334V12.4C49.5996 11.2592 50.5255 10.3334 51.6663 10.3334H119.866C121.007 10.3334 121.933 11.2592 121.933 12.4V16.5334C121.933 17.6742 121.007 18.6 119.866 18.6H105.4" stroke="url(#paint15_linear)" stroke-width="2" stroke-miterlimit="10"/>
<path d="M117.8 18.6001V62.0001C117.8 65.4246 115.024 68.2001 111.6 68.2001H93" stroke="url(#paint16_linear)" stroke-width="2" stroke-miterlimit="10"/>
<path d="M53.7334 39.4734V18.6001" stroke="url(#paint17_linear)" stroke-width="2" stroke-miterlimit="10"/>
<path d="M99.2002 26.8667H109.534V37.2" stroke="url(#paint18_linear)" stroke-width="2" stroke-miterlimit="10"/>
<path d="M89.6973 46.7026L109.533 26.8667" stroke="url(#paint19_linear)" stroke-width="2" stroke-miterlimit="10"/>
<path d="M107.467 41.3334V55.8" stroke="url(#paint20_linear)" stroke-width="2" stroke-miterlimit="10"/>
<path d="M99.2002 55.8V47.5333" stroke="url(#paint21_linear)" stroke-width="2" stroke-miterlimit="10"/>
<path d="M91.791 84.7334H119.867" stroke="url(#paint22_linear)" stroke-width="2" stroke-miterlimit="10"/>
<path d="M124 93H119.866" stroke="url(#paint23_linear)" stroke-width="2" stroke-miterlimit="10"/>
<path d="M115.734 93H99.2002" stroke="url(#paint24_linear)" stroke-width="2" stroke-miterlimit="10"/>
<path d="M102.267 68.2001L108.5 84.7334" stroke="url(#paint25_linear)" stroke-width="2" stroke-miterlimit="10"/>
<defs>
<linearGradient id="paint0_linear" x1="73.6857" y1="97.195" x2="80.2153" y2="109.051" gradientUnits="userSpaceOnUse">
<stop stop-color="#A874B9"/>
<stop offset="1" stop-color="#485E8B"/>
</linearGradient>
<linearGradient id="paint1_linear" x1="69.9779" y1="91.7662" x2="85.2137" y2="119.431" gradientUnits="userSpaceOnUse">
<stop stop-color="#A874B9"/>
<stop offset="1" stop-color="#485E8B"/>
</linearGradient>
<linearGradient id="paint2_linear" x1="43.605" y1="67.7764" x2="54.2182" y2="106.83" gradientUnits="userSpaceOnUse">
<stop stop-color="#A874B9"/>
<stop offset="1" stop-color="#485E8B"/>
</linearGradient>
<linearGradient id="paint3_linear" x1="70.3348" y1="70.4384" x2="70.365" y2="71.6838" gradientUnits="userSpaceOnUse">
<stop stop-color="#A874B9"/>
<stop offset="1" stop-color="#485E8B"/>
</linearGradient>
<linearGradient id="paint4_linear" x1="56.9395" y1="70.4384" x2="57.1027" y2="71.6628" gradientUnits="userSpaceOnUse">
<stop stop-color="#A874B9"/>
<stop offset="1" stop-color="#485E8B"/>
</linearGradient>
<linearGradient id="paint5_linear" x1="48.6729" y1="70.4384" x2="48.8361" y2="71.6628" gradientUnits="userSpaceOnUse">
<stop stop-color="#A874B9"/>
<stop offset="1" stop-color="#485E8B"/>
</linearGradient>
<linearGradient id="paint6_linear" x1="36.5942" y1="91.5266" x2="50.3448" y2="121.67" gradientUnits="userSpaceOnUse">
<stop stop-color="#A874B9"/>
<stop offset="1" stop-color="#485E8B"/>
</linearGradient>
<linearGradient id="paint7_linear" x1="108.607" y1="115.905" x2="108.77" y2="117.129" gradientUnits="userSpaceOnUse">
<stop stop-color="#A874B9"/>
<stop offset="1" stop-color="#485E8B"/>
</linearGradient>
<linearGradient id="paint8_linear" x1="38.9705" y1="115.905" x2="38.9782" y2="117.151" gradientUnits="userSpaceOnUse">
<stop stop-color="#A874B9"/>
<stop offset="1" stop-color="#485E8B"/>
</linearGradient>
<linearGradient id="paint9_linear" x1="6.83824" y1="38.0328" x2="23.2353" y2="63.5527" gradientUnits="userSpaceOnUse">
<stop stop-color="#A874B9"/>
<stop offset="1" stop-color="#485E8B"/>
</linearGradient>
<linearGradient id="paint10_linear" x1="34.0623" y1="50.0164" x2="40.5872" y2="65.2491" gradientUnits="userSpaceOnUse">
<stop stop-color="#A874B9"/>
<stop offset="1" stop-color="#485E8B"/>
</linearGradient>
<linearGradient id="paint11_linear" x1="71.8323" y1="50.0164" x2="77.883" y2="65.7115" gradientUnits="userSpaceOnUse">
<stop stop-color="#A874B9"/>
<stop offset="1" stop-color="#485E8B"/>
</linearGradient>
<linearGradient id="paint12_linear" x1="49.5388" y1="53.4404" x2="54.6579" y2="63.7838" gradientUnits="userSpaceOnUse">
<stop stop-color="#A874B9"/>
<stop offset="1" stop-color="#485E8B"/>
</linearGradient>
<linearGradient id="paint13_linear" x1="58.4787" y1="50.2879" x2="59.3068" y2="55.1402" gradientUnits="userSpaceOnUse">
<stop stop-color="#A874B9"/>
<stop offset="1" stop-color="#485E8B"/>
</linearGradient>
<linearGradient id="paint14_linear" x1="47.1093" y1="41.0404" x2="50.4201" y2="53.0008" gradientUnits="userSpaceOnUse">
<stop stop-color="#A874B9"/>
<stop offset="1" stop-color="#485E8B"/>
</linearGradient>
<linearGradient id="paint15_linear" x1="69.5445" y1="11.7523" x2="70.1903" y2="22.0132" gradientUnits="userSpaceOnUse">
<stop stop-color="#A874B9"/>
<stop offset="1" stop-color="#485E8B"/>
</linearGradient>
<linearGradient id="paint16_linear" x1="99.8382" y1="27.1135" x2="130.599" y2="55.0406" gradientUnits="userSpaceOnUse">
<stop stop-color="#A874B9"/>
<stop offset="1" stop-color="#485E8B"/>
</linearGradient>
<linearGradient id="paint17_linear" x1="54.0091" y1="22.1828" x2="56.2549" y2="22.3782" gradientUnits="userSpaceOnUse">
<stop stop-color="#A874B9"/>
<stop offset="1" stop-color="#485E8B"/>
</linearGradient>
<linearGradient id="paint18_linear" x1="102.049" y1="28.6403" x2="107.491" y2="38.5205" gradientUnits="userSpaceOnUse">
<stop stop-color="#A874B9"/>
<stop offset="1" stop-color="#485E8B"/>
</linearGradient>
<linearGradient id="paint19_linear" x1="95.1667" y1="30.2714" x2="105.612" y2="49.2373" gradientUnits="userSpaceOnUse">
<stop stop-color="#A874B9"/>
<stop offset="1" stop-color="#485E8B"/>
</linearGradient>
<linearGradient id="paint20_linear" x1="107.743" y1="43.8165" x2="109.97" y2="44.0961" gradientUnits="userSpaceOnUse">
<stop stop-color="#A874B9"/>
<stop offset="1" stop-color="#485E8B"/>
</linearGradient>
<linearGradient id="paint21_linear" x1="99.4759" y1="48.9522" x2="101.635" y2="49.4264" gradientUnits="userSpaceOnUse">
<stop stop-color="#A874B9"/>
<stop offset="1" stop-color="#485E8B"/>
</linearGradient>
<linearGradient id="paint22_linear" x1="99.5325" y1="84.905" x2="99.5569" y2="86.1507" gradientUnits="userSpaceOnUse">
<stop stop-color="#A874B9"/>
<stop offset="1" stop-color="#485E8B"/>
</linearGradient>
<linearGradient id="paint23_linear" x1="121.006" y1="93.1716" x2="121.169" y2="94.3961" gradientUnits="userSpaceOnUse">
<stop stop-color="#A874B9"/>
<stop offset="1" stop-color="#485E8B"/>
</linearGradient>
<linearGradient id="paint24_linear" x1="103.759" y1="93.1716" x2="103.8" y2="94.4164" gradientUnits="userSpaceOnUse">
<stop stop-color="#A874B9"/>
<stop offset="1" stop-color="#485E8B"/>
</linearGradient>
<linearGradient id="paint25_linear" x1="103.985" y1="71.0379" x2="113.589" y2="77.6118" gradientUnits="userSpaceOnUse">
<stop stop-color="#A874B9"/>
<stop offset="1" stop-color="#485E8B"/>
</linearGradient>
</defs>
</svg>
