<svg width="60" height="60" viewBox="0 0 60 60" fill="none" xmlns="http://www.w3.org/2000/svg">
<path d="M30.971 29.489C31.205 29.192 31.579 29 32 29C32.422 29 32.796 29.193 33.03 29.491L40.744 39.268C40.905 39.473 41 39.726 41 40C41 40.274 40.904 40.528 40.743 40.732L33.029 50.51C32.795 50.808 32.422 51 32 51C31.578 51 31.204 50.807 30.97 50.509L23.256 40.732C23.096 40.527 23 40.274 23 40C23 39.726 23.096 39.472 23.256 39.268L30.971 29.489Z" stroke="url(#paint0_linear)" stroke-width="2" stroke-miterlimit="10"/>
<path d="M41 40L33.076 42.818C32.392 43.06 31.607 43.06 30.924 42.818L23 40" stroke="url(#paint1_linear)" stroke-width="2" stroke-miterlimit="10"/>
<path d="M42.4824 29.271C42.9204 29.698 43.3304 30.152 43.7124 30.628" stroke="url(#paint2_linear)" stroke-width="2" stroke-miterlimit="10"/>
<path d="M45.359 33.174C46.408 35.221 47 37.541 47 40C47 48.284 40.284 55 32 55C23.716 55 17 48.284 17 40C17 31.716 23.716 25 32 25C34.866 25 37.545 25.804 39.822 27.199" stroke="url(#paint3_linear)" stroke-width="2" stroke-miterlimit="10"/>
<path d="M51.0001 40C51.0001 44.021 49.7521 47.748 47.6211 50.818" stroke="url(#paint4_linear)" stroke-width="2" stroke-miterlimit="10"/>
<path d="M22.8251 56.643C19.7211 54.927 17.1461 52.369 15.4141 49.276" stroke="url(#paint5_linear)" stroke-width="2" stroke-miterlimit="10"/>
<path d="M26.824 58.287C26.275 58.132 25.736 57.952 25.209 57.75" stroke="url(#paint6_linear)" stroke-width="2" stroke-miterlimit="10"/>
<path d="M45.6835 53.183C45.2085 53.674 44.7085 54.14 44.1855 54.579" stroke="url(#paint7_linear)" stroke-width="2" stroke-miterlimit="10"/>
<path d="M21.0001 29.802V22.156L14.0001 26.317L7.00009 22.156V30H1.99609" stroke="url(#paint8_linear)" stroke-width="2" stroke-miterlimit="10"/>
<path d="M14 38C6.82 38 1 32.18 1 25C1 17.82 6.82 12 14 12C20.09 12 25.201 16.187 26.613 21.839" stroke="url(#paint9_linear)" stroke-width="2" stroke-miterlimit="10"/>
<path d="M50.2678 9.254L46.3828 19H53.9998" stroke="url(#paint10_linear)" stroke-width="2" stroke-miterlimit="10"/>
<path d="M44.1367 15.164L52.8587 13.852" stroke="url(#paint11_linear)" stroke-width="2" stroke-miterlimit="10"/>
<path d="M49 25C54.5228 25 59 20.5228 59 15C59 9.47715 54.5228 5 49 5C43.4772 5 39 9.47715 39 15C39 20.5228 43.4772 25 49 25Z" stroke="url(#paint12_linear)" stroke-width="2" stroke-miterlimit="10"/>
<path d="M15 7H13V9H15V7Z" fill="url(#paint13_linear)"/>
<path d="M20 8H18V10H20V8Z" fill="url(#paint14_linear)"/>
<path d="M5 10H3V12H5V10Z" fill="url(#paint15_linear)"/>
<path d="M10 8H8V10H10V8Z" fill="url(#paint16_linear)"/>
<path d="M25 10H23V12H25V10Z" fill="url(#paint17_linear)"/>
<path d="M29 14H27V16H29V14Z" fill="url(#paint18_linear)"/>
<path d="M36 14H34V16H36V14Z" fill="url(#paint19_linear)"/>
<path d="M37 9H35V11H37V9Z" fill="url(#paint20_linear)"/>
<path d="M37 19H35V21H37V19Z" fill="url(#paint21_linear)"/>
<path d="M40 4H38V6H40V4Z" fill="url(#paint22_linear)"/>
<path d="M45 1H43V3H45V1Z" fill="url(#paint23_linear)"/>
<defs>
<linearGradient id="paint0_linear" x1="27.9632" y1="32.7761" x2="40.6629" y2="51.6431" gradientUnits="userSpaceOnUse">
<stop stop-color="#A874B9"/>
<stop offset="1" stop-color="#485E8B"/>
</linearGradient>
<linearGradient id="paint1_linear" x1="27.9632" y1="40.5148" x2="28.3034" y2="44.2215" gradientUnits="userSpaceOnUse">
<stop stop-color="#A874B9"/>
<stop offset="1" stop-color="#485E8B"/>
</linearGradient>
<linearGradient id="paint2_linear" x1="42.8216" y1="29.5039" x2="43.572" y2="30.739" gradientUnits="userSpaceOnUse">
<stop stop-color="#A874B9"/>
<stop offset="1" stop-color="#485E8B"/>
</linearGradient>
<linearGradient id="paint3_linear" x1="25.2721" y1="30.1493" x2="41.0695" y2="58.8336" gradientUnits="userSpaceOnUse">
<stop stop-color="#A874B9"/>
<stop offset="1" stop-color="#485E8B"/>
</linearGradient>
<linearGradient id="paint4_linear" x1="48.5528" y1="41.8568" x2="54.3377" y2="45.1377" gradientUnits="userSpaceOnUse">
<stop stop-color="#A874B9"/>
<stop offset="1" stop-color="#485E8B"/>
</linearGradient>
<linearGradient id="paint5_linear" x1="17.4575" y1="50.5405" x2="21.3245" y2="57.6039" gradientUnits="userSpaceOnUse">
<stop stop-color="#A874B9"/>
<stop offset="1" stop-color="#485E8B"/>
</linearGradient>
<linearGradient id="paint6_linear" x1="25.6543" y1="57.8422" x2="25.7729" y2="58.4896" gradientUnits="userSpaceOnUse">
<stop stop-color="#A874B9"/>
<stop offset="1" stop-color="#485E8B"/>
</linearGradient>
<linearGradient id="paint7_linear" x1="44.5986" y1="53.4226" x2="45.3053" y2="54.7995" gradientUnits="userSpaceOnUse">
<stop stop-color="#A874B9"/>
<stop offset="1" stop-color="#485E8B"/>
</linearGradient>
<linearGradient id="paint8_linear" x1="7.23617" y1="23.5024" x2="9.34899" y2="32.7969" gradientUnits="userSpaceOnUse">
<stop stop-color="#A874B9"/>
<stop offset="1" stop-color="#485E8B"/>
</linearGradient>
<linearGradient id="paint9_linear" x1="8.06241" y1="16.4627" x2="21.8626" y2="41.1476" gradientUnits="userSpaceOnUse">
<stop stop-color="#A874B9"/>
<stop offset="1" stop-color="#485E8B"/>
</linearGradient>
<linearGradient id="paint10_linear" x1="48.4831" y1="10.9268" x2="54.2017" y2="19.0421" gradientUnits="userSpaceOnUse">
<stop stop-color="#A874B9"/>
<stop offset="1" stop-color="#485E8B"/>
</linearGradient>
<linearGradient id="paint11_linear" x1="46.5417" y1="14.0772" x2="46.6762" y2="15.701" gradientUnits="userSpaceOnUse">
<stop stop-color="#A874B9"/>
<stop offset="1" stop-color="#485E8B"/>
</linearGradient>
<linearGradient id="paint12_linear" x1="44.5147" y1="8.43284" x2="55.0464" y2="27.5557" gradientUnits="userSpaceOnUse">
<stop stop-color="#A874B9"/>
<stop offset="1" stop-color="#485E8B"/>
</linearGradient>
<linearGradient id="paint13_linear" x1="13.5515" y1="7.34328" x2="14.6046" y2="9.25557" gradientUnits="userSpaceOnUse">
<stop stop-color="#A874B9"/>
<stop offset="1" stop-color="#485E8B"/>
</linearGradient>
<linearGradient id="paint14_linear" x1="18.5515" y1="8.34328" x2="19.6046" y2="10.2556" gradientUnits="userSpaceOnUse">
<stop stop-color="#A874B9"/>
<stop offset="1" stop-color="#485E8B"/>
</linearGradient>
<linearGradient id="paint15_linear" x1="3.55147" y1="10.3433" x2="4.60464" y2="12.2556" gradientUnits="userSpaceOnUse">
<stop stop-color="#A874B9"/>
<stop offset="1" stop-color="#485E8B"/>
</linearGradient>
<linearGradient id="paint16_linear" x1="8.55147" y1="8.34328" x2="9.60464" y2="10.2556" gradientUnits="userSpaceOnUse">
<stop stop-color="#A874B9"/>
<stop offset="1" stop-color="#485E8B"/>
</linearGradient>
<linearGradient id="paint17_linear" x1="23.5515" y1="10.3433" x2="24.6046" y2="12.2556" gradientUnits="userSpaceOnUse">
<stop stop-color="#A874B9"/>
<stop offset="1" stop-color="#485E8B"/>
</linearGradient>
<linearGradient id="paint18_linear" x1="27.5515" y1="14.3433" x2="28.6046" y2="16.2556" gradientUnits="userSpaceOnUse">
<stop stop-color="#A874B9"/>
<stop offset="1" stop-color="#485E8B"/>
</linearGradient>
<linearGradient id="paint19_linear" x1="34.5515" y1="14.3433" x2="35.6046" y2="16.2556" gradientUnits="userSpaceOnUse">
<stop stop-color="#A874B9"/>
<stop offset="1" stop-color="#485E8B"/>
</linearGradient>
<linearGradient id="paint20_linear" x1="35.5515" y1="9.34328" x2="36.6046" y2="11.2556" gradientUnits="userSpaceOnUse">
<stop stop-color="#A874B9"/>
<stop offset="1" stop-color="#485E8B"/>
</linearGradient>
<linearGradient id="paint21_linear" x1="35.5515" y1="19.3433" x2="36.6046" y2="21.2556" gradientUnits="userSpaceOnUse">
<stop stop-color="#A874B9"/>
<stop offset="1" stop-color="#485E8B"/>
</linearGradient>
<linearGradient id="paint22_linear" x1="38.5515" y1="4.34328" x2="39.6046" y2="6.25557" gradientUnits="userSpaceOnUse">
<stop stop-color="#A874B9"/>
<stop offset="1" stop-color="#485E8B"/>
</linearGradient>
<linearGradient id="paint23_linear" x1="43.5515" y1="1.34328" x2="44.6046" y2="3.25557" gradientUnits="userSpaceOnUse">
<stop stop-color="#A874B9"/>
<stop offset="1" stop-color="#485E8B"/>
</linearGradient>
</defs>
</svg>
