<svg width="124" height="125" viewBox="0 0 124 125" fill="none" xmlns="http://www.w3.org/2000/svg">
<g clip-path="url(#clip0)">
<path d="M43.4004 79.0333H93.0004" stroke="url(#paint0_linear)" stroke-width="2" stroke-miterlimit="10"/>
<path d="M93.0004 39.8721V23.2333C93.0004 20.9497 91.1507 19.1 88.8671 19.1H47.5337C45.2501 19.1 43.4004 20.9497 43.4004 23.2333V39.87" stroke="url(#paint1_linear)" stroke-width="2" stroke-miterlimit="10"/>
<path d="M70.7689 123.667L72.1226 119.608C72.259 119.197 72.3334 118.757 72.3334 118.3C72.3334 116.498 71.1843 114.966 69.5765 114.402L34.5361 102.035C34.0794 101.862 33.5834 101.767 33.0667 101.767C31.2419 101.767 29.6919 102.951 29.1442 104.592L26.6084 111.778" stroke="url(#paint2_linear)" stroke-width="2" stroke-miterlimit="10"/>
<path d="M66.1494 113.193C72.6429 101.771 77.7476 106.59 81.8251 95.5667" stroke="url(#paint3_linear)" stroke-width="2" stroke-miterlimit="10"/>
<path d="M39.2671 110.033H35.1338V114.167H39.2671V110.033Z" fill="url(#paint4_linear)"/>
<path d="M90.6859 55.4403L90.38 55.7461C89.4459 56.6803 88.8672 57.974 88.8672 59.4C88.8672 62.2541 91.1798 64.5667 94.0339 64.5667C95.4599 64.5667 96.7515 63.988 97.6877 63.0539L103.888 56.8539C104.822 55.9197 105.401 54.6281 105.401 53.2C105.401 50.3459 103.088 48.0333 100.234 48.0333C99.1799 48.0333 98.1383 48.24 97.1566 49.1183" stroke="url(#paint5_linear)" stroke-width="2" stroke-miterlimit="10"/>
<path d="M91.4875 54.7872L97.6875 48.5872C98.6217 47.6531 99.2003 46.3614 99.2003 44.9333C99.2003 42.0793 96.8877 39.7667 94.0337 39.7667C92.6077 39.7667 91.316 40.3453 90.3798 41.2795L84.1798 47.4795C83.2457 48.4136 82.667 49.7073 82.667 51.1333C82.667 53.9874 84.9796 56.3 87.8337 56.3C89.2597 56.3 90.5513 55.7213 91.4875 54.7872Z" stroke="url(#paint6_linear)" stroke-width="2" stroke-miterlimit="10"/>
<path d="M97.3051 63.399L92.4464 68.1482C91.5123 69.0803 90.9336 70.374 90.9336 71.8C90.9336 74.6541 93.2462 76.9667 96.1003 76.9667C97.5263 76.9667 98.8179 76.388 99.7541 75.4539L105.954 69.2539C106.888 68.3197 107.467 67.0281 107.467 65.6C107.467 62.7459 105.154 60.4333 102.3 60.4333C101.246 60.4333 100.155 60.6937 99.1176 61.6217" stroke="url(#paint7_linear)" stroke-width="2" stroke-miterlimit="10"/>
<path d="M36.9647 102.893L29.411 72.6763C29.0948 71.4073 28.9336 70.1053 28.9336 68.7992C28.9336 66.8689 29.2829 64.9552 29.9649 63.1489C29.9649 63.1489 35.7019 48.3454 37.4462 43.3503C38.1675 41.2877 40.0647 39.7667 42.3669 39.7667C45.221 39.7667 47.5336 42.0793 47.5336 44.9333C47.5336 47.9548 45.9505 55.2667 43.4003 60.4333V91.4333C43.4003 93.717 45.2499 95.5667 47.5336 95.5667H88.8669C91.1506 95.5667 93.0003 93.717 93.0003 91.4333V75.923" stroke="url(#paint8_linear)" stroke-width="2" stroke-miterlimit="10"/>
<path d="M93 38.8945L103.885 27.9205C104.821 26.9864 105.4 25.6947 105.4 24.2667C105.4 21.4126 103.087 19.1 100.233 19.1C98.8073 19.1 97.5157 19.6787 96.5795 20.6128L93 24.1923" stroke="url(#paint9_linear)" stroke-width="2" stroke-miterlimit="10"/>
<path d="M51.667 66.6333V72.8333" stroke="url(#paint10_linear)" stroke-width="2" stroke-miterlimit="10"/>
<path d="M59.9336 64.5667V72.8333" stroke="url(#paint11_linear)" stroke-width="2" stroke-miterlimit="10"/>
<path d="M68.2002 62.5V72.8333" stroke="url(#paint12_linear)" stroke-width="2" stroke-miterlimit="10"/>
<path d="M76.4668 60.4333V72.8333" stroke="url(#paint13_linear)" stroke-width="2" stroke-miterlimit="10"/>
<path d="M92.9995 120.367H88.8662V124.5H92.9995V120.367Z" fill="url(#paint14_linear)"/>
<path d="M82.6665 118.3H78.5332V122.433H82.6665V118.3Z" fill="url(#paint15_linear)"/>
<path d="M103.334 118.3H99.2002V122.433H103.334V118.3Z" fill="url(#paint16_linear)"/>
<path d="M70.2671 85.2333H66.1338V89.3667H70.2671V85.2333Z" fill="url(#paint17_linear)"/>
<path d="M111.6 74.9H107.467V79.0333H111.6V74.9Z" fill="url(#paint18_linear)"/>
<path d="M119.867 93.5H115.733V97.6333H119.867V93.5Z" fill="url(#paint19_linear)"/>
<path d="M117.8 83.1667H113.667V87.3H117.8V83.1667Z" fill="url(#paint20_linear)"/>
<path d="M111.6 112.1H107.467V116.233H111.6V112.1Z" fill="url(#paint21_linear)"/>
<path d="M117.8 103.833H113.667V107.967H117.8V103.833Z" fill="url(#paint22_linear)"/>
<path d="M12.3999 85.2333H8.2666V89.3667H12.3999V85.2333Z" fill="url(#paint23_linear)"/>
<path d="M20.6665 89.3667H16.5332V93.5H20.6665V89.3667Z" fill="url(#paint24_linear)"/>
<path d="M28.9331 91.4333H24.7998V95.5667H28.9331V91.4333Z" fill="url(#paint25_linear)"/>
<path d="M8.26712 76.9667H4.13379V81.1H8.26712V76.9667Z" fill="url(#paint26_linear)"/>
<path d="M6.19974 68.7H2.06641V72.8333H6.19974V68.7Z" fill="url(#paint27_linear)"/>
<path d="M12.3999 52.1667H8.2666V56.3H12.3999V52.1667Z" fill="url(#paint28_linear)"/>
<path d="M20.6665 48.0333H16.5332V52.1667H20.6665V48.0333Z" fill="url(#paint29_linear)"/>
<path d="M8.26712 60.4333H4.13379V64.5667H8.26712V60.4333Z" fill="url(#paint30_linear)"/>
<path d="M28.9331 45.9667H24.7998V50.1H28.9331V45.9667Z" fill="url(#paint31_linear)"/>
<path d="M24.8003 0.5H20.667V4.63333H24.8003V0.5Z" fill="url(#paint32_linear)"/>
<path d="M33.0669 4.63333H28.9336V8.76666H33.0669V4.63333Z" fill="url(#paint33_linear)"/>
<path d="M12.3999 12.9H8.2666V17.0333H12.3999V12.9Z" fill="url(#paint34_linear)"/>
<path d="M37.1997 12.9H33.0664V17.0333H37.1997V12.9Z" fill="url(#paint35_linear)"/>
<path d="M24.8003 25.3H20.667V29.4333H24.8003V25.3Z" fill="url(#paint36_linear)"/>
<path d="M16.5337 21.1667H12.4004V25.3H16.5337V21.1667Z" fill="url(#paint37_linear)"/>
<path d="M33.0669 21.1667H28.9336V25.3H33.0669V21.1667Z" fill="url(#paint38_linear)"/>
<path d="M16.5337 4.63333H12.4004V8.76666H16.5337V4.63333Z" fill="url(#paint39_linear)"/>
<path d="M55.7998 45.9667V47C55.7998 49.8541 58.1124 52.1667 60.9665 52.1667H67.1665C70.0205 52.1667 72.3331 49.8541 72.3331 47C72.3331 44.1459 70.0205 41.8333 67.1665 41.8333H60.9665C58.1124 41.8333 55.7998 39.5207 55.7998 36.6667C55.7998 33.8126 58.1124 31.5 60.9665 31.5H67.1665C70.0205 31.5 72.3331 33.8126 72.3331 36.6667V37.7" stroke="url(#paint40_linear)" stroke-width="2" stroke-miterlimit="10"/>
<path d="M64.0664 52.1667V58.3667" stroke="url(#paint41_linear)" stroke-width="2" stroke-miterlimit="10"/>
<path d="M64.0664 31.5V25.3" stroke="url(#paint42_linear)" stroke-width="2" stroke-miterlimit="10"/>
</g>
<defs>
<linearGradient id="paint0_linear" x1="57.0769" y1="79.205" x2="57.0907" y2="80.451" gradientUnits="userSpaceOnUse">
<stop stop-color="#A874B9"/>
<stop offset="1" stop-color="#485E8B"/>
</linearGradient>
<linearGradient id="paint1_linear" x1="57.0769" y1="22.6654" x2="62.7455" y2="47.2431" gradientUnits="userSpaceOnUse">
<stop stop-color="#A874B9"/>
<stop offset="1" stop-color="#485E8B"/>
</linearGradient>
<linearGradient id="paint2_linear" x1="39.2164" y1="105.526" x2="45.947" y2="131.042" gradientUnits="userSpaceOnUse">
<stop stop-color="#A874B9"/>
<stop offset="1" stop-color="#485E8B"/>
</linearGradient>
<linearGradient id="paint3_linear" x1="70.4718" y1="98.5921" x2="80.3038" y2="114.469" gradientUnits="userSpaceOnUse">
<stop stop-color="#A874B9"/>
<stop offset="1" stop-color="#485E8B"/>
</linearGradient>
<linearGradient id="paint4_linear" x1="36.2735" y1="110.743" x2="38.45" y2="114.695" gradientUnits="userSpaceOnUse">
<stop stop-color="#A874B9"/>
<stop offset="1" stop-color="#485E8B"/>
</linearGradient>
<linearGradient id="paint5_linear" x1="93.426" y1="50.8712" x2="102.132" y2="66.6794" gradientUnits="userSpaceOnUse">
<stop stop-color="#A874B9"/>
<stop offset="1" stop-color="#485E8B"/>
</linearGradient>
<linearGradient id="paint6_linear" x1="87.2258" y1="42.6045" x2="95.932" y2="58.4128" gradientUnits="userSpaceOnUse">
<stop stop-color="#A874B9"/>
<stop offset="1" stop-color="#485E8B"/>
</linearGradient>
<linearGradient id="paint7_linear" x1="95.4924" y1="63.2711" x2="104.199" y2="79.0794" gradientUnits="userSpaceOnUse">
<stop stop-color="#A874B9"/>
<stop offset="1" stop-color="#485E8B"/>
</linearGradient>
<linearGradient id="paint8_linear" x1="46.599" y1="50.6018" x2="79.576" y2="111.372" gradientUnits="userSpaceOnUse">
<stop stop-color="#A874B9"/>
<stop offset="1" stop-color="#485E8B"/>
</linearGradient>
<linearGradient id="paint9_linear" x1="96.4191" y1="22.4976" x2="108.651" y2="36.4108" gradientUnits="userSpaceOnUse">
<stop stop-color="#A874B9"/>
<stop offset="1" stop-color="#485E8B"/>
</linearGradient>
<linearGradient id="paint10_linear" x1="51.9427" y1="67.6975" x2="54.0267" y2="68.3078" gradientUnits="userSpaceOnUse">
<stop stop-color="#A874B9"/>
<stop offset="1" stop-color="#485E8B"/>
</linearGradient>
<linearGradient id="paint11_linear" x1="60.2093" y1="65.9856" x2="62.3679" y2="66.4597" gradientUnits="userSpaceOnUse">
<stop stop-color="#A874B9"/>
<stop offset="1" stop-color="#485E8B"/>
</linearGradient>
<linearGradient id="paint12_linear" x1="68.4759" y1="64.2736" x2="70.6709" y2="64.6593" gradientUnits="userSpaceOnUse">
<stop stop-color="#A874B9"/>
<stop offset="1" stop-color="#485E8B"/>
</linearGradient>
<linearGradient id="paint13_linear" x1="76.7425" y1="62.5617" x2="78.9577" y2="62.8861" gradientUnits="userSpaceOnUse">
<stop stop-color="#A874B9"/>
<stop offset="1" stop-color="#485E8B"/>
</linearGradient>
<linearGradient id="paint14_linear" x1="90.0059" y1="121.076" x2="92.1825" y2="125.028" gradientUnits="userSpaceOnUse">
<stop stop-color="#A874B9"/>
<stop offset="1" stop-color="#485E8B"/>
</linearGradient>
<linearGradient id="paint15_linear" x1="79.6729" y1="119.009" x2="81.8495" y2="122.962" gradientUnits="userSpaceOnUse">
<stop stop-color="#A874B9"/>
<stop offset="1" stop-color="#485E8B"/>
</linearGradient>
<linearGradient id="paint16_linear" x1="100.34" y1="119.009" x2="102.516" y2="122.962" gradientUnits="userSpaceOnUse">
<stop stop-color="#A874B9"/>
<stop offset="1" stop-color="#485E8B"/>
</linearGradient>
<linearGradient id="paint17_linear" x1="67.2735" y1="85.9428" x2="69.45" y2="89.8948" gradientUnits="userSpaceOnUse">
<stop stop-color="#A874B9"/>
<stop offset="1" stop-color="#485E8B"/>
</linearGradient>
<linearGradient id="paint18_linear" x1="108.607" y1="75.6094" x2="110.783" y2="79.5615" gradientUnits="userSpaceOnUse">
<stop stop-color="#A874B9"/>
<stop offset="1" stop-color="#485E8B"/>
</linearGradient>
<linearGradient id="paint19_linear" x1="116.873" y1="94.2095" x2="119.05" y2="98.1615" gradientUnits="userSpaceOnUse">
<stop stop-color="#A874B9"/>
<stop offset="1" stop-color="#485E8B"/>
</linearGradient>
<linearGradient id="paint20_linear" x1="114.807" y1="83.8761" x2="116.983" y2="87.8282" gradientUnits="userSpaceOnUse">
<stop stop-color="#A874B9"/>
<stop offset="1" stop-color="#485E8B"/>
</linearGradient>
<linearGradient id="paint21_linear" x1="108.607" y1="112.809" x2="110.783" y2="116.762" gradientUnits="userSpaceOnUse">
<stop stop-color="#A874B9"/>
<stop offset="1" stop-color="#485E8B"/>
</linearGradient>
<linearGradient id="paint22_linear" x1="114.807" y1="104.543" x2="116.983" y2="108.495" gradientUnits="userSpaceOnUse">
<stop stop-color="#A874B9"/>
<stop offset="1" stop-color="#485E8B"/>
</linearGradient>
<linearGradient id="paint23_linear" x1="9.40631" y1="85.9428" x2="11.5828" y2="89.8949" gradientUnits="userSpaceOnUse">
<stop stop-color="#A874B9"/>
<stop offset="1" stop-color="#485E8B"/>
</linearGradient>
<linearGradient id="paint24_linear" x1="17.6729" y1="90.0761" x2="19.8495" y2="94.0282" gradientUnits="userSpaceOnUse">
<stop stop-color="#A874B9"/>
<stop offset="1" stop-color="#485E8B"/>
</linearGradient>
<linearGradient id="paint25_linear" x1="25.9395" y1="92.1428" x2="28.1161" y2="96.0949" gradientUnits="userSpaceOnUse">
<stop stop-color="#A874B9"/>
<stop offset="1" stop-color="#485E8B"/>
</linearGradient>
<linearGradient id="paint26_linear" x1="5.2735" y1="77.6761" x2="7.45003" y2="81.6282" gradientUnits="userSpaceOnUse">
<stop stop-color="#A874B9"/>
<stop offset="1" stop-color="#485E8B"/>
</linearGradient>
<linearGradient id="paint27_linear" x1="3.20611" y1="69.4095" x2="5.38265" y2="73.3615" gradientUnits="userSpaceOnUse">
<stop stop-color="#A874B9"/>
<stop offset="1" stop-color="#485E8B"/>
</linearGradient>
<linearGradient id="paint28_linear" x1="9.40631" y1="52.8761" x2="11.5829" y2="56.8282" gradientUnits="userSpaceOnUse">
<stop stop-color="#A874B9"/>
<stop offset="1" stop-color="#485E8B"/>
</linearGradient>
<linearGradient id="paint29_linear" x1="17.6729" y1="48.7428" x2="19.8494" y2="52.6948" gradientUnits="userSpaceOnUse">
<stop stop-color="#A874B9"/>
<stop offset="1" stop-color="#485E8B"/>
</linearGradient>
<linearGradient id="paint30_linear" x1="5.2735" y1="61.1428" x2="7.45004" y2="65.0949" gradientUnits="userSpaceOnUse">
<stop stop-color="#A874B9"/>
<stop offset="1" stop-color="#485E8B"/>
</linearGradient>
<linearGradient id="paint31_linear" x1="25.9395" y1="46.6761" x2="28.1161" y2="50.6282" gradientUnits="userSpaceOnUse">
<stop stop-color="#A874B9"/>
<stop offset="1" stop-color="#485E8B"/>
</linearGradient>
<linearGradient id="paint32_linear" x1="21.8067" y1="1.20945" x2="23.9832" y2="5.16152" gradientUnits="userSpaceOnUse">
<stop stop-color="#A874B9"/>
<stop offset="1" stop-color="#485E8B"/>
</linearGradient>
<linearGradient id="paint33_linear" x1="30.0733" y1="5.34278" x2="32.2498" y2="9.29485" gradientUnits="userSpaceOnUse">
<stop stop-color="#A874B9"/>
<stop offset="1" stop-color="#485E8B"/>
</linearGradient>
<linearGradient id="paint34_linear" x1="9.40631" y1="13.6094" x2="11.5828" y2="17.5615" gradientUnits="userSpaceOnUse">
<stop stop-color="#A874B9"/>
<stop offset="1" stop-color="#485E8B"/>
</linearGradient>
<linearGradient id="paint35_linear" x1="34.2061" y1="13.6094" x2="36.3827" y2="17.5615" gradientUnits="userSpaceOnUse">
<stop stop-color="#A874B9"/>
<stop offset="1" stop-color="#485E8B"/>
</linearGradient>
<linearGradient id="paint36_linear" x1="21.8067" y1="26.0095" x2="23.9832" y2="29.9615" gradientUnits="userSpaceOnUse">
<stop stop-color="#A874B9"/>
<stop offset="1" stop-color="#485E8B"/>
</linearGradient>
<linearGradient id="paint37_linear" x1="13.5401" y1="21.8761" x2="15.7166" y2="25.8282" gradientUnits="userSpaceOnUse">
<stop stop-color="#A874B9"/>
<stop offset="1" stop-color="#485E8B"/>
</linearGradient>
<linearGradient id="paint38_linear" x1="30.0733" y1="21.8761" x2="32.2498" y2="25.8282" gradientUnits="userSpaceOnUse">
<stop stop-color="#A874B9"/>
<stop offset="1" stop-color="#485E8B"/>
</linearGradient>
<linearGradient id="paint39_linear" x1="13.5401" y1="5.34278" x2="15.7166" y2="9.29485" gradientUnits="userSpaceOnUse">
<stop stop-color="#A874B9"/>
<stop offset="1" stop-color="#485E8B"/>
</linearGradient>
<linearGradient id="paint40_linear" x1="60.3586" y1="35.0473" x2="72.3874" y2="52.5203" gradientUnits="userSpaceOnUse">
<stop stop-color="#A874B9"/>
<stop offset="1" stop-color="#485E8B"/>
</linearGradient>
<linearGradient id="paint41_linear" x1="64.3421" y1="53.2308" x2="66.4261" y2="53.8412" gradientUnits="userSpaceOnUse">
<stop stop-color="#A874B9"/>
<stop offset="1" stop-color="#485E8B"/>
</linearGradient>
<linearGradient id="paint42_linear" x1="64.3421" y1="26.3642" x2="66.4261" y2="26.9745" gradientUnits="userSpaceOnUse">
<stop stop-color="#A874B9"/>
<stop offset="1" stop-color="#485E8B"/>
</linearGradient>
<clipPath id="clip0">
<rect width="124" height="124" fill="white" transform="translate(0 0.5)"/>
</clipPath>
</defs>
</svg>
