<svg width="60" height="60" viewBox="0 0 60 60" fill="none" xmlns="http://www.w3.org/2000/svg">
<path d="M54 57H6C3.791 57 2 55.209 2 53V51H58V53C58 55.209 56.209 57 54 57Z" stroke="url(#paint0_linear)" stroke-width="2" stroke-miterlimit="10"/>
<path d="M54 54V57" stroke="url(#paint1_linear)" stroke-width="2" stroke-miterlimit="10"/>
<path d="M50 54V57" stroke="url(#paint2_linear)" stroke-width="2" stroke-miterlimit="10"/>
<path d="M46 54V57" stroke="url(#paint3_linear)" stroke-width="2" stroke-miterlimit="10"/>
<path d="M6 51V27C6 24.791 7.791 23 10 23H50C52.209 23 54 24.791 54 27V51" stroke="url(#paint4_linear)" stroke-width="2" stroke-miterlimit="10"/>
<path d="M26 48V26" stroke="url(#paint5_linear)" stroke-width="2" stroke-miterlimit="10"/>
<path d="M30 29V26" stroke="url(#paint6_linear)" stroke-width="2" stroke-miterlimit="10"/>
<path d="M23 45H32.5C34.985 45 37 42.985 37 40.5C37 38.015 34.985 36 32.5 36H26" stroke="url(#paint7_linear)" stroke-width="2" stroke-miterlimit="10"/>
<path d="M23 29H31.5C33.433 29 35 30.567 35 32.5C35 34.433 33.433 36 31.5 36" stroke="url(#paint8_linear)" stroke-width="2" stroke-miterlimit="10"/>
<path d="M30 45V48" stroke="url(#paint9_linear)" stroke-width="2" stroke-miterlimit="10"/>
<path d="M17 30C17.5523 30 18 29.5523 18 29C18 28.4477 17.5523 28 17 28C16.4477 28 16 28.4477 16 29C16 29.5523 16.4477 30 17 30Z" stroke="url(#paint10_linear)" stroke-width="2" stroke-miterlimit="10"/>
<path d="M11 38C11.5523 38 12 37.5523 12 37C12 36.4477 11.5523 36 11 36C10.4477 36 10 36.4477 10 37C10 37.5523 10.4477 38 11 38Z" stroke="url(#paint11_linear)" stroke-width="2" stroke-miterlimit="10"/>
<path d="M49 37C49.5523 37 50 36.5523 50 36C50 35.4477 49.5523 35 49 35C48.4477 35 48 35.4477 48 36C48 36.5523 48.4477 37 49 37Z" stroke="url(#paint12_linear)" stroke-width="2" stroke-miterlimit="10"/>
<path d="M45 42C45.5523 42 46 41.5523 46 41C46 40.4477 45.5523 40 45 40C44.4477 40 44 40.4477 44 41C44 41.5523 44.4477 42 45 42Z" stroke="url(#paint13_linear)" stroke-width="2" stroke-miterlimit="10"/>
<path d="M44 41H40" stroke="url(#paint14_linear)" stroke-width="2" stroke-miterlimit="10"/>
<path d="M48.294 35.294L45 32H42" stroke="url(#paint15_linear)" stroke-width="2" stroke-miterlimit="10"/>
<path d="M40 32H38" stroke="url(#paint16_linear)" stroke-width="2" stroke-miterlimit="10"/>
<path d="M17.707 29.707L21 33V36" stroke="url(#paint17_linear)" stroke-width="2" stroke-miterlimit="10"/>
<path d="M21 38V40" stroke="url(#paint18_linear)" stroke-width="2" stroke-miterlimit="10"/>
<path d="M11 38V42H19" stroke="url(#paint19_linear)" stroke-width="2" stroke-miterlimit="10"/>
<path d="M13.263 22.996C13.09 22.024 13 21.022 13 20C13 10.611 20.611 3 30 3C39.389 3 47 10.611 47 20C47 21.024 46.91 22.026 46.736 23" stroke="url(#paint20_linear)" stroke-width="2" stroke-miterlimit="10"/>
<path d="M9.91504 13.851C11.008 10.275 13.031 7.104 15.701 4.621" stroke="url(#paint21_linear)" stroke-width="2" stroke-miterlimit="10"/>
<path d="M50.918 18.127C50.972 18.744 51 19.369 51 20" stroke="url(#paint22_linear)" stroke-width="2" stroke-miterlimit="10"/>
<path d="M44.2529 4.577C47.4429 7.527 49.7159 11.454 50.5969 15.883" stroke="url(#paint23_linear)" stroke-width="2" stroke-miterlimit="10"/>
<path d="M13.3311 16.646L15.6201 18.115C16.4801 18.667 17.0001 19.618 17.0001 20.64V23" stroke="url(#paint24_linear)" stroke-width="2" stroke-miterlimit="10"/>
<path d="M20.7296 5.748L25.6796 8.315C26.4906 8.736 26.9996 9.574 26.9996 10.488C26.9996 11.415 26.4756 12.262 25.6466 12.677C24.0246 13.488 22.9996 15.146 22.9996 16.96C22.9996 18.283 22.5636 19.569 21.7586 20.62L19.9326 23" stroke="url(#paint25_linear)" stroke-width="2" stroke-miterlimit="10"/>
<path d="M37.266 4.627L35.391 7.419C35.136 7.798 35 8.244 35 8.7C35 9.97 36.03 11 37.299 11H40" stroke="url(#paint26_linear)" stroke-width="2" stroke-miterlimit="10"/>
<path d="M37.5 11L36.771 12.943C36.307 14.18 35.123 15 33.802 15C32.807 15 32 15.807 32 16.802C32 17.59 32.513 18.287 33.265 18.522L37.324 19.789C37.761 19.925 38.138 20.208 38.392 20.589L40 23" stroke="url(#paint27_linear)" stroke-width="2" stroke-miterlimit="10"/>
<defs>
<linearGradient id="paint0_linear" x1="17.4412" y1="52.0299" x2="17.8808" y2="59.4808" gradientUnits="userSpaceOnUse">
<stop stop-color="#A874B9"/>
<stop offset="1" stop-color="#485E8B"/>
</linearGradient>
<linearGradient id="paint1_linear" x1="54.2757" y1="54.5149" x2="55.9318" y2="55.5173" gradientUnits="userSpaceOnUse">
<stop stop-color="#A874B9"/>
<stop offset="1" stop-color="#485E8B"/>
</linearGradient>
<linearGradient id="paint2_linear" x1="50.2757" y1="54.5149" x2="51.9318" y2="55.5173" gradientUnits="userSpaceOnUse">
<stop stop-color="#A874B9"/>
<stop offset="1" stop-color="#485E8B"/>
</linearGradient>
<linearGradient id="paint3_linear" x1="46.2757" y1="54.5149" x2="47.9318" y2="55.5173" gradientUnits="userSpaceOnUse">
<stop stop-color="#A874B9"/>
<stop offset="1" stop-color="#485E8B"/>
</linearGradient>
<linearGradient id="paint4_linear" x1="19.2353" y1="27.806" x2="29.3962" y2="59.434" gradientUnits="userSpaceOnUse">
<stop stop-color="#A874B9"/>
<stop offset="1" stop-color="#485E8B"/>
</linearGradient>
<linearGradient id="paint5_linear" x1="26.2757" y1="29.7761" x2="28.5231" y2="29.9616" gradientUnits="userSpaceOnUse">
<stop stop-color="#A874B9"/>
<stop offset="1" stop-color="#485E8B"/>
</linearGradient>
<linearGradient id="paint6_linear" x1="30.2757" y1="26.5149" x2="31.9318" y2="27.5173" gradientUnits="userSpaceOnUse">
<stop stop-color="#A874B9"/>
<stop offset="1" stop-color="#485E8B"/>
</linearGradient>
<linearGradient id="paint7_linear" x1="26.8603" y1="37.5448" x2="30.3887" y2="47.5109" gradientUnits="userSpaceOnUse">
<stop stop-color="#A874B9"/>
<stop offset="1" stop-color="#485E8B"/>
</linearGradient>
<linearGradient id="paint8_linear" x1="26.3088" y1="30.2015" x2="28.849" y2="38.1085" gradientUnits="userSpaceOnUse">
<stop stop-color="#A874B9"/>
<stop offset="1" stop-color="#485E8B"/>
</linearGradient>
<linearGradient id="paint9_linear" x1="30.2757" y1="45.5149" x2="31.9318" y2="46.5173" gradientUnits="userSpaceOnUse">
<stop stop-color="#A874B9"/>
<stop offset="1" stop-color="#485E8B"/>
</linearGradient>
<linearGradient id="paint10_linear" x1="16.5515" y1="28.3433" x2="17.6046" y2="30.2556" gradientUnits="userSpaceOnUse">
<stop stop-color="#A874B9"/>
<stop offset="1" stop-color="#485E8B"/>
</linearGradient>
<linearGradient id="paint11_linear" x1="10.5515" y1="36.3433" x2="11.6046" y2="38.2556" gradientUnits="userSpaceOnUse">
<stop stop-color="#A874B9"/>
<stop offset="1" stop-color="#485E8B"/>
</linearGradient>
<linearGradient id="paint12_linear" x1="48.5515" y1="35.3433" x2="49.6046" y2="37.2556" gradientUnits="userSpaceOnUse">
<stop stop-color="#A874B9"/>
<stop offset="1" stop-color="#485E8B"/>
</linearGradient>
<linearGradient id="paint13_linear" x1="44.5515" y1="40.3433" x2="45.6046" y2="42.2556" gradientUnits="userSpaceOnUse">
<stop stop-color="#A874B9"/>
<stop offset="1" stop-color="#485E8B"/>
</linearGradient>
<linearGradient id="paint14_linear" x1="41.1029" y1="41.1716" x2="41.2713" y2="42.3946" gradientUnits="userSpaceOnUse">
<stop stop-color="#A874B9"/>
<stop offset="1" stop-color="#485E8B"/>
</linearGradient>
<linearGradient id="paint15_linear" x1="43.7355" y1="32.5654" x2="44.8279" y2="36.3554" gradientUnits="userSpaceOnUse">
<stop stop-color="#A874B9"/>
<stop offset="1" stop-color="#485E8B"/>
</linearGradient>
<linearGradient id="paint16_linear" x1="38.5515" y1="32.1716" x2="38.8704" y2="33.33" gradientUnits="userSpaceOnUse">
<stop stop-color="#A874B9"/>
<stop offset="1" stop-color="#485E8B"/>
</linearGradient>
<linearGradient id="paint17_linear" x1="18.615" y1="30.7871" x2="22.5309" y2="34.5078" gradientUnits="userSpaceOnUse">
<stop stop-color="#A874B9"/>
<stop offset="1" stop-color="#485E8B"/>
</linearGradient>
<linearGradient id="paint18_linear" x1="21.2757" y1="38.3433" x2="22.5161" y2="39.4694" gradientUnits="userSpaceOnUse">
<stop stop-color="#A874B9"/>
<stop offset="1" stop-color="#485E8B"/>
</linearGradient>
<linearGradient id="paint19_linear" x1="13.2059" y1="38.6866" x2="14.4817" y2="43.3199" gradientUnits="userSpaceOnUse">
<stop stop-color="#A874B9"/>
<stop offset="1" stop-color="#485E8B"/>
</linearGradient>
<linearGradient id="paint20_linear" x1="22.375" y1="6.43284" x2="29.6822" y2="28.9886" gradientUnits="userSpaceOnUse">
<stop stop-color="#A874B9"/>
<stop offset="1" stop-color="#485E8B"/>
</linearGradient>
<linearGradient id="paint21_linear" x1="11.5104" y1="6.20526" x2="17.2136" y2="12.6968" gradientUnits="userSpaceOnUse">
<stop stop-color="#A874B9"/>
<stop offset="1" stop-color="#485E8B"/>
</linearGradient>
<linearGradient id="paint22_linear" x1="50.9406" y1="18.4485" x2="51.125" y2="18.4631" gradientUnits="userSpaceOnUse">
<stop stop-color="#A874B9"/>
<stop offset="1" stop-color="#485E8B"/>
</linearGradient>
<linearGradient id="paint23_linear" x1="46.0022" y1="6.51759" x2="53.0455" y2="13.6937" gradientUnits="userSpaceOnUse">
<stop stop-color="#A874B9"/>
<stop offset="1" stop-color="#485E8B"/>
</linearGradient>
<linearGradient id="paint24_linear" x1="14.3427" y1="17.7366" x2="18.2973" y2="21.8829" gradientUnits="userSpaceOnUse">
<stop stop-color="#A874B9"/>
<stop offset="1" stop-color="#485E8B"/>
</linearGradient>
<linearGradient id="paint25_linear" x1="21.8812" y1="8.70916" x2="32.1763" y2="16.3666" gradientUnits="userSpaceOnUse">
<stop stop-color="#A874B9"/>
<stop offset="1" stop-color="#485E8B"/>
</linearGradient>
<linearGradient id="paint26_linear" x1="36.3787" y1="5.72087" x2="40.1133" y2="11.0411" gradientUnits="userSpaceOnUse">
<stop stop-color="#A874B9"/>
<stop offset="1" stop-color="#485E8B"/>
</linearGradient>
<linearGradient id="paint27_linear" x1="34.2059" y1="13.0597" x2="41.5484" y2="21.9479" gradientUnits="userSpaceOnUse">
<stop stop-color="#A874B9"/>
<stop offset="1" stop-color="#485E8B"/>
</linearGradient>
</defs>
</svg>
