<svg width="19" height="18" viewBox="0 0 19 18" fill="none" xmlns="http://www.w3.org/2000/svg">
<g clip-path="url(#clip0)">
<path d="M16.75 14.25H12.25V11.25H10.24C9.385 13.065 7.54 14.25 5.5 14.25C2.605 14.25 0.25 11.895 0.25 9C0.25 6.105 2.605 3.75 5.5 3.75C7.54 3.75 9.3775 4.935 10.24 6.75H18.25V11.25H16.75V14.25ZM13.75 12.75H15.25V9.75H16.75V8.25H9.205L9.0325 7.7475C8.5075 6.255 7.0825 5.25 5.5 5.25C3.43 5.25 1.75 6.93 1.75 9C1.75 11.07 3.43 12.75 5.5 12.75C7.0825 12.75 8.5075 11.745 9.0325 10.2525L9.205 9.75H13.75V12.75ZM5.5 11.25C4.2625 11.25 3.25 10.2375 3.25 9C3.25 7.7625 4.2625 6.75 5.5 6.75C6.7375 6.75 7.75 7.7625 7.75 9C7.75 10.2375 6.7375 11.25 5.5 11.25ZM5.5 8.25C5.0875 8.25 4.75 8.5875 4.75 9C4.75 9.4125 5.0875 9.75 5.5 9.75C5.9125 9.75 6.25 9.4125 6.25 9C6.25 8.5875 5.9125 8.25 5.5 8.25Z" fill="url(#paint0_linear)"/>
</g>
<defs>
<linearGradient id="paint0_linear" x1="5.21324" y1="5.55224" x2="9.02356" y2="17.4127" gradientUnits="userSpaceOnUse">
<stop stop-color="#A874B9"/>
<stop offset="1" stop-color="#485E8B"/>
</linearGradient>
<clipPath id="clip0">
<rect width="18" height="18" fill="white" transform="translate(0.25)"/>
</clipPath>
</defs>
</svg>
