<svg width="32" height="32" viewBox="0 0 32 32" fill="none" xmlns="http://www.w3.org/2000/svg">
<path d="M14.667 24H17.3337V21.3333H14.667V24ZM16.0003 2.66666C8.64033 2.66666 2.66699 8.63999 2.66699 16C2.66699 23.36 8.64033 29.3333 16.0003 29.3333C23.3603 29.3333 29.3337 23.36 29.3337 16C29.3337 8.63999 23.3603 2.66666 16.0003 2.66666ZM16.0003 26.6667C10.1203 26.6667 5.33366 21.88 5.33366 16C5.33366 10.12 10.1203 5.33332 16.0003 5.33332C21.8803 5.33332 26.667 10.12 26.667 16C26.667 21.88 21.8803 26.6667 16.0003 26.6667ZM16.0003 7.99999C13.0537 7.99999 10.667 10.3867 10.667 13.3333H13.3337C13.3337 11.8667 14.5337 10.6667 16.0003 10.6667C17.467 10.6667 18.667 11.8667 18.667 13.3333C18.667 16 14.667 15.6667 14.667 20H17.3337C17.3337 17 21.3337 16.6667 21.3337 13.3333C21.3337 10.3867 18.947 7.99999 16.0003 7.99999Z" fill="url(#paint0_linear)"/>
<defs>
<linearGradient id="paint0_linear" x1="10.0199" y1="7.24377" x2="24.0621" y2="32.741" gradientUnits="userSpaceOnUse">
<stop stop-color="#A874B9"/>
<stop offset="1" stop-color="#485E8B"/>
</linearGradient>
</defs>
</svg>
