<svg width="25" height="24" viewBox="0 0 25 24" fill="none" xmlns="http://www.w3.org/2000/svg">
<path d="M0.5 12C0.5 5.37258 5.87258 0 12.5 0V0C19.1274 0 24.5 5.37258 24.5 12V12C24.5 18.6274 19.1274 24 12.5 24V24C5.87258 24 0.5 18.6274 0.5 12V12Z" fill="#F0B90B"/>
<path d="M12.4777 4.6792L14.2861 6.53118L9.73238 11.0849L7.92398 9.27646L12.4777 4.6792Z" fill="white"/>
<path d="M15.2229 7.42448L17.0313 9.27646L9.73238 16.5754L7.92398 14.767L15.2229 7.42448Z" fill="white"/>
<path d="M6.98711 10.1698L8.79551 12.0217L6.98711 13.8301L5.17871 12.0217L6.98711 10.1698Z" fill="white"/>
<path d="M17.9683 10.1698L19.7767 12.0217L12.4777 19.3207L10.6693 17.5123L17.9683 10.1698Z" fill="white"/>
</svg>
