<svg width="25" height="24" viewBox="0 0 25 24" fill="none" xmlns="http://www.w3.org/2000/svg">
<path d="M0.5 12C0.5 5.37258 5.87258 0 12.5 0V0C19.1274 0 24.5 5.37258 24.5 12V12C24.5 18.6274 19.1274 24 12.5 24V24C5.87258 24 0.5 18.6274 0.5 12V12Z" fill="#988430"/>
<path fill-rule="evenodd" clip-rule="evenodd" d="M14.5321 5.81128C14.5321 5.81128 17.2813 6.34334 18.3934 9.21522C18.3934 9.21522 19.9858 12.9929 17.6264 16.3416C17.6264 16.3416 16.153 18.1886 14.315 18.1886H6.68848V15.2687H8.28089V8.73654H6.71886L6.68859 5.81128H14.5321ZM14.3559 14.3736C14.3559 14.3736 13.7577 15.2366 13.1068 15.2366H11.8048L11.774 8.74369H13.4449C13.4449 8.74369 14.219 8.90556 14.7599 10.4376C14.7599 10.4376 15.4769 12.631 14.3559 14.3736Z" fill="white"/>
</svg>
