<svg width="25" height="24" viewBox="0 0 25 24" fill="none" xmlns="http://www.w3.org/2000/svg">
<path d="M0.5 12C0.5 5.37258 5.87258 0 12.5 0V0C19.1274 0 24.5 5.37258 24.5 12V12C24.5 18.6274 19.1274 24 12.5 24V24C5.87258 24 0.5 18.6274 0.5 12V12Z" fill="#345D9D"/>
<path fill-rule="evenodd" clip-rule="evenodd" d="M11.2627 16.7446L12.4286 12.8133L14.2452 12.2981L14.6247 10.9967L12.8353 11.539L14.7332 5.08609V4.98306C14.7304 4.89963 14.6945 4.82075 14.6334 4.76379C14.5724 4.70683 14.4913 4.67647 14.4078 4.6794H11.9948C11.8068 4.6736 11.6391 4.79661 11.5881 4.97764L9.33774 12.6235L7.54829 13.1657L7.1416 14.4129L8.93105 13.8707L7.33139 19.3204H16.8751C17.0637 19.3282 17.2325 19.2043 17.2818 19.0221L17.824 17.1513V17.0483C17.8212 16.9649 17.7853 16.886 17.7243 16.829C17.6633 16.7721 17.5821 16.7417 17.4987 16.7446H11.2627Z" fill="white"/>
</svg>
