<svg width="25" height="24" viewBox="0 0 25 24" fill="none" xmlns="http://www.w3.org/2000/svg">
<path d="M0.5 12C0.5 5.37258 5.87258 0 12.5 0V0C19.1274 0 24.5 5.37258 24.5 12V12C24.5 18.6274 19.1274 24 12.5 24V24C5.87258 24 0.5 18.6274 0.5 12V12Z" fill="#FC070C"/>
<path fill-rule="evenodd" clip-rule="evenodd" d="M19.622 8.94301C19.3217 8.66573 18.9736 8.32768 18.6108 7.97541C18.1012 7.48063 17.5626 6.95775 17.0874 6.53596L17.0393 6.50226C16.9592 6.43794 16.8689 6.38749 16.7721 6.35302L16.4053 6.28459C13.8745 5.81237 5.67099 4.28168 5.50223 4.30221C5.45232 4.3092 5.40462 4.32729 5.36262 4.35516L5.31689 4.39127C5.26058 4.44846 5.2178 4.51755 5.19172 4.59346L5.17969 4.62475V4.82213C5.73664 6.37298 7.18343 9.83639 8.51931 13.0343L8.51942 13.0346L8.51954 13.0348C9.64883 15.7382 10.6989 18.2519 11.0649 19.2597L11.0651 19.2601C11.1133 19.4094 11.2047 19.693 11.3755 19.7074H11.414C11.5054 19.7074 11.8954 19.1923 11.8954 19.1923C11.8954 19.1923 18.8662 10.7387 19.5715 9.83844C19.6628 9.72755 19.7434 9.60827 19.8122 9.4822C19.8479 9.28154 19.7757 9.07686 19.622 8.94301ZM16.659 7.46027L13.6838 9.9275L18.4041 9.06818L16.659 7.46027ZM12.5284 9.76623L7.40622 5.56832L15.6937 7.0968L12.5284 9.76623ZM18.2332 10.0214L12.9906 10.8663L12.2396 17.2426L18.2332 10.0214ZM6.71058 5.98715L12.1 10.5606L11.3201 17.2474L6.71058 5.98715Z" fill="white"/>
</svg>
