<svg width="34" height="24" viewBox="0 0 34 24" fill="none" xmlns="http://www.w3.org/2000/svg">
<path fill-rule="evenodd" clip-rule="evenodd" d="M0 12C0 5.37258 5.37258 0 12 0C15.6065 0 18.8413 1.59095 21.0411 4.10932C19.9092 4.71207 18.9137 5.53716 18.1128 6.5263V5H5.9016V8.04195H10.3859V10.036C6.74104 10.2064 4 10.9412 4 11.8218C4 12.7024 6.74104 13.4365 10.3859 13.6077V20H13.627V13.6054C14.4908 13.5649 15.3039 13.4926 16.0415 13.3941C16.3224 16.403 18.0066 19.0044 20.4329 20.5373C18.2656 22.6783 15.2872 24 12 24C5.37258 24 0 18.6274 0 12ZM16.2112 10.4986C16.0866 11.0794 16.0152 11.68 16.0021 12.295C16.0007 12.3631 16 12.4314 16 12.5C16 12.6205 16.0023 12.7404 16.0067 12.8598C15.292 12.954 14.4878 13.0236 13.6247 13.0625L13.6277 13.0633C13.5368 13.0702 13.0671 13.0988 12.0193 13.0988C11.1859 13.0988 10.5943 13.0733 10.3867 13.0633C7.16605 12.9191 4.76216 12.3485 4.76216 11.6653C4.76216 10.9821 7.16605 10.4123 10.3867 10.2658V12.495C10.5973 12.5105 11.2003 12.5466 12.0337 12.5466C13.0337 12.5466 13.5345 12.5042 13.6247 12.4957V10.2673C14.571 10.3102 15.4467 10.39 16.2112 10.4986ZM16.2613 10.278C16.2851 10.1786 16.3105 10.0799 16.3374 9.98171C16.3595 9.90112 16.3826 9.821 16.4068 9.74128C16.5864 9.14823 16.8225 8.57971 17.1088 8.04195H13.6277V10.0361C13.6274 10.036 13.6272 10.036 13.627 10.036L13.6277 10.0367V10.0361C14.5781 10.0808 15.4669 10.1639 16.2613 10.278Z" fill="#50AF95"/>
<path d="M25.8252 11.5655L28.4359 9.36388L23.4648 8.44708C23.6133 8.92666 23.7325 9.41915 23.8203 9.92245L25.8252 11.5655Z" fill="#FC070C"/>
<path d="M29.2331 9.6637L26.7793 11.6986L30.6724 10.9898L29.2331 9.6637Z" fill="#FC070C"/>
<path d="M30.5312 11.776L26.2072 12.4728L25.5879 17.7317L30.5312 11.776Z" fill="#FC070C"/>
<path d="M23.4658 8.44711L21.6016 8.10327L23.8213 9.92247C23.7335 9.41918 23.6142 8.92668 23.4658 8.44711Z" fill="#FC070C"/>
<path fill-rule="evenodd" clip-rule="evenodd" d="M21.7836 5.04956C19.6454 6.06466 18 7.94908 17.3041 10.2461C17.2826 10.3172 17.2619 10.3886 17.2423 10.4605C17.0615 11.1194 16.9584 11.8104 16.9433 12.5231C16.942 12.5838 16.9414 12.6447 16.9414 12.7059C16.9414 12.8214 16.9437 12.9365 16.9483 13.0509C17.0652 15.9684 18.6577 18.506 20.9997 19.938C22.2848 20.7236 23.7955 21.1765 25.412 21.1765C30.0902 21.1765 33.8826 17.384 33.8826 12.7059C33.8826 8.02771 30.0902 4.23529 25.412 4.23529C24.1136 4.23529 22.8834 4.52743 21.7836 5.04956ZM20.031 7.05896C19.9898 7.06475 19.9504 7.07964 19.9158 7.10266L19.8781 7.13244C19.8316 7.1796 19.7963 7.23663 19.7749 7.29917L19.7649 7.32501V7.48778C20.2243 8.76691 21.4175 11.6234 22.5194 14.2609C22.7832 14.8926 23.0419 15.5117 23.2839 16.0936C23.8963 17.5657 24.4025 18.7997 24.6189 19.3955C24.6587 19.5186 24.7342 19.7528 24.875 19.7647H24.9068C24.9823 19.7647 25.3039 19.3398 25.3039 19.3398C25.3039 19.3398 31.0532 12.3676 31.6348 11.6251C31.7102 11.5336 31.7767 11.4353 31.8334 11.3313C31.8628 11.1658 31.8033 10.997 31.6766 10.8866C31.4289 10.6579 31.1417 10.3791 30.8425 10.0885L30.8419 10.088C30.4217 9.68004 29.9779 9.24903 29.5861 8.90131L29.5463 8.8735C29.4803 8.82049 29.4058 8.77884 29.326 8.75047L29.0235 8.694C27.8676 8.47835 25.2771 7.99496 23.1716 7.60941C21.4749 7.29868 20.0931 7.05144 20.031 7.05896Z" fill="#FC070C"/>
<path fill-rule="evenodd" clip-rule="evenodd" d="M21.8422 4.81427C19.704 5.82937 18.0586 7.71379 17.3627 10.0108C17.3412 10.0819 17.3205 10.1533 17.3008 10.2252C17.1201 10.8841 17.017 11.5751 17.0019 12.2878C17.0006 12.3485 17 12.4095 17 12.4706C17 12.5861 17.0023 12.7012 17.0069 12.8156C17.1238 15.7331 18.7163 18.2708 21.0583 19.7027C22.3434 20.4884 23.8541 20.9412 25.4706 20.9412C30.1488 20.9412 33.9412 17.1488 33.9412 12.4706C33.9412 7.79242 30.1488 4 25.4706 4C24.1722 4 22.942 4.29214 21.8422 4.81427ZM20.0896 6.82367C20.0484 6.82946 20.009 6.84435 19.9744 6.86737L19.9367 6.89715C19.8902 6.94431 19.8549 7.00134 19.8335 7.06388L19.8235 7.08972V7.25249C20.2829 8.53162 21.4761 11.3881 22.578 14.0256C22.8418 14.6573 23.1004 15.2764 23.3425 15.8583C23.9548 17.3304 24.4611 18.5644 24.6775 19.1602C24.7173 19.2833 24.7928 19.5175 24.9336 19.5294H24.9654C25.0408 19.5294 25.3624 19.1045 25.3624 19.1045C25.3624 19.1045 31.1118 12.1323 31.6934 11.3898C31.7688 11.2983 31.8352 11.2 31.892 11.096C31.9214 10.9305 31.8619 10.7617 31.7352 10.6513C31.4875 10.4226 31.2003 10.1438 30.9011 9.85325L30.9004 9.85268C30.4803 9.44475 30.0364 9.01374 29.6447 8.66602L29.6049 8.63821C29.5389 8.5852 29.4644 8.54355 29.3846 8.51518L29.0821 8.45871C27.9262 8.24306 25.3357 7.75967 23.2302 7.37412C21.5335 7.06339 20.1517 6.81615 20.0896 6.82367Z" fill="#FC070C"/>
<path d="M21.0273 8.44873L23.6551 14.868L24.8292 17.7358L25.4724 12.2207L23.9531 10.9315L21.0273 8.44873Z" fill="#FC070C"/>
</svg>
