<svg width="25" height="24" viewBox="0 0 25 24" fill="none" xmlns="http://www.w3.org/2000/svg">
<path d="M0.5 12C0.5 5.37258 5.87258 0 12.5 0V0C19.1274 0 24.5 5.37258 24.5 12V12C24.5 18.6274 19.1274 24 12.5 24V24C5.87258 24 0.5 18.6274 0.5 12V12Z" fill="#393959"/>
<path d="M6.3945 12.8054C6.35943 12.5379 6.34178 12.2684 6.34167 11.9986C6.34309 10.9221 6.62571 9.8647 7.16154 8.93107C7.69737 7.99745 8.46781 7.22 9.39655 6.67575C10.3253 6.1315 11.3801 5.83933 12.4565 5.82817C13.5329 5.81702 14.5935 6.08727 15.5334 6.61215L16.9462 5.89215C15.82 5.07471 14.4896 4.58458 13.1023 4.47592C11.7149 4.36727 10.3245 4.64432 9.0847 5.27647C7.84494 5.90861 6.80409 6.87123 6.0772 8.05793C5.35031 9.24463 4.96568 10.6092 4.96583 12.0008C4.96583 12.193 4.97312 12.3845 4.98771 12.5752C5.00815 12.8452 4.94826 13.1153 4.81558 13.3514C4.68289 13.5874 4.48335 13.779 4.24205 13.902L3.59375 14.2325V15.7744L21.4322 6.68461V5.14347L6.3945 12.8054Z" fill="white"/>
<path d="M21.4322 8.22725L7.35073 15.3971L3.59375 17.3125V18.8529L18.6353 11.1888C18.6704 11.458 18.688 11.7293 18.6881 12.0008C18.6874 13.0785 18.4049 14.1373 17.8685 15.0721C17.3322 16.0069 16.5607 16.7851 15.6306 17.3295C14.7005 17.8739 13.6442 18.1656 12.5665 18.1756C11.4889 18.1856 10.4274 17.9136 9.48733 17.3865L9.41186 17.4265L8.07903 18.1057C9.20501 18.9232 10.5351 19.4135 11.9222 19.5224C13.3094 19.6313 14.6997 19.3546 15.9394 18.7229C17.1792 18.0912 18.2202 17.1291 18.9474 15.9428C19.6746 14.7565 20.0597 13.3923 20.0602 12.0008C20.0602 11.8069 20.0526 11.6129 20.0383 11.4212C20.0179 11.1513 20.0777 10.8813 20.2102 10.6452C20.3428 10.4092 20.5421 10.2176 20.7832 10.0944L21.4322 9.76385V8.22725Z" fill="white"/>
</svg>
