<svg width="720" height="405" viewBox="0 0 720 405" fill="none" xmlns="http://www.w3.org/2000/svg">
<path d="M653.568 402.324H655.068V400.824V22.2C655.068 10.7677 645.8 1.5 634.368 1.5H85.2479C73.8156 1.5 64.5479 10.7677 64.5479 22.2V400.824V402.324H66.0479H653.568Z" fill="white" stroke="#E8EBEE" stroke-width="3"/>
<ellipse cx="363.263" cy="15.288" rx="3.07198" ry="3.072" fill="#D3D7DC"/>
<path d="M0.383789 398.136H720L710.005 402.068C706.289 403.53 702.331 404.28 698.338 404.28H19.6145C14.0878 404.28 8.65614 402.843 3.85259 400.11L0.383789 398.136Z" fill="#E8EBEE"/>
<path d="M1.53613 398.136H718.08L707.121 401.518C704.076 402.458 700.908 402.936 697.721 402.936H19.0794C14.6022 402.936 10.1751 401.993 6.08676 400.168L1.53613 398.136Z" fill="white"/>
<path d="M0 389.688C0 387.991 1.37538 386.616 3.072 386.616H716.544C718.241 386.616 719.616 387.991 719.616 389.688V398.136H0V389.688Z" fill="#E8EBEE"/>
<path d="M1.53613 390.072C1.53613 389.224 2.22382 388.536 3.07213 388.536H716.544C717.392 388.536 718.08 389.224 718.08 390.072V396.984H1.53613V390.072Z" fill="white"/>
<path d="M308.352 386.616H411.648V387C411.648 391.242 408.209 394.68 403.968 394.68H316.032C311.79 394.68 308.352 391.242 308.352 387V386.616Z" fill="#E8EBEE"/>
<mask id="mask0" style="mask-type:alpha" maskUnits="userSpaceOnUse" x="83" y="25" width="554" height="346">
<rect x="83.3281" y="25.272" width="552.96" height="345.6" fill="#C4C4C4"/>
</mask>
<g mask="url(#mask0)">
<path d="M83.3281 25.272H636.288V370.872H83.3281V25.272Z" fill="#F4F5F5"/>
<path fill-rule="evenodd" clip-rule="evenodd" d="M356.772 190.714C356.309 190.436 355.731 190.428 355.261 190.695C354.791 190.961 354.5 191.46 354.5 192V204C354.5 204.54 354.791 205.039 355.261 205.305C355.731 205.572 356.309 205.564 356.772 205.286L366.772 199.286C367.224 199.015 367.5 198.527 367.5 198C367.5 197.473 367.224 196.985 366.772 196.714L356.772 190.714ZM363.085 198L357.5 201.351V194.649L363.085 198Z" fill="url(#paint0_linear)"/>
<path fill-rule="evenodd" clip-rule="evenodd" d="M370.062 183.283C363.364 182.759 356.636 182.759 349.939 183.283L345.458 183.633C342.732 183.846 340.503 185.889 340.053 188.585C339.011 194.818 339.011 201.182 340.053 207.415C340.503 210.111 342.732 212.154 345.458 212.367L349.939 212.717C356.636 213.241 363.364 213.241 370.062 212.717L374.543 212.367C377.268 212.154 379.498 210.111 379.948 207.415C380.99 201.182 380.99 194.818 379.948 188.585C379.498 185.889 377.268 183.846 374.543 183.633L370.062 183.283ZM350.173 186.273C356.715 185.762 363.286 185.762 369.828 186.273L374.309 186.624C375.66 186.73 376.766 187.742 376.989 189.079C377.976 194.986 377.976 201.015 376.989 206.921C376.766 208.258 375.66 209.27 374.309 209.376L369.828 209.727C363.286 210.238 356.715 210.238 350.173 209.727L345.692 209.376C344.34 209.27 343.235 208.258 343.012 206.921C342.025 201.015 342.025 194.986 343.012 189.079C343.235 187.742 344.34 186.73 345.692 186.624L350.173 186.273Z" fill="url(#paint1_linear)"/>
</g>
<defs>
<linearGradient id="paint0_linear" x1="350.703" y1="188.077" x2="363.723" y2="220.509" gradientUnits="userSpaceOnUse">
<stop stop-color="#A874B9"/>
<stop offset="1" stop-color="#485E8B"/>
</linearGradient>
<linearGradient id="paint1_linear" x1="350.703" y1="188.077" x2="363.723" y2="220.509" gradientUnits="userSpaceOnUse">
<stop stop-color="#A874B9"/>
<stop offset="1" stop-color="#485E8B"/>
</linearGradient>
</defs>
</svg>
