<svg width="353" height="338" viewBox="0 0 353 338" fill="none" xmlns="http://www.w3.org/2000/svg">
<path d="M334.284 73.2836C336.762 70.8054 332.6 62.6253 324.988 55.0128C317.375 47.4004 309.195 43.2384 306.717 45.7166C304.239 48.1948 308.401 56.3749 316.013 63.9874C323.625 71.5998 331.806 75.7618 334.284 73.2836Z" stroke="url(#paint0_linear)" stroke-width="2" stroke-miterlimit="10"/>
<path d="M301.896 89.512C301.896 89.512 304.987 90.221 307.915 91.457C310.447 92.526 311.853 93.642 312.551 94.33C312.978 94.75 313.544 95 314.143 95H314.21C314.801 95 315.367 94.765 315.785 94.348L317.348 92.653C317.766 92.235 318.001 91.668 318.001 91.077V90.84C318.001 90.228 317.754 89.646 317.31 89.225C316.579 88.532 315.19 87.473 312.782 86.457C309.855 85.222 307.725 84.837 307.725 84.837" stroke="url(#paint1_linear)" stroke-width="2" stroke-miterlimit="10"/>
<path d="M326.271 66.914C324.551 61.062 319.937 56.449 314.085 54.728" stroke="#FFCD4D" stroke-width="2" stroke-miterlimit="10"/>
<path d="M293.391 64.75L298.346 53.196" stroke="#FFCD4D" stroke-width="2" stroke-miterlimit="10"/>
<path d="M290.809 70.773L292.323 67.241" stroke="#FFCD4D" stroke-width="2" stroke-miterlimit="10"/>
<path d="M328.43 51.571L335.625 44.376" stroke="#FFCD4D" stroke-width="2" stroke-miterlimit="10"/>
<path d="M324.832 40.794L326.417 37.208" stroke="#FFCD4D" stroke-width="2" stroke-miterlimit="10"/>
<path d="M321.788 47.682L323.719 43.313" stroke="#FFCD4D" stroke-width="2" stroke-miterlimit="10"/>
<path d="M339.251 54.581L342.729 52.688" stroke="#FFCD4D" stroke-width="2" stroke-miterlimit="10"/>
<path d="M332.396 58.313L336.902 55.86" stroke="#FFCD4D" stroke-width="2" stroke-miterlimit="10"/>
<path d="M333.446 73.807L305.705 85.703L299.704 91.704C298.678 92.73 295.293 91.007 292.143 87.857C287.73 83.469 287.402 81.175 288.593 80L294.401 74.216" stroke="url(#paint2_linear)" stroke-width="2" stroke-miterlimit="10"/>
<path d="M301.473 84.614C300.411 83.915 299.263 82.976 298.143 81.857C293.984 77.723 293.453 75.88 294.401 74.216C298.124 67.685 306.193 46.553 306.193 46.553" stroke="url(#paint3_linear)" stroke-width="2" stroke-miterlimit="10"/>
<path d="M181 45V50" stroke="#FFCD4D" stroke-width="2" stroke-miterlimit="10"/>
<path d="M201 30H196" stroke="#FFCD4D" stroke-width="2" stroke-miterlimit="10"/>
<path d="M161 30H166" stroke="#FFCD4D" stroke-width="2" stroke-miterlimit="10"/>
<path d="M181 13V30L189.617 38.617" stroke="#FFCD4D" stroke-width="2" stroke-miterlimit="10"/>
<path d="M160 51H158V53H160V51Z" fill="url(#paint4_linear)"/>
<path d="M207 11H205V13H207V11Z" fill="url(#paint5_linear)"/>
<path d="M204 7H202V9H204V7Z" fill="url(#paint6_linear)"/>
<path d="M200 4H198V6H200V4Z" fill="url(#paint7_linear)"/>
<path d="M157 47H155V49H157V47Z" fill="url(#paint8_linear)"/>
<path d="M164 54H162V56H164V54Z" fill="url(#paint9_linear)"/>
<path d="M181 54C194.255 54 205 43.2548 205 30C205 16.7452 194.255 6 181 6C167.745 6 157 16.7452 157 30C157 43.2548 167.745 54 181 54Z" stroke="url(#paint10_linear)" stroke-width="2" stroke-miterlimit="10"/>
<path d="M162.708 7.49512C160.208 9.53012 158.053 11.9731 156.345 14.7231" stroke="url(#paint11_linear)" stroke-width="2" stroke-miterlimit="10"/>
<path d="M170 3.15906C168.609 3.73006 167.273 4.40506 166 5.17606" stroke="url(#paint12_linear)" stroke-width="2" stroke-miterlimit="10"/>
<path d="M199.292 52.5051C201.792 50.4701 203.947 48.0271 205.655 45.2771" stroke="url(#paint13_linear)" stroke-width="2" stroke-miterlimit="10"/>
<path d="M192 56.8411C193.391 56.2701 194.727 55.5951 196 54.8241" stroke="url(#paint14_linear)" stroke-width="2" stroke-miterlimit="10"/>
<path d="M69.1006 68.774C70.3256 65.757 71.0006 62.457 71.0006 59C71.0006 56.639 70.6856 54.351 70.0956 52.176" stroke="url(#paint15_linear)" stroke-width="2" stroke-miterlimit="10"/>
<path d="M66.9131 73C67.3281 72.352 67.7141 71.685 68.0711 71" stroke="url(#paint16_linear)" stroke-width="2" stroke-miterlimit="10"/>
<path d="M63.8662 76.89C64.3982 76.329 64.9052 75.745 65.3852 75.139" stroke="url(#paint17_linear)" stroke-width="2" stroke-miterlimit="10"/>
<path d="M59.4756 80.601C60.2166 80.104 60.9296 79.569 61.6136 79.001" stroke="url(#paint18_linear)" stroke-width="2" stroke-miterlimit="10"/>
<path d="M23.6082 44.218C21.0582 47.901 19.4352 52.275 19.0752 57.001" stroke="url(#paint19_linear)" stroke-width="2" stroke-miterlimit="10"/>
<path d="M27.7216 39.572C26.9276 40.279 26.1766 41.034 25.4746 41.832" stroke="url(#paint20_linear)" stroke-width="2" stroke-miterlimit="10"/>
<path d="M73.4714 49.755C71.5844 43.953 68.0514 39.085 63.5654 35.494" stroke="url(#paint21_linear)" stroke-width="2" stroke-miterlimit="10"/>
<path d="M74.392 53.8911C74.292 53.3181 74.176 52.746 74.041 52.175" stroke="url(#paint22_linear)" stroke-width="2" stroke-miterlimit="10"/>
<path d="M48.8495 33.283C47.5935 33.097 46.3085 33 45.0005 33C42.2625 33 39.6235 33.423 37.1455 34.208" stroke="url(#paint23_linear)" stroke-width="2" stroke-miterlimit="10"/>
<path d="M55.7785 35.332C54.3025 34.659 52.7525 34.12 51.1445 33.73" stroke="url(#paint24_linear)" stroke-width="2" stroke-miterlimit="10"/>
<path d="M25.5 69.5V68.5H26.5V69.5H25.5Z" fill="url(#paint25_linear)" stroke="#FFCD4D"/>
<path d="M57.6174 43.617L56.4754 42.475C54.8904 40.89 52.7414 40 50.5004 40C50.0594 40 49.6214 40.035 49.1914 40.102" stroke="url(#paint26_linear)" stroke-width="2" stroke-miterlimit="10"/>
<path d="M46.8218 40.843C45.9778 41.251 45.2008 41.8 44.5248 42.475L43.3828 43.617" stroke="url(#paint27_linear)" stroke-width="2" stroke-miterlimit="10"/>
<path d="M41.5 77.5L43.424 75.576C44.371 74.63 45.073 74.14 46 74C48.172 73.672 49.852 73.148 51 72L62.939 60.061C63.618 59.382 64 58.46 64 57.5C64 56.54 63.618 55.618 62.939 54.939L53.06 45.06C52.382 44.382 51.46 44 50.5 44C49.54 44 48.618 44.382 47.939 45.061L38.126 54.874C38.036 54.964 37.922 55 37.81 55C37.618 55 37.433 54.866 37.39 54.65L35.942 47.409C35.667 46.035 34.455 45 33 45C31.343 45 30 46.343 30 48C30 48.164 30.013 48.325 30.039 48.482L31.938 60.228C31.979 60.482 32 60.74 32 61C32 62.281 31.491 63.509 30.586 64.414L29.5 65.5" stroke="#FFCD4D" stroke-width="2" stroke-miterlimit="10"/>
<path d="M39.3994 85.601L41.9404 83.06C42.6184 82.382 43.0004 81.46 43.0004 80.5C43.0004 79.54 42.6184 78.618 41.9394 77.939L29.0614 65.061C28.3824 64.382 27.4604 64 26.5004 64C25.5404 64 24.6184 64.382 23.9394 65.061L21.3984 67.602" stroke="#FFCD4D" stroke-width="2" stroke-miterlimit="10"/>
<path d="M62.1668 155.967C69.1808 155.967 74.8668 150.281 74.8668 143.267C74.8668 136.253 69.1808 130.567 62.1668 130.567C55.1528 130.567 49.4668 136.253 49.4668 143.267C49.4668 150.281 55.1528 155.967 62.1668 155.967Z" stroke="url(#paint28_linear)" stroke-width="2" stroke-miterlimit="10"/>
<path d="M87.5662 122.1C94.5802 122.1 100.266 116.414 100.266 109.4C100.266 102.386 94.5802 96.7 87.5662 96.7C80.5522 96.7 74.8662 102.386 74.8662 109.4C74.8662 116.414 80.5522 122.1 87.5662 122.1Z" stroke="url(#paint29_linear)" stroke-width="2" stroke-miterlimit="10"/>
<path d="M138.367 122.1C145.381 122.1 151.067 116.414 151.067 109.4C151.067 102.386 145.381 96.7 138.367 96.7C131.353 96.7 125.667 102.386 125.667 109.4C125.667 116.414 131.353 122.1 138.367 122.1Z" stroke="url(#paint30_linear)" stroke-width="2" stroke-miterlimit="10"/>
<path d="M197.634 122.1C204.648 122.1 210.334 116.414 210.334 109.4C210.334 102.386 204.648 96.7 197.634 96.7C190.62 96.7 184.934 102.386 184.934 109.4C184.934 116.414 190.62 122.1 197.634 122.1Z" stroke="url(#paint31_linear)" stroke-width="2" stroke-miterlimit="10"/>
<path d="M248.433 122.1C255.447 122.1 261.133 116.414 261.133 109.4C261.133 102.386 255.447 96.7 248.433 96.7C241.419 96.7 235.733 102.386 235.733 109.4C235.733 116.414 241.419 122.1 248.433 122.1Z" stroke="url(#paint32_linear)" stroke-width="2" stroke-miterlimit="10"/>
<path d="M112.967 155.967C119.981 155.967 125.667 150.281 125.667 143.267C125.667 136.253 119.981 130.567 112.967 130.567C105.953 130.567 100.267 136.253 100.267 143.267C100.267 150.281 105.953 155.967 112.967 155.967Z" stroke="url(#paint33_linear)" stroke-width="2" stroke-miterlimit="10"/>
<path d="M129.9 202.533H41" stroke="url(#paint34_linear)" stroke-width="2" stroke-miterlimit="10"/>
<path d="M49.7852 170.275C53.447 169.251 57.6719 168.667 62.1677 168.667C76.1969 168.667 87.5677 174.352 87.5677 181.367V202.533" stroke="url(#paint35_linear)" stroke-width="2" stroke-miterlimit="10"/>
<path d="M125.349 170.275C121.687 169.251 117.462 168.667 112.966 168.667C98.9371 168.667 87.5664 174.352 87.5664 181.367" stroke="url(#paint36_linear)" stroke-width="2" stroke-miterlimit="10"/>
<path d="M227.266 155.967C234.28 155.967 239.966 150.281 239.966 143.267C239.966 136.253 234.28 130.567 227.266 130.567C220.252 130.567 214.566 136.253 214.566 143.267C214.566 150.281 220.252 155.967 227.266 155.967Z" stroke="url(#paint37_linear)" stroke-width="2" stroke-miterlimit="10"/>
<path d="M278.066 155.967C285.08 155.967 290.766 150.281 290.766 143.267C290.766 136.253 285.08 130.567 278.066 130.567C271.052 130.567 265.366 136.253 265.366 143.267C265.366 150.281 271.052 155.967 278.066 155.967Z" stroke="url(#paint38_linear)" stroke-width="2" stroke-miterlimit="10"/>
<path d="M295 202.533H206.1" stroke="url(#paint39_linear)" stroke-width="2" stroke-miterlimit="10"/>
<path d="M214.885 170.275C218.547 169.251 222.771 168.667 227.267 168.667C241.297 168.667 252.667 174.352 252.667 181.367V202.533" stroke="url(#paint40_linear)" stroke-width="2" stroke-miterlimit="10"/>
<path d="M290.449 170.275C286.788 169.251 282.563 168.667 278.067 168.667C264.038 168.667 252.667 174.352 252.667 181.367" stroke="url(#paint41_linear)" stroke-width="2" stroke-miterlimit="10"/>
<path d="M138.846 134.94C140.069 134.846 141.326 134.8 142.601 134.8C156.63 134.8 168.001 140.485 168.001 147.5" stroke="url(#paint42_linear)" stroke-width="2" stroke-miterlimit="10"/>
<path d="M197.155 134.94C195.932 134.846 194.674 134.8 193.4 134.8C179.371 134.8 168 140.485 168 147.5" stroke="url(#paint43_linear)" stroke-width="2" stroke-miterlimit="10"/>
<path d="M168 219.467C182.028 219.467 193.4 206.199 193.4 189.833C193.4 173.467 182.028 160.2 168 160.2C153.972 160.2 142.6 173.467 142.6 189.833C142.6 206.199 153.972 219.467 168 219.467Z" stroke="#FFCD4D" stroke-width="2" stroke-miterlimit="10"/>
<path d="M138.367 295.667H112.967C108.289 295.667 104.5 299.455 104.5 304.133V329.533" stroke="url(#paint44_linear)" stroke-width="2" stroke-miterlimit="10"/>
<path d="M197.634 295.667H223.034C227.712 295.667 231.5 299.455 231.5 304.133V329.533" stroke="url(#paint45_linear)" stroke-width="2" stroke-miterlimit="10"/>
<path d="M197.634 329.533V264.124L232.237 274.013C233.35 274.331 234.523 274.5 235.734 274.5C238.337 274.5 240.754 273.717 242.769 272.375L268.169 255.441C271.586 253.164 273.834 249.278 273.834 244.867C273.834 237.852 268.148 232.167 261.134 232.167C258.53 232.167 256.113 232.95 254.098 234.292L233.579 247.97L198.205 237.865C194.802 236.895 191.275 236.4 187.736 236.4H148.265C144.725 236.4 141.203 236.895 137.8 237.865L102.426 247.97L81.907 234.292C79.8877 232.95 77.4705 232.167 74.867 232.167C67.8524 232.167 62.167 237.852 62.167 244.867C62.167 249.278 64.4149 253.164 67.8312 255.441L93.2312 272.375C95.2463 273.717 97.6635 274.5 100.267 274.5C101.478 274.5 102.65 274.331 103.764 274.013L138.367 264.124V329.533" stroke="#FFCD4D" stroke-width="2" stroke-miterlimit="10"/>
<path d="M37.007 270.911L20.3369 283.954" stroke="url(#paint46_linear)" stroke-width="2" stroke-miterlimit="10"/>
<path d="M27.5322 254.679L8.50098 252.354" stroke="url(#paint47_linear)" stroke-width="2" stroke-miterlimit="10"/>
<path d="M50.4929 283.994L48.1679 303.019" stroke="url(#paint48_linear)" stroke-width="2" stroke-miterlimit="10"/>
<path d="M330.81 224.6L326.428 219" stroke="url(#paint49_linear)" stroke-width="2" stroke-miterlimit="10"/>
<path d="M339.573 235.801L335.191 230.2" stroke="url(#paint50_linear)" stroke-width="2" stroke-miterlimit="10"/>
<path d="M335.8 225.21L340 221.923" stroke="url(#paint51_linear)" stroke-width="2" stroke-miterlimit="10"/>
<path d="M330.2 229.591L326 232.878" stroke="url(#paint52_linear)" stroke-width="2" stroke-miterlimit="10"/>
<defs>
<linearGradient id="paint0_linear" x1="306.717" y1="45.7166" x2="334.284" y2="73.2836" gradientUnits="userSpaceOnUse">
<stop stop-color="#BEBCE7"/>
<stop offset="1" stop-color="#BE8BD5"/>
</linearGradient>
<linearGradient id="paint1_linear" x1="309.948" y1="84.837" x2="309.948" y2="95" gradientUnits="userSpaceOnUse">
<stop stop-color="#BEBCE7"/>
<stop offset="1" stop-color="#BE8BD5"/>
</linearGradient>
<linearGradient id="paint2_linear" x1="310.723" y1="73.807" x2="310.723" y2="92.0004" gradientUnits="userSpaceOnUse">
<stop stop-color="#BEBCE7"/>
<stop offset="1" stop-color="#BE8BD5"/>
</linearGradient>
<linearGradient id="paint3_linear" x1="300.096" y1="46.553" x2="300.096" y2="84.614" gradientUnits="userSpaceOnUse">
<stop stop-color="#BEBCE7"/>
<stop offset="1" stop-color="#BE8BD5"/>
</linearGradient>
<linearGradient id="paint4_linear" x1="159" y1="51" x2="159" y2="53" gradientUnits="userSpaceOnUse">
<stop stop-color="#BEBCE7"/>
<stop offset="1" stop-color="#BE8BD5"/>
</linearGradient>
<linearGradient id="paint5_linear" x1="206" y1="11" x2="206" y2="13" gradientUnits="userSpaceOnUse">
<stop stop-color="#BEBCE7"/>
<stop offset="1" stop-color="#BE8BD5"/>
</linearGradient>
<linearGradient id="paint6_linear" x1="203" y1="7" x2="203" y2="9" gradientUnits="userSpaceOnUse">
<stop stop-color="#BEBCE7"/>
<stop offset="1" stop-color="#BE8BD5"/>
</linearGradient>
<linearGradient id="paint7_linear" x1="199" y1="4" x2="199" y2="6" gradientUnits="userSpaceOnUse">
<stop stop-color="#BEBCE7"/>
<stop offset="1" stop-color="#BE8BD5"/>
</linearGradient>
<linearGradient id="paint8_linear" x1="156" y1="47" x2="156" y2="49" gradientUnits="userSpaceOnUse">
<stop stop-color="#BEBCE7"/>
<stop offset="1" stop-color="#BE8BD5"/>
</linearGradient>
<linearGradient id="paint9_linear" x1="163" y1="54" x2="163" y2="56" gradientUnits="userSpaceOnUse">
<stop stop-color="#BEBCE7"/>
<stop offset="1" stop-color="#BE8BD5"/>
</linearGradient>
<linearGradient id="paint10_linear" x1="181" y1="6" x2="181" y2="54" gradientUnits="userSpaceOnUse">
<stop stop-color="#BEBCE7"/>
<stop offset="1" stop-color="#BE8BD5"/>
</linearGradient>
<linearGradient id="paint11_linear" x1="159.526" y1="7.49512" x2="159.526" y2="14.7231" gradientUnits="userSpaceOnUse">
<stop stop-color="#BEBCE7"/>
<stop offset="1" stop-color="#BE8BD5"/>
</linearGradient>
<linearGradient id="paint12_linear" x1="168" y1="3.15906" x2="168" y2="5.17606" gradientUnits="userSpaceOnUse">
<stop stop-color="#BEBCE7"/>
<stop offset="1" stop-color="#BE8BD5"/>
</linearGradient>
<linearGradient id="paint13_linear" x1="202.473" y1="45.2771" x2="202.473" y2="52.5051" gradientUnits="userSpaceOnUse">
<stop stop-color="#BEBCE7"/>
<stop offset="1" stop-color="#BE8BD5"/>
</linearGradient>
<linearGradient id="paint14_linear" x1="194" y1="54.8241" x2="194" y2="56.8411" gradientUnits="userSpaceOnUse">
<stop stop-color="#BEBCE7"/>
<stop offset="1" stop-color="#BE8BD5"/>
</linearGradient>
<linearGradient id="paint15_linear" x1="70.0506" y1="52.176" x2="70.0506" y2="68.774" gradientUnits="userSpaceOnUse">
<stop stop-color="#BEBCE7"/>
<stop offset="1" stop-color="#BE8BD5"/>
</linearGradient>
<linearGradient id="paint16_linear" x1="67.4921" y1="71" x2="67.4921" y2="73" gradientUnits="userSpaceOnUse">
<stop stop-color="#BEBCE7"/>
<stop offset="1" stop-color="#BE8BD5"/>
</linearGradient>
<linearGradient id="paint17_linear" x1="64.6257" y1="75.139" x2="64.6257" y2="76.89" gradientUnits="userSpaceOnUse">
<stop stop-color="#BEBCE7"/>
<stop offset="1" stop-color="#BE8BD5"/>
</linearGradient>
<linearGradient id="paint18_linear" x1="60.5446" y1="79.001" x2="60.5446" y2="80.601" gradientUnits="userSpaceOnUse">
<stop stop-color="#BEBCE7"/>
<stop offset="1" stop-color="#BE8BD5"/>
</linearGradient>
<linearGradient id="paint19_linear" x1="21.3417" y1="44.218" x2="21.3417" y2="57.001" gradientUnits="userSpaceOnUse">
<stop stop-color="#BEBCE7"/>
<stop offset="1" stop-color="#BE8BD5"/>
</linearGradient>
<linearGradient id="paint20_linear" x1="26.5981" y1="39.572" x2="26.5981" y2="41.832" gradientUnits="userSpaceOnUse">
<stop stop-color="#BEBCE7"/>
<stop offset="1" stop-color="#BE8BD5"/>
</linearGradient>
<linearGradient id="paint21_linear" x1="68.5184" y1="35.494" x2="68.5184" y2="49.755" gradientUnits="userSpaceOnUse">
<stop stop-color="#BEBCE7"/>
<stop offset="1" stop-color="#BE8BD5"/>
</linearGradient>
<linearGradient id="paint22_linear" x1="74.2165" y1="52.175" x2="74.2165" y2="53.8911" gradientUnits="userSpaceOnUse">
<stop stop-color="#BEBCE7"/>
<stop offset="1" stop-color="#BE8BD5"/>
</linearGradient>
<linearGradient id="paint23_linear" x1="42.9975" y1="33" x2="42.9975" y2="34.208" gradientUnits="userSpaceOnUse">
<stop stop-color="#BEBCE7"/>
<stop offset="1" stop-color="#BE8BD5"/>
</linearGradient>
<linearGradient id="paint24_linear" x1="53.4615" y1="33.73" x2="53.4615" y2="35.332" gradientUnits="userSpaceOnUse">
<stop stop-color="#BEBCE7"/>
<stop offset="1" stop-color="#BE8BD5"/>
</linearGradient>
<linearGradient id="paint25_linear" x1="26" y1="68" x2="26" y2="70" gradientUnits="userSpaceOnUse">
<stop stop-color="#BEBCE7"/>
<stop offset="1" stop-color="#BE8BD5"/>
</linearGradient>
<linearGradient id="paint26_linear" x1="53.4044" y1="40" x2="53.4044" y2="43.617" gradientUnits="userSpaceOnUse">
<stop stop-color="#BEBCE7"/>
<stop offset="1" stop-color="#BE8BD5"/>
</linearGradient>
<linearGradient id="paint27_linear" x1="45.1023" y1="40.843" x2="45.1023" y2="43.617" gradientUnits="userSpaceOnUse">
<stop stop-color="#BEBCE7"/>
<stop offset="1" stop-color="#BE8BD5"/>
</linearGradient>
<linearGradient id="paint28_linear" x1="62.1668" y1="130.567" x2="62.1668" y2="155.967" gradientUnits="userSpaceOnUse">
<stop stop-color="#BEBCE7"/>
<stop offset="1" stop-color="#BE8BD5"/>
</linearGradient>
<linearGradient id="paint29_linear" x1="87.5662" y1="96.7" x2="87.5662" y2="122.1" gradientUnits="userSpaceOnUse">
<stop stop-color="#BEBCE7"/>
<stop offset="1" stop-color="#BE8BD5"/>
</linearGradient>
<linearGradient id="paint30_linear" x1="138.367" y1="96.7" x2="138.367" y2="122.1" gradientUnits="userSpaceOnUse">
<stop stop-color="#BEBCE7"/>
<stop offset="1" stop-color="#BE8BD5"/>
</linearGradient>
<linearGradient id="paint31_linear" x1="197.634" y1="96.7" x2="197.634" y2="122.1" gradientUnits="userSpaceOnUse">
<stop stop-color="#BEBCE7"/>
<stop offset="1" stop-color="#BE8BD5"/>
</linearGradient>
<linearGradient id="paint32_linear" x1="248.433" y1="96.7" x2="248.433" y2="122.1" gradientUnits="userSpaceOnUse">
<stop stop-color="#BEBCE7"/>
<stop offset="1" stop-color="#BE8BD5"/>
</linearGradient>
<linearGradient id="paint33_linear" x1="112.967" y1="130.567" x2="112.967" y2="155.967" gradientUnits="userSpaceOnUse">
<stop stop-color="#BEBCE7"/>
<stop offset="1" stop-color="#BE8BD5"/>
</linearGradient>
<linearGradient id="paint34_linear" x1="85.45" y1="202.533" x2="85.45" y2="203.533" gradientUnits="userSpaceOnUse">
<stop stop-color="#BEBCE7"/>
<stop offset="1" stop-color="#BE8BD5"/>
</linearGradient>
<linearGradient id="paint35_linear" x1="68.6764" y1="168.667" x2="68.6764" y2="202.533" gradientUnits="userSpaceOnUse">
<stop stop-color="#BEBCE7"/>
<stop offset="1" stop-color="#BE8BD5"/>
</linearGradient>
<linearGradient id="paint36_linear" x1="106.458" y1="168.667" x2="106.458" y2="181.367" gradientUnits="userSpaceOnUse">
<stop stop-color="#BEBCE7"/>
<stop offset="1" stop-color="#BE8BD5"/>
</linearGradient>
<linearGradient id="paint37_linear" x1="227.266" y1="130.567" x2="227.266" y2="155.967" gradientUnits="userSpaceOnUse">
<stop stop-color="#BEBCE7"/>
<stop offset="1" stop-color="#BE8BD5"/>
</linearGradient>
<linearGradient id="paint38_linear" x1="278.066" y1="130.567" x2="278.066" y2="155.967" gradientUnits="userSpaceOnUse">
<stop stop-color="#BEBCE7"/>
<stop offset="1" stop-color="#BE8BD5"/>
</linearGradient>
<linearGradient id="paint39_linear" x1="250.55" y1="202.533" x2="250.55" y2="203.533" gradientUnits="userSpaceOnUse">
<stop stop-color="#BEBCE7"/>
<stop offset="1" stop-color="#BE8BD5"/>
</linearGradient>
<linearGradient id="paint40_linear" x1="233.776" y1="168.667" x2="233.776" y2="202.533" gradientUnits="userSpaceOnUse">
<stop stop-color="#BEBCE7"/>
<stop offset="1" stop-color="#BE8BD5"/>
</linearGradient>
<linearGradient id="paint41_linear" x1="271.558" y1="168.667" x2="271.558" y2="181.367" gradientUnits="userSpaceOnUse">
<stop stop-color="#BEBCE7"/>
<stop offset="1" stop-color="#BE8BD5"/>
</linearGradient>
<linearGradient id="paint42_linear" x1="153.423" y1="134.8" x2="153.423" y2="147.5" gradientUnits="userSpaceOnUse">
<stop stop-color="#BEBCE7"/>
<stop offset="1" stop-color="#BE8BD5"/>
</linearGradient>
<linearGradient id="paint43_linear" x1="182.577" y1="134.8" x2="182.577" y2="147.5" gradientUnits="userSpaceOnUse">
<stop stop-color="#BEBCE7"/>
<stop offset="1" stop-color="#BE8BD5"/>
</linearGradient>
<linearGradient id="paint44_linear" x1="121.433" y1="295.667" x2="121.433" y2="329.533" gradientUnits="userSpaceOnUse">
<stop stop-color="#BEBCE7"/>
<stop offset="1" stop-color="#BE8BD5"/>
</linearGradient>
<linearGradient id="paint45_linear" x1="214.567" y1="295.667" x2="214.567" y2="329.533" gradientUnits="userSpaceOnUse">
<stop stop-color="#BEBCE7"/>
<stop offset="1" stop-color="#BE8BD5"/>
</linearGradient>
<linearGradient id="paint46_linear" x1="28.672" y1="277.433" x2="29.2882" y2="278.22" gradientUnits="userSpaceOnUse">
<stop stop-color="#BEBCE7"/>
<stop offset="1" stop-color="#BE8BD5"/>
</linearGradient>
<linearGradient id="paint47_linear" x1="13.8387" y1="248.177" x2="22.1945" y2="258.856" gradientUnits="userSpaceOnUse">
<stop stop-color="#BEBCE7"/>
<stop offset="1" stop-color="#BE8BD5"/>
</linearGradient>
<linearGradient id="paint48_linear" x1="45.1551" y1="288.17" x2="53.5056" y2="298.842" gradientUnits="userSpaceOnUse">
<stop stop-color="#BEBCE7"/>
<stop offset="1" stop-color="#BE8BD5"/>
</linearGradient>
<linearGradient id="paint49_linear" x1="326.822" y1="218.692" x2="331.203" y2="224.292" gradientUnits="userSpaceOnUse">
<stop stop-color="#BEBCE7"/>
<stop offset="1" stop-color="#BE8BD5"/>
</linearGradient>
<linearGradient id="paint50_linear" x1="335.585" y1="229.892" x2="339.967" y2="235.493" gradientUnits="userSpaceOnUse">
<stop stop-color="#BEBCE7"/>
<stop offset="1" stop-color="#BE8BD5"/>
</linearGradient>
<linearGradient id="paint51_linear" x1="337.9" y1="223.567" x2="338.516" y2="224.354" gradientUnits="userSpaceOnUse">
<stop stop-color="#BEBCE7"/>
<stop offset="1" stop-color="#BE8BD5"/>
</linearGradient>
<linearGradient id="paint52_linear" x1="328.1" y1="231.235" x2="328.716" y2="232.022" gradientUnits="userSpaceOnUse">
<stop stop-color="#BEBCE7"/>
<stop offset="1" stop-color="#BE8BD5"/>
</linearGradient>
</defs>
</svg>
