<svg width="551" height="247" viewBox="0 0 551 247" fill="none" xmlns="http://www.w3.org/2000/svg">
<g opacity="0.45">
<path d="M230.203 33.2405C230.203 32.1285 229.302 31.2271 228.19 31.2271C227.078 31.2271 226.176 32.1285 226.176 33.2405V35.066C226.176 36.178 227.078 37.0795 228.19 37.0795C229.302 37.0795 230.203 36.178 230.203 35.066V33.2405Z" fill="url(#paint0_linear)"/>
<path d="M230.203 56.6501C230.203 55.5381 229.302 54.6367 228.19 54.6367C227.078 54.6367 226.176 55.5381 226.176 56.6501V58.4756C226.176 59.5876 227.078 60.489 228.19 60.489C229.302 60.489 230.203 59.5876 230.203 58.4756V56.6501Z" fill="url(#paint1_linear)"/>
<path d="M230.203 80.0597C230.203 78.9477 229.302 78.0462 228.19 78.0462C227.078 78.0462 226.176 78.9477 226.176 80.0597V81.8852C226.176 82.9972 227.078 83.8986 228.19 83.8986C229.302 83.8986 230.203 82.9972 230.203 81.8852V80.0597Z" fill="url(#paint2_linear)"/>
<path d="M230.203 103.469C230.203 102.357 229.302 101.456 228.19 101.456C227.078 101.456 226.176 102.357 226.176 103.469V105.295C226.176 106.407 227.078 107.308 228.19 107.308C229.302 107.308 230.203 106.407 230.203 105.295V103.469Z" fill="url(#paint3_linear)"/>
<path d="M230.203 126.879C230.203 125.767 229.302 124.865 228.19 124.865C227.078 124.865 226.176 125.767 226.176 126.879V128.704C226.176 129.816 227.078 130.718 228.19 130.718C229.302 130.718 230.203 129.816 230.203 128.704V126.879Z" fill="url(#paint4_linear)"/>
<path d="M230.203 150.288C230.203 149.176 229.302 148.275 228.19 148.275C227.078 148.275 226.176 149.176 226.176 150.288V152.114C226.176 153.226 227.078 154.127 228.19 154.127C229.302 154.127 230.203 153.226 230.203 152.114V150.288Z" fill="url(#paint5_linear)"/>
<path d="M230.203 173.698C230.203 172.586 229.302 171.685 228.19 171.685C227.078 171.685 226.176 172.586 226.176 173.698V175.523C226.176 176.635 227.078 177.537 228.19 177.537C229.302 177.537 230.203 176.635 230.203 175.523V173.698Z" fill="url(#paint6_linear)"/>
<path d="M226.275 34.1483H126.156L114.461 45.7135H105.295M226.275 57.8823H89.5937L71.7019 39.9905M226.275 80.886L89.5937 80.886L71.7019 62.4465H61.1129M226.275 103.89L18.9667 103.89M226.275 127.441L77.3534 127.441H59.4616L52.524 134.196M226.275 150.993H115.153L108.216 157.748H97.6267M226.275 174.362H171.314L160.725 192.071H105.329" stroke="#D3D7DC"/>
<path d="M104.353 43.2765C104.353 42.6189 103.819 42.0857 103.162 42.0857H98.415C97.7573 42.0857 97.2241 42.6189 97.2241 43.2765V48.0233C97.2241 48.681 97.7573 49.2142 98.415 49.2142H103.162C103.819 49.2142 104.353 48.681 104.353 48.0233V43.2765ZM71.125 33.7829C71.125 33.1252 70.5918 32.5921 69.9341 32.5921H65.1873C64.5297 32.5921 63.9965 33.1252 63.9965 33.7829V38.5297C63.9965 39.1874 64.5297 39.7206 65.1873 39.7206H69.9341C70.5918 39.7206 71.125 39.1874 71.125 38.5297V33.7829ZM59.8057 60.0729C59.8057 59.4152 59.2725 58.8821 58.6148 58.8821H53.868C53.2103 58.8821 52.6772 59.4152 52.6772 60.0729V64.8197C52.6772 65.4774 53.2103 66.0105 53.868 66.0105H58.6148C59.2725 66.0105 59.8057 65.4774 59.8057 64.8197V60.0729ZM18.3306 101.334C18.3306 100.676 17.7975 100.143 17.1398 100.143H12.393C11.7353 100.143 11.2021 100.676 11.2021 101.334V106.08C11.2021 106.738 11.7353 107.271 12.393 107.271H17.1398C17.7975 107.271 18.3306 106.738 18.3306 106.08V101.334ZM52.9242 135.657C52.9242 134.999 52.3911 134.466 51.7334 134.466H46.9866C46.3289 134.466 45.7957 134.999 45.7957 135.657L45.7957 140.403C45.7957 141.061 46.3289 141.594 46.9866 141.594H51.7334C52.391 141.594 52.9242 141.061 52.9242 140.403L52.9242 135.657ZM96.3196 155.374C96.3196 154.716 95.7864 154.183 95.1287 154.183H90.3819C89.7242 154.183 89.1911 154.716 89.1911 155.374V160.121C89.1911 160.779 89.7242 161.312 90.3819 161.312H95.1287C95.7864 161.312 96.3196 160.779 96.3196 160.121V155.374ZM104.988 190.062C104.988 189.405 104.455 188.872 103.797 188.872H99.0506C98.393 188.872 97.8598 189.405 97.8598 190.062V194.809C97.8598 195.467 98.393 196 99.0506 196H103.797C104.455 196 104.988 195.467 104.988 194.809V190.062Z" fill="#D3D7DC" fill-opacity="0.15" stroke="#D3D7DC" stroke-width="2"/>
<path d="M330.203 33.2405C330.203 32.1285 331.105 31.2271 332.217 31.2271C333.329 31.2271 334.23 32.1285 334.23 33.2405V35.066C334.23 36.178 333.329 37.0795 332.217 37.0795C331.105 37.0795 330.203 36.178 330.203 35.066V33.2405Z" fill="url(#paint7_linear)"/>
<path d="M330.203 56.6501C330.203 55.5381 331.105 54.6367 332.217 54.6367C333.329 54.6367 334.23 55.5381 334.23 56.6501V58.4756C334.23 59.5876 333.329 60.489 332.217 60.489C331.105 60.489 330.203 59.5876 330.203 58.4756V56.6501Z" fill="url(#paint8_linear)"/>
<path d="M330.203 80.0597C330.203 78.9477 331.105 78.0462 332.217 78.0462C333.329 78.0462 334.23 78.9477 334.23 80.0597V81.8852C334.23 82.9972 333.329 83.8986 332.217 83.8986C331.105 83.8986 330.203 82.9972 330.203 81.8852V80.0597Z" fill="url(#paint9_linear)"/>
<path d="M330.203 103.469C330.203 102.357 331.105 101.456 332.217 101.456C333.329 101.456 334.23 102.357 334.23 103.469V105.295C334.23 106.407 333.329 107.308 332.217 107.308C331.105 107.308 330.203 106.407 330.203 105.295V103.469Z" fill="url(#paint10_linear)"/>
<path d="M330.203 126.879C330.203 125.767 331.105 124.865 332.217 124.865C333.329 124.865 334.23 125.767 334.23 126.879V128.704C334.23 129.816 333.329 130.718 332.217 130.718C331.105 130.718 330.203 129.816 330.203 128.704V126.879Z" fill="url(#paint11_linear)"/>
<path d="M330.203 150.288C330.203 149.176 331.105 148.275 332.217 148.275C333.329 148.275 334.23 149.176 334.23 150.288V152.114C334.23 153.226 333.329 154.127 332.217 154.127C331.105 154.127 330.203 153.226 330.203 152.114V150.288Z" fill="url(#paint12_linear)"/>
<path d="M330.203 173.698C330.203 172.586 331.105 171.685 332.217 171.685C333.329 171.685 334.23 172.586 334.23 173.698V175.523C334.23 176.635 333.329 177.537 332.217 177.537C331.105 177.537 330.203 176.635 330.203 175.523V173.698Z" fill="url(#paint13_linear)"/>
<path d="M334.131 34.1483H434.251L445.946 45.7135H455.112M334.131 57.8823H470.813L488.704 39.9905M334.131 80.886L470.813 80.886L488.704 62.4465H499.293M334.131 103.89L541.44 103.89M334.131 127.441L483.053 127.441H500.945L507.882 134.196M334.131 150.993H445.253L452.19 157.748H462.78M334.131 174.362H389.092L399.681 192.071H455.078" stroke="#D3D7DC"/>
<path d="M456.054 43.2765C456.054 42.6189 456.587 42.0857 457.244 42.0857H461.991C462.649 42.0857 463.182 42.6189 463.182 43.2765V48.0233C463.182 48.681 462.649 49.2142 461.991 49.2142H457.244C456.587 49.2142 456.054 48.681 456.054 48.0233V43.2765ZM489.281 33.7829C489.281 33.1252 489.814 32.5921 490.472 32.5921H495.219C495.877 32.5921 496.41 33.1252 496.41 33.7829V38.5297C496.41 39.1874 495.877 39.7206 495.219 39.7206H490.472C489.814 39.7206 489.281 39.1874 489.281 38.5297V33.7829ZM500.601 60.0729C500.601 59.4152 501.134 58.8821 501.791 58.8821H506.538C507.196 58.8821 507.729 59.4152 507.729 60.0729V64.8197C507.729 65.4774 507.196 66.0105 506.538 66.0105H501.791C501.134 66.0105 500.601 65.4774 500.601 64.8197V60.0729ZM542.076 101.334C542.076 100.676 542.609 100.143 543.266 100.143H548.013C548.671 100.143 549.204 100.676 549.204 101.334V106.08C549.204 106.738 548.671 107.271 548.013 107.271H543.266C542.609 107.271 542.076 106.738 542.076 106.08V101.334ZM507.482 135.657C507.482 134.999 508.015 134.466 508.673 134.466H513.42C514.077 134.466 514.611 134.999 514.611 135.657V140.403C514.611 141.061 514.077 141.594 513.42 141.594H508.673C508.015 141.594 507.482 141.061 507.482 140.403V135.657ZM464.087 155.374C464.087 154.716 464.62 154.183 465.278 154.183H470.024C470.682 154.183 471.215 154.716 471.215 155.374V160.121C471.215 160.779 470.682 161.312 470.024 161.312H465.278C464.62 161.312 464.087 160.779 464.087 160.121V155.374ZM455.418 190.062C455.418 189.405 455.951 188.872 456.609 188.872H461.356C462.013 188.872 462.546 189.405 462.546 190.062V194.809C462.546 195.467 462.013 196 461.356 196H456.609C455.951 196 455.418 195.467 455.418 194.809V190.062Z" fill="#D3D7DC" fill-opacity="0.15" stroke="#D3D7DC" stroke-width="2"/>
</g>
<mask id="mask0" style="mask-type:alpha" maskUnits="userSpaceOnUse" x="179" y="16" width="210" height="211">
<rect x="184" y="21.001" width="200" height="200" rx="100" fill="#C4C4C4" stroke="#F0F1F3" stroke-width="10"/>
</mask>
<g mask="url(#mask0)">
<rect x="184" y="21.001" width="200" height="200" rx="100" fill="#F8F7FC" stroke="#F0F1F3" stroke-width="10"/>
<path d="M347 78.5C347 99.376 344.459 119.398 332.893 136.001C315.094 161.55 285.5 179 285.5 179C285.5 179 255.473 162.592 237.455 136.001C226.646 120.05 224 100.435 224 78.5C224 45.0868 251.534 18 285.5 18C319.466 18 345.5 36.501 347 78.5Z" fill="#D4D8DF"/>
<path d="M205.113 196.104C207.543 185.41 215.128 176.623 225.351 172.654L273.67 153.899C280.983 151.06 289.069 150.92 296.476 153.503L345.058 170.442C355.069 173.933 362.793 182.021 365.82 192.182L375 223.001H199L205.113 196.104Z" fill="#D4D8DF"/>
<path d="M234 55.001C234 32.9096 251.909 15.001 274 15.001H292C317.405 15.001 338 35.5959 338 61.001V87.001C338 90.3147 335.314 93.001 332 93.001H240C236.686 93.001 234 90.3147 234 87.001V55.001Z" fill="#7D7A91"/>
<path fill-rule="evenodd" clip-rule="evenodd" d="M287 26.002C261.595 26.002 241 46.5969 241 72.002V96.002C241 111.319 248.487 124.888 260 133.248V160.797C273.428 172.403 285.5 179 285.5 179C285.5 179 296.43 172.555 309 161.764V142.501V136.41C323.299 128.608 333 113.438 333 96.002V72.002C333 46.5969 312.405 26.002 287 26.002ZM309 136.41V127.001H260V133.248C267.583 138.755 276.912 142.002 287 142.002C294.969 142.002 302.465 139.976 309 136.41Z" fill="#E3E5E9"/>
<path fill-rule="evenodd" clip-rule="evenodd" d="M260 132.005V133.248C248.487 124.888 241 111.319 241 96.002V72.002C241 46.5969 261.595 26.002 287 26.002C312.405 26.002 333 46.5969 333 72.002V96.002C333 113.438 323.299 128.608 309 136.41V135.267C322.726 127.56 332 112.864 332 96.002V72.002C332 47.1491 311.853 27.002 287 27.002C262.147 27.002 242 47.1491 242 72.002V96.002C242 110.724 249.07 123.795 260 132.005ZM309 135.267C302.495 138.919 294.991 141.002 287 141.002C276.87 141.002 267.521 137.654 260 132.005V127.001H309V135.267Z" fill="black" fill-opacity="0.1"/>
<path fill-rule="evenodd" clip-rule="evenodd" d="M260 142.501V133.248C267.583 138.755 276.912 142.002 287 142.002C294.969 142.002 302.465 139.976 309 136.41V142.501C290.473 150.218 280.431 150.842 261 143.001L260 142.501Z" fill="black" fill-opacity="0.1"/>
<rect x="241" y="26.001" width="92" height="116" rx="46" fill="#F0F1F3"/>
<path fill-rule="evenodd" clip-rule="evenodd" d="M287 26.001C261.595 26.001 241 46.5959 241 72.001V96.001C241 121.406 261.595 142.001 287 142.001C276.167 139.501 254.5 126.801 254.5 96.001V72.001C254.667 68.8343 257 63.201 265 66.001C275 69.501 284.5 71.001 288.5 67.501C291.7 64.701 292.167 60.6676 292 59.001C294.32 59.801 296.304 60.3898 298.228 60.9609C304.323 62.7695 309.82 64.401 323.5 72.001C325.5 74.401 330.667 73.001 333 72.001C333 46.5959 312.405 26.001 287 26.001Z" fill="#DDDDE5"/>
<path d="M231 91.001C231 87.135 234.134 84.001 238 84.001H242V101.001H239C234.582 101.001 231 97.4193 231 93.001V91.001Z" fill="#DDDDE5"/>
<path d="M338 51.001C338 43.269 331.732 37.001 324 37.001V77.001C324 80.867 327.134 84.001 331 84.001H338V51.001Z" fill="#938FAB"/>
<path d="M235 51.001C235 43.269 241.268 37.001 249 37.001V77.001C249 80.867 245.866 84.001 242 84.001H235V51.001Z" fill="#938FAB"/>
<path d="M338 51.001C338 43.269 331.732 37.001 324 37.001V77.001C324 80.867 327.134 84.001 331 84.001H338V51.001Z" fill="black" fill-opacity="0.15"/>
<path d="M235 51.001C235 43.269 241.268 37.001 249 37.001V77.001C249 80.867 245.866 84.001 242 84.001H235V51.001Z" fill="black" fill-opacity="0.15"/>
<path d="M343 91.001C343 87.135 339.866 84.001 336 84.001H332V101.001H335C339.418 101.001 343 97.4193 343 93.001V91.001Z" fill="#F0F1F3"/>
<path opacity="0.15" d="M276 111.001C280.5 117.001 295.5 117.001 299 111.501" stroke="black" stroke-width="6" stroke-linecap="round"/>
<path opacity="0.4" d="M268 91.001V85.501M264 77.001H272M308 91.001V85.501M304 77.001H312" stroke="black" stroke-width="6" stroke-linecap="round" stroke-linejoin="round"/>
<path fill-rule="evenodd" clip-rule="evenodd" d="M235.811 48.7437C240.9 50.8368 249.879 54.5293 258 57.001C269.5 60.501 281.5 63.501 284.5 61.501C286.05 60.4679 284.641 58.1863 283.274 55.9707C281.994 53.897 280.75 51.8812 282 51.001C289.16 45.9593 328.188 63.936 338.5 77.001L342 52.501C342 52.4949 342.001 52.4888 342.001 52.4826C332.685 28.7559 311.398 18 285.5 18C263.995 18 245.067 28.8587 234.075 45.3067C234.024 46.1919 234 47.0904 234 48.001C234.528 48.2159 235.135 48.4657 235.811 48.7437Z" fill="#928EAB"/>
<path fill-rule="evenodd" clip-rule="evenodd" d="M340.483 63.1224C332.388 36.8534 311.361 25.0001 285.5 25.0001C266.118 25.0001 248.938 34.7479 238.293 49.7616C237.392 49.3937 236.559 49.0515 235.811 48.7437C235.135 48.4657 234.528 48.2159 234 48.001C234 30.501 243 17.501 271 16.001H298.5C306.475 11.147 343 35.0011 342 52.501L340.483 63.1224Z" fill="#7D7A91"/>
<path d="M285.5 179C287.532 182.446 287.532 182.445 287.533 182.445L287.536 182.443L287.542 182.439L287.563 182.427L287.638 182.382C287.701 182.345 287.793 182.29 287.91 182.218C288.146 182.075 288.488 181.866 288.925 181.593C289.8 181.047 291.059 180.244 292.621 179.202C295.743 177.121 300.085 174.08 304.992 170.227C314.771 162.549 326.958 151.518 336.175 138.287C348.46 120.652 351 99.5998 351 78.5V78.4286L350.997 78.3572C350.218 56.5279 343.019 40.2843 331.105 29.5309C319.236 18.8196 303.18 14 285.5 14C249.387 14 220 42.8161 220 78.5C220 100.646 222.642 121.271 234.143 138.245C243.489 152.036 255.87 163.09 265.812 170.655C270.8 174.451 275.215 177.399 278.392 179.404C279.982 180.406 281.264 181.175 282.156 181.696C282.602 181.957 282.95 182.156 283.192 182.292C283.312 182.36 283.406 182.413 283.471 182.449L283.548 182.492L283.57 182.504L283.578 182.508L283.58 182.509C283.581 182.51 283.582 182.51 285.5 179ZM285.5 179L287.532 182.446L285.575 183.599L283.582 182.51L285.5 179Z" stroke="#F0F1F3" stroke-width="8"/>
<path fill-rule="evenodd" clip-rule="evenodd" d="M206.832 190.721C206.112 192.448 205.535 194.247 205.113 196.104L203.504 203.183C204.976 205.466 206.529 207.372 207.826 208.814C208.819 209.918 209.705 210.797 210.362 211.417C210.691 211.728 210.966 211.977 211.171 212.158C211.274 212.249 211.359 212.323 211.426 212.38C211.459 212.409 211.488 212.433 211.512 212.453L211.543 212.48L211.556 212.491L211.562 212.496L211.565 212.498C211.566 212.499 211.568 212.5 216.694 206.359L211.568 212.5L216.553 216.662L221.651 212.638L216.694 206.359C221.651 212.638 221.653 212.637 221.654 212.636L221.657 212.633L221.664 212.628L221.679 212.616L221.715 212.587C221.73 212.575 221.747 212.561 221.766 212.547C221.779 212.536 221.794 212.524 221.809 212.511C221.881 212.452 221.973 212.377 222.081 212.285C222.298 212.102 222.586 211.853 222.928 211.54C223.611 210.918 224.525 210.035 225.545 208.914C227.557 206.703 230.129 203.405 232.091 199.211C234.713 193.607 235.1 187.297 235.073 181.732C235.052 177.541 234.126 173.463 232.385 169.924L225.351 172.654C225.195 172.714 225.04 172.776 224.886 172.839C226.243 175.314 227.056 178.41 227.073 181.771C227.099 187.126 226.671 191.917 224.845 195.821C221.801 202.328 216.694 206.359 216.694 206.359C216.694 206.359 211.621 202.124 208.551 195.901C207.758 194.294 207.208 192.555 206.832 190.721ZM340.843 168.973C339 172.67 338.168 177.038 338.075 181.715L338.073 181.815L338.073 181.915C338.099 187.234 338.532 193.675 341.377 199.44C343.34 203.421 345.873 206.643 347.826 208.814C348.819 209.918 349.705 210.797 350.362 211.417C350.691 211.728 350.966 211.977 351.171 212.158C351.274 212.249 351.359 212.323 351.426 212.38C351.459 212.409 351.488 212.433 351.512 212.453L351.543 212.48L351.556 212.491L351.562 212.496L351.565 212.498C351.566 212.499 351.568 212.5 356.694 206.359L351.568 212.5L356.553 216.662L361.651 212.638L356.694 206.359C361.651 212.638 361.653 212.637 361.654 212.636L361.657 212.633L361.664 212.628L361.679 212.616L361.715 212.587C361.741 212.566 361.773 212.541 361.809 212.511C361.881 212.452 361.973 212.377 362.081 212.285C362.298 212.102 362.586 211.853 362.928 211.541C363.611 210.918 364.525 210.035 365.545 208.914C366.704 207.641 368.048 206.007 369.355 204.049L365.975 192.703C365.677 193.795 365.306 194.836 364.845 195.821C361.801 202.328 356.694 206.359 356.694 206.359C356.694 206.359 351.621 202.124 348.551 195.901C346.556 191.858 346.098 186.972 346.073 181.875C346.16 177.523 347.007 174.2 348.396 171.815C347.316 171.3 346.202 170.841 345.058 170.442L340.843 168.973Z" fill="#E3E5E9"/>
</g>
<path d="M285.5 179C287.532 182.446 287.532 182.445 287.533 182.445L287.536 182.443L287.542 182.439L287.563 182.427L287.638 182.382C287.701 182.345 287.793 182.29 287.91 182.218C288.146 182.075 288.488 181.866 288.925 181.593C289.8 181.047 291.059 180.244 292.621 179.202C295.743 177.121 300.085 174.08 304.992 170.227C314.771 162.549 326.958 151.518 336.175 138.287C348.46 120.652 351 99.5998 351 78.5V78.4286L350.997 78.3572C350.218 56.5279 343.019 40.2843 331.105 29.5309C319.236 18.8196 303.18 14 285.5 14C249.387 14 220 42.8161 220 78.5C220 100.646 222.642 121.271 234.143 138.245C243.489 152.036 255.87 163.09 265.812 170.655C270.8 174.451 275.215 177.399 278.392 179.404C279.982 180.406 281.264 181.175 282.156 181.696C282.602 181.957 282.95 182.156 283.192 182.292C283.312 182.36 283.406 182.413 283.471 182.449L283.548 182.492L283.57 182.504L283.578 182.508L283.58 182.509C283.581 182.51 283.582 182.51 285.5 179ZM285.5 179L287.532 182.446L285.575 183.599L283.582 182.51L285.5 179Z" stroke="#F0F1F3" stroke-width="8"/>
<rect x="279" y="184.001" width="14" height="20" rx="7" fill="#928EAB"/>
<defs>
<linearGradient id="paint0_linear" x1="230.203" y1="104.382" x2="226.176" y2="104.382" gradientUnits="userSpaceOnUse">
<stop stop-color="#D3D7DC"/>
<stop offset="1" stop-color="#D3D7DC"/>
</linearGradient>
<linearGradient id="paint1_linear" x1="230.203" y1="104.382" x2="226.176" y2="104.382" gradientUnits="userSpaceOnUse">
<stop stop-color="#D3D7DC"/>
<stop offset="1" stop-color="#D3D7DC"/>
</linearGradient>
<linearGradient id="paint2_linear" x1="230.203" y1="104.382" x2="226.176" y2="104.382" gradientUnits="userSpaceOnUse">
<stop stop-color="#D3D7DC"/>
<stop offset="1" stop-color="#D3D7DC"/>
</linearGradient>
<linearGradient id="paint3_linear" x1="230.203" y1="104.382" x2="226.176" y2="104.382" gradientUnits="userSpaceOnUse">
<stop stop-color="#D3D7DC"/>
<stop offset="1" stop-color="#D3D7DC"/>
</linearGradient>
<linearGradient id="paint4_linear" x1="230.203" y1="104.382" x2="226.176" y2="104.382" gradientUnits="userSpaceOnUse">
<stop stop-color="#D3D7DC"/>
<stop offset="1" stop-color="#D3D7DC"/>
</linearGradient>
<linearGradient id="paint5_linear" x1="230.203" y1="104.382" x2="226.176" y2="104.382" gradientUnits="userSpaceOnUse">
<stop stop-color="#D3D7DC"/>
<stop offset="1" stop-color="#D3D7DC"/>
</linearGradient>
<linearGradient id="paint6_linear" x1="230.203" y1="104.382" x2="226.176" y2="104.382" gradientUnits="userSpaceOnUse">
<stop stop-color="#D3D7DC"/>
<stop offset="1" stop-color="#D3D7DC"/>
</linearGradient>
<linearGradient id="paint7_linear" x1="330.203" y1="104.382" x2="334.23" y2="104.382" gradientUnits="userSpaceOnUse">
<stop stop-color="#D3D7DC"/>
<stop offset="1" stop-color="#D3D7DC"/>
</linearGradient>
<linearGradient id="paint8_linear" x1="330.203" y1="104.382" x2="334.23" y2="104.382" gradientUnits="userSpaceOnUse">
<stop stop-color="#D3D7DC"/>
<stop offset="1" stop-color="#D3D7DC"/>
</linearGradient>
<linearGradient id="paint9_linear" x1="330.203" y1="104.382" x2="334.23" y2="104.382" gradientUnits="userSpaceOnUse">
<stop stop-color="#D3D7DC"/>
<stop offset="1" stop-color="#D3D7DC"/>
</linearGradient>
<linearGradient id="paint10_linear" x1="330.203" y1="104.382" x2="334.23" y2="104.382" gradientUnits="userSpaceOnUse">
<stop stop-color="#D3D7DC"/>
<stop offset="1" stop-color="#D3D7DC"/>
</linearGradient>
<linearGradient id="paint11_linear" x1="330.203" y1="104.382" x2="334.23" y2="104.382" gradientUnits="userSpaceOnUse">
<stop stop-color="#D3D7DC"/>
<stop offset="1" stop-color="#D3D7DC"/>
</linearGradient>
<linearGradient id="paint12_linear" x1="330.203" y1="104.382" x2="334.23" y2="104.382" gradientUnits="userSpaceOnUse">
<stop stop-color="#D3D7DC"/>
<stop offset="1" stop-color="#D3D7DC"/>
</linearGradient>
<linearGradient id="paint13_linear" x1="330.203" y1="104.382" x2="334.23" y2="104.382" gradientUnits="userSpaceOnUse">
<stop stop-color="#D3D7DC"/>
<stop offset="1" stop-color="#D3D7DC"/>
</linearGradient>
</defs>
</svg>
