<svg width="1397" height="938" viewBox="0 0 1397 938" fill="none" xmlns="http://www.w3.org/2000/svg">
<g clip-path="url(#clip0)">
<path fill-rule="evenodd" clip-rule="evenodd" d="M1135.28 540.027L1113.2 552.767L1039.32 552.124L953.007 601.925L950.408 600.425L1037.82 549.991L1111.7 550.633L1132.68 538.528L1135.28 540.027ZM806.004 425.453L857.212 396.753L854.651 395.232L801.915 424.788L816.769 458.21L760.341 490.766L762.94 492.265L820.849 458.855L806.004 425.453ZM1086.11 579.104L1158.11 579.104V576.984H1084.59L997.183 627.412L999.781 628.911L1086.11 579.104ZM952.803 476.523V493.253L915.142 514.112L857.973 547.095L855.375 545.596L912.557 512.605L912.57 512.597L949.128 492.349V476.523L952.803 476.523ZM1013.89 512.826L906.233 574.938L903.634 573.439L1011.29 511.327L1013.89 512.826ZM845.89 482.981L867.58 471.301L865.072 469.751L842.215 482.06V498.359L807.858 518.181L810.456 519.68L845.89 499.237V482.981ZM1061.12 621.807L1079.67 611.647L1077.14 610.11L1057.45 620.896L1057.43 648.34L1045.44 655.255L1048.04 656.754L1061.1 649.218L1061.12 621.807ZM543.48 466.955L586.236 491.623L583.638 493.122L541.95 469.07L494.653 468.918L460.633 449.29L463.232 447.791L496.184 466.803L543.48 466.955ZM1084.16 781.898L1042.47 757.846L1045.07 756.347L1087.83 781.015L1088.09 808.303L1121.04 827.314L1118.44 828.814L1084.42 809.186L1084.16 781.898ZM407.101 443.957L407.101 402.418L403.426 402.418V444.836L535.378 520.965L537.977 519.466L407.101 443.957ZM1199.69 861.819H1126.17L994.213 785.69L996.812 784.19L1127.69 859.699L1199.69 859.699V861.819ZM339.371 415.59L361.452 428.329L360.338 470.951L491.202 546.453L488.604 547.952L356.64 471.816L357.754 429.194L336.773 417.089L339.371 415.59ZM1154.78 886.036L1176.86 898.776L1174.26 900.275L1153.28 888.17L1079.4 888.812L947.439 812.676L950.037 811.177L1080.9 886.679L1154.78 886.036ZM292.226 485.626L444.428 573.439L441.829 574.938L289.627 487.125L292.226 485.626ZM1052.87 927.476L900.664 839.662L903.263 838.163L1055.47 925.976L1052.87 927.476ZM257.916 521.089L396.54 601.068L393.941 602.567L256.374 523.198L229.278 522.989L229.327 520.869L257.916 521.089ZM990.344 946.661L852.776 867.291L855.375 865.792L993.999 945.771L994.38 962.265L990.705 962.294L990.344 946.661ZM283.52 591.119L348.652 628.697L346.053 630.196L281.998 593.24H253.763L217.583 571.496L220.234 570.028L255.329 591.119L283.52 591.119ZM868.943 931.877L804.888 894.92L807.487 893.421L872.618 930.999V947.264L909.175 967.512L906.63 969.041L868.943 948.167V931.877ZM213.73 605.684L301.135 656.112L298.536 657.611L212.208 607.804L139.432 607.804L88.404 577.497L91.04 576.02L140.985 605.684L213.73 605.684ZM843.7 972.142L757.371 922.335L759.97 920.836L847.375 971.264L847.375 1013.23L898.789 1042.05L896.228 1043.57L843.7 1014.13V972.142ZM240.624 790.617L297.051 758.061L299.65 759.56L241.74 792.971L183.846 784.406L134.102 813.95L131.466 812.473L182.695 782.047L240.624 790.617ZM310.211 805.298L344.568 785.475L347.167 786.975L311.733 807.418H283.558L263.314 819.932L260.627 818.485L281.961 805.298H310.211ZM392.085 812.89L394.684 814.389L337.515 847.373L301.361 869.101H272.365L272.365 866.981H299.795L334.89 845.889L334.903 845.881L392.085 812.89ZM332.689 902.845L440.345 840.733L442.943 842.233L335.288 904.344L332.689 902.845ZM487.119 867.72L489.717 869.219L403.4 919.02L404.514 961.641L382.433 974.381L379.835 972.881L400.816 960.776L399.702 918.155L487.119 867.72ZM533.893 894.706L536.492 896.206L450.163 946.013L450.163 987.553H446.488V945.135L533.893 894.706ZM570.167 929.465L582.153 922.549L584.751 924.049L571.69 931.585L524.179 931.597L506.57 942.3L503.904 940.84L522.6 929.477L570.167 929.465Z" fill="url(#paint0_linear)"/>
<path fill-rule="evenodd" clip-rule="evenodd" d="M740.109 904.024L764.61 918.16L752.731 925.014L728.229 910.878L704.841 924.372C686.184 935.136 655.936 935.136 637.279 924.372L615.377 911.735L589.391 926.727L577.512 919.874L603.498 904.881L567.86 884.32L541.875 899.312L529.995 892.459L555.981 877.467L520.343 856.905L494.358 871.898L482.478 865.044L508.464 850.052L472.826 829.491L446.841 844.483L434.962 837.629L460.947 822.637L425.309 802.076L399.324 817.068L387.445 810.214L413.43 795.222L377.792 774.661L351.807 789.653L339.928 782.799L365.913 767.807L330.275 747.246L304.29 762.238L292.411 755.385L318.396 740.392L296.493 727.755C277.836 716.991 277.836 699.54 296.493 688.776L319.881 675.282L293.896 660.289L305.775 653.436L331.76 668.428L367.398 647.867L341.413 632.875L353.292 626.021L379.277 641.013L414.915 620.452L388.929 605.46L400.809 598.606L426.794 613.598L462.432 593.037L436.446 578.045L448.326 571.191L474.311 586.184L509.949 565.623L483.963 550.63L495.842 543.776L521.828 558.769L557.466 538.208L531.48 523.215L543.359 516.362L569.345 531.354L604.983 510.793L578.997 495.801L590.876 488.947L616.862 503.939L637.279 492.159C655.936 481.395 686.184 481.395 704.841 492.159L1045.63 688.776C1064.28 699.54 1064.28 716.991 1045.63 727.755L1025.21 739.535L1049.71 753.671L1037.83 760.525L1013.33 746.389L977.693 766.95L1002.19 781.086L990.315 787.94L965.814 773.804L930.176 794.365L954.678 808.501L942.798 815.355L918.297 801.219L882.659 821.78L907.161 835.916L895.282 842.769L870.78 828.633L835.142 849.195L859.644 863.331L847.765 870.184L823.263 856.048L787.626 876.609L812.127 890.745L800.248 897.599L775.746 883.463L740.109 904.024ZM1051.94 659.861L1023.73 676.139L1011.85 669.285L1040.06 653.008L1051.94 659.861ZM976.209 648.724L1004.42 632.446L992.543 625.593L964.329 641.87L976.209 648.724ZM956.905 605.032L928.692 621.309L916.813 614.455L945.026 598.178L956.905 605.032ZM881.175 593.894L909.388 577.617L897.509 570.763L869.296 587.041L881.175 593.894ZM861.871 550.202L833.658 566.479L821.779 559.626L849.992 543.348L861.871 550.202ZM786.141 539.065L814.354 522.787L802.475 515.933L774.262 532.211L786.141 539.065ZM766.837 495.372L738.624 511.65L726.745 504.796L754.958 488.518L766.837 495.372ZM699.644 495.158L1040.43 691.774C1056.22 700.882 1056.22 715.649 1040.43 724.757L699.644 921.373C683.858 930.481 658.263 930.481 642.476 921.373L301.69 724.757C285.904 715.649 285.904 700.882 301.69 691.774L642.476 495.158C658.263 486.05 683.858 486.05 699.644 495.158Z" fill="url(#paint1_linear)"/>
<path d="M1123.96 824.777C1126.42 823.358 1130.41 823.358 1132.87 824.777L1142.52 830.346C1144.98 831.765 1144.98 834.067 1142.52 835.486L1132.87 841.055C1130.41 842.474 1126.42 842.474 1123.96 841.055L1114.31 835.486C1111.84 834.067 1111.84 831.765 1114.31 830.346L1123.96 824.777Z" fill="url(#paint2_linear)"/>
<path d="M1210.82 852.62C1213.28 851.201 1217.27 851.201 1219.73 852.62L1229.39 858.189C1231.85 859.608 1231.85 861.91 1229.39 863.329L1219.73 868.898C1217.27 870.317 1213.28 870.317 1210.82 868.898L1201.17 863.329C1198.71 861.91 1198.71 859.608 1201.17 858.189L1210.82 852.62Z" fill="url(#paint3_linear)"/>
<path d="M1180.38 896.741C1182.84 895.322 1186.83 895.322 1189.29 896.741L1198.94 902.31C1201.41 903.729 1201.41 906.031 1198.94 907.45L1189.29 913.019C1186.83 914.438 1182.84 914.438 1180.38 913.019L1170.73 907.45C1168.27 906.031 1168.27 903.729 1170.73 902.31L1180.38 896.741Z" fill="url(#paint4_linear)"/>
<path d="M1058.62 924.156C1061.08 922.736 1065.07 922.736 1067.53 924.156L1077.18 929.725C1079.64 931.144 1079.64 933.445 1077.18 934.865L1067.53 940.433C1065.07 941.853 1061.08 941.853 1058.62 940.433L1048.97 934.865C1046.51 933.445 1046.51 931.144 1048.97 929.725L1058.62 924.156Z" fill="url(#paint5_linear)"/>
<path d="M988.089 963.136C990.549 961.717 994.538 961.717 996.998 963.136L1006.65 968.705C1009.11 970.124 1009.11 972.426 1006.65 973.845L996.998 979.414C994.538 980.833 990.549 980.833 988.089 979.414L978.437 973.845C975.976 972.426 975.976 970.124 978.437 968.705L988.089 963.136Z" fill="url(#paint6_linear)"/>
<path d="M912.359 965.706C914.819 964.287 918.808 964.287 921.268 965.706L930.92 971.275C933.38 972.695 933.38 974.996 930.92 976.415L921.268 981.984C918.808 983.403 914.819 983.403 912.359 981.984L902.707 976.415C900.246 974.996 900.246 972.695 902.707 971.275L912.359 965.706Z" fill="url(#paint7_linear)"/>
<path d="M893.797 1036.39C896.258 1034.97 900.246 1034.97 902.707 1036.39L912.359 1041.95C914.819 1043.37 914.819 1045.67 912.359 1047.09L902.707 1052.66C900.246 1054.08 896.258 1054.08 893.797 1052.66L884.145 1047.09C881.685 1045.67 881.685 1043.37 884.145 1041.95L893.797 1036.39Z" fill="url(#paint8_linear)"/>
<path d="M467.63 446.11C470.09 444.691 470.09 442.389 467.63 440.97L457.978 435.401C455.518 433.982 451.529 433.982 449.069 435.401L439.417 440.97C436.957 442.389 436.957 444.691 439.417 446.11L449.069 451.679C451.529 453.098 455.518 453.098 457.978 451.679L467.63 446.11Z" fill="url(#paint9_linear)"/>
<path d="M419.371 395.992C421.831 394.573 421.831 392.272 419.371 390.852L409.719 385.283C407.259 383.864 403.27 383.864 400.809 385.283L391.158 390.852C388.697 392.272 388.697 394.573 391.158 395.992L400.81 401.561C403.27 402.98 407.259 402.98 409.719 401.561L419.371 395.992Z" fill="url(#paint10_linear)"/>
<path d="M342.898 413.555C345.359 412.136 345.359 409.834 342.898 408.415L333.246 402.846C330.786 401.427 326.797 401.427 324.337 402.846L314.685 408.415C312.225 409.834 312.225 412.136 314.685 413.555L324.337 419.124C326.797 420.543 330.786 420.543 333.246 419.124L342.898 413.555Z" fill="url(#paint11_linear)"/>
<path d="M295.381 483.805C297.842 482.386 297.842 480.085 295.381 478.665L285.73 473.097C283.269 471.677 279.28 471.677 276.82 473.097L267.168 478.665C264.708 480.085 264.708 482.386 267.168 483.805L276.82 489.374C279.28 490.794 283.269 490.794 285.73 489.374L295.381 483.805Z" fill="url(#paint12_linear)"/>
<path d="M227.818 524.499C230.279 523.08 230.279 520.778 227.818 519.359L218.166 513.79C215.706 512.371 211.717 512.371 209.257 513.79L199.605 519.359C197.145 520.778 197.145 523.08 199.605 524.499L209.257 530.068C211.717 531.487 215.706 531.487 218.166 530.068L227.818 524.499Z" fill="url(#paint13_linear)"/>
<path d="M223.364 568.192C225.824 566.772 225.824 564.471 223.364 563.051L213.712 557.483C211.252 556.063 207.263 556.063 204.802 557.483L195.15 563.051C192.69 564.471 192.69 566.772 195.15 568.192L204.802 573.76C207.263 575.18 211.251 575.18 213.712 573.76L223.364 568.192Z" fill="url(#paint14_linear)"/>
<path d="M100.859 578.901C103.319 577.481 103.319 575.18 100.859 573.76L91.2073 568.192C88.747 566.772 84.7581 566.772 82.2979 568.192L72.646 573.76C70.1857 575.18 70.1857 577.481 72.646 578.901L82.2978 584.469C84.7581 585.889 88.747 585.889 91.2073 584.469L100.859 578.901Z" fill="url(#paint15_linear)"/>
<path d="M511.435 943.432C513.895 944.851 513.895 947.153 511.435 948.572L501.783 954.141C499.323 955.56 495.334 955.56 492.873 954.141L483.222 948.572C480.761 947.153 480.761 944.851 483.222 943.432L492.873 937.863C495.334 936.444 499.323 936.444 501.783 937.863L511.435 943.432Z" fill="url(#paint16_linear)"/>
<path d="M463.175 993.55C465.636 994.969 465.636 997.271 463.175 998.69L453.524 1004.26C451.063 1005.68 447.074 1005.68 444.614 1004.26L434.962 998.69C432.502 997.271 432.502 994.969 434.962 993.55L444.614 987.981C447.074 986.562 451.063 986.562 453.524 987.981L463.175 993.55Z" fill="url(#paint17_linear)"/>
<path d="M386.703 975.987C389.163 977.406 389.163 979.708 386.703 981.127L377.051 986.696C374.591 988.115 370.602 988.115 368.142 986.696L358.49 981.127C356.03 979.708 356.029 977.406 358.49 975.987L368.142 970.418C370.602 968.999 374.591 968.999 377.051 970.418L386.703 975.987Z" fill="url(#paint18_linear)"/>
<path d="M339.928 906.165C342.389 907.584 342.389 909.886 339.928 911.305L330.277 916.874C327.816 918.293 323.827 918.293 321.367 916.874L311.715 911.305C309.255 909.886 309.255 907.584 311.715 906.165L321.367 900.596C323.827 899.177 327.816 899.177 330.277 900.596L339.928 906.165Z" fill="url(#paint19_linear)"/>
<path d="M270.881 865.471C273.341 866.89 273.341 869.192 270.88 870.611L261.229 876.18C258.768 877.599 254.779 877.599 252.319 876.18L242.667 870.611C240.207 869.192 240.207 866.891 242.667 865.471L252.319 859.902C254.779 858.483 258.768 858.483 261.229 859.902L270.881 865.471Z" fill="url(#paint20_linear)"/>
<path d="M267.168 821.35C269.628 822.77 269.628 825.071 267.168 826.491L257.516 832.059C255.056 833.479 251.067 833.479 248.607 832.059L238.955 826.491C236.495 825.071 236.495 822.77 238.955 821.35L248.607 815.782C251.067 814.362 255.056 814.362 257.516 815.782L267.168 821.35Z" fill="url(#paint21_linear)"/>
<path d="M144.664 810.641C147.124 812.061 147.124 814.362 144.664 815.782L135.012 821.35C132.552 822.77 128.563 822.77 126.102 821.35L116.451 815.782C113.99 814.362 113.99 812.061 116.451 810.641L126.103 805.073C128.563 803.653 132.552 803.653 135.012 805.073L144.664 810.641Z" fill="url(#paint22_linear)"/>
<path d="M1080.89 614.883C1083.36 616.302 1087.34 616.302 1089.8 614.883L1099.46 609.314C1101.92 607.894 1101.92 605.593 1099.46 604.174L1089.8 598.605C1087.34 597.186 1083.36 597.186 1080.89 598.605L1071.24 604.174C1068.78 605.593 1068.78 607.894 1071.24 609.314L1080.89 614.883Z" fill="url(#paint23_linear)"/>
<path d="M1167.76 587.039C1170.22 588.459 1174.21 588.459 1176.67 587.039L1186.32 581.471C1188.78 580.051 1188.78 577.75 1186.32 576.33L1176.67 570.762C1174.21 569.342 1170.22 569.342 1167.76 570.762L1158.11 576.33C1155.65 577.75 1155.65 580.051 1158.11 581.471L1167.76 587.039Z" fill="url(#paint24_linear)"/>
<path d="M1137.32 542.919C1139.78 544.338 1143.77 544.338 1146.23 542.919L1155.88 537.35C1158.34 535.931 1158.34 533.629 1155.88 532.21L1146.23 526.641C1143.77 525.222 1139.78 525.222 1137.32 526.641L1127.67 532.21C1125.21 533.629 1125.21 535.931 1127.67 537.35L1137.32 542.919Z" fill="url(#paint25_linear)"/>
<path d="M1016.3 515.932C1018.76 517.352 1022.75 517.352 1025.21 515.932L1034.86 510.364C1037.32 508.944 1037.32 506.643 1034.86 505.223L1025.21 499.655C1022.75 498.235 1018.76 498.235 1016.3 499.655L1006.65 505.223C1004.19 506.643 1004.19 508.944 1006.65 510.364L1016.3 515.932Z" fill="url(#paint26_linear)"/>
<path d="M945.769 476.095C948.229 477.514 952.218 477.514 954.678 476.095L964.33 470.526C966.79 469.107 966.79 466.806 964.33 465.386L954.678 459.817C952.218 458.398 948.229 458.398 945.769 459.817L936.117 465.386C933.657 466.806 933.657 469.107 936.117 470.526L945.769 476.095Z" fill="url(#paint27_linear)"/>
<path d="M869.296 473.953C871.757 475.373 875.745 475.373 878.206 473.953L887.858 468.385C890.318 466.965 890.318 464.664 887.858 463.244L878.206 457.676C875.745 456.256 871.757 456.256 869.296 457.676L859.644 463.244C857.184 464.664 857.184 466.965 859.644 468.385L869.296 473.953Z" fill="url(#paint28_linear)"/>
<path d="M850.735 403.274C853.195 404.694 857.184 404.694 859.644 403.274L869.296 397.706C871.757 396.286 871.757 393.985 869.296 392.566L859.644 386.997C857.184 385.577 853.195 385.577 850.735 386.997L841.083 392.566C838.623 393.985 838.623 396.286 841.083 397.706L850.735 403.274Z" fill="url(#paint29_linear)"/>
<path fill-rule="evenodd" clip-rule="evenodd" d="M1139.92 831.845L1130.27 826.276C1129.24 825.685 1127.58 825.685 1126.56 826.276L1116.9 831.845C1115.88 832.436 1115.88 833.395 1116.9 833.987L1126.56 839.556C1127.58 840.147 1129.24 840.147 1130.27 839.556L1139.92 833.987C1140.95 833.395 1140.95 832.436 1139.92 831.845ZM1226.79 859.688L1217.13 854.12C1216.11 853.528 1214.45 853.528 1213.42 854.12L1203.77 859.688C1202.75 860.28 1202.75 861.239 1203.77 861.83L1213.42 867.399C1214.45 867.99 1216.11 867.99 1217.13 867.399L1226.79 861.83C1227.81 861.239 1227.81 860.28 1226.79 859.688ZM1196.35 903.809L1186.69 898.24C1185.67 897.649 1184.01 897.649 1182.98 898.24L1173.33 903.809C1172.31 904.4 1172.3 905.359 1173.33 905.951L1182.98 911.519C1184.01 912.111 1185.67 912.111 1186.69 911.519L1196.35 905.951C1197.37 905.359 1197.37 904.4 1196.35 903.809ZM1074.58 931.224L1064.93 925.655C1063.91 925.064 1062.25 925.064 1061.22 925.655L1051.57 931.224C1050.54 931.815 1050.54 932.774 1051.57 933.366L1061.22 938.934C1062.25 939.526 1063.91 939.526 1064.93 938.934L1074.58 933.366C1075.61 932.774 1075.61 931.815 1074.58 931.224ZM1004.05 970.204L994.399 964.636C993.374 964.044 991.712 964.044 990.687 964.636L981.035 970.204C980.01 970.796 980.01 971.755 981.035 972.346L990.687 977.915C991.712 978.506 993.374 978.506 994.399 977.915L1004.05 972.346C1005.08 971.755 1005.08 970.796 1004.05 970.204ZM928.321 972.774L918.669 967.206C917.644 966.614 915.982 966.614 914.957 967.206L905.305 972.774C904.28 973.366 904.28 974.325 905.305 974.916L914.957 980.485C915.982 981.076 917.644 981.076 918.669 980.485L928.321 974.916C929.346 974.325 929.346 973.366 928.321 972.774ZM909.76 1043.45L900.108 1037.88C899.083 1037.29 897.421 1037.29 896.396 1037.88L886.744 1043.45C885.719 1044.04 885.719 1045 886.744 1045.6L896.396 1051.16C897.421 1051.76 899.083 1051.76 900.108 1051.16L909.76 1045.59C910.785 1045 910.785 1044.04 909.76 1043.45ZM465.032 442.469L455.38 436.9C454.355 436.309 452.693 436.309 451.667 436.9L442.016 442.469C440.99 443.06 440.99 444.019 442.016 444.611L451.667 450.179C452.693 450.771 454.355 450.771 455.38 450.179L465.032 444.611C466.057 444.019 466.057 443.06 465.032 442.469ZM416.772 392.351L407.12 386.783C406.095 386.191 404.433 386.191 403.408 386.783L393.756 392.351C392.731 392.943 392.731 393.902 393.756 394.493L403.408 400.062C404.433 400.653 406.095 400.653 407.12 400.062L416.772 394.493C417.797 393.902 417.797 392.943 416.772 392.351ZM340.3 409.914L330.648 404.345C329.623 403.754 327.961 403.754 326.936 404.345L317.284 409.914C316.259 410.505 316.259 411.464 317.284 412.056L326.936 417.624C327.961 418.216 329.623 418.216 330.648 417.624L340.3 412.056C341.325 411.464 341.325 410.505 340.3 409.914ZM292.783 480.164L283.131 474.596C282.106 474.004 280.444 474.004 279.419 474.596L269.767 480.164C268.742 480.756 268.742 481.715 269.767 482.306L279.419 487.875C280.444 488.466 282.106 488.466 283.131 487.875L292.783 482.306C293.808 481.715 293.808 480.756 292.783 480.164ZM225.22 520.858L215.568 515.29C214.543 514.698 212.881 514.698 211.856 515.29L202.204 520.858C201.179 521.45 201.179 522.409 202.204 523L211.856 528.569C212.881 529.16 214.543 529.16 215.568 528.569L225.22 523C226.245 522.409 226.245 521.45 225.22 520.858ZM220.765 564.551L211.113 558.982C210.088 558.391 208.426 558.391 207.401 558.982L197.749 564.551C196.724 565.142 196.724 566.101 197.749 566.692L207.401 572.261C208.426 572.853 210.088 572.853 211.113 572.261L220.765 566.692C221.79 566.101 221.79 565.142 220.765 564.551ZM98.2606 575.26L88.6087 569.691C87.5836 569.099 85.9215 569.099 84.8964 569.691L75.2445 575.26C74.2194 575.851 74.2193 576.81 75.2445 577.401L84.8964 582.97C85.9215 583.561 87.5836 583.561 88.6088 582.97L98.2606 577.401C99.2858 576.81 99.2857 575.851 98.2606 575.26ZM499.184 952.642L508.836 947.073C509.861 946.482 509.861 945.523 508.836 944.931L499.184 939.362C498.159 938.771 496.497 938.771 495.472 939.362L485.82 944.931C484.795 945.523 484.795 946.482 485.82 947.073L495.472 952.642C496.497 953.233 498.159 953.233 499.184 952.642ZM450.925 1002.76L460.577 997.191C461.602 996.599 461.602 995.64 460.577 995.049L450.925 989.48C449.9 988.889 448.238 988.889 447.213 989.48L437.561 995.049C436.536 995.64 436.536 996.599 437.561 997.191L447.213 1002.76C448.238 1003.35 449.9 1003.35 450.925 1002.76ZM374.453 985.197L384.104 979.628C385.13 979.037 385.13 978.078 384.104 977.486L374.453 971.918C373.427 971.326 371.765 971.326 370.74 971.918L361.088 977.486C360.063 978.078 360.063 979.037 361.088 979.628L370.74 985.197C371.765 985.788 373.427 985.788 374.453 985.197ZM327.678 915.375L337.33 909.806C338.355 909.215 338.355 908.256 337.33 907.664L327.678 902.096C326.653 901.504 324.991 901.504 323.966 902.096L314.314 907.664C313.289 908.256 313.289 909.215 314.314 909.806L323.966 915.375C324.991 915.966 326.653 915.966 327.678 915.375ZM258.63 874.681L268.282 869.112C269.307 868.521 269.307 867.562 268.282 866.97L258.63 861.402C257.605 860.81 255.943 860.81 254.918 861.402L245.266 866.97C244.241 867.562 244.241 868.521 245.266 869.112L254.918 874.681C255.943 875.272 257.605 875.272 258.63 874.681ZM254.918 830.56L264.57 824.991C265.595 824.4 265.595 823.441 264.57 822.85L254.918 817.281C253.893 816.689 252.231 816.689 251.205 817.281L241.554 822.85C240.528 823.441 240.529 824.4 241.554 824.991L251.206 830.56C252.231 831.151 253.893 831.151 254.918 830.56ZM132.413 819.851L142.065 814.282C143.09 813.691 143.09 812.732 142.065 812.141L132.413 806.572C131.388 805.981 129.726 805.981 128.701 806.572L119.049 812.141C118.024 812.732 118.024 813.691 119.049 814.283L128.701 819.851C129.726 820.443 131.388 820.443 132.413 819.851ZM1087.21 613.383L1096.86 607.815C1097.88 607.223 1097.88 606.264 1096.86 605.673L1087.21 600.104C1086.18 599.513 1084.52 599.513 1083.49 600.104L1073.84 605.673C1072.82 606.264 1072.82 607.223 1073.84 607.815L1083.49 613.383C1084.52 613.975 1086.18 613.975 1087.21 613.383ZM1174.07 585.54L1183.72 579.971C1184.75 579.38 1184.75 578.421 1183.72 577.83L1174.07 572.261C1173.05 571.67 1171.39 571.67 1170.36 572.261L1160.71 577.83C1159.68 578.421 1159.68 579.38 1160.71 579.972L1170.36 585.54C1171.39 586.132 1173.05 586.132 1174.07 585.54ZM1143.63 541.419L1153.28 535.851C1154.31 535.259 1154.31 534.3 1153.28 533.709L1143.63 528.14C1142.61 527.549 1140.94 527.549 1139.92 528.14L1130.27 533.709C1129.24 534.3 1129.24 535.259 1130.27 535.851L1139.92 541.419C1140.94 542.011 1142.61 542.011 1143.63 541.419ZM1022.61 514.433L1032.26 508.864C1033.29 508.273 1033.29 507.314 1032.26 506.722L1022.61 501.154C1021.59 500.562 1019.93 500.562 1018.9 501.154L1009.25 506.722C1008.22 507.314 1008.22 508.273 1009.25 508.864L1018.9 514.433C1019.93 515.024 1021.59 515.024 1022.61 514.433ZM952.08 474.596L961.732 469.027C962.757 468.436 962.757 467.477 961.732 466.885L952.08 461.317C951.055 460.725 949.393 460.725 948.367 461.317L938.716 466.885C937.69 467.477 937.69 468.436 938.715 469.027L948.367 474.596C949.393 475.187 951.055 475.187 952.08 474.596ZM875.607 472.454L885.259 466.885C886.284 466.294 886.284 465.335 885.259 464.744L875.607 459.175C874.582 458.583 872.92 458.583 871.895 459.175L862.243 464.744C861.218 465.335 861.218 466.294 862.243 466.885L871.895 472.454C872.92 473.045 874.582 473.045 875.607 472.454ZM857.046 401.775L866.698 396.207C867.723 395.615 867.723 394.656 866.698 394.065L857.046 388.496C856.021 387.905 854.359 387.905 853.334 388.496L843.682 394.065C842.657 394.656 842.657 395.615 843.682 396.207L853.334 401.775C854.359 402.367 856.021 402.367 857.046 401.775ZM1146.23 542.919C1143.77 544.338 1139.78 544.338 1137.32 542.919L1127.67 537.35C1125.21 535.931 1125.21 533.629 1127.67 532.21L1137.32 526.641C1139.78 525.222 1143.77 525.222 1146.23 526.641L1155.88 532.21C1158.34 533.629 1158.34 535.931 1155.88 537.35L1146.23 542.919ZM1167.76 587.039C1170.22 588.459 1174.21 588.459 1176.67 587.039L1186.32 581.471C1188.78 580.051 1188.78 577.75 1186.32 576.33L1176.67 570.762C1174.21 569.342 1170.22 569.342 1167.76 570.762L1158.11 576.33C1155.65 577.75 1155.65 580.051 1158.11 581.471L1167.76 587.039ZM1089.8 614.883C1087.34 616.302 1083.36 616.302 1080.89 614.883L1071.24 609.314C1068.78 607.894 1068.78 605.593 1071.24 604.174L1080.89 598.605C1083.36 597.186 1087.34 597.186 1089.8 598.605L1099.46 604.174C1101.92 605.593 1101.92 607.894 1099.46 609.314L1089.8 614.883ZM419.371 395.992C421.831 394.573 421.831 392.272 419.371 390.852L409.719 385.283C407.259 383.864 403.27 383.864 400.809 385.283L391.158 390.852C388.697 392.272 388.697 394.573 391.158 395.992L400.81 401.561C403.27 402.98 407.259 402.98 409.719 401.561L419.371 395.992ZM1219.73 852.62C1217.27 851.201 1213.28 851.201 1210.82 852.62L1201.17 858.189C1198.71 859.608 1198.71 861.91 1201.17 863.329L1210.82 868.898C1213.28 870.317 1217.27 870.317 1219.73 868.898L1229.39 863.329C1231.85 861.91 1231.85 859.608 1229.39 858.189L1219.73 852.62ZM1132.87 824.777C1130.41 823.358 1126.42 823.358 1123.96 824.777L1114.31 830.346C1111.84 831.765 1111.84 834.067 1114.31 835.486L1123.96 841.055C1126.42 842.474 1130.41 842.474 1132.87 841.055L1142.52 835.486C1144.98 834.067 1144.98 831.765 1142.52 830.346L1132.87 824.777ZM1180.38 896.741C1182.84 895.322 1186.83 895.322 1189.29 896.741L1198.94 902.31C1201.41 903.729 1201.41 906.031 1198.94 907.45L1189.29 913.019C1186.83 914.438 1182.84 914.438 1180.38 913.019L1170.73 907.45C1168.27 906.031 1168.27 903.729 1170.73 902.31L1180.38 896.741ZM1067.53 924.156C1065.07 922.736 1061.08 922.736 1058.62 924.156L1048.97 929.725C1046.51 931.144 1046.51 933.445 1048.97 934.865L1058.62 940.433C1061.08 941.853 1065.07 941.853 1067.53 940.433L1077.18 934.865C1079.64 933.445 1079.64 931.144 1077.18 929.725L1067.53 924.156ZM988.089 963.136C990.549 961.717 994.538 961.717 996.998 963.136L1006.65 968.705C1009.11 970.124 1009.11 972.426 1006.65 973.845L996.998 979.414C994.538 980.833 990.549 980.833 988.089 979.414L978.437 973.845C975.976 972.426 975.976 970.124 978.437 968.705L988.089 963.136ZM921.268 965.706C918.808 964.287 914.819 964.287 912.359 965.706L902.707 971.275C900.246 972.695 900.246 974.996 902.707 976.415L912.359 981.984C914.819 983.403 918.808 983.403 921.268 981.984L930.92 976.415C933.38 974.996 933.38 972.695 930.92 971.275L921.268 965.706ZM893.797 1036.39C896.258 1034.97 900.246 1034.97 902.707 1036.39L912.359 1041.95C914.819 1043.37 914.819 1045.67 912.359 1047.09L902.707 1052.66C900.246 1054.08 896.258 1054.08 893.797 1052.66L884.145 1047.09C881.685 1045.67 881.685 1043.37 884.145 1041.95L893.797 1036.39ZM467.63 440.97C470.09 442.389 470.09 444.691 467.63 446.11L457.978 451.679C455.518 453.098 451.529 453.098 449.069 451.679L439.417 446.11C436.957 444.691 436.957 442.389 439.417 440.97L449.069 435.401C451.529 433.982 455.518 433.982 457.978 435.401L467.63 440.97ZM342.898 408.415C345.359 409.834 345.359 412.136 342.898 413.555L333.246 419.124C330.786 420.543 326.797 420.543 324.337 419.124L314.685 413.555C312.225 412.136 312.225 409.834 314.685 408.415L324.337 402.846C326.797 401.427 330.786 401.427 333.246 402.846L342.898 408.415ZM295.381 483.805C297.842 482.386 297.842 480.085 295.381 478.665L285.73 473.097C283.269 471.677 279.28 471.677 276.82 473.097L267.168 478.665C264.708 480.085 264.708 482.386 267.168 483.805L276.82 489.374C279.28 490.794 283.269 490.794 285.73 489.374L295.381 483.805ZM227.818 519.359C230.279 520.778 230.279 523.08 227.818 524.499L218.166 530.068C215.706 531.487 211.717 531.487 209.257 530.068L199.605 524.499C197.145 523.08 197.145 520.778 199.605 519.359L209.257 513.79C211.717 512.371 215.706 512.371 218.166 513.79L227.818 519.359ZM223.364 568.192C225.824 566.772 225.824 564.471 223.364 563.051L213.712 557.483C211.252 556.063 207.263 556.063 204.802 557.483L195.15 563.051C192.69 564.471 192.69 566.772 195.15 568.192L204.802 573.76C207.263 575.18 211.251 575.18 213.712 573.76L223.364 568.192ZM100.859 573.76C103.319 575.18 103.319 577.481 100.859 578.901L91.2073 584.469C88.747 585.889 84.7581 585.889 82.2978 584.469L72.646 578.901C70.1857 577.481 70.1857 575.18 72.646 573.76L82.2979 568.192C84.7581 566.772 88.747 566.772 91.2073 568.192L100.859 573.76ZM511.435 943.432C513.895 944.851 513.895 947.153 511.435 948.572L501.783 954.141C499.323 955.56 495.334 955.56 492.873 954.141L483.222 948.572C480.761 947.153 480.761 944.851 483.222 943.432L492.873 937.863C495.334 936.444 499.323 936.444 501.783 937.863L511.435 943.432ZM463.175 998.69C465.636 997.271 465.636 994.969 463.175 993.55L453.524 987.981C451.063 986.562 447.074 986.562 444.614 987.981L434.962 993.55C432.502 994.969 432.502 997.271 434.962 998.69L444.614 1004.26C447.074 1005.68 451.063 1005.68 453.524 1004.26L463.175 998.69ZM386.703 975.987C389.163 977.406 389.163 979.708 386.703 981.127L377.051 986.696C374.591 988.115 370.602 988.115 368.142 986.696L358.49 981.127C356.03 979.708 356.029 977.406 358.49 975.987L368.142 970.418C370.602 968.999 374.591 968.999 377.051 970.418L386.703 975.987ZM339.928 911.305C342.389 909.886 342.389 907.584 339.928 906.165L330.277 900.596C327.816 899.177 323.827 899.177 321.367 900.596L311.715 906.165C309.255 907.584 309.255 909.886 311.715 911.305L321.367 916.874C323.827 918.293 327.816 918.293 330.277 916.874L339.928 911.305ZM270.881 865.471C273.341 866.89 273.341 869.192 270.88 870.611L261.229 876.18C258.768 877.599 254.779 877.599 252.319 876.18L242.667 870.611C240.207 869.192 240.207 866.891 242.667 865.471L252.319 859.902C254.779 858.483 258.768 858.483 261.229 859.902L270.881 865.471ZM267.168 826.491C269.628 825.071 269.628 822.77 267.168 821.35L257.516 815.782C255.056 814.362 251.067 814.362 248.607 815.782L238.955 821.35C236.495 822.77 236.495 825.071 238.955 826.491L248.607 832.059C251.067 833.479 255.056 833.479 257.516 832.059L267.168 826.491ZM144.664 810.641C147.124 812.061 147.124 814.362 144.664 815.782L135.012 821.35C132.552 822.77 128.563 822.77 126.102 821.35L116.451 815.782C113.99 814.362 113.99 812.061 116.451 810.641L126.103 805.073C128.563 803.653 132.552 803.653 135.012 805.073L144.664 810.641ZM1016.3 515.932C1018.76 517.352 1022.75 517.352 1025.21 515.932L1034.86 510.364C1037.32 508.944 1037.32 506.643 1034.86 505.223L1025.21 499.655C1022.75 498.235 1018.76 498.235 1016.3 499.655L1006.65 505.223C1004.19 506.643 1004.19 508.944 1006.65 510.364L1016.3 515.932ZM954.678 476.095C952.218 477.514 948.229 477.514 945.769 476.095L936.117 470.526C933.657 469.107 933.657 466.806 936.117 465.386L945.769 459.817C948.229 458.398 952.218 458.398 954.678 459.817L964.33 465.386C966.79 466.806 966.79 469.107 964.33 470.526L954.678 476.095ZM869.296 473.953C871.757 475.373 875.745 475.373 878.206 473.953L887.858 468.385C890.318 466.965 890.318 464.664 887.858 463.244L878.206 457.676C875.745 456.256 871.757 456.256 869.296 457.676L859.644 463.244C857.184 464.664 857.184 466.965 859.644 468.385L869.296 473.953ZM859.644 403.274C857.184 404.694 853.195 404.694 850.735 403.274L841.083 397.706C838.623 396.286 838.623 393.985 841.083 392.566L850.735 386.997C853.195 385.577 857.184 385.577 859.644 386.997L869.296 392.566C871.757 393.985 871.757 396.286 869.296 397.706L859.644 403.274Z" fill="url(#paint30_linear)"/>
</g>
<path fill-rule="evenodd" clip-rule="evenodd" d="M361.3 384.607C361.3 384.607 314.955 327.657 305.973 317.1C295.129 304.366 284.653 301.433 270.132 302.739L281.828 355.397C281.828 355.397 327.682 408.974 343.241 422.423C358.799 435.872 367.803 428.75 377.089 421.053L382.764 411.493L361.3 384.607Z" fill="#ED9FA8"/>
<path d="M373.579 399.961C382.101 403.345 421.816 424.157 421.816 424.157C432.234 429.833 441.364 426.732 449.772 429.478C458.179 432.224 462.179 437.483 469.87 441.318C477.561 445.153 482.42 445.802 478.963 449.736C475.507 453.669 465.057 450.279 462.747 449.954C460.436 449.628 453.089 444.627 457.499 453.507C461.908 462.387 481.83 472.398 485.571 475.802C489.312 479.206 484.13 481.578 479.837 481.058C475.543 480.537 466.428 485.659 459.27 485.968C452.113 486.276 446.563 483.789 436.809 480.207C429.554 474.081 419.704 457.995 413.152 453.499C393.412 445.946 356.456 431.583 348.865 427.196C328.037 415.157 365.057 396.578 373.579 399.961Z" fill="#ED9FA8"/>
<path d="M373.637 399.67C368.381 404.003 363.176 413.385 362.865 417.486C362.723 413.623 363.382 409.774 364.799 406.178C366.217 402.583 368.363 399.319 371.103 396.594L373.637 399.67Z" fill="#E38A93"/>
<path d="M306.137 793.952C305.826 784.612 312.551 693.33 312.551 693.33L268.093 725.583C277.215 780.004 279.176 792.862 279.332 801.766C279.144 802.508 279.06 803.273 279.083 804.039C279.083 814.624 291.069 820.321 300.378 827.389C308.29 833.576 316.716 839.075 325.564 843.827C332.32 847.22 346.081 847.532 347.762 843.173C336.43 834.518 319.961 821.567 310.932 811.698C306.636 806.965 306.48 803.229 306.137 793.952Z" fill="#ED9FA8"/>
<path d="M367.096 854.599C367.6 856.052 367.69 857.617 367.354 859.118C367.019 860.619 366.272 861.998 365.197 863.098C357.032 868.985 346.87 871.403 336.928 869.823C322.794 867.986 315.135 863.97 309.5 859.238C303.865 854.505 295.926 847.843 289.513 846.442C284.414 845.471 279.564 843.48 275.254 840.589C273.354 838.752 273.604 830.595 273.604 830.595L367.096 854.599Z" fill="#564368"/>
<path d="M279.239 799.182C278.715 799.198 278.214 799.396 277.821 799.743C277.429 800.09 277.17 800.563 277.091 801.081C276.655 803.323 276.188 809.861 275.254 813.534C273.809 820.029 273.347 826.703 273.884 833.335C274.662 837.538 284.313 840.433 290.509 842.675C297.795 845.847 304.555 850.109 310.559 855.315C319.222 861.794 329.563 865.651 340.353 866.429C351.25 866.429 363.516 862.818 366.349 857.774C369.805 851.548 367.096 847.905 350.938 840.402C347.825 839.001 337.146 832.619 333.473 830.315C323.572 824.088 313.765 815.402 309.189 804.381C308.82 803.034 308.008 801.849 306.885 801.019C305.904 800.596 304.817 800.487 303.772 800.707C301.073 801.101 298.449 801.898 295.988 803.074C293.84 804.101 290.758 805.315 290.789 808.086C290.855 809.046 291.065 809.99 291.412 810.888C291.599 811.48 291.754 812.227 291.412 812.569C291.069 812.912 290.322 812.569 289.886 812.133C288.302 810.512 286.854 808.763 285.559 806.903C284.793 805.951 283.927 805.084 282.975 804.319C282.022 803.779 281.107 803.176 280.235 802.513C279.052 801.673 279.301 800.49 279.239 799.182Z" fill="#5D4C76"/>
<path d="M310.558 855.471C307.725 853.167 304.736 850.894 301.747 848.902C301.747 848.902 320.738 860.452 328.397 855.128C329.818 854.227 330.858 852.833 331.317 851.214C331.777 849.594 331.624 847.863 330.888 846.349C330.888 845.041 342.967 839.406 347.762 838.846C349.101 839.593 350.221 840.184 350.875 840.496C367.033 847.999 369.742 851.61 366.286 857.868C363.453 862.912 354.58 866.866 340.508 866.866C331.355 867.052 317.096 860.826 310.558 855.471Z" fill="#554267"/>
<path d="M329.549 842.582C339.605 846.598 335.309 848.466 332.507 848.808C329.705 849.151 312.8 839.468 302.464 831.187C292.128 822.906 284.936 813.348 280.951 810.234C279.456 809.082 277.837 807.65 276.405 806.311C276.685 804.101 276.903 802.077 277.09 801.019C277.17 800.501 277.429 800.028 277.821 799.681C278.213 799.334 278.715 799.135 279.238 799.12C279.238 800.427 279.052 801.642 280.048 802.607C280.92 803.269 281.835 803.872 282.788 804.412C283.74 805.178 284.606 806.044 285.372 806.996C286.667 808.856 288.115 810.606 289.699 812.227C300.902 824.819 314.434 835.126 329.549 842.582Z" fill="#564368"/>
<path d="M331.791 847.407C331.561 847.399 331.341 847.311 331.169 847.158C331.067 847.079 330.983 846.981 330.92 846.869C330.857 846.757 330.818 846.633 330.803 846.506C330.789 846.378 330.8 846.249 330.836 846.126C330.872 846.003 330.932 845.888 331.013 845.788C333.381 843.329 336.249 841.407 339.423 840.15C342.597 838.893 346.003 838.332 349.413 838.503C349.68 838.534 349.924 838.669 350.093 838.879C350.262 839.089 350.342 839.356 350.316 839.624C350.284 839.883 350.153 840.119 349.949 840.282C349.745 840.445 349.486 840.522 349.226 840.496C346.148 840.368 343.077 840.884 340.209 842.009C337.341 843.135 334.739 844.846 332.57 847.034C332.475 847.149 332.356 847.242 332.222 847.306C332.087 847.371 331.94 847.405 331.791 847.407Z" fill="#B5A2CA"/>
<path d="M323.043 842.146C322.806 842.156 322.573 842.079 322.389 841.928C322.212 841.738 322.113 841.487 322.113 841.227C322.113 840.967 322.212 840.717 322.389 840.527C324.762 838.077 327.632 836.162 330.805 834.911C333.978 833.66 337.382 833.102 340.789 833.273C341.053 833.302 341.295 833.434 341.461 833.642C341.628 833.849 341.705 834.114 341.676 834.378C341.647 834.642 341.514 834.884 341.307 835.051C341.1 835.217 340.835 835.294 340.571 835.265C337.492 835.13 334.418 835.642 331.549 836.768C328.68 837.894 326.08 839.61 323.915 841.803C323.809 841.928 323.674 842.024 323.522 842.083C323.37 842.143 323.205 842.165 323.043 842.146Z" fill="#B5A2CA"/>
<path d="M314.263 836.884C314.036 836.887 313.816 836.81 313.64 836.666C313.456 836.48 313.353 836.228 313.353 835.966C313.353 835.704 313.456 835.452 313.64 835.265C316.015 832.817 318.884 830.903 322.057 829.652C325.23 828.401 328.634 827.842 332.04 828.011C332.171 828.023 332.299 828.061 332.415 828.122C332.531 828.183 332.635 828.267 332.719 828.368C332.803 828.469 332.866 828.586 332.904 828.712C332.943 828.838 332.956 828.97 332.943 829.101C332.931 829.232 332.894 829.359 332.832 829.476C332.771 829.592 332.688 829.695 332.586 829.779C332.485 829.863 332.368 829.926 332.242 829.965C332.116 830.003 331.984 830.017 331.853 830.004C328.774 829.869 325.701 830.38 322.832 831.507C319.963 832.633 317.362 834.348 315.197 836.542C315.081 836.671 314.936 836.77 314.773 836.83C314.61 836.889 314.435 836.908 314.263 836.884Z" fill="#B5A2CA"/>
<path d="M306.138 831.063C305.911 831.065 305.691 830.988 305.515 830.845C305.42 830.754 305.344 830.646 305.292 830.525C305.241 830.405 305.214 830.275 305.214 830.144C305.214 830.013 305.241 829.883 305.292 829.763C305.344 829.642 305.42 829.534 305.515 829.444C307.886 826.99 310.755 825.073 313.929 823.822C317.103 822.571 320.508 822.014 323.915 822.19C324.174 822.221 324.41 822.353 324.573 822.556C324.736 822.76 324.813 823.02 324.787 823.279C324.755 823.538 324.624 823.775 324.42 823.938C324.216 824.101 323.956 824.177 323.697 824.151C320.619 824.029 317.55 824.547 314.683 825.673C311.816 826.798 309.214 828.506 307.041 830.689C306.935 830.824 306.796 830.929 306.638 830.994C306.48 831.059 306.308 831.083 306.138 831.063Z" fill="#B5A2CA"/>
<path d="M298.199 825.241C297.974 825.23 297.758 825.154 297.576 825.023C297.392 824.836 297.288 824.584 297.288 824.322C297.288 824.06 297.392 823.808 297.576 823.622C300.143 820.949 303.287 818.899 306.767 817.625C310.246 816.352 313.971 815.89 317.657 816.274C317.788 816.281 317.917 816.316 318.034 816.376C318.152 816.436 318.255 816.521 318.337 816.624C318.419 816.726 318.479 816.846 318.512 816.973C318.545 817.101 318.551 817.234 318.529 817.364C318.497 817.623 318.366 817.859 318.162 818.022C317.958 818.185 317.698 818.262 317.439 818.236C314.089 817.905 310.707 818.326 307.54 819.468C304.373 820.61 301.501 822.444 299.133 824.836C299.023 824.976 298.881 825.087 298.717 825.158C298.554 825.229 298.376 825.257 298.199 825.241Z" fill="#B5A2CA"/>
<path d="M222.389 734.892L177.526 734.083C178.18 764.033 182.944 797.252 183.753 825.334C183.753 830.627 183.753 866.43 185.621 877.326C188.734 893.671 208.037 891.461 209.064 881.685C210.092 871.909 207.819 830.097 207.881 825.645C207.694 807.65 216.131 777.233 220.583 744.886C220.77 743.423 222.171 736.449 222.389 734.892Z" fill="#ED9FA8"/>
<path d="M216.35 888.472C217.183 895.964 216.112 903.546 213.236 910.514C211.813 913.282 209.515 915.502 206.701 916.831C203.886 918.159 200.711 918.522 197.67 917.862C191.039 916.896 182.29 913.347 179.613 905.408C177.077 898.096 176.185 890.315 176.997 882.619L216.35 888.472Z" fill="#564368"/>
<path d="M183.629 821.909C180.982 822.376 181.481 835.297 181.232 848.279C180.951 862.227 177.433 868.329 177.091 879.755C176.686 892.83 177.963 898.434 183.317 905.844C188.672 913.254 205.391 919.231 212.147 907.276C217.657 897.532 216.91 887.413 215.011 874.587C213.112 861.76 211.617 852.046 211.119 841.897C210.621 831.747 210.403 822.75 208.006 821.909C208.006 823.341 208.006 825.178 208.006 826.579C208.006 827.98 208.224 832.806 206.73 833.117C206.499 831.916 206.364 830.698 206.325 829.475C206.394 828.344 206.026 827.229 205.297 826.361C204.397 825.697 203.303 825.347 202.184 825.365C199.517 825.065 196.835 824.919 194.152 824.929C192.813 824.929 191.443 824.929 190.136 825.147C188.985 825.235 187.859 825.519 186.804 825.988C186.494 826.12 186.215 826.316 185.984 826.563C185.754 826.809 185.577 827.101 185.466 827.42C185.372 827.914 185.372 828.421 185.466 828.914C185.575 829.803 185.575 830.703 185.466 831.592C185.466 831.996 185.185 832.495 184.781 832.432C184.376 832.37 184.314 831.996 184.283 831.685C184.096 830.128 184.283 828.977 184.096 827.171C184.096 826.33 184.096 825.178 184.096 824.338C184.096 823.497 183.66 822.75 183.629 821.909Z" fill="#5D4C76"/>
<path d="M177.309 876.019C177.309 877.918 176.904 890.402 180.422 892.27C183.94 894.138 185.31 884.425 185.31 884.425C185.31 884.425 193.56 880.969 206.512 885.141C206.076 887.195 208.629 893.609 211.898 891.865C215.167 890.122 215.011 875.894 215.011 875.707C216.786 888.161 217.346 897.812 211.898 907.276C205.142 919.231 188.361 913.192 183.068 905.844C177.776 898.497 176.499 892.83 176.842 879.755C176.997 878.447 177.215 877.233 177.309 876.019Z" fill="#554267"/>
<path d="M186.338 885.14C186.742 889.81 182.01 888.721 181.138 882.027C180.267 875.333 182.321 859.487 181.138 848.154C181.387 835.172 180.889 822.251 183.536 821.784C183.52 821.94 183.52 822.096 183.536 822.251L183.847 828.821C183.786 829.754 183.786 830.69 183.847 831.622C184.719 841.149 185.248 859.642 185.279 868.422C185.334 874.01 185.687 879.59 186.338 885.14Z" fill="#564368"/>
<path d="M205.017 885.141C205.627 879.63 205.928 874.091 205.92 868.547C205.92 859.829 206.48 841.554 207.352 831.965C207.689 830.191 207.825 828.384 207.757 826.579C207.757 825.272 207.757 823.466 207.757 822.221C207.757 822.221 207.757 822.034 207.757 821.909C209.5 822.563 210.123 827.7 210.497 834.176C210.497 837.943 210.497 842.613 210.154 848.279C208.971 859.611 211.026 875.676 210.154 882.245C209.282 888.814 204.706 889.811 205.017 885.141Z" fill="#564368"/>
<path d="M206.854 885.483H206.512C199.785 883.161 192.473 883.161 185.746 885.483C185.623 885.53 185.493 885.552 185.361 885.549C185.23 885.545 185.101 885.516 184.981 885.463C184.861 885.409 184.752 885.333 184.662 885.237C184.572 885.142 184.501 885.03 184.454 884.907C184.407 884.784 184.385 884.654 184.388 884.522C184.392 884.391 184.421 884.262 184.474 884.142C184.528 884.022 184.604 883.913 184.7 883.823C184.795 883.733 184.907 883.662 185.03 883.615C192.207 881.052 200.051 881.052 207.228 883.615C207.35 883.66 207.462 883.729 207.557 883.818C207.652 883.907 207.728 884.014 207.781 884.134C207.833 884.253 207.861 884.381 207.862 884.512C207.863 884.642 207.838 884.771 207.788 884.891C207.712 885.074 207.581 885.228 207.414 885.334C207.247 885.44 207.052 885.492 206.854 885.483Z" fill="#B5A2CA"/>
<path d="M208.131 875.147C208.018 875.175 207.901 875.175 207.788 875.147C200.224 872.799 192.127 872.799 184.563 875.147C184.438 875.191 184.306 875.21 184.174 875.202C184.042 875.195 183.913 875.161 183.794 875.103C183.675 875.045 183.569 874.964 183.482 874.865C183.395 874.765 183.328 874.65 183.286 874.524C183.243 874.402 183.224 874.272 183.232 874.142C183.24 874.012 183.274 873.885 183.332 873.769C183.391 873.653 183.472 873.549 183.571 873.465C183.67 873.381 183.785 873.318 183.909 873.279C191.899 870.734 200.483 870.734 208.473 873.279C208.692 873.36 208.875 873.515 208.991 873.718C209.107 873.92 209.148 874.157 209.107 874.387C209.067 874.617 208.946 874.825 208.768 874.975C208.589 875.125 208.364 875.208 208.131 875.209V875.147Z" fill="#B5A2CA"/>
<path d="M184.158 865.371C183.968 865.366 183.782 865.308 183.623 865.203C183.463 865.099 183.336 864.952 183.255 864.779C183.15 864.54 183.143 864.268 183.236 864.024C183.329 863.779 183.515 863.581 183.753 863.472C191.618 860.379 200.352 860.324 208.255 863.316C208.378 863.361 208.49 863.43 208.585 863.519C208.68 863.608 208.756 863.716 208.808 863.835C208.86 863.954 208.888 864.083 208.889 864.213C208.891 864.343 208.866 864.472 208.816 864.593C208.718 864.834 208.53 865.029 208.292 865.133C208.053 865.238 207.783 865.245 207.539 865.153C207.539 865.153 195.335 860.359 184.594 865.153C184.467 865.258 184.318 865.332 184.158 865.371Z" fill="#B5A2CA"/>
<path d="M183.94 856.218C183.752 856.219 183.567 856.167 183.408 856.068C183.248 855.969 183.119 855.826 183.037 855.657C182.93 855.421 182.918 855.153 183.005 854.909C183.092 854.665 183.271 854.464 183.504 854.35C187.407 852.571 191.639 851.627 195.928 851.579C200.217 851.53 204.469 852.379 208.411 854.07C208.529 854.123 208.635 854.2 208.723 854.295C208.81 854.39 208.878 854.502 208.922 854.624C208.965 854.746 208.984 854.876 208.976 855.005C208.969 855.135 208.935 855.261 208.878 855.377C208.824 855.495 208.748 855.601 208.652 855.689C208.557 855.777 208.445 855.845 208.323 855.888C208.201 855.932 208.071 855.95 207.942 855.943C207.813 855.935 207.686 855.902 207.57 855.844C203.871 854.312 199.9 853.547 195.897 853.596C191.895 853.644 187.943 854.504 184.282 856.124C184.174 856.174 184.058 856.206 183.94 856.218Z" fill="#B5A2CA"/>
<path d="M183.722 845.975C183.494 845.979 183.272 845.904 183.092 845.763C182.913 845.622 182.787 845.424 182.736 845.202C182.685 844.98 182.712 844.747 182.812 844.542C182.912 844.337 183.08 844.172 183.286 844.076C195.148 838.223 207.944 843.827 208.473 844.076C208.597 844.123 208.709 844.195 208.803 844.288C208.897 844.382 208.97 844.494 209.017 844.618C209.064 844.741 209.084 844.873 209.076 845.006C209.068 845.138 209.032 845.266 208.971 845.384C208.862 845.622 208.664 845.808 208.419 845.901C208.175 845.994 207.903 845.987 207.664 845.882C207.664 845.882 195.21 840.434 184.189 845.882C184.045 845.956 183.883 845.988 183.722 845.975Z" fill="#B5A2CA"/>
<path d="M192.283 443.642C176.468 487.446 179.239 514.937 181.947 560.858C184.438 602.95 188.392 640.03 188.392 640.03C187.769 647.502 177.371 662.072 175.938 695.073C175.479 718.31 176.519 741.552 179.052 764.655C179.052 764.655 199.755 772.221 217.252 764.655C217.252 764.655 235.154 685.609 240.041 646.972C244.276 613.255 251.685 570.167 251.685 570.167L267.252 646.817C264.209 657.118 262.647 667.8 262.613 678.541C262.613 696.567 270.988 746.692 270.988 746.692C270.988 746.692 294.182 754.195 308.877 741.15C308.877 741.15 314.699 669.015 316.753 641.524C319.493 604.849 315.508 504.32 306.697 452.857L192.283 443.642Z" fill="#5D4C76"/>
<path d="M251.872 570.042L258.348 512.384C258.348 512.384 287.333 508.523 300.471 496.164C296.702 502.058 291.678 507.048 285.758 510.778C279.839 514.507 273.169 516.884 266.224 517.739L256.885 571.412L267.47 646.692L251.872 570.042Z" fill="#554267"/>
<path d="M274.164 303.232C282.124 302.436 290.16 303.502 297.638 306.345C306.075 310.143 311.803 318.3 320.054 329.352C328.304 340.405 343.03 359.738 343.03 359.738C343.03 359.738 339.045 376.519 312.769 391.587L269.867 347.41L274.164 303.232Z" fill="#554267"/>
<path d="M305.234 391.681C324.381 375.927 318.061 355.411 311.087 341.588C297.108 313.973 282.569 303.107 276.498 303.201L238.422 303.574C220.241 306.065 206.168 304.819 201.779 305.847C190.571 308.493 190.322 317.709 189.886 329.633C189.419 342.708 182.725 340.498 186.119 362.104C190.121 370.135 193.635 378.401 196.642 386.855C198.697 394.327 204.487 406.22 201.405 418.3C200.222 422.97 197.047 427.64 192.283 440.435C186.882 454.818 182.868 469.684 180.297 484.831C180.297 484.831 191.411 482.247 204.051 468.798C204.051 468.798 221.33 491.929 262.893 489.594C306.012 487.166 309.811 464.688 309.811 464.688L303.21 424.215C304.207 407.87 304.643 401.955 305.234 391.681Z" fill="#5C6293"/>
<path d="M305.234 391.681C324.381 375.927 318.061 355.411 311.087 341.588C297.108 313.973 282.569 303.107 276.498 303.201L238.422 303.574C220.241 306.065 206.168 304.819 201.779 305.847C190.571 308.493 190.322 317.709 189.886 329.633C189.419 342.708 182.725 340.498 186.119 362.104C190.121 370.135 193.635 378.401 196.642 386.855C198.697 394.327 204.487 406.22 201.405 418.3C200.222 422.97 197.047 427.64 192.283 440.435C186.882 454.818 182.868 469.684 180.297 484.831C180.297 484.831 191.411 482.247 204.051 468.798C204.051 468.798 221.33 491.929 262.893 489.594C306.012 487.166 309.811 464.688 309.811 464.688L303.21 424.215C304.207 407.87 304.643 401.955 305.234 391.681Z" fill="url(#paint31_linear)"/>
<path opacity="0.1" d="M280.359 387.602C280.359 387.602 264.792 400.056 246.517 394.078C241.426 392.552 236.811 389.748 233.111 385.933C229.41 382.118 226.748 377.42 225.378 372.285C225.378 372.285 223.821 392.988 246.797 399.651C252.943 401.515 259.527 401.35 265.572 399.18C271.617 397.01 276.802 392.95 280.359 387.602Z" fill="#241136"/>
<path d="M171.362 285.423C165.727 281.314 135.372 321.943 149.569 332.123C163.766 342.304 178.896 313.443 175.845 299.807C172.794 286.171 171.362 285.423 171.362 285.423Z" fill="#554267"/>
<path d="M143.809 265.249C151.406 254.726 156.574 246.787 163.516 237.759C167.439 232.622 169.961 228.979 173.728 223.718C176.343 220.106 177.869 217.055 180.795 215.903C184.062 214.465 186.982 212.342 189.357 209.677C190.811 207.992 192.153 206.214 193.373 204.353C197.761 198.276 203.004 192.866 208.94 188.288C215.166 183.463 221.984 179.727 228.336 175.119C232.103 172.379 236.15 167.865 231.449 163.786C229.988 162.607 228.253 161.815 226.405 161.483C215.073 159.21 205.266 163.288 194.245 166.308C189.452 167.615 184.768 169.291 180.235 171.321C177.984 172.234 175.885 173.483 174.008 175.025C171.401 177.75 169.294 180.911 167.782 184.365C162.956 193.238 152.776 201.146 145.646 208.089C137.271 216.246 129.799 223.655 120.241 232.715C111.649 240.81 103.212 248.282 95.335 257.123C88.8282 264.409 91.3499 270.013 92.2217 271.912C97.8256 282.933 103.928 286.824 111.275 293.705C113.704 295.946 116.163 298.157 118.623 300.367C128.149 308.96 137.676 316.992 147.576 325.274C158.162 333.991 162.52 338.225 171.954 346.693C177.906 352.161 182.868 358.618 186.617 365.778C202.962 368.487 219.027 343.487 205.017 314.253C202.713 309.525 199.228 305.472 194.899 302.484C177.651 290.187 143.809 265.249 143.809 265.249Z" fill="#ED9FA8"/>
<path d="M143.81 265.249C138.711 271.723 131.86 276.597 124.071 279.29C124.071 279.29 134.501 281.781 148.511 268.736L143.81 265.249Z" fill="#E38A93"/>
<path d="M203.087 305.598C199.257 302.951 189.948 297.316 171.362 285.423C171.362 285.423 174.226 291.432 169.712 306.532C165.198 321.631 155.671 331.189 149.693 332.279C149.693 332.279 160.092 340.498 169.681 349.776C179.27 359.053 187.146 365.622 192.688 376.394C192.688 376.394 206.387 372.876 209.5 349.651C211.679 333.368 210.372 314.253 203.087 305.598Z" fill="#5D4C76"/>
<path d="M307.071 230.816C309.808 225.032 311.014 218.642 310.572 212.258C310.131 205.875 308.057 199.711 304.549 194.359C292.75 177.578 272.856 169.453 250.876 169.702H244.058C214.388 170.2 187.427 195.667 186.897 224.34C186.897 244.515 186.897 263.163 198.012 276.924C208.255 289.72 224.226 293.923 237.707 295.978C263.485 299.901 292.439 296.912 304.145 279.353C304.145 279.353 288.578 282.466 290.54 266.339C290.82 263.786 288.391 260.984 284.126 258.089C287.114 252.913 290.63 248.062 294.618 243.612C299.008 239.222 304.082 236.763 307.071 230.816Z" fill="#564368"/>
<path d="M299.382 245.542C299.226 275.585 289.606 283.151 284.78 285.392C279.955 287.634 270.49 286.451 261.306 285.112L261.617 303.138C261.617 303.138 272.358 314.004 271.736 322.285C271.113 330.566 255.297 331.625 243.311 323.873C236.708 319.5 230.719 314.265 225.503 308.306C224.507 307.153 223.946 305.689 223.915 304.166L223.168 261.793C223.168 261.793 218.249 267.179 209.283 261.264C207.346 260.08 205.676 258.506 204.38 256.643C203.083 254.779 202.189 252.666 201.752 250.438C201.316 248.21 201.348 245.916 201.846 243.701C202.343 241.486 203.296 239.399 204.644 237.572C205.91 236.34 207.432 235.402 209.101 234.822C210.77 234.242 212.545 234.035 214.303 234.217C216.06 234.398 217.756 234.962 219.272 235.87C220.788 236.778 222.086 238.007 223.075 239.471C225.814 244.577 225.565 248.188 229.301 247.597C233.037 247.005 233.193 242.958 233.442 240.063C233.691 237.167 233.442 236.233 233.815 232.435C242.688 230.536 251.873 218.176 252.9 209.147C258.911 212.104 265.536 213.597 272.234 213.506C282.165 212.821 287.302 210.829 292.19 203.668C293.355 205.306 294.287 207.098 294.961 208.992C296.344 212.826 297.386 216.774 298.074 220.791C299.183 228.992 299.62 237.27 299.382 245.542Z" fill="#ED9FA8"/>
<path d="M261.305 285.112C251.623 283.991 231.667 278.636 228.429 270.853C229.737 274.804 232.226 278.26 235.558 280.753C241.598 285.735 261.399 291.121 261.399 291.121L261.305 285.112Z" fill="#E38A93"/>
<path d="M271.05 268.923C271.069 269.706 270.854 270.477 270.434 271.138C270.013 271.799 269.406 272.32 268.689 272.635C267.972 272.951 267.178 273.046 266.407 272.909C265.635 272.772 264.922 272.409 264.357 271.866C263.793 271.324 263.402 270.625 263.235 269.86C263.067 269.095 263.131 268.297 263.418 267.568C263.705 266.839 264.202 266.212 264.845 265.766C265.489 265.32 266.251 265.075 267.034 265.062C268.077 265.046 269.085 265.442 269.838 266.165C270.59 266.889 271.026 267.88 271.05 268.923Z" fill="#ED9FA8"/>
<path d="M265.976 239.347C266.027 239.899 265.968 240.456 265.803 240.986C265.638 241.515 265.37 242.007 265.014 242.432C264.658 242.858 264.221 243.209 263.729 243.464C263.237 243.72 262.699 243.876 262.146 243.923C261.295 244.014 260.436 243.848 259.679 243.448C258.922 243.047 258.303 242.429 257.9 241.674C257.496 240.918 257.328 240.06 257.416 239.208C257.505 238.357 257.845 237.551 258.395 236.894C258.944 236.237 259.677 235.76 260.5 235.523C261.323 235.286 262.198 235.3 263.012 235.563C263.827 235.827 264.544 236.328 265.072 237.002C265.6 237.676 265.915 238.492 265.976 239.347Z" fill="#564368"/>
<path d="M294.058 237.572C294.135 238.586 293.809 239.591 293.15 240.366C292.492 241.141 291.553 241.625 290.54 241.713C290.029 241.775 289.511 241.727 289.02 241.572C288.53 241.416 288.079 241.157 287.697 240.811C287.316 240.465 287.014 240.042 286.811 239.569C286.609 239.096 286.511 238.584 286.523 238.07C286.472 237.566 286.522 237.057 286.671 236.572C286.819 236.088 287.063 235.638 287.388 235.249C287.713 234.861 288.112 234.541 288.563 234.309C289.013 234.077 289.505 233.937 290.01 233.898C291.032 233.856 292.03 234.217 292.788 234.905C293.545 235.592 294.001 236.551 294.058 237.572Z" fill="#564368"/>
<path d="M274.662 233.68L277.651 258.774L290.509 253.419L274.662 233.68Z" fill="#E38A93"/>
<path d="M250.97 228.512L258.442 221.414C259.372 222.449 259.869 223.802 259.828 225.193C259.787 226.585 259.213 227.907 258.224 228.886C257.731 229.353 257.148 229.716 256.511 229.951C255.874 230.186 255.195 230.29 254.517 230.255C253.838 230.22 253.174 230.047 252.564 229.748C251.954 229.448 251.412 229.028 250.97 228.512Z" fill="#564368"/>
<path d="M288.36 219.11L296.642 225.337C296.26 225.899 295.768 226.377 295.195 226.742C294.622 227.107 293.981 227.351 293.31 227.459C292.64 227.567 291.954 227.536 291.295 227.369C290.637 227.202 290.019 226.903 289.481 226.488C288.397 225.628 287.678 224.388 287.47 223.019C287.262 221.651 287.58 220.254 288.36 219.11Z" fill="#564368"/>
<path d="M1108.97 72.0879C1112.13 72.4606 1115.23 73.2732 1118.17 74.5007C1120.99 75.6409 1123.58 77.2601 1125.83 79.2813C1127.99 81.2207 1129.7 83.586 1130.84 86.2129C1132.02 89.0157 1132.45 92.0565 1132.07 95.0385C1131.86 97.4026 1131.15 99.6906 1130 101.766C1128.98 103.568 1127.69 105.208 1126.17 106.631C1124.69 108.016 1123.09 109.268 1121.37 110.37C1119.66 111.493 1118.05 112.514 1116.52 113.515C1115.07 114.451 1113.72 115.513 1112.47 116.689C1111.33 117.726 1110.52 119.056 1110.13 120.529C1109.94 121.209 1109.55 121.82 1109.02 122.301C1108.77 122.528 1108.48 122.699 1108.15 122.801C1107.82 122.903 1107.48 122.933 1107.13 122.89L1099.37 121.962C1099 121.922 1098.64 121.809 1098.31 121.632C1097.99 121.454 1097.7 121.215 1097.47 120.929C1097.22 120.666 1097.03 120.349 1096.93 120.004C1096.83 119.66 1096.82 119.299 1096.9 118.952C1097.23 116.61 1098.05 114.367 1099.31 112.361C1100.47 110.584 1101.86 108.965 1103.45 107.542C1104.98 106.193 1106.63 104.978 1108.38 103.911C1110.14 102.803 1111.73 101.807 1113.22 100.812C1114.58 99.9259 1115.83 98.9017 1116.96 97.7564C1117.94 96.7609 1118.55 95.474 1118.69 94.094C1118.84 92.8838 1118.68 91.6515 1118.23 90.5039C1117.78 89.3564 1117.04 88.3282 1116.1 87.5088C1113.75 85.4747 1110.78 84.2502 1107.67 84.0297C1101.89 83.3452 1097.33 85.6495 1094 90.9426C1093.67 91.5089 1093.25 92.0154 1092.75 92.4404C1092.17 92.7901 1091.46 92.9046 1090.79 92.7597L1082.54 91.7828C1081.98 91.7091 1081.45 91.4356 1081.07 91.0143C1080.88 90.7821 1080.73 90.5134 1080.65 90.2255C1080.56 89.9376 1080.54 89.6367 1080.58 89.3423C1080.98 86.8589 1082 84.5188 1083.54 82.5244C1085.23 80.1906 1087.33 78.1727 1089.76 76.5635C1092.46 74.8158 1095.44 73.5047 1098.58 72.6798C1101.96 71.8278 1105.48 71.6268 1108.97 72.0879ZM1107.02 128.902C1107.75 129 1108.42 129.37 1108.88 129.932C1109.34 130.495 1109.57 131.207 1109.51 131.917L1108.52 140.635C1108.49 140.987 1108.38 141.327 1108.21 141.635C1108.04 141.942 1107.8 142.209 1107.51 142.42C1107.23 142.641 1106.91 142.805 1106.56 142.903C1106.21 143 1105.85 143.028 1105.49 142.985L1096.71 141.925C1096.34 141.888 1095.99 141.778 1095.66 141.601C1095.34 141.425 1095.06 141.187 1094.84 140.901C1094.6 140.626 1094.43 140.309 1094.32 139.97C1094.21 139.631 1094.18 139.275 1094.22 138.925L1095.2 130.207C1095.24 129.856 1095.35 129.517 1095.52 129.211C1095.7 128.905 1095.94 128.638 1096.23 128.427C1096.5 128.2 1096.82 128.032 1097.17 127.935C1097.52 127.837 1097.89 127.812 1098.25 127.861L1107.02 128.902Z" fill="url(#paint32_radial)"/>
<path d="M1217.99 230.873C1219.34 232.483 1220.46 234.281 1221.3 236.211C1222.13 238.039 1222.62 240.004 1222.74 242.009C1222.86 243.927 1222.57 245.849 1221.88 247.643C1221.15 249.557 1219.93 251.246 1218.34 252.542C1217.12 253.6 1215.71 254.41 1214.18 254.929C1212.83 255.341 1211.42 255.554 1210.01 255.562C1208.64 255.573 1207.26 255.463 1205.91 255.234L1202.08 254.577C1200.94 254.376 1199.77 254.285 1198.61 254.306C1197.58 254.297 1196.56 254.581 1195.68 255.125C1195.26 255.369 1194.77 255.492 1194.29 255.481C1194.06 255.48 1193.83 255.428 1193.62 255.328C1193.42 255.229 1193.23 255.085 1193.09 254.906L1189.77 250.937C1189.45 250.556 1189.29 250.063 1189.33 249.564C1189.34 249.324 1189.4 249.089 1189.52 248.878C1189.63 248.667 1189.8 248.485 1189.99 248.348C1191.26 247.354 1192.72 246.631 1194.28 246.223C1195.68 245.87 1197.13 245.703 1198.58 245.724C1199.96 245.755 1201.34 245.901 1202.7 246.161C1204.05 246.426 1205.32 246.658 1206.52 246.847C1207.6 247.019 1208.69 247.084 1209.78 247.04C1210.73 246.991 1211.64 246.64 1212.37 246.038C1213.01 245.508 1213.51 244.83 1213.84 244.062C1214.16 243.294 1214.29 242.46 1214.22 241.631C1214.05 239.577 1213.19 237.639 1211.79 236.128C1210.63 234.701 1209.06 233.666 1207.29 233.165C1205.52 232.663 1203.64 232.72 1201.9 233.327C1201.47 233.467 1201.03 233.528 1200.58 233.508C1200.13 233.418 1199.74 233.16 1199.48 232.789L1195.95 228.568C1195.7 228.268 1195.57 227.885 1195.59 227.495C1195.6 227.293 1195.65 227.095 1195.75 226.915C1195.84 226.735 1195.97 226.577 1196.13 226.452C1197.5 225.42 1199.1 224.734 1200.79 224.451C1202.72 224.102 1204.7 224.099 1206.64 224.443C1208.76 224.809 1210.81 225.516 1212.71 226.539C1214.73 227.631 1216.52 229.103 1217.99 230.873ZM1190.13 257.755C1190.29 257.94 1190.4 258.154 1190.48 258.386C1190.55 258.617 1190.58 258.86 1190.55 259.102C1190.54 259.341 1190.47 259.575 1190.36 259.788C1190.25 260.002 1190.1 260.191 1189.91 260.344L1185.32 264.19C1184.95 264.503 1184.47 264.656 1183.98 264.615C1183.5 264.574 1183.05 264.343 1182.73 263.971L1178.98 259.484C1178.82 259.303 1178.7 259.09 1178.63 258.858C1178.56 258.627 1178.54 258.382 1178.57 258.143C1178.59 257.903 1178.65 257.668 1178.76 257.453C1178.86 257.238 1179.01 257.048 1179.2 256.895L1183.79 253.049C1183.97 252.895 1184.19 252.78 1184.42 252.71C1184.65 252.64 1184.89 252.617 1185.13 252.641C1185.37 252.655 1185.61 252.719 1185.82 252.83C1186.03 252.94 1186.22 253.094 1186.37 253.282L1190.13 257.755Z" fill="url(#paint33_linear)"/>
<g opacity="0.6">
<path d="M1011.81 195.466C1012.06 195.39 1012.32 195.364 1012.58 195.392C1012.84 195.419 1013.09 195.499 1013.32 195.626C1013.56 195.749 1013.77 195.917 1013.94 196.123C1014.11 196.328 1014.24 196.566 1014.32 196.823L1016.15 203.045C1016.22 203.3 1016.25 203.567 1016.22 203.831C1016.19 204.095 1016.11 204.351 1015.98 204.584C1015.86 204.817 1015.68 205.023 1015.48 205.189C1015.27 205.355 1015.03 205.479 1014.78 205.553L1008.71 207.325C1008.45 207.401 1008.19 207.426 1007.92 207.398C1007.66 207.37 1007.4 207.29 1007.17 207.163C1006.93 207.036 1006.73 206.864 1006.56 206.656C1006.4 206.449 1006.27 206.211 1006.2 205.956L1004.37 199.734C1004.3 199.479 1004.27 199.212 1004.3 198.947C1004.32 198.682 1004.4 198.426 1004.53 198.192C1004.66 197.958 1004.83 197.753 1005.04 197.587C1005.25 197.421 1005.49 197.298 1005.74 197.226L1011.81 195.466ZM997.196 156.141C999.384 155.483 1001.65 155.144 1003.94 155.131C1006.11 155.113 1008.27 155.481 1010.31 156.217C1012.27 156.931 1014.06 158.054 1015.55 159.509C1017.12 161.089 1018.25 163.048 1018.83 165.197C1019.38 166.869 1019.59 168.635 1019.45 170.39C1019.28 171.909 1018.89 173.395 1018.28 174.799C1017.7 176.166 1016.99 177.48 1016.18 178.726C1015.38 179.923 1014.59 181.126 1013.86 182.246C1013.17 183.297 1012.57 184.408 1012.07 185.565C1011.62 186.599 1011.46 187.742 1011.62 188.861C1011.68 189.366 1011.6 189.877 1011.4 190.343C1011.3 190.572 1011.15 190.776 1010.96 190.938C1010.77 191.101 1010.54 191.217 1010.3 191.279L1004.92 192.87C1004.42 193.014 1003.87 192.956 1003.41 192.71C1003.17 192.603 1002.96 192.44 1002.8 192.235C1002.64 192.03 1002.53 191.789 1002.48 191.533C1002.04 189.836 1001.96 188.07 1002.22 186.338C1002.48 184.797 1002.94 183.298 1003.6 181.877C1004.23 180.506 1004.97 179.192 1005.83 177.949C1006.65 176.765 1007.44 175.562 1008.14 174.474C1008.78 173.473 1009.31 172.405 1009.71 171.29C1010.08 170.336 1010.13 169.288 1009.84 168.308C1009.59 167.441 1009.14 166.647 1008.52 165.993C1007.9 165.339 1007.13 164.846 1006.28 164.556C1004.18 163.834 1001.9 163.825 999.795 164.53C995.783 165.729 993.422 168.6 992.712 173.143C992.661 173.628 992.524 174.099 992.309 174.536C992.17 174.736 991.994 174.906 991.79 175.037C991.585 175.168 991.357 175.258 991.118 175.3L985.393 176.989C984.987 177.118 984.547 177.083 984.167 176.891C983.973 176.791 983.803 176.651 983.668 176.48C983.533 176.309 983.436 176.11 983.384 175.899C982.92 174.102 982.906 172.219 983.344 170.416C983.829 168.345 984.679 166.377 985.855 164.604C987.144 162.661 988.739 160.939 990.578 159.505C992.543 157.962 994.792 156.82 997.196 156.141Z" fill="url(#paint34_linear)"/>
</g>
<path d="M261.966 70.0879C265.128 70.4605 268.227 71.2731 271.167 72.5007C273.987 73.6409 276.584 75.2601 278.834 77.2813C280.992 79.2206 282.699 81.586 283.836 84.2129C285.025 87.0157 285.451 90.0565 285.075 93.0385C284.857 95.4026 284.15 97.6905 282.997 99.7656C281.98 101.568 280.69 103.208 279.169 104.631C277.692 106.016 276.087 107.268 274.374 108.37C272.66 109.493 271.046 110.514 269.523 111.515C268.073 112.451 266.716 113.513 265.466 114.689C264.331 115.726 263.524 117.056 263.135 118.529C262.935 119.209 262.551 119.82 262.024 120.301C261.774 120.528 261.476 120.699 261.149 120.801C260.823 120.902 260.476 120.933 260.133 120.89L252.37 119.962C252 119.922 251.641 119.809 251.314 119.632C250.987 119.454 250.699 119.215 250.467 118.929C250.215 118.666 250.031 118.349 249.932 118.004C249.833 117.66 249.822 117.298 249.899 116.952C250.23 114.61 251.051 112.367 252.311 110.361C253.467 108.584 254.858 106.965 256.448 105.542C257.978 104.193 259.629 102.978 261.381 101.911C263.142 100.803 264.731 99.8069 266.218 98.8122C267.576 97.9259 268.832 96.9016 269.965 95.7564C270.943 94.7609 271.55 93.4739 271.694 92.0939C271.841 90.8838 271.681 89.6515 271.229 88.5039C270.776 87.3563 270.044 86.3282 269.097 85.5088C266.748 83.4747 263.781 82.2501 260.67 82.0297C254.888 81.3452 250.331 83.6495 246.998 88.9426C246.674 89.5089 246.252 90.0154 245.75 90.4403C245.168 90.7901 244.465 90.9045 243.788 90.7597L235.545 89.7828C234.977 89.7091 234.454 89.4355 234.073 89.0143C233.876 88.7821 233.731 88.5134 233.646 88.2255C233.562 87.9375 233.54 87.6367 233.581 87.3423C233.979 84.8589 234.996 82.5188 236.542 80.5243C238.231 78.1905 240.335 76.1727 242.759 74.5635C245.458 72.8158 248.437 71.5047 251.58 70.6798C254.957 69.8278 258.485 69.6267 261.966 70.0879ZM260.019 126.902C260.748 127 261.415 127.37 261.879 127.932C262.343 128.495 262.568 129.206 262.505 129.917L261.521 138.634C261.491 138.987 261.385 139.327 261.21 139.635C261.036 139.942 260.797 140.209 260.508 140.42C260.23 140.641 259.908 140.805 259.561 140.902C259.214 141 258.849 141.028 258.488 140.985L249.706 139.925C249.341 139.888 248.986 139.778 248.664 139.601C248.342 139.425 248.06 139.187 247.835 138.901C247.602 138.626 247.427 138.309 247.321 137.97C247.214 137.631 247.178 137.275 247.215 136.925L248.199 128.207C248.236 127.856 248.347 127.517 248.523 127.211C248.7 126.905 248.94 126.638 249.228 126.427C249.502 126.2 249.824 126.032 250.172 125.935C250.52 125.837 250.887 125.812 251.248 125.861L260.019 126.902Z" fill="url(#paint35_radial)"/>
<path d="M342.966 236.892C345.059 237.117 347.108 237.645 349.049 238.459C350.915 239.203 352.628 240.283 354.103 241.646C355.516 242.949 356.633 244.541 357.377 246.313C358.171 248.201 358.458 250.264 358.208 252.298C358.057 253.907 357.595 255.471 356.848 256.904C356.157 258.135 355.29 259.26 354.275 260.242C353.291 261.201 352.224 262.07 351.086 262.842L347.869 265.012C346.901 265.659 345.999 266.397 345.173 267.217C344.419 267.926 343.88 268.835 343.62 269.838C343.484 270.305 343.222 270.726 342.863 271.055C342.695 271.213 342.495 271.332 342.277 271.404C342.058 271.476 341.826 271.498 341.598 271.47L336.459 270.894C335.961 270.843 335.504 270.598 335.188 270.21C335.029 270.03 334.913 269.816 334.85 269.584C334.788 269.351 334.779 269.108 334.826 268.872C335.056 267.278 335.609 265.747 336.452 264.374C337.224 263.148 338.152 262.028 339.213 261.041C340.235 260.106 341.334 259.257 342.496 258.504C343.657 257.76 344.73 257.053 345.726 256.362C346.626 255.739 347.461 255.029 348.22 254.242C348.871 253.552 349.283 252.672 349.396 251.73C349.492 250.903 349.387 250.066 349.088 249.289C348.79 248.512 348.308 247.819 347.683 247.269C346.139 245.903 344.182 245.094 342.124 244.973C340.298 244.744 338.447 245.083 336.822 245.945C335.197 246.807 333.877 248.148 333.042 249.787C332.831 250.183 332.55 250.537 332.212 250.832C331.829 251.074 331.368 251.16 330.924 251.071L325.451 250.466C325.063 250.422 324.706 250.234 324.449 249.94C324.318 249.785 324.221 249.604 324.165 249.408C324.109 249.213 324.095 249.008 324.124 248.807C324.399 247.116 325.078 245.516 326.103 244.143C327.259 242.553 328.688 241.182 330.323 240.092C332.109 238.889 334.079 237.984 336.155 237.411C338.371 236.802 340.683 236.626 342.966 236.892ZM341.431 275.572C341.672 275.598 341.906 275.672 342.118 275.789C342.33 275.905 342.517 276.064 342.667 276.253C342.821 276.439 342.935 276.653 343.003 276.883C343.071 277.114 343.091 277.355 343.064 277.594L342.407 283.546C342.354 284.03 342.112 284.474 341.733 284.78C341.354 285.086 340.87 285.229 340.385 285.179L334.572 284.531C334.331 284.512 334.097 284.44 333.886 284.322C333.675 284.203 333.492 284.04 333.351 283.844C333.193 283.662 333.076 283.449 333.005 283.22C332.934 282.99 332.912 282.748 332.94 282.509L333.597 276.557C333.624 276.318 333.699 276.087 333.817 275.877C333.935 275.667 334.094 275.483 334.284 275.335C334.467 275.179 334.681 275.063 334.912 274.995C335.143 274.926 335.386 274.907 335.624 274.939L341.431 275.572Z" fill="url(#paint36_linear)"/>
<path d="M143.807 178.467C144.057 178.39 144.32 178.365 144.58 178.392C144.84 178.42 145.092 178.499 145.32 178.627C145.559 178.749 145.77 178.918 145.942 179.123C146.114 179.328 146.243 179.566 146.321 179.823L148.145 186.045C148.221 186.3 148.246 186.567 148.218 186.831C148.19 187.095 148.11 187.351 147.983 187.584C147.856 187.817 147.683 188.023 147.476 188.189C147.269 188.355 147.031 188.479 146.776 188.553L140.707 190.325C140.452 190.401 140.185 190.426 139.921 190.398C139.657 190.37 139.401 190.29 139.168 190.163C138.935 190.036 138.729 189.864 138.563 189.657C138.397 189.449 138.273 189.212 138.199 188.956L136.375 182.734C136.297 182.479 136.271 182.212 136.298 181.947C136.325 181.682 136.404 181.426 136.532 181.192C136.659 180.959 136.832 180.753 137.04 180.587C137.249 180.421 137.488 180.298 137.744 180.226L143.807 178.467ZM129.196 139.141C131.384 138.483 133.655 138.144 135.939 138.131C138.111 138.114 140.27 138.481 142.314 139.217C144.272 139.932 146.056 141.054 147.548 142.51C149.117 144.089 150.248 146.048 150.832 148.197C151.382 149.869 151.59 151.635 151.445 153.39C151.277 154.909 150.885 156.395 150.282 157.799C149.696 159.166 148.992 160.48 148.178 161.726C147.378 162.923 146.592 164.126 145.862 165.246C145.169 166.297 144.571 167.408 144.075 168.565C143.616 169.599 143.459 170.742 143.622 171.861C143.68 172.366 143.603 172.877 143.398 173.343C143.298 173.572 143.147 173.776 142.956 173.938C142.765 174.101 142.54 174.217 142.297 174.279L136.923 175.87C136.416 176.014 135.874 175.956 135.409 175.71C135.171 175.603 134.962 175.44 134.8 175.235C134.638 175.03 134.528 174.789 134.479 174.533C134.045 172.836 133.955 171.07 134.216 169.338C134.48 167.797 134.944 166.298 135.597 164.877C136.226 163.506 136.972 162.192 137.828 160.949C138.653 159.765 139.44 158.562 140.138 157.475C140.777 156.473 141.305 155.405 141.715 154.29C142.083 153.336 142.126 152.288 141.837 151.308C141.593 150.441 141.142 149.647 140.522 148.993C139.902 148.339 139.133 147.846 138.28 147.556C136.18 146.834 133.901 146.825 131.795 147.531C127.783 148.729 125.422 151.6 124.712 156.143C124.661 156.628 124.524 157.099 124.309 157.536C124.17 157.736 123.994 157.906 123.79 158.037C123.585 158.168 123.357 158.258 123.118 158.3L117.393 159.989C116.987 160.118 116.547 160.083 116.167 159.891C115.973 159.791 115.803 159.651 115.668 159.48C115.533 159.309 115.436 159.11 115.384 158.899C114.92 157.102 114.906 155.219 115.344 153.416C115.829 151.345 116.679 149.377 117.855 147.604C119.144 145.661 120.739 143.939 122.578 142.505C124.543 140.962 126.792 139.82 129.196 139.141Z" fill="url(#paint37_linear)"/>
<path d="M1176.81 857.888L1147.8 854.557L1140.29 796.089L1175.75 806.612L1176.81 857.888Z" fill="#ED9FA8"/>
<path d="M1113.24 905.584C1112.82 906.736 1112.65 907.964 1112.73 909.187C1112.82 910.409 1113.16 911.6 1113.74 912.683C1116.85 916.294 1124.88 920.528 1135.84 921.307C1146.33 922.054 1155.67 920.653 1161.81 916.761C1164.47 915.383 1166.76 913.364 1168.45 910.887C1170.15 908.409 1171.2 905.55 1171.52 902.564C1172.11 896.618 1171.52 890.858 1174.29 886.282C1177.06 881.705 1181.08 877.253 1181.98 874.949C1183.06 870.974 1183.06 866.783 1181.98 862.807L1113.24 905.584Z" fill="#564368"/>
<path d="M1141.91 853.53C1141.82 855.786 1141.41 858.018 1140.7 860.161C1139.09 864.772 1136.94 869.172 1134.29 873.268C1132.98 875.444 1131.52 877.525 1129.93 879.495C1126.81 883.262 1122.83 886.375 1119.47 889.987C1115.9 893.392 1113.61 897.922 1112.99 902.814C1112.55 911.033 1125.63 913.835 1132.51 915.049C1139.93 916.346 1147.55 915.963 1154.8 913.928C1158.61 912.936 1162.05 910.867 1164.71 907.967C1167.38 905.068 1169.14 901.463 1169.81 897.583C1170.21 895.28 1170.06 892.945 1170.34 890.672C1171.24 885.424 1173.44 880.482 1176.72 876.288C1178.63 873.868 1180.27 871.248 1181.61 868.474C1183.76 863.399 1182.04 857.671 1180.67 852.627C1179.49 848.237 1178.06 843.287 1176.5 843.63C1176.5 845.902 1176.5 846.214 1174.98 847.739C1173.45 849.265 1172.86 852.627 1170.68 854.339C1171.37 852.442 1171.89 850.482 1172.21 848.486C1172.34 847.687 1172.17 846.866 1171.74 846.183C1171.02 845.536 1170.15 845.067 1169.22 844.813C1165.98 843.729 1162.64 842.968 1159.25 842.54C1154.63 842.011 1149.96 842.011 1145.34 842.54C1144.37 842.712 1143.5 843.219 1142.88 843.972C1142.32 844.8 1142.01 845.775 1142.01 846.774C1141.85 847.957 1141.98 851.351 1141.91 853.53Z" fill="#5D4C76"/>
<path d="M1133.16 875.012C1136.28 872.708 1147.27 872.677 1151 873.081C1154.81 873.407 1158.47 874.692 1161.65 876.817C1162.12 877.149 1162.68 877.305 1163.25 877.26C1163.82 877.214 1164.36 876.969 1164.76 876.568C1165 876.335 1165.18 876.053 1165.3 875.742C1165.42 875.431 1165.46 875.099 1165.44 874.768C1165.42 874.436 1165.32 874.114 1165.16 873.823C1165 873.532 1164.78 873.279 1164.52 873.081C1161.03 870.506 1156.88 868.963 1152.56 868.629C1147.17 868.234 1141.74 868.548 1136.43 869.563C1136.43 869.563 1132.26 872.272 1133.16 875.012Z" fill="#B5A2CA"/>
<path d="M1126.13 883.542C1129.99 881.269 1141.69 881.581 1145.46 881.985C1149.19 882.368 1152.76 883.732 1155.8 885.939C1156.26 886.265 1156.83 886.418 1157.4 886.372C1157.97 886.327 1158.5 886.086 1158.91 885.69C1159.15 885.457 1159.33 885.175 1159.45 884.864C1159.56 884.553 1159.61 884.221 1159.59 883.89C1159.56 883.558 1159.47 883.236 1159.31 882.945C1159.15 882.654 1158.93 882.401 1158.66 882.203C1153.55 879.557 1147.98 877.929 1142.25 877.409C1132.91 876.755 1130.64 878.623 1130.64 878.623C1129.57 879.055 1128.61 879.721 1127.83 880.572C1127.05 881.423 1126.47 882.438 1126.13 883.542Z" fill="#B5A2CA"/>
<path d="M1156.23 859.818C1150.97 859.216 1145.63 859.543 1140.48 860.784C1138.86 861.686 1137.77 864.27 1138.83 864.924C1143.53 863.655 1148.41 863.171 1153.28 863.492C1156.73 863.838 1160.1 864.765 1163.24 866.232C1164.05 866.605 1164.98 867.072 1165.79 867.539C1166.05 867.705 1166.34 867.813 1166.65 867.855C1166.95 867.897 1167.27 867.873 1167.56 867.785C1167.86 867.696 1168.13 867.545 1168.36 867.341C1168.59 867.138 1168.78 866.887 1168.9 866.605C1169.13 866.146 1169.17 865.621 1169.03 865.132C1168.88 864.643 1168.56 864.225 1168.13 863.959C1164.5 861.746 1160.45 860.334 1156.23 859.818Z" fill="#B5A2CA"/>
<path d="M1068.62 831.301L1041.04 823.611V767.852L1075.26 769.346L1068.62 831.301Z" fill="#ED9FA8"/>
<path d="M982.76 861.157C981.982 863.562 982.126 866.17 983.165 868.474C984.192 870.591 995.369 876.911 1010.44 875.883C1021.6 875.083 1032.35 871.321 1041.57 864.987C1047.3 861.188 1053.28 860.472 1060.75 860.068C1068.22 859.663 1078 855.896 1079.65 852.409C1080.49 849.287 1080.4 845.987 1079.4 842.913L982.76 861.157Z" fill="#564368"/>
<path d="M1043.47 814.146L1042.29 813.897C1041.63 813.742 1040.95 813.742 1040.29 813.897C1039.57 814.135 1038.92 814.566 1038.43 815.143C1036.96 817.037 1035.67 819.071 1034.6 821.214C1031.48 826.351 1024.79 830.554 1017.57 834.508C1012.65 837.154 1007.82 839.209 1002.75 841.481C997.673 843.754 990.668 845.248 986.621 847.988C980.705 851.973 979.927 861.967 986.621 865.921C992.411 869.345 1007.73 873.05 1023.76 868.505C1032.48 866.014 1042.19 856.705 1053.65 855.803C1060.94 855.211 1074.73 853.187 1079.43 847.646C1081.17 845.186 1078.84 837.403 1076.94 830.678C1074.85 823.331 1072.89 811.998 1070.46 812.528C1070.48 813.053 1070.38 813.576 1070.16 814.052C1069.93 814.529 1069.6 814.945 1069.19 815.267C1068.28 816.201 1067.07 816.793 1066.07 817.633C1064.37 819.305 1063 821.28 1062.02 823.455C1061.63 824.423 1060.9 825.218 1059.97 825.697C1058.72 826.133 1057.82 825.386 1056.86 824.887C1055.49 824.26 1053.94 824.15 1052.5 824.576C1052.65 823.116 1052.91 821.67 1053.28 820.249C1053.42 819.803 1053.42 819.325 1053.28 818.879C1053.1 818.427 1052.77 818.052 1052.34 817.82C1049.67 815.988 1046.65 814.737 1043.47 814.146Z" fill="#5D4C76"/>
<path d="M1024.48 830.429C1025 829.422 1025.77 828.563 1026.71 827.931C1027.65 827.3 1028.74 826.917 1029.86 826.818C1033.16 826.195 1039.02 828.654 1042.66 831.643C1043.01 831.921 1043.28 832.279 1043.46 832.688C1043.63 833.096 1043.71 833.541 1043.67 833.984C1043.63 834.428 1043.49 834.855 1043.25 835.228C1043 835.602 1042.68 835.91 1042.29 836.126C1041.8 836.403 1041.23 836.519 1040.67 836.458C1040.12 836.396 1039.59 836.161 1039.17 835.784C1035.15 832.161 1029.89 830.241 1024.48 830.429Z" fill="#B5A2CA"/>
<path d="M1014.17 836.189C1014.9 835.168 1015.85 834.336 1016.96 833.762C1018.07 833.187 1019.31 832.888 1020.56 832.889C1025.68 833.113 1030.59 834.955 1034.6 838.15C1034.93 838.423 1035.18 838.771 1035.35 839.165C1035.51 839.559 1035.58 839.986 1035.54 840.411C1035.5 840.836 1035.36 841.246 1035.14 841.606C1034.91 841.966 1034.59 842.265 1034.22 842.478C1033.74 842.769 1033.17 842.894 1032.61 842.832C1032.05 842.77 1031.52 842.525 1031.11 842.135C1028.91 839.946 1026.24 838.276 1023.31 837.247C1020.38 836.218 1017.26 835.857 1014.17 836.189Z" fill="#B5A2CA"/>
<path d="M1003 841.357C1003.82 840.417 1004.83 839.666 1005.97 839.155C1007.11 838.645 1008.35 838.387 1009.6 838.399C1014.52 838.703 1019.23 840.555 1023.05 843.692C1023.37 843.968 1023.63 844.319 1023.79 844.715C1023.96 845.111 1024.02 845.541 1023.99 845.968C1023.95 846.395 1023.81 846.807 1023.58 847.169C1023.35 847.532 1023.04 847.834 1022.67 848.05C1022.19 848.342 1021.62 848.466 1021.06 848.405C1020.5 848.343 1019.97 848.098 1019.56 847.708C1017.48 845.44 1014.9 843.686 1012.02 842.584C1009.15 841.482 1006.06 841.062 1003 841.357Z" fill="#B5A2CA"/>
<path d="M1170.46 467.51C1172.36 525.013 1172.49 649.546 1172.49 649.546C1173.08 656.706 1173.7 669.409 1174.23 695.187C1175.01 732.547 1176.81 824.794 1176.81 824.794C1176.81 824.794 1158.97 833.169 1142.57 826.351C1142.57 826.351 1119.78 696.65 1115.11 659.664C1111.03 627.379 1103.21 551.663 1103.21 551.663L1092.44 647.771C1092.44 647.771 1092.44 672.678 1090.98 694.658C1089.76 711.781 1073.14 799.981 1073.14 799.981C1062.28 802.866 1050.81 802.487 1040.17 798.891C1040.17 798.891 1038.68 663.493 1038.36 647.771C1038.02 629.901 1042.63 436.689 1042.63 436.689L1170.46 467.51Z" fill="#5D4C76"/>
<path d="M1103.28 551.663L1099.17 519.067C1085.9 515.674 1073.35 509.916 1062.12 502.068C1062.12 502.068 1070.03 512.653 1093.25 523.861L1098.48 553.438L1092.57 647.771L1103.28 551.663Z" fill="#554267"/>
<path fill-rule="evenodd" clip-rule="evenodd" d="M989.516 376.508C989.516 376.508 1032.76 317.168 1041.17 306.147C1051.32 292.853 1061.62 289.366 1076.19 289.896L1067.32 343.102C1067.32 343.102 1024.39 399.048 1009.57 413.307C994.747 427.566 985.376 420.935 975.693 413.743L969.516 404.5L989.516 376.508Z" fill="#ED9FA8"/>
<path d="M978.073 392.495C969.744 396.327 931.195 419.228 931.195 419.228C921.094 425.451 911.813 422.841 903.563 426.031C895.313 429.221 891.6 434.686 884.124 438.925C876.648 443.165 871.831 444.073 875.493 447.816C879.154 451.56 889.408 447.617 891.698 447.169C893.988 446.722 901.057 441.336 897.128 450.438C893.198 459.541 873.839 470.599 870.284 474.198C866.73 477.796 872.03 479.889 876.29 479.14C880.55 478.392 889.925 483.02 897.089 482.947C904.252 482.874 909.662 480.094 919.211 475.997C926.13 469.493 935.108 452.905 941.411 448.066C960.721 439.472 996.858 423.159 1004.2 418.373C1024.36 405.242 986.403 388.662 978.073 392.495Z" fill="#ED9FA8"/>
<path d="M978 392.206C983.479 396.254 989.177 405.345 989.706 409.423C989.642 405.559 988.779 401.749 987.172 398.235C985.564 394.72 983.247 391.576 980.366 389L978 392.206Z" fill="#E38A93"/>
<path fill-rule="evenodd" clip-rule="evenodd" d="M1237.67 376.508C1237.67 376.508 1194.43 317.168 1186.02 306.147C1175.87 292.853 1165.57 289.366 1151 289.896L1159.87 343.102C1159.87 343.102 1202.8 399.048 1217.62 413.307C1232.44 427.566 1241.81 420.935 1251.5 413.743L1257.67 404.5L1237.67 376.508Z" fill="#ED9FA8"/>
<path d="M1249.12 392.495C1257.45 396.327 1295.99 419.228 1295.99 419.228C1306.1 425.451 1315.38 422.841 1323.63 426.031C1331.88 429.221 1335.59 434.686 1343.07 438.925C1350.54 443.165 1355.36 444.073 1351.7 447.816C1348.04 451.56 1337.78 447.617 1335.49 447.169C1333.2 446.722 1326.13 441.336 1330.06 450.438C1333.99 459.541 1353.35 470.599 1356.91 474.198C1360.46 477.796 1355.16 479.889 1350.9 479.14C1346.64 478.392 1337.26 483.02 1330.1 482.947C1322.94 482.874 1317.53 480.094 1307.98 475.997C1301.06 469.493 1292.08 452.905 1285.78 448.066C1266.47 439.472 1230.33 423.159 1222.99 418.373C1202.83 405.242 1240.79 388.662 1249.12 392.495Z" fill="#ED9FA8"/>
<path d="M1249.19 392.206C1243.71 396.254 1238.01 405.345 1237.48 409.423C1237.55 405.559 1238.41 401.749 1240.02 398.235C1241.63 394.72 1243.94 391.576 1246.82 389L1249.19 392.206Z" fill="#E38A93"/>
<path d="M1079.62 288.588C1079.62 288.588 1059.07 288.339 1050.04 294.659C1041.01 300.979 1034.32 310.226 1019.65 331.552C1006.79 350.232 1000.57 359.198 1000.57 359.198C1008.99 371.649 1021.24 381.007 1035.47 385.848L1073.82 338.339L1079.62 288.588Z" fill="#554267"/>
<path d="M1119.37 287.592C1131.02 288.713 1147.39 288.837 1158.91 290.021C1166.91 293.321 1182.35 306.77 1181.2 316.359C1176.91 352.193 1168.22 410.942 1168.22 410.942L1171.08 473.208C1155.05 489.21 1080.02 495.468 1041.35 469.877C1041.35 469.877 1042.6 358.046 1045.28 339.117C1050.04 305.214 1054.21 292.636 1071.71 289.647C1089.2 286.658 1119.37 287.592 1119.37 287.592Z" fill="#5C6293"/>
<path d="M1119.37 287.592C1131.02 288.713 1147.39 288.837 1158.91 290.021C1166.91 293.321 1182.35 306.77 1181.2 316.359C1176.91 352.193 1168.22 410.942 1168.22 410.942L1171.08 473.208C1155.05 489.21 1080.02 495.468 1041.35 469.877C1041.35 469.877 1042.6 358.046 1045.28 339.117C1050.04 305.214 1054.21 292.636 1071.71 289.647C1089.2 286.658 1119.37 287.592 1119.37 287.592Z" fill="url(#paint38_linear)"/>
<path d="M1148.29 289.242C1148.29 289.242 1166.76 288.09 1176.47 295.469C1185.22 302.193 1192.04 311.035 1206.86 332.361C1219.71 351.041 1225.94 360.008 1225.94 360.008C1217.51 372.454 1205.24 381.81 1191.01 386.658L1164.89 354.466C1151.28 337.218 1137.8 310.973 1148.29 289.242Z" fill="#554267"/>
<path d="M1122.27 203.284C1122.33 210.426 1120.27 217.426 1116.35 223.399C1112.44 229.372 1106.84 234.049 1100.26 236.839C1093.69 239.629 1086.43 240.406 1079.41 239.073C1072.4 237.74 1065.93 234.356 1060.84 229.349C1055.74 224.343 1052.25 217.938 1050.8 210.944C1049.34 203.951 1049.99 196.684 1052.67 190.062C1055.35 183.44 1059.93 177.76 1065.83 173.74C1071.74 169.721 1078.7 167.542 1085.84 167.48C1090.58 167.439 1095.29 168.333 1099.69 170.11C1104.08 171.887 1108.09 174.513 1111.47 177.838C1114.85 181.162 1117.55 185.121 1119.4 189.487C1121.25 193.853 1122.23 198.541 1122.27 203.284Z" fill="#564368"/>
<path d="M1148.82 228.75C1148.82 228.75 1143.19 256.303 1140.89 260.817C1139.35 263.621 1136.8 265.728 1133.76 266.702L1133.97 247.337L1148.82 228.75Z" fill="#564368"/>
<path d="M1141.13 189.429C1143.18 189.167 1145.25 189.376 1147.2 190.04C1149.15 190.704 1150.92 191.805 1152.37 193.259C1157.23 198.147 1154.68 213.589 1148.82 228.75L1137.8 230.12L1141.13 189.429Z" fill="#564368"/>
<path d="M1134.5 230.152C1136.71 231.459 1139.83 227.038 1142.54 224.298C1145.24 221.559 1154.09 217.449 1158.63 226.758C1163.18 236.067 1154.89 248.925 1147.92 251.166C1135.87 255.089 1133.97 247.337 1133.97 247.337L1133.48 292.231C1118.66 311.627 1076.97 310.35 1094.15 290.114V276.851C1088.79 277.751 1083.34 278.075 1077.9 277.816C1069 276.54 1063.36 269.566 1060.56 259.977C1056.11 244.597 1054.34 232.144 1057.76 201.727C1061.5 168.415 1100.19 167.73 1121.21 180.712C1142.22 193.695 1134.5 230.152 1134.5 230.152Z" fill="#ED9FA8"/>
<path d="M1134.53 233.856C1135.62 233.856 1139.8 226.82 1142.53 224.298C1146.3 220.78 1141.13 189.429 1141.13 189.429C1142.43 186.647 1142.85 183.54 1142.35 180.513C1141.85 177.486 1140.45 174.68 1138.33 172.462C1133.07 166.764 1125.72 159.822 1102.06 162.811C1085.16 164.959 1066.82 170.407 1051.91 163.246C1050.58 168.101 1050.73 173.242 1052.34 178.011C1053.94 182.78 1056.94 186.961 1060.93 190.021C1060.93 190.021 1066.35 193.446 1080.52 195.033C1093.58 195.893 1106.69 195.528 1119.68 193.944C1123.79 193.352 1124.7 197.306 1127 208.172C1129.02 217.667 1130.8 233.825 1134.53 233.856Z" fill="#564368"/>
<path d="M1141.13 191.858L1154.43 184.573C1154 183.673 1153.39 182.871 1152.63 182.215C1151.88 181.559 1151 181.063 1150.06 180.757C1149.11 180.451 1148.1 180.342 1147.11 180.436C1146.12 180.53 1145.15 180.825 1144.28 181.304C1142.5 182.32 1141.18 183.984 1140.59 185.95C1140 187.916 1140.2 190.032 1141.13 191.858Z" fill="#564368"/>
<path d="M1094.06 276.851C1094.06 276.851 1113.86 272.679 1120.74 268.943C1124.8 266.787 1128.11 263.456 1130.24 259.386C1129.23 263.441 1127.42 267.253 1124.91 270.593C1119.9 277.131 1094.12 282.113 1094.12 282.113L1094.06 276.851Z" fill="#E38A93"/>
<path d="M1092.47 226.976C1092.46 227.506 1092.56 228.032 1092.76 228.525C1092.95 229.017 1093.24 229.466 1093.62 229.845C1093.99 230.224 1094.43 230.526 1094.92 230.734C1095.4 230.941 1095.93 231.05 1096.46 231.054C1097.28 231.085 1098.1 230.868 1098.81 230.429C1099.51 229.991 1100.06 229.352 1100.4 228.594C1100.73 227.837 1100.83 226.997 1100.69 226.182C1100.54 225.367 1100.15 224.615 1099.57 224.023C1099 223.43 1098.25 223.025 1097.44 222.86C1096.63 222.694 1095.79 222.775 1095.02 223.093C1094.26 223.411 1093.61 223.951 1093.15 224.643C1092.7 225.335 1092.46 226.148 1092.47 226.976Z" fill="#564368"/>
<path d="M1104.27 213.308L1095.43 209.292C1094.92 210.502 1094.89 211.862 1095.35 213.092C1095.82 214.321 1096.74 215.324 1097.92 215.893C1098.51 216.152 1099.14 216.29 1099.78 216.3C1100.42 216.31 1101.05 216.191 1101.65 215.95C1102.24 215.708 1102.78 215.35 1103.23 214.896C1103.68 214.443 1104.03 213.903 1104.27 213.308Z" fill="#564368"/>
<path d="M1066.45 208.421L1058.76 214.46C1059.12 214.984 1059.59 215.427 1060.13 215.762C1060.67 216.097 1061.28 216.317 1061.91 216.408C1062.54 216.498 1063.18 216.458 1063.8 216.289C1064.41 216.12 1064.98 215.826 1065.48 215.426C1066.5 214.599 1067.17 213.415 1067.35 212.114C1067.53 210.813 1067.21 209.492 1066.45 208.421Z" fill="#564368"/>
<path d="M1061.81 226.011C1061.84 226.754 1062.1 227.471 1062.54 228.071C1062.98 228.671 1063.59 229.129 1064.28 229.387C1064.98 229.645 1065.74 229.692 1066.47 229.522C1067.19 229.353 1067.85 228.974 1068.36 228.433C1068.87 227.892 1069.21 227.213 1069.34 226.48C1069.47 225.746 1069.38 224.992 1069.08 224.309C1068.79 223.626 1068.3 223.046 1067.67 222.64C1067.05 222.234 1066.32 222.021 1065.57 222.026C1065.06 222.038 1064.56 222.151 1064.1 222.358C1063.63 222.565 1063.21 222.863 1062.86 223.233C1062.51 223.604 1062.24 224.04 1062.06 224.517C1061.87 224.993 1061.79 225.501 1061.81 226.011Z" fill="#564368"/>
<path d="M1082.42 222.804L1080.18 246.621L1067.88 241.889L1082.42 222.804Z" fill="#E38A93"/>
<path d="M1089.17 255.556C1089.17 256.315 1089.39 257.058 1089.8 257.692C1090.22 258.326 1090.82 258.821 1091.52 259.116C1092.21 259.411 1092.99 259.491 1093.73 259.347C1094.48 259.203 1095.16 258.84 1095.7 258.306C1096.24 257.772 1096.61 257.089 1096.76 256.346C1096.91 255.602 1096.83 254.831 1096.54 254.129C1096.25 253.428 1095.76 252.828 1095.13 252.405C1094.5 251.983 1093.76 251.758 1093 251.758C1091.99 251.758 1091.02 252.157 1090.31 252.868C1089.59 253.58 1089.18 254.546 1089.17 255.556Z" fill="#E38A93"/>
<defs>
<linearGradient id="paint0_linear" x1="651.016" y1="384.219" x2="651.016" y2="1053.73" gradientUnits="userSpaceOnUse">
<stop stop-color="#9971B2" stop-opacity="0.23"/>
<stop offset="1" stop-color="#706196"/>
</linearGradient>
<linearGradient id="paint1_linear" x1="651.016" y1="384.219" x2="651.016" y2="1053.73" gradientUnits="userSpaceOnUse">
<stop stop-color="#9971B2" stop-opacity="0.23"/>
<stop offset="1" stop-color="#706196"/>
</linearGradient>
<linearGradient id="paint2_linear" x1="651.016" y1="384.219" x2="651.016" y2="1053.73" gradientUnits="userSpaceOnUse">
<stop stop-color="#9971B2" stop-opacity="0.23"/>
<stop offset="1" stop-color="#706196"/>
</linearGradient>
<linearGradient id="paint3_linear" x1="651.016" y1="384.219" x2="651.016" y2="1053.73" gradientUnits="userSpaceOnUse">
<stop stop-color="#9971B2" stop-opacity="0.23"/>
<stop offset="1" stop-color="#706196"/>
</linearGradient>
<linearGradient id="paint4_linear" x1="651.016" y1="384.219" x2="651.016" y2="1053.73" gradientUnits="userSpaceOnUse">
<stop stop-color="#9971B2" stop-opacity="0.23"/>
<stop offset="1" stop-color="#706196"/>
</linearGradient>
<linearGradient id="paint5_linear" x1="651.016" y1="384.219" x2="651.016" y2="1053.73" gradientUnits="userSpaceOnUse">
<stop stop-color="#9971B2" stop-opacity="0.23"/>
<stop offset="1" stop-color="#706196"/>
</linearGradient>
<linearGradient id="paint6_linear" x1="651.016" y1="384.219" x2="651.016" y2="1053.73" gradientUnits="userSpaceOnUse">
<stop stop-color="#9971B2" stop-opacity="0.23"/>
<stop offset="1" stop-color="#706196"/>
</linearGradient>
<linearGradient id="paint7_linear" x1="651.016" y1="384.219" x2="651.016" y2="1053.73" gradientUnits="userSpaceOnUse">
<stop stop-color="#9971B2" stop-opacity="0.23"/>
<stop offset="1" stop-color="#706196"/>
</linearGradient>
<linearGradient id="paint8_linear" x1="651.016" y1="384.219" x2="651.016" y2="1053.73" gradientUnits="userSpaceOnUse">
<stop stop-color="#9971B2" stop-opacity="0.23"/>
<stop offset="1" stop-color="#706196"/>
</linearGradient>
<linearGradient id="paint9_linear" x1="651.016" y1="384.219" x2="651.016" y2="1053.73" gradientUnits="userSpaceOnUse">
<stop stop-color="#9971B2" stop-opacity="0.23"/>
<stop offset="1" stop-color="#706196"/>
</linearGradient>
<linearGradient id="paint10_linear" x1="651.016" y1="384.219" x2="651.016" y2="1053.73" gradientUnits="userSpaceOnUse">
<stop stop-color="#9971B2" stop-opacity="0.23"/>
<stop offset="1" stop-color="#706196"/>
</linearGradient>
<linearGradient id="paint11_linear" x1="651.016" y1="384.219" x2="651.016" y2="1053.73" gradientUnits="userSpaceOnUse">
<stop stop-color="#9971B2" stop-opacity="0.23"/>
<stop offset="1" stop-color="#706196"/>
</linearGradient>
<linearGradient id="paint12_linear" x1="651.016" y1="384.219" x2="651.016" y2="1053.73" gradientUnits="userSpaceOnUse">
<stop stop-color="#9971B2" stop-opacity="0.23"/>
<stop offset="1" stop-color="#706196"/>
</linearGradient>
<linearGradient id="paint13_linear" x1="651.016" y1="384.219" x2="651.016" y2="1053.73" gradientUnits="userSpaceOnUse">
<stop stop-color="#9971B2" stop-opacity="0.23"/>
<stop offset="1" stop-color="#706196"/>
</linearGradient>
<linearGradient id="paint14_linear" x1="651.016" y1="384.219" x2="651.016" y2="1053.73" gradientUnits="userSpaceOnUse">
<stop stop-color="#9971B2" stop-opacity="0.23"/>
<stop offset="1" stop-color="#706196"/>
</linearGradient>
<linearGradient id="paint15_linear" x1="651.016" y1="384.219" x2="651.016" y2="1053.73" gradientUnits="userSpaceOnUse">
<stop stop-color="#9971B2" stop-opacity="0.23"/>
<stop offset="1" stop-color="#706196"/>
</linearGradient>
<linearGradient id="paint16_linear" x1="651.016" y1="384.219" x2="651.016" y2="1053.73" gradientUnits="userSpaceOnUse">
<stop stop-color="#9971B2" stop-opacity="0.23"/>
<stop offset="1" stop-color="#706196"/>
</linearGradient>
<linearGradient id="paint17_linear" x1="651.016" y1="384.219" x2="651.016" y2="1053.73" gradientUnits="userSpaceOnUse">
<stop stop-color="#9971B2" stop-opacity="0.23"/>
<stop offset="1" stop-color="#706196"/>
</linearGradient>
<linearGradient id="paint18_linear" x1="651.016" y1="384.219" x2="651.016" y2="1053.73" gradientUnits="userSpaceOnUse">
<stop stop-color="#9971B2" stop-opacity="0.23"/>
<stop offset="1" stop-color="#706196"/>
</linearGradient>
<linearGradient id="paint19_linear" x1="651.016" y1="384.219" x2="651.016" y2="1053.73" gradientUnits="userSpaceOnUse">
<stop stop-color="#9971B2" stop-opacity="0.23"/>
<stop offset="1" stop-color="#706196"/>
</linearGradient>
<linearGradient id="paint20_linear" x1="651.016" y1="384.219" x2="651.016" y2="1053.73" gradientUnits="userSpaceOnUse">
<stop stop-color="#9971B2" stop-opacity="0.23"/>
<stop offset="1" stop-color="#706196"/>
</linearGradient>
<linearGradient id="paint21_linear" x1="651.016" y1="384.219" x2="651.016" y2="1053.73" gradientUnits="userSpaceOnUse">
<stop stop-color="#9971B2" stop-opacity="0.23"/>
<stop offset="1" stop-color="#706196"/>
</linearGradient>
<linearGradient id="paint22_linear" x1="651.016" y1="384.219" x2="651.016" y2="1053.73" gradientUnits="userSpaceOnUse">
<stop stop-color="#9971B2" stop-opacity="0.23"/>
<stop offset="1" stop-color="#706196"/>
</linearGradient>
<linearGradient id="paint23_linear" x1="651.016" y1="384.219" x2="651.016" y2="1053.73" gradientUnits="userSpaceOnUse">
<stop stop-color="#9971B2" stop-opacity="0.23"/>
<stop offset="1" stop-color="#706196"/>
</linearGradient>
<linearGradient id="paint24_linear" x1="651.016" y1="384.219" x2="651.016" y2="1053.73" gradientUnits="userSpaceOnUse">
<stop stop-color="#9971B2" stop-opacity="0.23"/>
<stop offset="1" stop-color="#706196"/>
</linearGradient>
<linearGradient id="paint25_linear" x1="651.016" y1="384.219" x2="651.016" y2="1053.73" gradientUnits="userSpaceOnUse">
<stop stop-color="#9971B2" stop-opacity="0.23"/>
<stop offset="1" stop-color="#706196"/>
</linearGradient>
<linearGradient id="paint26_linear" x1="651.016" y1="384.219" x2="651.016" y2="1053.73" gradientUnits="userSpaceOnUse">
<stop stop-color="#9971B2" stop-opacity="0.23"/>
<stop offset="1" stop-color="#706196"/>
</linearGradient>
<linearGradient id="paint27_linear" x1="651.016" y1="384.219" x2="651.016" y2="1053.73" gradientUnits="userSpaceOnUse">
<stop stop-color="#9971B2" stop-opacity="0.23"/>
<stop offset="1" stop-color="#706196"/>
</linearGradient>
<linearGradient id="paint28_linear" x1="651.016" y1="384.219" x2="651.016" y2="1053.73" gradientUnits="userSpaceOnUse">
<stop stop-color="#9971B2" stop-opacity="0.23"/>
<stop offset="1" stop-color="#706196"/>
</linearGradient>
<linearGradient id="paint29_linear" x1="651.016" y1="384.219" x2="651.016" y2="1053.73" gradientUnits="userSpaceOnUse">
<stop stop-color="#9971B2" stop-opacity="0.23"/>
<stop offset="1" stop-color="#706196"/>
</linearGradient>
<linearGradient id="paint30_linear" x1="651.016" y1="384.219" x2="651.016" y2="1053.73" gradientUnits="userSpaceOnUse">
<stop stop-color="#9971B2" stop-opacity="0.23"/>
<stop offset="1" stop-color="#706196"/>
</linearGradient>
<linearGradient id="paint31_linear" x1="284.962" y1="357.74" x2="185.943" y2="411.948" gradientUnits="userSpaceOnUse">
<stop stop-color="#9870B1"/>
<stop offset="1" stop-color="#7769A2"/>
</linearGradient>
<radialGradient id="paint32_radial" cx="0" cy="0" r="1" gradientUnits="userSpaceOnUse" gradientTransform="translate(1074.01 67.0615) rotate(76.0519) scale(124.49 100.576)">
<stop stop-color="#A874B9"/>
<stop offset="1" stop-color="#485E8B"/>
</radialGradient>
<linearGradient id="paint33_linear" x1="1163.43" y1="246.845" x2="1235.29" y2="283.834" gradientUnits="userSpaceOnUse">
<stop stop-color="#A874B9"/>
<stop offset="1" stop-color="#485E8B"/>
</linearGradient>
<linearGradient id="paint34_linear" x1="968.384" y1="153.77" x2="1047.74" y2="220.298" gradientUnits="userSpaceOnUse">
<stop stop-color="#A874B9"/>
<stop offset="0.330658" stop-color="#886DAA"/>
<stop offset="1" stop-color="#485E8B"/>
</linearGradient>
<radialGradient id="paint35_radial" cx="0" cy="0" r="1" gradientUnits="userSpaceOnUse" gradientTransform="translate(227.006 65.0615) rotate(76.0519) scale(124.49 100.576)">
<stop stop-color="#A874B9"/>
<stop offset="1" stop-color="#485E8B"/>
</radialGradient>
<linearGradient id="paint36_linear" x1="314.596" y1="286.156" x2="392.09" y2="263.184" gradientUnits="userSpaceOnUse">
<stop stop-color="#A874B9"/>
<stop offset="1" stop-color="#485E8B"/>
</linearGradient>
<linearGradient id="paint37_linear" x1="100.384" y1="136.77" x2="179.736" y2="203.298" gradientUnits="userSpaceOnUse">
<stop stop-color="#A874B9"/>
<stop offset="0.330658" stop-color="#886DAA"/>
<stop offset="1" stop-color="#485E8B"/>
</linearGradient>
<linearGradient id="paint38_linear" x1="1147.73" y1="345.837" x2="1044.75" y2="399.363" gradientUnits="userSpaceOnUse">
<stop stop-color="#9870B1"/>
<stop offset="1" stop-color="#7769A2"/>
</linearGradient>
<clipPath id="clip0">
<rect width="1160" height="601" fill="white" transform="translate(91 33)"/>
</clipPath>
</defs>
</svg>
