<svg width="152" height="34" viewBox="0 0 152 34" fill="none" xmlns="http://www.w3.org/2000/svg">
<path d="M17.3166 0L21.516 4.3006L10.9416 14.875L6.74216 10.6756L17.3166 0Z" fill="url(#paint0_linear)"/>
<path d="M23.6916 6.375L27.891 10.6756L10.9416 27.625L6.74216 23.4256L23.6916 6.375Z" fill="url(#paint1_linear)"/>
<path d="M4.56659 12.75L8.766 17.0506L4.56659 21.25L0.367188 17.0506L4.56659 12.75Z" fill="url(#paint2_linear)"/>
<path d="M30.0666 12.75L34.266 17.0506L17.3166 34L13.1172 29.8006L30.0666 12.75Z" fill="url(#paint3_linear)"/>
<path d="M46.6861 26.69V7.8404H54.1117C56.3774 7.8404 58.0339 8.29736 59.0811 9.21128C60.1283 10.1252 60.6519 11.3914 60.6519 13.0098C60.6519 13.9998 60.3663 14.8852 59.7951 15.6658C59.2239 16.4274 58.3861 16.913 57.2818 17.1224V17.151C58.5004 17.3604 59.4429 17.865 60.1093 18.6646C60.7947 19.4643 61.1374 20.3973 61.1374 21.4635C61.1374 23.0819 60.5472 24.3576 59.3667 25.2906C58.1862 26.2235 56.4726 26.69 54.2259 26.69H46.6861ZM49.6849 15.9514H53.8832C56.2822 15.9514 57.4817 15.028 57.4817 13.1811C57.4817 11.3342 56.2822 10.4108 53.8832 10.4108H49.6849V15.9514ZM49.6849 24.1482H54.3687C55.5682 24.1482 56.4631 23.9006 57.0533 23.4056C57.6626 22.9106 57.9673 22.2156 57.9673 21.3207C57.9673 20.4258 57.6626 19.7309 57.0533 19.2358C56.4631 18.7408 55.5682 18.4933 54.3687 18.4933H49.6849V24.1482Z" fill="url(#paint4_linear)"/>
<path d="M66.4241 10.011C65.7577 10.011 65.2437 9.84912 64.8819 9.52544C64.5392 9.18272 64.3678 8.70672 64.3678 8.09744C64.3678 7.48816 64.5392 7.02168 64.8819 6.698C65.2437 6.37432 65.7577 6.21248 66.4241 6.21248C67.0715 6.21248 67.5665 6.37432 67.9093 6.698C68.271 7.02168 68.4519 7.48816 68.4519 8.09744C68.4519 8.70672 68.271 9.18272 67.9093 9.52544C67.5665 9.84912 67.0715 10.011 66.4241 10.011ZM67.9378 12.41V26.69H64.8819V12.41H67.9378Z" fill="url(#paint5_linear)"/>
<path d="M72.4336 26.69V12.41H75.1468L75.2896 14.8662C75.7656 13.9142 76.4225 13.2192 77.2602 12.7813C78.117 12.3434 79.069 12.1244 80.1162 12.1244C81.1253 12.1244 82.0297 12.3243 82.8294 12.7242C83.6481 13.105 84.2955 13.6952 84.7715 14.4949C85.2475 15.2755 85.4855 16.2561 85.4855 17.4366V26.69H82.4296V18.379C82.4296 16.9701 82.1345 15.999 81.5442 15.4659C80.973 14.9138 80.2495 14.6377 79.3736 14.6377C78.7453 14.6377 78.1361 14.7805 77.5458 15.0661C76.9556 15.3517 76.4605 15.8277 76.0607 16.4941C75.6799 17.1414 75.4895 18.0078 75.4895 19.093V26.69H72.4336Z" fill="url(#paint6_linear)"/>
<path d="M98.0845 17.5222C98.0845 16.5702 97.8179 15.8372 97.2848 15.3231C96.7707 14.79 96.0567 14.5234 95.1428 14.5234C94.286 14.5234 93.5434 14.7234 92.9151 15.1232C92.3058 15.523 91.8679 16.1704 91.6013 17.0653L89.0309 15.98C89.3927 14.8186 90.0972 13.8856 91.1444 13.1811C92.2106 12.4766 93.5815 12.1244 95.257 12.1244C96.3804 12.1244 97.38 12.3148 98.2558 12.6956C99.1507 13.0574 99.8457 13.619 100.341 14.3806C100.855 15.1232 101.112 16.0657 101.112 17.2081V23.577C101.112 24.2814 101.464 24.6337 102.169 24.6337C102.511 24.6337 102.844 24.5861 103.168 24.4909L102.997 26.6043C102.559 26.8138 102.007 26.9185 101.34 26.9185C100.579 26.9185 99.9218 26.7471 99.3697 26.4044C98.8175 26.0617 98.4462 25.5476 98.2558 24.8622C97.7989 25.5666 97.142 26.0998 96.2852 26.4615C95.4284 26.8042 94.5716 26.9756 93.7148 26.9756C92.3629 26.9756 91.2396 26.6519 90.3447 26.0046C89.4498 25.3572 89.0024 24.3862 89.0024 23.0914C89.0024 22.0442 89.3451 21.1779 90.0305 20.4925C90.735 19.807 91.7251 19.331 93.0008 19.0645L98.0845 18.0649V17.5222ZM92.0869 22.863C92.0869 23.3961 92.2868 23.8245 92.6866 24.1482C93.1055 24.4528 93.6577 24.6051 94.3431 24.6051C94.9905 24.6051 95.5997 24.5004 96.1709 24.291C96.7421 24.0815 97.1991 23.7388 97.5418 23.2628C97.9036 22.7868 98.0845 22.168 98.0845 21.4064V20.2069L94.4859 20.9494C93.6672 21.1018 93.0579 21.3207 92.6581 21.6063C92.2773 21.8919 92.0869 22.3108 92.0869 22.863Z" fill="url(#paint7_linear)"/>
<path d="M105.833 26.69V12.41H108.546L108.689 14.8662C109.165 13.9142 109.822 13.2192 110.66 12.7813C111.517 12.3434 112.469 12.1244 113.516 12.1244C114.525 12.1244 115.429 12.3243 116.229 12.7242C117.048 13.105 117.695 13.6952 118.171 14.4949C118.647 15.2755 118.885 16.2561 118.885 17.4366V26.69H115.829V18.379C115.829 16.9701 115.534 15.999 114.944 15.4659C114.373 14.9138 113.649 14.6377 112.773 14.6377C112.145 14.6377 111.536 14.7805 110.945 15.0661C110.355 15.3517 109.86 15.8277 109.46 16.4941C109.079 17.1414 108.889 18.0078 108.889 19.093V26.69H105.833Z" fill="url(#paint8_linear)"/>
<path d="M129.399 12.1244C131.094 12.1244 132.446 12.4957 133.455 13.2382C134.464 13.9808 135.187 14.9423 135.625 16.1228L132.741 17.2652C132.493 16.3894 132.093 15.723 131.541 15.266C131.008 14.79 130.304 14.552 129.428 14.552C128.152 14.552 127.152 14.9899 126.429 15.8658C125.724 16.7226 125.372 17.9602 125.372 19.5786C125.372 21.1779 125.734 22.406 126.457 23.2628C127.181 24.1196 128.171 24.548 129.428 24.548C130.418 24.548 131.198 24.31 131.77 23.834C132.36 23.358 132.75 22.6726 132.941 21.7777L135.711 22.7202C135.311 24.0149 134.578 25.0526 133.512 25.8332C132.446 26.5948 131.103 26.9756 129.485 26.9756C128.076 26.9756 126.829 26.6805 125.743 26.0902C124.677 25.5 123.839 24.6527 123.23 23.5484C122.621 22.425 122.316 21.0922 122.316 19.55C122.316 18.0078 122.621 16.6845 123.23 15.5802C123.839 14.4568 124.677 13.6 125.743 13.0098C126.81 12.4195 128.028 12.1244 129.399 12.1244Z" fill="url(#paint9_linear)"/>
<path d="M145.265 26.9756C143.837 26.9756 142.58 26.6805 141.495 26.0902C140.429 25.5 139.591 24.6527 138.982 23.5484C138.372 22.425 138.068 21.0922 138.068 19.55C138.068 18.0078 138.363 16.6845 138.953 15.5802C139.562 14.4568 140.391 13.6 141.438 13.0098C142.504 12.4195 143.723 12.1244 145.094 12.1244C146.483 12.1244 147.664 12.41 148.635 12.9812C149.606 13.5524 150.349 14.333 150.863 15.3231C151.377 16.3132 151.634 17.4366 151.634 18.6932C151.634 19.055 151.624 19.3882 151.605 19.6928C151.586 19.9974 151.558 20.2545 151.52 20.4639H141.067C141.2 21.7967 141.628 22.8154 142.352 23.5198C143.094 24.2053 144.046 24.548 145.208 24.548C146.16 24.548 146.931 24.3671 147.521 24.0054C148.111 23.6436 148.578 23.139 148.921 22.4917L151.348 23.6341C150.853 24.6813 150.063 25.5 148.978 26.0902C147.911 26.6805 146.674 26.9756 145.265 26.9756ZM145.036 14.552C143.989 14.552 143.123 14.8566 142.437 15.4659C141.771 16.0752 141.343 16.9606 141.152 18.122H148.664C148.587 16.9796 148.226 16.1038 147.578 15.4945C146.931 14.8662 146.084 14.552 145.036 14.552Z" fill="url(#paint10_linear)"/>
<defs>
<linearGradient id="paint0_linear" x1="76.0005" y1="0" x2="76.0005" y2="34" gradientUnits="userSpaceOnUse">
<stop stop-color="#BEBCE7"/>
<stop offset="1" stop-color="#BE8BD5"/>
</linearGradient>
<linearGradient id="paint1_linear" x1="76.0005" y1="0" x2="76.0005" y2="34" gradientUnits="userSpaceOnUse">
<stop stop-color="#BEBCE7"/>
<stop offset="1" stop-color="#BE8BD5"/>
</linearGradient>
<linearGradient id="paint2_linear" x1="76.0005" y1="0" x2="76.0005" y2="34" gradientUnits="userSpaceOnUse">
<stop stop-color="#BEBCE7"/>
<stop offset="1" stop-color="#BE8BD5"/>
</linearGradient>
<linearGradient id="paint3_linear" x1="76.0005" y1="0" x2="76.0005" y2="34" gradientUnits="userSpaceOnUse">
<stop stop-color="#BEBCE7"/>
<stop offset="1" stop-color="#BE8BD5"/>
</linearGradient>
<linearGradient id="paint4_linear" x1="76.0005" y1="0" x2="76.0005" y2="34" gradientUnits="userSpaceOnUse">
<stop stop-color="#BEBCE7"/>
<stop offset="1" stop-color="#BE8BD5"/>
</linearGradient>
<linearGradient id="paint5_linear" x1="76.0005" y1="0" x2="76.0005" y2="34" gradientUnits="userSpaceOnUse">
<stop stop-color="#BEBCE7"/>
<stop offset="1" stop-color="#BE8BD5"/>
</linearGradient>
<linearGradient id="paint6_linear" x1="76.0005" y1="0" x2="76.0005" y2="34" gradientUnits="userSpaceOnUse">
<stop stop-color="#BEBCE7"/>
<stop offset="1" stop-color="#BE8BD5"/>
</linearGradient>
<linearGradient id="paint7_linear" x1="76.0005" y1="0" x2="76.0005" y2="34" gradientUnits="userSpaceOnUse">
<stop stop-color="#BEBCE7"/>
<stop offset="1" stop-color="#BE8BD5"/>
</linearGradient>
<linearGradient id="paint8_linear" x1="76.0005" y1="0" x2="76.0005" y2="34" gradientUnits="userSpaceOnUse">
<stop stop-color="#BEBCE7"/>
<stop offset="1" stop-color="#BE8BD5"/>
</linearGradient>
<linearGradient id="paint9_linear" x1="76.0005" y1="0" x2="76.0005" y2="34" gradientUnits="userSpaceOnUse">
<stop stop-color="#BEBCE7"/>
<stop offset="1" stop-color="#BE8BD5"/>
</linearGradient>
<linearGradient id="paint10_linear" x1="76.0005" y1="0" x2="76.0005" y2="34" gradientUnits="userSpaceOnUse">
<stop stop-color="#BEBCE7"/>
<stop offset="1" stop-color="#BE8BD5"/>
</linearGradient>
</defs>
</svg>
