<svg width="118" height="34" viewBox="0 0 118 34" fill="none" xmlns="http://www.w3.org/2000/svg">
<path d="M49.2319 12.9608C50.4377 12.9608 51.4215 13.3892 52.1831 14.246C52.9605 15.1028 53.3493 16.3245 53.3493 17.9112C53.3493 18.8791 53.2065 19.8073 52.9209 20.6958C52.6511 21.5843 52.2545 22.3777 51.7309 23.0758C51.2231 23.7581 50.6123 24.3055 49.8983 24.718C49.1843 25.1147 48.3989 25.313 47.5421 25.313C46.5901 25.313 45.7571 25.0671 45.0431 24.5752C44.3449 24.0833 43.9007 23.4011 43.7103 22.5284L43.0915 25.075H39.9023L43.8531 7.9628H47.1137L45.4715 15.079C45.8523 14.4443 46.3679 13.9366 47.0185 13.5558C47.6849 13.1591 48.4227 12.9608 49.2319 12.9608ZM46.8281 22.814C47.4786 22.814 48.0498 22.5919 48.5417 22.1476C49.0335 21.7033 49.4223 21.1321 49.7079 20.434C49.9935 19.72 50.1363 18.9743 50.1363 18.1968C50.1363 17.2924 49.9221 16.6101 49.4937 16.15C49.0653 15.6899 48.502 15.4598 47.8039 15.4598C47.1375 15.4598 46.5504 15.6819 46.0427 16.1262C45.5508 16.5705 45.1621 17.1575 44.8765 17.8874C44.6067 18.6014 44.4719 19.3709 44.4719 20.196C44.4719 20.9893 44.6702 21.624 45.0669 22.1C45.4635 22.576 46.0506 22.814 46.8281 22.814Z" fill="url(#paint0_linear)"/>
<path d="M59.3513 11.4614C58.7801 11.4614 58.3279 11.3345 57.9947 11.0806C57.6615 10.8109 57.5187 10.4063 57.5663 9.8668C57.6139 9.21627 57.8202 8.74027 58.1851 8.4388C58.5659 8.12147 59.0657 7.9628 59.6845 7.9628C60.2875 7.9628 60.7476 8.09767 61.0649 8.3674C61.3981 8.63713 61.5409 9.02587 61.4933 9.5336C61.4457 10.2159 61.2315 10.7077 60.8507 11.0092C60.4858 11.3107 59.986 11.4614 59.3513 11.4614ZM60.3747 13.175L57.6139 25.075H54.3533L57.1141 13.175H60.3747Z" fill="url(#paint1_linear)"/>
<path d="M66.3329 25.2892C64.9842 25.2892 63.9529 24.9243 63.2389 24.1944C62.5249 23.4645 62.3266 22.3935 62.6439 20.9814L63.8815 15.6026H61.5967L62.1679 13.175H64.4289L65.0239 10.6046L68.5225 9.6526L67.7133 13.175H71.1167L70.5455 15.6026H67.1421L65.8807 20.9576C65.722 21.624 65.8014 22.1159 66.1187 22.4332C66.4519 22.7347 66.912 22.8854 67.4991 22.8854C67.864 22.8854 68.1734 22.8457 68.4273 22.7664C68.697 22.6871 68.9351 22.5839 69.1413 22.457L69.1175 24.6704C68.6891 24.9084 68.2448 25.0671 67.7847 25.1464C67.3246 25.2416 66.8406 25.2892 66.3329 25.2892Z" fill="url(#paint2_linear)"/>
<path d="M77.1777 25.2892C75.9719 25.2892 74.9405 25.0591 74.0837 24.599C73.2428 24.123 72.5922 23.4804 72.1321 22.6712C71.6879 21.8461 71.4657 20.9259 71.4657 19.9104C71.4657 18.5935 71.7275 17.4114 72.2511 16.3642C72.7747 15.317 73.5284 14.4919 74.5121 13.889C75.4958 13.2702 76.6859 12.9608 78.0821 12.9608C79.6053 12.9608 80.835 13.3416 81.7711 14.1032C82.7231 14.8489 83.2547 15.8327 83.3657 17.0544L80.1765 17.6256C80.1607 16.9751 79.9782 16.4435 79.6291 16.031C79.2959 15.6026 78.7565 15.3884 78.0107 15.3884C77.3443 15.3884 76.7573 15.6105 76.2495 16.0548C75.7577 16.4991 75.3689 17.0861 75.0833 17.816C74.8136 18.53 74.6787 19.2916 74.6787 20.1008C74.6787 20.9259 74.9008 21.6002 75.3451 22.1238C75.7894 22.6315 76.424 22.8854 77.2491 22.8854C77.7569 22.8854 78.2249 22.7347 78.6533 22.4332C79.0817 22.1317 79.3911 21.7113 79.5815 21.1718L82.5565 22.1714C82.1123 23.1551 81.4141 23.9247 80.4621 24.48C79.526 25.0195 78.4312 25.2892 77.1777 25.2892Z" fill="url(#paint3_linear)"/>
<path d="M90.0007 25.2892C88.8107 25.2892 87.7873 25.0512 86.9305 24.5752C86.0896 24.0992 85.439 23.4566 84.9789 22.6474C84.5346 21.8382 84.3125 20.9259 84.3125 19.9104C84.3125 18.6093 84.5743 17.4352 85.0979 16.388C85.6215 15.3249 86.3752 14.4919 87.3589 13.889C88.3426 13.2702 89.5088 12.9608 90.8575 12.9608C92.0475 12.9608 93.063 13.1988 93.9039 13.6748C94.7607 14.1349 95.4112 14.7775 95.8555 15.6026C96.3156 16.4118 96.5457 17.3162 96.5457 18.3158C96.5457 19.6327 96.2839 20.8148 95.7603 21.862C95.2367 22.9092 94.483 23.7422 93.4993 24.361C92.5314 24.9798 91.3652 25.2892 90.0007 25.2892ZM90.0721 22.8854C90.6909 22.8854 91.2462 22.6633 91.7381 22.219C92.23 21.7747 92.6187 21.1956 92.9043 20.4816C93.1899 19.7517 93.3327 18.9663 93.3327 18.1254C93.3327 17.3162 93.1185 16.6577 92.6901 16.15C92.2776 15.6264 91.6429 15.3646 90.7861 15.3646C90.1673 15.3646 89.612 15.5867 89.1201 16.031C88.6283 16.4753 88.2395 17.0623 87.9539 17.7922C87.6683 18.5062 87.5255 19.2757 87.5255 20.1008C87.5255 20.91 87.7397 21.5764 88.1681 22.1C88.5965 22.6236 89.2312 22.8854 90.0721 22.8854Z" fill="url(#paint4_linear)"/>
<path d="M102.583 11.4614C102.012 11.4614 101.559 11.3345 101.226 11.0806C100.893 10.8109 100.75 10.4063 100.798 9.8668C100.845 9.21627 101.052 8.74027 101.417 8.4388C101.797 8.12147 102.297 7.9628 102.916 7.9628C103.519 7.9628 103.979 8.09767 104.296 8.3674C104.63 8.63713 104.772 9.02587 104.725 9.5336C104.677 10.2159 104.463 10.7077 104.082 11.0092C103.717 11.3107 103.217 11.4614 102.583 11.4614ZM103.606 13.175L100.845 25.075H97.5847L100.346 13.175H103.606Z" fill="url(#paint5_linear)"/>
<path d="M103.948 25.075L106.708 13.175H109.588L109.255 15.2694C109.667 14.5078 110.239 13.9287 110.969 13.532C111.714 13.1353 112.531 12.937 113.42 12.937C114.293 12.937 115.03 13.1274 115.633 13.5082C116.236 13.889 116.657 14.4364 116.895 15.1504C117.133 15.8485 117.141 16.6895 116.919 17.6732L115.205 25.075H111.944L113.587 18.0064C113.761 17.2289 113.682 16.6181 113.349 16.1738C113.031 15.7295 112.523 15.5074 111.825 15.5074C111.016 15.5074 110.35 15.7851 109.826 16.3404C109.303 16.8799 108.914 17.6732 108.66 18.7204L107.208 25.075H103.948Z" fill="url(#paint6_linear)"/>
<path fill-rule="evenodd" clip-rule="evenodd" d="M13.4051 33.491C22.5135 35.7621 31.7376 30.2196 34.0081 21.1124L34.0078 21.1125C36.2785 12.0049 30.7364 2.77917 21.6287 0.508698C12.5233 -1.76177 3.29911 3.78112 1.02963 12.8894C-1.24184 21.9958 4.30065 31.2206 13.4051 33.491ZM24.848 14.0187C25.0277 11.7383 23.2247 10.6453 20.8186 10.0003L21.367 6.88999L19.4737 6.55642L18.9398 9.58488C18.4421 9.49707 17.9316 9.41723 17.4243 9.33817L17.9622 6.28969L16.07 5.95604L15.5211 9.06543C15.1098 9.00157 14.7058 8.93827 14.3133 8.86926L14.3148 8.8595L11.7037 8.39811L11.3476 10.4203C11.3476 10.4203 12.7504 10.6402 12.7227 10.6618C13.4894 10.7971 13.6606 11.2865 13.6656 11.6834L13.0409 15.2269C13.0937 15.2364 13.1624 15.2508 13.2387 15.2754L13.1838 15.2657L13.1832 15.2656L13.1828 15.2655C13.1363 15.2573 13.0881 15.2488 13.0386 15.2405L12.1628 20.2044C12.0868 20.4398 11.877 20.7997 11.341 20.7061C11.3616 20.7318 9.96489 20.4631 9.96489 20.4631L9.18993 22.6579L11.6538 23.0922C11.9234 23.1402 12.1899 23.1901 12.4538 23.2395L12.4543 23.2396L12.4546 23.2397L12.4551 23.2398L12.4555 23.2398C12.6398 23.2744 12.8228 23.3086 13.0045 23.3418L12.4507 26.4878L14.3419 26.8215L14.8906 23.7089C15.408 23.8112 15.9097 23.9039 16.4005 23.99L15.8534 27.0881L17.7468 27.4216L18.301 24.2815C21.5163 24.6601 23.8854 24.2512 24.689 21.3107C25.3367 18.9432 24.3939 17.6698 22.6637 16.9173C23.86 16.5518 24.72 15.688 24.8486 14.0189L24.848 14.0187ZM15.7074 21.4959C17.2538 21.7907 20.6337 22.4352 21.0131 20.2781C21.402 18.0728 18.1337 17.5756 16.5385 17.333C16.3601 17.3058 16.2026 17.2819 16.0735 17.2591L15.3381 21.4271C15.4439 21.4456 15.5681 21.4693 15.7071 21.4958L15.7074 21.4959ZM21.1694 14.2423C20.8232 16.2029 18.0101 15.659 16.7206 15.4097L16.7201 15.4096C16.6032 15.387 16.4988 15.3668 16.4099 15.3511L17.0766 11.571C17.1847 11.5901 17.3168 11.6098 17.4665 11.6321C18.7975 11.8307 21.5226 12.2372 21.1694 14.2423Z" fill="url(#paint7_linear)"/>
<defs>
<linearGradient id="paint0_linear" x1="58.7999" y1="0" x2="58.7999" y2="34" gradientUnits="userSpaceOnUse">
<stop stop-color="#BEBCE7"/>
<stop offset="1" stop-color="#BE8BD5"/>
</linearGradient>
<linearGradient id="paint1_linear" x1="58.7999" y1="0" x2="58.7999" y2="34" gradientUnits="userSpaceOnUse">
<stop stop-color="#BEBCE7"/>
<stop offset="1" stop-color="#BE8BD5"/>
</linearGradient>
<linearGradient id="paint2_linear" x1="58.7999" y1="0" x2="58.7999" y2="34" gradientUnits="userSpaceOnUse">
<stop stop-color="#BEBCE7"/>
<stop offset="1" stop-color="#BE8BD5"/>
</linearGradient>
<linearGradient id="paint3_linear" x1="58.7999" y1="0" x2="58.7999" y2="34" gradientUnits="userSpaceOnUse">
<stop stop-color="#BEBCE7"/>
<stop offset="1" stop-color="#BE8BD5"/>
</linearGradient>
<linearGradient id="paint4_linear" x1="58.7999" y1="0" x2="58.7999" y2="34" gradientUnits="userSpaceOnUse">
<stop stop-color="#BEBCE7"/>
<stop offset="1" stop-color="#BE8BD5"/>
</linearGradient>
<linearGradient id="paint5_linear" x1="58.7999" y1="0" x2="58.7999" y2="34" gradientUnits="userSpaceOnUse">
<stop stop-color="#BEBCE7"/>
<stop offset="1" stop-color="#BE8BD5"/>
</linearGradient>
<linearGradient id="paint6_linear" x1="58.7999" y1="0" x2="58.7999" y2="34" gradientUnits="userSpaceOnUse">
<stop stop-color="#BEBCE7"/>
<stop offset="1" stop-color="#BE8BD5"/>
</linearGradient>
<linearGradient id="paint7_linear" x1="58.7999" y1="0" x2="58.7999" y2="34" gradientUnits="userSpaceOnUse">
<stop stop-color="#BEBCE7"/>
<stop offset="1" stop-color="#BE8BD5"/>
</linearGradient>
</defs>
</svg>
