<svg width="162" height="34" viewBox="0 0 162 34" fill="none" xmlns="http://www.w3.org/2000/svg">
<path d="M47.3017 9.367C49.7611 9.367 51.6651 10.0493 53.0137 11.4138C54.3624 12.7783 55.0367 14.7141 55.0367 17.221C55.0367 19.7279 54.3624 21.6637 53.0137 23.0282C51.6651 24.3927 49.7611 25.075 47.3017 25.075H41.2327V9.367H47.3017ZM47.1351 22.457C48.6266 22.457 49.7452 22.0127 50.4909 21.1242C51.2525 20.2198 51.6333 18.9187 51.6333 17.221C51.6333 15.5233 51.2525 14.2301 50.4909 13.3416C49.7452 12.4372 48.6266 11.985 47.1351 11.985H44.5171V22.457H47.1351Z" fill="url(#paint0_linear)"/>
<path d="M64.884 9.129C66.4389 9.129 67.7797 9.45427 68.9062 10.1048C70.0327 10.7553 70.8975 11.6835 71.5004 12.8894C72.1192 14.0953 72.4286 15.5391 72.4286 17.221C72.4286 18.9029 72.1192 20.3467 71.5004 21.5526C70.8975 22.7585 70.0327 23.6867 68.9062 24.3372C67.7797 24.9877 66.4389 25.313 64.884 25.313C63.3291 25.313 61.9804 24.9877 60.838 24.3372C59.7115 23.6867 58.8388 22.7585 58.22 21.5526C57.6171 20.3467 57.3156 18.9029 57.3156 17.221C57.3156 15.5391 57.6171 14.0953 58.22 12.8894C58.8388 11.6835 59.7115 10.7553 60.838 10.1048C61.9804 9.45427 63.3291 9.129 64.884 9.129ZM64.884 11.8184C63.5512 11.8184 62.5199 12.2865 61.79 13.2226C61.076 14.1429 60.719 15.4757 60.719 17.221C60.719 18.9663 61.076 20.3071 61.79 21.2432C62.5199 22.1635 63.5512 22.6236 64.884 22.6236C66.2009 22.6236 67.2164 22.1635 67.9304 21.2432C68.6603 20.3071 69.0252 18.9663 69.0252 17.221C69.0252 15.4757 68.6603 14.1429 67.9304 13.2226C67.2164 12.2865 66.2009 11.8184 64.884 11.8184Z" fill="url(#paint1_linear)"/>
<path d="M81.9536 25.313C80.5097 25.313 79.2404 24.9957 78.1456 24.361C77.0667 23.7263 76.2257 22.8061 75.6228 21.6002C75.0199 20.3943 74.7184 18.9425 74.7184 17.2448C74.7184 15.5629 75.0357 14.1191 75.6704 12.9132C76.3051 11.6915 77.2015 10.7553 78.3598 10.1048C79.5181 9.45427 80.8747 9.129 82.4296 9.129C84.1432 9.129 85.5157 9.44633 86.547 10.081C87.5942 10.6998 88.4272 11.6677 89.046 12.9846L85.9996 14.2936C85.7457 13.4527 85.3094 12.8339 84.6906 12.4372C84.0877 12.0247 83.3419 11.8184 82.4534 11.8184C81.1206 11.8184 80.0655 12.2865 79.288 13.2226C78.5105 14.1587 78.1218 15.4915 78.1218 17.221C78.1218 19.0139 78.4947 20.3705 79.2404 21.2908C79.9861 22.2111 81.0889 22.6712 82.5486 22.6712C83.6117 22.6712 84.4923 22.4173 85.1904 21.9096C85.9044 21.386 86.2614 20.6006 86.2614 19.5534V19.1964H82.144V16.7926H89.0936V25.075H86.785L86.6422 23.0758C86.1979 23.7898 85.5791 24.3451 84.7858 24.7418C83.9925 25.1226 83.0484 25.313 81.9536 25.313Z" fill="url(#paint2_linear)"/>
<path d="M92.465 25.075V9.367H104.246V12.0088H95.7494V15.912H102.437V18.4348H95.7494V22.4332H104.579V25.075H92.465Z" fill="url(#paint3_linear)"/>
<path d="M120.526 20.7434C120.05 22.2825 119.217 23.4328 118.027 24.1944C116.837 24.9401 115.448 25.313 113.862 25.313C112.307 25.313 110.958 24.9877 109.816 24.3372C108.689 23.6867 107.817 22.7585 107.198 21.5526C106.595 20.3467 106.293 18.9029 106.293 17.221C106.293 15.5391 106.603 14.0953 107.222 12.8894C107.84 11.6835 108.713 10.7553 109.84 10.1048C110.966 9.45427 112.291 9.129 113.814 9.129C115.417 9.129 116.789 9.47013 117.932 10.1524C119.09 10.8188 119.883 11.8343 120.312 13.1988L117.337 14.4602C117.067 13.5082 116.654 12.8339 116.099 12.4372C115.544 12.0247 114.83 11.8184 113.957 11.8184C112.656 11.8184 111.617 12.2865 110.839 13.2226C110.078 14.1429 109.697 15.4757 109.697 17.221C109.697 18.9505 110.062 20.2833 110.792 21.2194C111.521 22.1555 112.577 22.6236 113.957 22.6236C114.814 22.6236 115.552 22.3935 116.17 21.9334C116.805 21.4733 117.249 20.7751 117.503 19.839L120.526 20.7434Z" fill="url(#paint4_linear)"/>
<path d="M129.87 9.129C131.425 9.129 132.766 9.45427 133.892 10.1048C135.019 10.7553 135.884 11.6835 136.486 12.8894C137.105 14.0953 137.415 15.5391 137.415 17.221C137.415 18.9029 137.105 20.3467 136.486 21.5526C135.884 22.7585 135.019 23.6867 133.892 24.3372C132.766 24.9877 131.425 25.313 129.87 25.313C128.315 25.313 126.966 24.9877 125.824 24.3372C124.698 23.6867 123.825 22.7585 123.206 21.5526C122.603 20.3467 122.302 18.9029 122.302 17.221C122.302 15.5391 122.603 14.0953 123.206 12.8894C123.825 11.6835 124.698 10.7553 125.824 10.1048C126.966 9.45427 128.315 9.129 129.87 9.129ZM129.87 11.8184C128.537 11.8184 127.506 12.2865 126.776 13.2226C126.062 14.1429 125.705 15.4757 125.705 17.221C125.705 18.9663 126.062 20.3071 126.776 21.2432C127.506 22.1635 128.537 22.6236 129.87 22.6236C131.187 22.6236 132.202 22.1635 132.916 21.2432C133.646 20.3071 134.011 18.9663 134.011 17.221C134.011 15.4757 133.646 14.1429 132.916 13.2226C132.202 12.2865 131.187 11.8184 129.87 11.8184Z" fill="url(#paint5_linear)"/>
<path d="M143.774 9.367V25.075H140.49V9.367H143.774Z" fill="url(#paint6_linear)"/>
<path d="M161.114 9.367V25.075H157.354L151.856 15.8406L150.499 13.2702H150.476L150.571 15.9834V25.075H147.62V9.367H151.356L156.854 18.5776L158.211 21.1718H158.258L158.163 18.4586V9.367H161.114Z" fill="url(#paint7_linear)"/>
<path fill-rule="evenodd" clip-rule="evenodd" d="M17.0859 34C26.4748 34 34.0859 26.3888 34.0859 17C34.0859 7.61116 26.4748 0 17.0859 0C7.6971 0 0.0859375 7.61116 0.0859375 17C0.0859375 26.3888 7.6971 34 17.0859 34ZM20.4667 7.55652C20.4667 7.55652 24.7168 8.37905 26.436 12.8188C26.436 12.8188 28.8978 18.6588 25.2503 23.8357C25.2503 23.8357 22.9726 26.6912 20.1311 26.6912H8.34096V22.1771H10.8027V12.0788H8.38792L8.34114 7.55652H20.4667ZM20.1944 20.7933C20.1944 20.7933 19.2696 22.1276 18.2633 22.1276H16.2505L16.2028 12.0899H18.7859C18.7859 12.0899 19.9827 12.3401 20.8189 14.7085C20.8189 14.7085 21.9274 18.0994 20.1944 20.7933Z" fill="url(#paint8_linear)"/>
<defs>
<linearGradient id="paint0_linear" x1="80.6001" y1="0" x2="80.6001" y2="34" gradientUnits="userSpaceOnUse">
<stop stop-color="#BEBCE7"/>
<stop offset="1" stop-color="#BE8BD5"/>
</linearGradient>
<linearGradient id="paint1_linear" x1="80.6001" y1="0" x2="80.6001" y2="34" gradientUnits="userSpaceOnUse">
<stop stop-color="#BEBCE7"/>
<stop offset="1" stop-color="#BE8BD5"/>
</linearGradient>
<linearGradient id="paint2_linear" x1="80.6001" y1="0" x2="80.6001" y2="34" gradientUnits="userSpaceOnUse">
<stop stop-color="#BEBCE7"/>
<stop offset="1" stop-color="#BE8BD5"/>
</linearGradient>
<linearGradient id="paint3_linear" x1="80.6001" y1="0" x2="80.6001" y2="34" gradientUnits="userSpaceOnUse">
<stop stop-color="#BEBCE7"/>
<stop offset="1" stop-color="#BE8BD5"/>
</linearGradient>
<linearGradient id="paint4_linear" x1="80.6001" y1="0" x2="80.6001" y2="34" gradientUnits="userSpaceOnUse">
<stop stop-color="#BEBCE7"/>
<stop offset="1" stop-color="#BE8BD5"/>
</linearGradient>
<linearGradient id="paint5_linear" x1="80.6001" y1="0" x2="80.6001" y2="34" gradientUnits="userSpaceOnUse">
<stop stop-color="#BEBCE7"/>
<stop offset="1" stop-color="#BE8BD5"/>
</linearGradient>
<linearGradient id="paint6_linear" x1="80.6001" y1="0" x2="80.6001" y2="34" gradientUnits="userSpaceOnUse">
<stop stop-color="#BEBCE7"/>
<stop offset="1" stop-color="#BE8BD5"/>
</linearGradient>
<linearGradient id="paint7_linear" x1="80.6001" y1="0" x2="80.6001" y2="34" gradientUnits="userSpaceOnUse">
<stop stop-color="#BEBCE7"/>
<stop offset="1" stop-color="#BE8BD5"/>
</linearGradient>
<linearGradient id="paint8_linear" x1="80.6001" y1="0" x2="80.6001" y2="34" gradientUnits="userSpaceOnUse">
<stop stop-color="#BEBCE7"/>
<stop offset="1" stop-color="#BE8BD5"/>
</linearGradient>
</defs>
</svg>
