<svg width="154" height="34" viewBox="0 0 154 34" fill="none" xmlns="http://www.w3.org/2000/svg">
<path d="M11.2199 0L10.9918 0.77482V23.2563L11.2199 23.4839L21.6553 17.3154L11.2199 0Z" fill="url(#paint0_linear)"/>
<path d="M11.2199 0L0.78418 17.3154L11.2199 23.4839L11.2199 12.572L11.2199 0Z" fill="url(#paint1_linear)"/>
<path d="M11.2199 25.4597L11.0914 25.6164V33.6247L11.2199 34L21.6618 19.2944L11.2199 25.4597Z" fill="url(#paint2_linear)"/>
<path d="M11.2199 34V25.4597L0.78418 19.2944L11.2199 34Z" fill="url(#paint3_linear)"/>
<path d="M11.2199 23.4839L21.6553 17.3154L11.2199 12.572L11.2199 23.4839Z" fill="url(#paint4_linear)"/>
<path d="M0.78418 17.3154L11.2199 23.4839L11.2199 12.572L0.78418 17.3154Z" fill="url(#paint5_linear)"/>
<path d="M35.9127 26.5919C34.5396 26.5919 33.3313 26.3082 32.2878 25.7406C31.2626 25.1731 30.457 24.3584 29.8712 23.2965C29.2853 22.2164 28.9924 20.9348 28.9924 19.4519C28.9924 17.969 29.2762 16.6966 29.8437 15.6348C30.4296 14.5546 31.2259 13.7308 32.2329 13.1632C33.2581 12.5957 34.4298 12.3119 35.7479 12.3119C37.0844 12.3119 38.2195 12.5865 39.1532 13.1358C40.0869 13.685 40.8009 14.4356 41.2952 15.3876C41.7895 16.3396 42.0366 17.4198 42.0366 18.6281C42.0366 18.9759 42.0275 19.2963 42.0092 19.5892C41.9909 19.8822 41.9634 20.1293 41.9268 20.3307H31.8759C32.004 21.6122 32.4159 22.5917 33.1116 23.2691C33.8256 23.9282 34.741 24.2577 35.8578 24.2577C36.7732 24.2577 37.5146 24.0838 38.0822 23.7359C38.6497 23.3881 39.0983 22.9029 39.4278 22.2805L41.762 23.3789C41.286 24.3858 40.5263 25.1731 39.4827 25.7406C38.4575 26.3082 37.2675 26.5919 35.9127 26.5919ZM35.693 14.6462C34.6861 14.6462 33.8531 14.9391 33.194 15.5249C32.5533 16.1108 32.1413 16.9621 31.9583 18.0788H39.1806C39.1074 16.9804 38.7596 16.1382 38.1371 15.5524C37.5146 14.9482 36.6999 14.6462 35.693 14.6462Z" fill="url(#paint6_linear)"/>
<path d="M53.8837 12.5865V14.8933H49.1603V22.1981C49.1603 22.8572 49.3434 23.3515 49.7096 23.681C50.0757 23.9922 50.5517 24.1478 51.1376 24.1478C51.6502 24.1478 52.0804 24.0746 52.4283 23.9282C52.7944 23.7634 53.1331 23.5437 53.4443 23.2691L54.1034 25.4111C53.6823 25.7772 53.1606 26.0702 52.5381 26.2898C51.9339 26.4912 51.2566 26.5919 50.506 26.5919C49.2976 26.5919 48.2816 26.299 47.4577 25.7132C46.6339 25.109 46.222 24.1021 46.222 22.6924V14.8933H43.5856V12.5865H46.222V9.37354L49.1603 8.54969V12.5865H53.8837Z" fill="url(#paint7_linear)"/>
<path d="M56.6226 26.3173V6.40769H59.561V14.7835C60.0187 13.923 60.632 13.3005 61.4009 12.9161C62.1881 12.5133 63.0577 12.3119 64.0097 12.3119C64.98 12.3119 65.8497 12.5042 66.6186 12.8886C67.4058 13.2548 68.0283 13.8223 68.486 14.5912C68.9437 15.3418 69.1725 16.2847 69.1725 17.4198V26.3173H66.2341V18.3535C66.2341 16.9804 65.9503 16.0375 65.3828 15.5249C64.8336 14.994 64.1379 14.7285 63.2957 14.7285C62.6916 14.7285 62.1057 14.875 61.5382 15.1679C60.9707 15.4425 60.4947 15.9002 60.1102 16.541C59.744 17.1635 59.561 18.0056 59.561 19.0675V26.3173H56.6226Z" fill="url(#paint8_linear)"/>
<path d="M79.3921 26.5919C78.019 26.5919 76.8107 26.3082 75.7671 25.7406C74.7419 25.1731 73.9364 24.3584 73.3505 23.2965C72.7647 22.2164 72.4717 20.9348 72.4717 19.4519C72.4717 17.969 72.7555 16.6966 73.3231 15.6348C73.9089 14.5546 74.7053 13.7308 75.7122 13.1632C76.7374 12.5957 77.9091 12.3119 79.2273 12.3119C80.5637 12.3119 81.6988 12.5865 82.6325 13.1358C83.5662 13.685 84.2802 14.4356 84.7745 15.3876C85.2688 16.3396 85.516 17.4198 85.516 18.6281C85.516 18.9759 85.5068 19.2963 85.4885 19.5892C85.4702 19.8822 85.4427 20.1293 85.4061 20.3307H75.3552C75.4834 21.6122 75.8953 22.5917 76.591 23.2691C77.305 23.9282 78.2204 24.2577 79.3371 24.2577C80.2525 24.2577 80.994 24.0838 81.5615 23.7359C82.1291 23.3881 82.5776 22.9029 82.9071 22.2805L85.2414 23.3789C84.7654 24.3858 84.0056 25.1731 82.9621 25.7406C81.9368 26.3082 80.7468 26.5919 79.3921 26.5919ZM79.1724 14.6462C78.1654 14.6462 77.3324 14.9391 76.6734 15.5249C76.0326 16.1108 75.6207 16.9621 75.4376 18.0788H82.66C82.5867 16.9804 82.2389 16.1382 81.6164 15.5524C80.994 14.9482 80.1793 14.6462 79.1724 14.6462Z" fill="url(#paint9_linear)"/>
<path d="M88.9521 26.3173V12.5865H91.4511L91.7257 15.0581C92.4763 13.2273 93.9135 12.3119 96.0372 12.3119C96.3118 12.3119 96.5864 12.3394 96.861 12.3943C97.1357 12.4309 97.3645 12.495 97.5476 12.5865L97.1356 15.1679C96.9343 15.0947 96.7054 15.0398 96.4491 15.0032C96.2111 14.9482 95.8816 14.9208 95.4605 14.9208C94.8746 14.9208 94.3071 15.0764 93.7579 15.3876C93.227 15.6805 92.7784 16.1382 92.4123 16.7607C92.0644 17.3648 91.8905 18.1246 91.8905 19.04V26.3173H88.9521Z" fill="url(#paint10_linear)"/>
<path d="M105.741 26.5919C104.368 26.5919 103.16 26.3082 102.116 25.7406C101.091 25.1731 100.285 24.3584 99.6997 23.2965C99.1138 22.2164 98.8209 20.9348 98.8209 19.4519C98.8209 17.969 99.1046 16.6966 99.6722 15.6348C100.258 14.5546 101.054 13.7308 102.061 13.1632C103.087 12.5957 104.258 12.3119 105.576 12.3119C106.913 12.3119 108.048 12.5865 108.982 13.1358C109.915 13.685 110.629 14.4356 111.124 15.3876C111.618 16.3396 111.865 17.4198 111.865 18.6281C111.865 18.9759 111.856 19.2963 111.838 19.5892C111.819 19.8822 111.792 20.1293 111.755 20.3307H101.704C101.832 21.6122 102.244 22.5917 102.94 23.2691C103.654 23.9282 104.569 24.2577 105.686 24.2577C106.602 24.2577 107.343 24.0838 107.911 23.7359C108.478 23.3881 108.927 22.9029 109.256 22.2805L111.59 23.3789C111.115 24.3858 110.355 25.1731 109.311 25.7406C108.286 26.3082 107.096 26.5919 105.741 26.5919ZM105.521 14.6462C104.515 14.6462 103.682 14.9391 103.022 15.5249C102.382 16.1108 101.97 16.9621 101.787 18.0788H109.009C108.936 16.9804 108.588 16.1382 107.966 15.5524C107.343 14.9482 106.528 14.6462 105.521 14.6462Z" fill="url(#paint11_linear)"/>
<path d="M120.189 26.5919C119.292 26.5919 118.459 26.4272 117.69 26.0976C116.94 25.7681 116.336 25.2372 115.878 24.5048C115.42 23.7725 115.191 22.8205 115.191 21.6488V12.5865H118.13V20.9074C118.13 22.1523 118.386 23.0128 118.899 23.4888C119.43 23.9465 120.18 24.1753 121.151 24.1753C121.773 24.1753 122.359 24.038 122.908 23.7634C123.457 23.4705 123.897 23.0219 124.226 22.4178C124.574 21.7953 124.748 20.9989 124.748 20.0286V12.5865H127.686V26.3173H125.105L124.968 24.0929C124.492 24.9534 123.851 25.585 123.045 25.9878C122.24 26.3905 121.288 26.5919 120.189 26.5919Z" fill="url(#paint12_linear)"/>
<path d="M132.002 26.3173V12.5865H134.611L134.749 14.8933C135.225 14.0145 135.856 13.3646 136.643 12.9435C137.449 12.5225 138.3 12.3119 139.197 12.3119C140.186 12.3119 141.092 12.5408 141.916 12.9985C142.758 13.4378 143.39 14.1061 143.811 15.0032C144.104 14.399 144.507 13.8955 145.019 13.4928C145.532 13.09 146.099 12.7971 146.722 12.614C147.344 12.4126 147.958 12.3119 148.562 12.3119C149.44 12.3119 150.264 12.495 151.033 12.8612C151.802 13.2273 152.425 13.7857 152.901 14.5363C153.377 15.2869 153.615 16.2481 153.615 17.4198V26.3173H150.676V17.8866C150.676 16.7515 150.402 15.946 149.852 15.47C149.321 14.9757 148.653 14.7285 147.848 14.7285C146.896 14.7285 146.063 15.0855 145.349 15.7995C144.635 16.4952 144.278 17.5113 144.278 18.8478V26.3173H141.339V17.8866C141.339 16.7515 141.065 15.946 140.515 15.47C139.985 14.9757 139.316 14.7285 138.511 14.7285C137.962 14.7285 137.412 14.875 136.863 15.1679C136.314 15.4608 135.856 15.9185 135.49 16.541C135.124 17.1635 134.941 17.9873 134.941 19.0125V26.3173H132.002Z" fill="url(#paint13_linear)"/>
<defs>
<linearGradient id="paint0_linear" x1="77.1994" y1="0" x2="77.1994" y2="34" gradientUnits="userSpaceOnUse">
<stop stop-color="#BEBCE7"/>
<stop offset="1" stop-color="#BE8BD5"/>
</linearGradient>
<linearGradient id="paint1_linear" x1="77.1994" y1="0" x2="77.1994" y2="34" gradientUnits="userSpaceOnUse">
<stop stop-color="#BEBCE7"/>
<stop offset="1" stop-color="#BE8BD5"/>
</linearGradient>
<linearGradient id="paint2_linear" x1="77.1994" y1="0" x2="77.1994" y2="34" gradientUnits="userSpaceOnUse">
<stop stop-color="#BEBCE7"/>
<stop offset="1" stop-color="#BE8BD5"/>
</linearGradient>
<linearGradient id="paint3_linear" x1="77.1994" y1="0" x2="77.1994" y2="34" gradientUnits="userSpaceOnUse">
<stop stop-color="#BEBCE7"/>
<stop offset="1" stop-color="#BE8BD5"/>
</linearGradient>
<linearGradient id="paint4_linear" x1="77.1994" y1="0" x2="77.1994" y2="34" gradientUnits="userSpaceOnUse">
<stop stop-color="#BEBCE7"/>
<stop offset="1" stop-color="#BE8BD5"/>
</linearGradient>
<linearGradient id="paint5_linear" x1="77.1994" y1="0" x2="77.1994" y2="34" gradientUnits="userSpaceOnUse">
<stop stop-color="#BEBCE7"/>
<stop offset="1" stop-color="#BE8BD5"/>
</linearGradient>
<linearGradient id="paint6_linear" x1="77.1994" y1="0" x2="77.1994" y2="34" gradientUnits="userSpaceOnUse">
<stop stop-color="#BEBCE7"/>
<stop offset="1" stop-color="#BE8BD5"/>
</linearGradient>
<linearGradient id="paint7_linear" x1="77.1994" y1="0" x2="77.1994" y2="34" gradientUnits="userSpaceOnUse">
<stop stop-color="#BEBCE7"/>
<stop offset="1" stop-color="#BE8BD5"/>
</linearGradient>
<linearGradient id="paint8_linear" x1="77.1994" y1="0" x2="77.1994" y2="34" gradientUnits="userSpaceOnUse">
<stop stop-color="#BEBCE7"/>
<stop offset="1" stop-color="#BE8BD5"/>
</linearGradient>
<linearGradient id="paint9_linear" x1="77.1994" y1="0" x2="77.1994" y2="34" gradientUnits="userSpaceOnUse">
<stop stop-color="#BEBCE7"/>
<stop offset="1" stop-color="#BE8BD5"/>
</linearGradient>
<linearGradient id="paint10_linear" x1="77.1994" y1="0" x2="77.1994" y2="34" gradientUnits="userSpaceOnUse">
<stop stop-color="#BEBCE7"/>
<stop offset="1" stop-color="#BE8BD5"/>
</linearGradient>
<linearGradient id="paint11_linear" x1="77.1994" y1="0" x2="77.1994" y2="34" gradientUnits="userSpaceOnUse">
<stop stop-color="#BEBCE7"/>
<stop offset="1" stop-color="#BE8BD5"/>
</linearGradient>
<linearGradient id="paint12_linear" x1="77.1994" y1="0" x2="77.1994" y2="34" gradientUnits="userSpaceOnUse">
<stop stop-color="#BEBCE7"/>
<stop offset="1" stop-color="#BE8BD5"/>
</linearGradient>
<linearGradient id="paint13_linear" x1="77.1994" y1="0" x2="77.1994" y2="34" gradientUnits="userSpaceOnUse">
<stop stop-color="#BEBCE7"/>
<stop offset="1" stop-color="#BE8BD5"/>
</linearGradient>
</defs>
</svg>
