<svg width="70" height="70" viewBox="0 0 70 70" fill="none" xmlns="http://www.w3.org/2000/svg">
<path fill-rule="evenodd" clip-rule="evenodd" d="M13.2521 57.7327C7.26711 52.0054 3.53982 43.938 3.53982 35C3.53982 17.625 17.625 3.53982 35 3.53982C52.375 3.53982 66.4602 17.625 66.4602 35C66.4602 52.375 52.375 66.4602 35 66.4602C29.4513 66.4602 24.238 65.0237 19.7119 62.5023L34.676 40.4732L37.1564 40.2479L44.5533 29.8977C49.1633 33.1507 53.421 37.8058 57.5498 44.5133L65.5144 40.3659C53.2613 16.4934 27.6383 14.2478 12.594 15.3687C22.6782 17.7289 29.0051 20.5665 33.6827 24.3321L28.7323 33.1006L28.7383 34.935L13.2521 57.7327ZM0 35C0 15.67 15.67 0 35 0C54.33 0 70 15.67 70 35C70 54.33 54.33 70 35 70C15.67 70 0 54.33 0 35Z" fill="url(#paint0_linear_709_10445)"/>
<path fill-rule="evenodd" clip-rule="evenodd" d="M21.3734 42.8379C20.8628 42.2277 20.2561 41.707 19.581 41.2953C19.7058 38.9582 18.6978 36.6042 16.6823 35.0983C15.7807 34.4247 14.7736 33.9925 13.7384 33.7906C12.4836 30.7701 9.28571 28.8853 5.91298 29.4204C5.84366 29.4314 5.77473 29.4433 5.70619 29.4562C5.36836 31.2524 5.19165 33.1055 5.19165 34.9998C5.19165 42.7619 8.15849 49.831 13.02 55.1351L21.3734 42.8379ZM22.1242 61.8915C26.0217 63.761 30.3885 64.8081 34.9999 64.8081C44.3817 64.8081 52.7512 60.4739 58.2153 53.6985C57.1641 50.3173 53.7632 48.1314 50.1632 48.7025C47.8478 49.0699 45.9638 50.4961 44.9265 52.4092C43.9393 50.5848 42.2062 49.2684 40.1952 48.7996C39.0747 46.3297 36.6356 44.6683 33.8993 44.557L22.1242 61.8915Z" fill="#FFCD4D"/>
<circle cx="16.4013" cy="47.483" r="7.2452" transform="rotate(-9.82631 16.4013 47.483)" fill="url(#paint1_linear_709_10445)"/>
<path fill-rule="evenodd" clip-rule="evenodd" d="M18.5014 48.1583C18.8971 47.7025 18.6857 47.1878 18.2761 46.6736L18.8802 46.0994L18.5306 45.7317L17.9425 46.2909C17.8506 46.1942 17.7548 46.0972 17.6595 46.0009L18.2516 45.4381L17.9023 45.0706L17.2983 45.6446C17.221 45.5665 17.1451 45.4898 17.0726 45.4136L17.0745 45.4117L16.5926 44.9044L16.2 45.2778C16.2 45.2778 16.4632 45.5445 16.454 45.5447C16.5955 45.6936 16.5551 45.8243 16.4939 45.9094L15.8058 46.5636C15.8155 46.5739 15.8278 46.5877 15.8401 46.6049L15.83 46.5942L15.8031 46.5661L14.839 47.4825C14.7859 47.5205 14.685 47.564 14.5859 47.4601C14.5862 47.4688 14.3319 47.1928 14.3319 47.1928L13.8233 47.5371L14.2782 48.0156C14.3279 48.0681 14.3767 48.1206 14.425 48.1725L14.4252 48.1726C14.4589 48.2089 14.4923 48.2448 14.5257 48.2804L13.9149 48.8613L14.264 49.2287L14.8685 48.654C14.9623 48.7569 15.0543 48.8552 15.1449 48.9504L14.5431 49.5222L14.8927 49.8899L15.5026 49.3103C16.1258 49.8947 16.6928 50.1794 17.3244 49.6812C17.833 49.2803 17.8326 48.8621 17.5833 48.4311C17.8945 48.5411 18.2125 48.4926 18.5015 48.1585L18.5014 48.1583L18.5014 48.1583ZM16.706 48.8861C16.2873 49.2844 15.6709 48.6177 15.3889 48.3127C15.3635 48.2852 15.3408 48.2607 15.3213 48.2402L16.1309 47.4708C16.1547 47.4959 16.1844 47.5256 16.218 47.5594L16.218 47.5594C16.5185 47.861 17.1344 48.4789 16.706 48.8861L16.706 48.8861ZM16.5581 47.1794C16.7927 47.4345 17.3046 47.991 17.6855 47.6292L17.6855 47.6292C18.0749 47.259 17.5601 46.7454 17.3087 46.4945C17.2804 46.4663 17.2555 46.4414 17.2355 46.4204L16.5013 47.1183C16.5178 47.1356 16.5368 47.1563 16.5581 47.1794Z" fill="black" fill-opacity="0.2"/>
<defs>
<linearGradient id="paint0_linear_709_10445" x1="19.3015" y1="12.0149" x2="56.1623" y2="78.9451" gradientUnits="userSpaceOnUse">
<stop stop-color="#A874B9"/>
<stop offset="1" stop-color="#485E8B"/>
</linearGradient>
<linearGradient id="paint1_linear_709_10445" x1="22.3925" y1="40.0206" x2="13.0323" y2="49.8135" gradientUnits="userSpaceOnUse">
<stop stop-color="#FFEF5E"/>
<stop offset="1" stop-color="#FFCD4D"/>
</linearGradient>
</defs>
</svg>
