<svg width="122" height="34" viewBox="0 0 122 34" fill="none" xmlns="http://www.w3.org/2000/svg">
<path d="M44.012 25.2654C42.822 25.2654 41.989 24.9163 41.513 24.2182C41.0528 23.5201 40.9497 22.5998 41.2036 21.4574L44.369 7.82H46.9156L43.7502 21.4812C43.6074 22.1 43.647 22.5522 43.8692 22.8378C44.1072 23.1075 44.5197 23.2424 45.1068 23.2424C45.551 23.2424 45.9001 23.2107 46.154 23.1472L45.5828 25.0036C45.3289 25.0988 45.083 25.1623 44.845 25.194C44.6228 25.2416 44.3452 25.2654 44.012 25.2654Z" fill="url(#paint0_linear)"/>
<path d="M52.3074 11.1758C51.8314 11.1758 51.4506 11.0489 51.165 10.795C50.8794 10.5411 50.7524 10.1921 50.7842 9.7478C50.8 9.19247 50.9746 8.76407 51.3078 8.4626C51.641 8.16113 52.0614 8.0104 52.5692 8.0104C53.061 8.0104 53.4418 8.13733 53.7116 8.3912C53.9972 8.6292 54.132 8.9624 54.1162 9.3908C54.0844 9.97787 53.902 10.4221 53.5688 10.7236C53.2356 11.0251 52.8151 11.1758 52.3074 11.1758ZM52.9024 13.175L50.1416 25.075H47.595L50.3558 13.175H52.9024Z" fill="url(#paint1_linear)"/>
<path d="M58.9143 25.2654C57.6767 25.2654 56.7247 24.9163 56.0583 24.2182C55.3919 23.5201 55.2094 22.5284 55.5109 21.2432L56.8913 15.1742H54.5589L55.0111 13.175H57.3435L57.9623 10.5808L60.6993 9.8192L59.9139 13.175H63.4601L63.0079 15.1742H59.4379L58.0099 21.267C57.8512 21.981 57.9385 22.4887 58.2717 22.7902C58.6208 23.0917 59.0809 23.2424 59.6521 23.2424C60.0329 23.2424 60.3582 23.1948 60.6279 23.0996C60.9135 23.0044 61.1674 22.8775 61.3895 22.7188L61.5799 24.599C61.1674 24.8529 60.739 25.0274 60.2947 25.1226C59.8663 25.2178 59.4062 25.2654 58.9143 25.2654Z" fill="url(#paint2_linear)"/>
<path d="M69.4581 25.2892C68.3315 25.2892 67.3637 25.0591 66.5545 24.599C65.7453 24.123 65.1185 23.4804 64.6743 22.6712C64.23 21.862 64.0079 20.9497 64.0079 19.9342C64.0079 18.6649 64.2617 17.5066 64.7695 16.4594C65.2772 15.3963 66.0071 14.5475 66.9591 13.9128C67.9269 13.2781 69.1011 12.9608 70.4815 12.9608C72.0205 12.9608 73.2105 13.413 74.0515 14.3174C74.9083 15.2218 75.3367 16.4118 75.3367 17.8874C75.3367 18.2047 75.3129 18.53 75.2653 18.8632C75.2335 19.1964 75.1621 19.5296 75.0511 19.8628H66.5069C66.5069 19.9104 66.5069 19.9659 66.5069 20.0294C66.5069 21.0131 66.7925 21.8065 67.3637 22.4094C67.9349 22.9965 68.6965 23.29 69.6485 23.29C70.3942 23.29 70.9971 23.1393 71.4573 22.8378C71.9333 22.5205 72.3141 22.1079 72.5997 21.6002L74.6465 22.695C74.1546 23.5042 73.4565 24.1389 72.5521 24.599C71.6635 25.0591 70.6322 25.2892 69.4581 25.2892ZM70.3625 14.96C69.347 14.96 68.5537 15.2535 67.9825 15.8406C67.4113 16.4118 67.0067 17.102 66.7687 17.9112H72.8853C72.8853 17.7843 72.8853 17.6494 72.8853 17.5066C72.8853 16.7291 72.6631 16.1103 72.2189 15.6502C71.7746 15.1901 71.1558 14.96 70.3625 14.96Z" fill="url(#paint3_linear)"/>
<path d="M82.8643 25.2892C81.7061 25.2892 80.7223 25.0512 79.9131 24.5752C79.1039 24.0992 78.4772 23.4566 78.0329 22.6474C77.6045 21.8223 77.3903 20.91 77.3903 19.9104C77.3903 18.5776 77.6521 17.3876 78.1757 16.3404C78.6993 15.2932 79.4371 14.4681 80.3891 13.8652C81.357 13.2623 82.4994 12.9608 83.8163 12.9608C85.2443 12.9608 86.4026 13.3257 87.2911 14.0556C88.1797 14.7696 88.7033 15.6899 88.8619 16.8164L86.3153 17.34C86.2677 16.6736 86.0377 16.1103 85.6251 15.6502C85.2126 15.1901 84.5779 14.96 83.7211 14.96C82.9913 14.96 82.3407 15.1821 81.7695 15.6264C81.1983 16.0707 80.7461 16.6736 80.4129 17.4352C80.0956 18.1968 79.9369 19.0457 79.9369 19.9818C79.9369 20.9338 80.1987 21.7271 80.7223 22.3618C81.2459 22.9806 82.0075 23.29 83.0071 23.29C83.5625 23.29 84.0861 23.1393 84.5779 22.8378C85.0698 22.5205 85.4189 22.0683 85.6251 21.4812L88.0051 22.3142C87.5767 23.2503 86.9024 23.9802 85.9821 24.5038C85.0777 25.0274 84.0385 25.2892 82.8643 25.2892Z" fill="url(#paint4_linear)"/>
<path d="M95.5501 25.2892C94.376 25.2892 93.3764 25.0512 92.5513 24.5752C91.7262 24.0833 91.0916 23.4328 90.6473 22.6236C90.2189 21.8144 90.0047 20.9179 90.0047 19.9342C90.0047 18.6014 90.2665 17.4114 90.7901 16.3642C91.3137 15.3011 92.0515 14.4681 93.0035 13.8652C93.9555 13.2623 95.0741 12.9608 96.3593 12.9608C97.5176 12.9608 98.5092 13.1988 99.3343 13.6748C100.159 14.1508 100.786 14.7934 101.215 15.6026C101.643 16.4118 101.857 17.3162 101.857 18.3158C101.857 19.6486 101.595 20.8386 101.072 21.8858C100.548 22.933 99.8103 23.766 98.8583 24.3848C97.9222 24.9877 96.8195 25.2892 95.5501 25.2892ZM95.5977 23.29C96.3117 23.29 96.9464 23.0679 97.5017 22.6236C98.0571 22.1793 98.4934 21.5764 98.8107 20.8148C99.1439 20.0532 99.3105 19.1964 99.3105 18.2444C99.3105 17.3241 99.0646 16.5467 98.5727 15.912C98.0808 15.2773 97.3193 14.96 96.2879 14.96C95.5739 14.96 94.9313 15.1821 94.3601 15.6264C93.8048 16.0548 93.3605 16.6498 93.0273 17.4114C92.71 18.173 92.5513 19.0298 92.5513 19.9818C92.5513 20.9021 92.7972 21.6875 93.2891 22.338C93.7968 22.9727 94.5664 23.29 95.5977 23.29Z" fill="url(#paint5_linear)"/>
<path d="M108.014 11.1758C107.538 11.1758 107.157 11.0489 106.872 10.795C106.586 10.5411 106.459 10.1921 106.491 9.7478C106.507 9.19247 106.681 8.76407 107.015 8.4626C107.348 8.16113 107.768 8.0104 108.276 8.0104C108.768 8.0104 109.149 8.13733 109.418 8.3912C109.704 8.6292 109.839 8.9624 109.823 9.3908C109.791 9.97787 109.609 10.4221 109.276 10.7236C108.942 11.0251 108.522 11.1758 108.014 11.1758ZM108.609 13.175L105.848 25.075H103.302L106.063 13.175H108.609Z" fill="url(#paint6_linear)"/>
<path d="M109.409 25.075L112.17 13.175H114.407L114.098 15.079C114.51 14.365 115.081 13.8335 115.811 13.4844C116.557 13.1195 117.358 12.937 118.215 12.937C119.104 12.937 119.857 13.1353 120.476 13.532C121.095 13.9128 121.531 14.4681 121.785 15.198C122.039 15.9279 122.047 16.7926 121.809 17.7922L120.119 25.075H117.572L119.238 17.935C119.445 17.0306 119.349 16.3245 118.953 15.8168C118.572 15.2932 117.977 15.0314 117.168 15.0314C116.2 15.0314 115.399 15.3487 114.764 15.9834C114.145 16.6181 113.693 17.5463 113.407 18.768L111.956 25.075H109.409Z" fill="url(#paint7_linear)"/>
<path fill-rule="evenodd" clip-rule="evenodd" d="M33.1184 16.8583C33.1184 25.23 26.3317 32.0167 17.96 32.0167C9.58831 32.0167 2.80169 25.23 2.80169 16.8583C2.80169 8.48662 9.58831 1.7 17.96 1.7C26.3317 1.7 33.1184 8.48662 33.1184 16.8583ZM16.3365 23.5448L18.1064 17.5763L20.8643 16.7942L21.4405 14.8184L18.7239 15.6416L21.6052 5.84504V5.68862C21.6009 5.56196 21.5464 5.4422 21.4538 5.35573C21.3611 5.26925 21.2379 5.22316 21.1113 5.2276H17.4478C17.1625 5.21881 16.9078 5.40556 16.8304 5.68039L13.4139 17.2881L10.6973 18.1114L10.0798 20.0048L12.7965 19.1816L10.368 27.4552H24.857C25.1433 27.4671 25.3997 27.2791 25.4744 27.0024L26.2977 24.1622V24.0058C26.2934 23.8792 26.2389 23.7594 26.1463 23.6729C26.0536 23.5864 25.9304 23.5404 25.8037 23.5448H16.3365Z" fill="url(#paint8_linear)"/>
<path fill-rule="evenodd" clip-rule="evenodd" d="M0.818359 17C0.818359 7.61116 8.42949 0 17.8183 0H17.9171C22.4126 0.0130812 26.7189 1.8115 29.8885 4.99962C33.058 8.18775 34.8313 12.5044 34.8182 17C34.8182 26.3888 27.2071 34 17.8183 34C8.42949 34 0.818359 26.3888 0.818359 17ZM33.1184 16.8583C33.1184 25.23 26.3317 32.0167 17.96 32.0167C9.58831 32.0167 2.80169 25.23 2.80169 16.8583C2.80169 8.48662 9.58831 1.7 17.96 1.7C26.3317 1.7 33.1184 8.48662 33.1184 16.8583Z" fill="url(#paint9_linear)"/>
<defs>
<linearGradient id="paint0_linear" x1="61.3999" y1="0" x2="61.3999" y2="34" gradientUnits="userSpaceOnUse">
<stop stop-color="#BEBCE7"/>
<stop offset="1" stop-color="#BE8BD5"/>
</linearGradient>
<linearGradient id="paint1_linear" x1="61.3999" y1="0" x2="61.3999" y2="34" gradientUnits="userSpaceOnUse">
<stop stop-color="#BEBCE7"/>
<stop offset="1" stop-color="#BE8BD5"/>
</linearGradient>
<linearGradient id="paint2_linear" x1="61.3999" y1="0" x2="61.3999" y2="34" gradientUnits="userSpaceOnUse">
<stop stop-color="#BEBCE7"/>
<stop offset="1" stop-color="#BE8BD5"/>
</linearGradient>
<linearGradient id="paint3_linear" x1="61.3999" y1="0" x2="61.3999" y2="34" gradientUnits="userSpaceOnUse">
<stop stop-color="#BEBCE7"/>
<stop offset="1" stop-color="#BE8BD5"/>
</linearGradient>
<linearGradient id="paint4_linear" x1="61.3999" y1="0" x2="61.3999" y2="34" gradientUnits="userSpaceOnUse">
<stop stop-color="#BEBCE7"/>
<stop offset="1" stop-color="#BE8BD5"/>
</linearGradient>
<linearGradient id="paint5_linear" x1="61.3999" y1="0" x2="61.3999" y2="34" gradientUnits="userSpaceOnUse">
<stop stop-color="#BEBCE7"/>
<stop offset="1" stop-color="#BE8BD5"/>
</linearGradient>
<linearGradient id="paint6_linear" x1="61.3999" y1="0" x2="61.3999" y2="34" gradientUnits="userSpaceOnUse">
<stop stop-color="#BEBCE7"/>
<stop offset="1" stop-color="#BE8BD5"/>
</linearGradient>
<linearGradient id="paint7_linear" x1="61.3999" y1="0" x2="61.3999" y2="34" gradientUnits="userSpaceOnUse">
<stop stop-color="#BEBCE7"/>
<stop offset="1" stop-color="#BE8BD5"/>
</linearGradient>
<linearGradient id="paint8_linear" x1="61.3999" y1="0" x2="61.3999" y2="34" gradientUnits="userSpaceOnUse">
<stop stop-color="#BEBCE7"/>
<stop offset="1" stop-color="#BE8BD5"/>
</linearGradient>
<linearGradient id="paint9_linear" x1="61.3999" y1="0" x2="61.3999" y2="34" gradientUnits="userSpaceOnUse">
<stop stop-color="#BEBCE7"/>
<stop offset="1" stop-color="#BE8BD5"/>
</linearGradient>
</defs>
</svg>
