<svg width="100" height="34" viewBox="0 0 100 34" fill="none" xmlns="http://www.w3.org/2000/svg">
<path d="M53.47 9.92233V12.8616H48.7185V24.5083H44.9173V12.8616H40.1437V9.92233H53.47Z" fill="url(#paint0_linear)"/>
<path d="M62.3834 9.92233C64.1219 9.92233 65.47 10.3275 66.4277 11.1378C67.4001 11.9482 67.8863 13.0384 67.8863 14.4086C67.8863 15.4989 67.6285 16.3976 67.1128 17.1048C66.6119 17.7973 65.8899 18.3056 64.947 18.6297L68.7482 24.5083H64.5492L61.4331 19.1822H59.1568V24.5083H55.4219V9.92233H62.3834ZM61.853 16.486C62.5897 16.486 63.1422 16.3387 63.5105 16.044C63.8788 15.7494 64.063 15.2779 64.063 14.6296C64.063 13.4068 63.3263 12.7953 61.853 12.7953H59.1568V16.486H61.853Z" fill="url(#paint1_linear)"/>
<path d="M76.8283 9.70133C78.3017 9.70133 79.5687 10.0034 80.6295 10.6074C81.7051 11.1968 82.5301 12.0513 83.1047 13.171C83.6793 14.2908 83.9666 15.6389 83.9666 17.2153C83.9666 18.7918 83.6793 20.1399 83.1047 21.2596C82.5301 22.3794 81.7051 23.2413 80.6295 23.8453C79.5687 24.4347 78.3017 24.7293 76.8283 24.7293C75.3403 24.7293 74.0585 24.4347 72.9829 23.8453C71.9221 23.2413 71.1044 22.3794 70.5298 21.2596C69.9552 20.1399 69.6679 18.7918 69.6679 17.2153C69.6679 15.6389 69.9552 14.2908 70.5298 13.171C71.1044 12.0513 71.9221 11.1968 72.9829 10.6074C74.0585 10.0034 75.3403 9.70133 76.8283 9.70133ZM76.8283 12.6848C75.7675 12.6848 74.9572 13.0679 74.3973 13.834C73.8375 14.5854 73.5575 15.7125 73.5575 17.2153C73.5575 18.7181 73.8375 19.8526 74.3973 20.6187C74.9572 21.3701 75.7675 21.7458 76.8283 21.7458C77.8744 21.7458 78.6774 21.3701 79.2372 20.6187C79.7971 19.8526 80.077 18.7181 80.077 17.2153C80.077 15.7125 79.7971 14.5854 79.2372 13.834C78.6774 13.0679 77.8744 12.6848 76.8283 12.6848Z" fill="url(#paint2_linear)"/>
<path d="M99.5097 9.92233V24.5083H95.2886L90.7581 16.6186L89.6531 14.4528H89.631L89.7194 17.149V24.5083H86.3602V9.92233H90.5813L95.1118 17.812L96.2168 19.9778H96.2389L96.1505 17.2816V9.92233H99.5097Z" fill="url(#paint3_linear)"/>
<path fill-rule="evenodd" clip-rule="evenodd" d="M0.491211 16.9154C0.491211 26.3502 8.14121 34 17.4912 34C26.8412 34 34.4062 26.4352 34.4912 17.1703C34.4912 7.65054 26.9262 0.0856998 17.5762 0.000701539C8.14121 -0.0842967 0.576211 7.56555 0.491211 16.9154ZM29.6036 13.4034C29.1397 12.975 28.6018 12.4527 28.0413 11.9085C27.254 11.1441 26.422 10.3363 25.6878 9.68464L25.6134 9.63258C25.4897 9.5332 25.3502 9.45527 25.2007 9.40201L24.634 9.2963C20.7241 8.56675 8.05023 6.20194 7.78952 6.23365C7.71241 6.24445 7.63871 6.27241 7.57384 6.31546L7.50318 6.37124C7.41618 6.4596 7.3501 6.56634 7.3098 6.68362L7.29121 6.73196V7.0369C8.15166 9.43285 10.3869 14.7836 12.4507 19.7241L12.4509 19.7245L12.451 19.725C14.1957 23.9015 15.818 27.7849 16.3835 29.3419L16.3837 29.3425C16.4582 29.5733 16.5995 30.0113 16.8632 30.0336H16.9227C17.0641 30.0336 17.6665 29.2378 17.6665 29.2378C17.6665 29.2378 28.436 16.1776 29.5255 14.7867C29.6666 14.6154 29.7911 14.4311 29.8974 14.2364C29.9526 13.9264 29.8411 13.6102 29.6036 13.4034ZM25.0259 11.1126L20.4295 14.9243L27.722 13.5968L25.0259 11.1126ZM18.6445 14.6752L10.731 8.1897L23.5347 10.5511L18.6445 14.6752ZM27.4579 15.0694L19.3585 16.3746L18.1983 26.2256L27.4579 15.0694ZM9.65633 8.83677L17.9826 15.9024L16.7777 26.233L9.65633 8.83677Z" fill="url(#paint4_linear)"/>
<defs>
<linearGradient id="paint0_linear" x1="50.0004" y1="0" x2="50.0004" y2="34" gradientUnits="userSpaceOnUse">
<stop stop-color="#BEBCE7"/>
<stop offset="1" stop-color="#BE8BD5"/>
</linearGradient>
<linearGradient id="paint1_linear" x1="50.0004" y1="0" x2="50.0004" y2="34" gradientUnits="userSpaceOnUse">
<stop stop-color="#BEBCE7"/>
<stop offset="1" stop-color="#BE8BD5"/>
</linearGradient>
<linearGradient id="paint2_linear" x1="50.0004" y1="0" x2="50.0004" y2="34" gradientUnits="userSpaceOnUse">
<stop stop-color="#BEBCE7"/>
<stop offset="1" stop-color="#BE8BD5"/>
</linearGradient>
<linearGradient id="paint3_linear" x1="50.0004" y1="0" x2="50.0004" y2="34" gradientUnits="userSpaceOnUse">
<stop stop-color="#BEBCE7"/>
<stop offset="1" stop-color="#BE8BD5"/>
</linearGradient>
<linearGradient id="paint4_linear" x1="50.0004" y1="0" x2="50.0004" y2="34" gradientUnits="userSpaceOnUse">
<stop stop-color="#BEBCE7"/>
<stop offset="1" stop-color="#BE8BD5"/>
</linearGradient>
</defs>
</svg>
