<svg width="120" height="34" viewBox="0 0 120 34" fill="none" xmlns="http://www.w3.org/2000/svg">
<path fill-rule="evenodd" clip-rule="evenodd" d="M19.5872 13.9839V13.9829L19.5861 13.9828L19.5872 13.9839Z" fill="url(#paint0_linear_1015_9727)"/>
<path d="M0 17C0 26.3888 7.61116 34 17 34C21.7103 34 25.9732 32.0843 29.052 28.9895C25.5825 26.7913 23.2254 22.9954 23.0153 18.6363C21.9685 18.7743 20.8137 18.8756 19.5861 18.9321V27.7988H15.0121V18.9353C9.8683 18.6979 6 17.6801 6 16.4591C6 15.2381 9.8683 14.2191 15.0121 13.9828V11.2179H8.68365V7H25.9167V9.794C27.0893 8.35489 28.5639 7.17157 30.2438 6.34062C27.1276 2.47386 22.3527 0 17 0C7.61116 0 0 7.61116 0 17Z" fill="url(#paint1_linear_1015_9727)"/>
<path d="M17.3173 18.2296C18.796 18.2296 19.4589 18.1901 19.5872 18.1804L19.5829 18.1794C20.8235 18.1244 21.9779 18.0253 23.0004 17.891C23.0096 16.7724 23.1601 15.6874 23.4349 14.6531C22.3093 14.4878 21.0024 14.3668 19.5829 14.3036V17.3935C19.4557 17.4053 18.7489 17.4641 17.3376 17.4641C16.1615 17.4641 15.3104 17.4138 15.0132 17.3925V14.3014C10.4681 14.5046 7.0756 15.2947 7.0756 16.242C7.0756 17.1893 10.4681 17.9805 15.0132 18.1804C15.3062 18.1943 16.1412 18.2296 17.3173 18.2296Z" fill="url(#paint2_linear_1015_9727)"/>
<path d="M19.5872 11.2179V13.9829C21.0152 14.0489 22.3445 14.1753 23.5195 14.3496C23.8445 13.2367 24.3143 12.1855 24.9071 11.2179H19.5872Z" fill="url(#paint3_linear_1015_9727)"/>
<path d="M36.5864 16.3845L40.2848 13.2655L33.2425 11.9667C33.4528 12.6461 33.6217 13.3438 33.7461 14.0568L36.5864 16.3845Z" fill="url(#paint4_linear_1015_9727)"/>
<path d="M41.4126 13.6902L37.9364 16.573L43.4517 15.5689L41.4126 13.6902Z" fill="url(#paint5_linear_1015_9727)"/>
<path d="M43.252 16.6827L37.1264 17.6698L36.249 25.12L43.252 16.6827Z" fill="url(#paint6_linear_1015_9727)"/>
<path d="M33.2425 11.9667L30.6015 11.4796L33.7461 14.0568C33.6217 13.3438 33.4528 12.6461 33.2425 11.9667Z" fill="url(#paint7_linear_1015_9727)"/>
<path d="M58.3014 25.5489C57.1998 25.5489 56.343 25.2735 55.731 24.7227C55.1343 24.1566 54.836 23.361 54.836 22.3359V16.1623H53V13.3854H54.836V10.8609C55.9223 10.6773 56.9933 10.5396 58.049 10.4478V13.3854H61.0325V16.1623H58.049V21.7392C58.049 22.0605 58.1408 22.3053 58.3244 22.4736C58.5233 22.6419 58.7987 22.726 59.1506 22.726C59.579 22.726 60.0686 22.6266 60.6194 22.4277L61.3308 24.8604C60.3516 25.3194 59.3418 25.5489 58.3014 25.5489Z" fill="url(#paint8_linear_1015_9727)"/>
<path d="M68.6401 25.5489C66.7276 25.5489 65.2205 24.9981 64.1189 23.8965C63.0326 22.7949 62.4895 21.2649 62.4895 19.3065C62.4895 18.0366 62.7266 16.935 63.2009 16.0017C63.6752 15.0531 64.3408 14.3263 65.1976 13.8214C66.0697 13.3165 67.0871 13.0641 68.2499 13.0641C69.9635 13.0641 71.2793 13.6149 72.1973 14.7165C73.1153 15.8181 73.5743 17.4093 73.5743 19.4901C73.5743 19.842 73.5667 20.1021 73.5514 20.2704H65.7484C65.9014 21.0813 66.2533 21.7009 66.8041 22.1293C67.3549 22.5424 68.0969 22.749 69.0302 22.749C69.5963 22.749 70.1854 22.6801 70.7974 22.5424C71.4094 22.3894 71.9449 22.1905 72.4039 21.9457L72.9317 24.5391C72.3197 24.8604 71.6389 25.1052 70.8892 25.2735C70.1548 25.4571 69.4051 25.5489 68.6401 25.5489ZM70.4761 17.8377C70.4302 17.1798 70.2007 16.6596 69.7876 16.2771C69.3745 15.8793 68.8237 15.6804 68.1352 15.6804C67.4773 15.6804 66.9341 15.8716 66.5057 16.2541C66.0926 16.6366 65.8325 17.1645 65.7254 17.8377H70.4761Z" fill="url(#paint9_linear_1015_9727)"/>
<path d="M80.3326 25.5489C79.2309 25.5489 78.3741 25.2735 77.7621 24.7227C77.1654 24.1566 76.8671 23.361 76.8671 22.3359V16.1623H75.0311V13.3854H76.8671V10.8609C77.9534 10.6773 79.0244 10.5396 80.0801 10.4478V13.3854H83.0636V16.1623H80.0801V21.7392C80.0801 22.0605 80.1719 22.3053 80.3555 22.4736C80.5544 22.6419 80.8298 22.726 81.1817 22.726C81.6101 22.726 82.0997 22.6266 82.6505 22.4277L83.3619 24.8604C82.3827 25.3194 81.3729 25.5489 80.3326 25.5489Z" fill="url(#paint10_linear_1015_9727)"/>
<path d="M85.6546 8.45113H88.8906V15.1066C89.3649 14.4028 89.908 13.8903 90.52 13.569C91.132 13.2324 91.8358 13.0641 92.6314 13.0641C93.9013 13.0641 94.8958 13.4466 95.6149 14.2116C96.334 14.9613 96.6936 16.0093 96.6936 17.3557V25.2046H93.4576V17.8606C93.4576 17.2486 93.3046 16.7743 92.9986 16.4377C92.6926 16.0858 92.2795 15.9099 91.7593 15.9099C91.1932 15.9099 90.6501 16.1088 90.1299 16.5066C89.625 16.8891 89.2119 17.4016 88.8906 18.0442V25.2046H85.6546V8.45113Z" fill="url(#paint11_linear_1015_9727)"/>
<path d="M105.261 25.5489C103.349 25.5489 101.842 24.9981 100.74 23.8965C99.654 22.7949 99.1108 21.2649 99.1108 19.3065C99.1108 18.0366 99.348 16.935 99.8223 16.0017C100.297 15.0531 100.962 14.3263 101.819 13.8214C102.691 13.3165 103.709 13.0641 104.871 13.0641C106.585 13.0641 107.901 13.6149 108.819 14.7165C109.737 15.8181 110.196 17.4093 110.196 19.4901C110.196 19.842 110.188 20.1021 110.173 20.2704H102.37C102.523 21.0813 102.875 21.7009 103.425 22.1293C103.976 22.5424 104.718 22.749 105.652 22.749C106.218 22.749 106.807 22.6801 107.419 22.5424C108.031 22.3894 108.566 22.1905 109.025 21.9457L109.553 24.5391C108.941 24.8604 108.26 25.1052 107.511 25.2735C106.776 25.4571 106.026 25.5489 105.261 25.5489ZM107.097 17.8377C107.052 17.1798 106.822 16.6596 106.409 16.2771C105.996 15.8793 105.445 15.6804 104.757 15.6804C104.099 15.6804 103.556 15.8716 103.127 16.2541C102.714 16.6366 102.454 17.1645 102.347 17.8377H107.097Z" fill="url(#paint12_linear_1015_9727)"/>
<path d="M112.685 13.3854H115.921V15.3132H116.105C116.548 14.5329 116.985 13.9591 117.413 13.5919C117.857 13.2247 118.407 13.0411 119.065 13.0411C119.341 13.0411 119.57 13.0717 119.754 13.1329L119.41 16.6213C119.012 16.5142 118.69 16.4607 118.446 16.4607C118.094 16.4607 117.78 16.5295 117.505 16.6672C117.245 16.8049 117.007 16.9885 116.793 17.218C116.594 17.4475 116.304 17.7994 115.921 18.2737V25.2046H112.685V13.3854Z" fill="url(#paint13_linear_1015_9727)"/>
<path fill-rule="evenodd" clip-rule="evenodd" d="M30.8598 7.15355C27.8307 8.59161 25.4997 11.2612 24.5138 14.5153C24.4833 14.616 24.4541 14.7172 24.4262 14.819C24.1702 15.7525 24.0241 16.7314 24.0027 17.741C24.0009 17.8271 24 17.9134 24 18C24 18.1637 24.0033 18.3267 24.0098 18.4888C24.1754 22.6219 26.4314 26.2169 29.7493 28.2455C31.5698 29.3585 33.71 30 36 30C42.6274 30 48 24.6274 48 18C48 11.3726 42.6274 6 36 6C34.1606 6 32.4178 6.41386 30.8598 7.15355ZM28.3769 10.0002C28.3186 10.0084 28.2628 10.0295 28.2137 10.0621L28.1603 10.1043C28.0945 10.1711 28.0445 10.2519 28.0141 10.3405L28 10.3771V10.6077C28.6508 12.4198 30.3412 16.4665 31.9021 20.203C32.2759 21.0978 32.6423 21.9749 32.9852 22.7993C33.8527 24.8848 34.5699 26.6329 34.8765 27.4769C34.9328 27.6514 35.0398 27.9831 35.2393 28H35.2843C35.3912 28 35.8468 27.3981 35.8468 27.3981C35.8468 27.3981 43.9917 17.5208 44.8157 16.4689C44.9224 16.3393 45.0166 16.2 45.097 16.0527C45.1387 15.8182 45.0544 15.5791 44.8748 15.4227C44.5239 15.0987 44.1171 14.7037 43.6932 14.2921L43.6923 14.2913C43.0971 13.7134 42.4683 13.1028 41.9133 12.6102L41.857 12.5708C41.7634 12.4957 41.6579 12.4367 41.5448 12.3965L41.1163 12.3165C39.4788 12.011 35.8089 11.3262 32.8261 10.78C30.4224 10.3398 28.4649 9.98954 28.3769 10.0002Z" fill="url(#paint14_linear_1015_9727)"/>
<path d="M29.7887 11.969L33.5114 21.0629L35.1746 25.1257L36.0858 17.3126L33.9335 15.4862L29.7887 11.969Z" fill="url(#paint15_linear_1015_9727)"/>
<defs>
<linearGradient id="paint0_linear_1015_9727" x1="59.8769" y1="0" x2="59.8769" y2="34" gradientUnits="userSpaceOnUse">
<stop stop-color="#BEBCE7"/>
<stop offset="1" stop-color="#BE8BD5"/>
</linearGradient>
<linearGradient id="paint1_linear_1015_9727" x1="59.8769" y1="0" x2="59.8769" y2="34" gradientUnits="userSpaceOnUse">
<stop stop-color="#BEBCE7"/>
<stop offset="1" stop-color="#BE8BD5"/>
</linearGradient>
<linearGradient id="paint2_linear_1015_9727" x1="59.8769" y1="0" x2="59.8769" y2="34" gradientUnits="userSpaceOnUse">
<stop stop-color="#BEBCE7"/>
<stop offset="1" stop-color="#BE8BD5"/>
</linearGradient>
<linearGradient id="paint3_linear_1015_9727" x1="59.8769" y1="0" x2="59.8769" y2="34" gradientUnits="userSpaceOnUse">
<stop stop-color="#BEBCE7"/>
<stop offset="1" stop-color="#BE8BD5"/>
</linearGradient>
<linearGradient id="paint4_linear_1015_9727" x1="59.8769" y1="0" x2="59.8769" y2="34" gradientUnits="userSpaceOnUse">
<stop stop-color="#BEBCE7"/>
<stop offset="1" stop-color="#BE8BD5"/>
</linearGradient>
<linearGradient id="paint5_linear_1015_9727" x1="59.8769" y1="0" x2="59.8769" y2="34" gradientUnits="userSpaceOnUse">
<stop stop-color="#BEBCE7"/>
<stop offset="1" stop-color="#BE8BD5"/>
</linearGradient>
<linearGradient id="paint6_linear_1015_9727" x1="59.8769" y1="0" x2="59.8769" y2="34" gradientUnits="userSpaceOnUse">
<stop stop-color="#BEBCE7"/>
<stop offset="1" stop-color="#BE8BD5"/>
</linearGradient>
<linearGradient id="paint7_linear_1015_9727" x1="59.8769" y1="0" x2="59.8769" y2="34" gradientUnits="userSpaceOnUse">
<stop stop-color="#BEBCE7"/>
<stop offset="1" stop-color="#BE8BD5"/>
</linearGradient>
<linearGradient id="paint8_linear_1015_9727" x1="59.8769" y1="0" x2="59.8769" y2="34" gradientUnits="userSpaceOnUse">
<stop stop-color="#BEBCE7"/>
<stop offset="1" stop-color="#BE8BD5"/>
</linearGradient>
<linearGradient id="paint9_linear_1015_9727" x1="59.8769" y1="0" x2="59.8769" y2="34" gradientUnits="userSpaceOnUse">
<stop stop-color="#BEBCE7"/>
<stop offset="1" stop-color="#BE8BD5"/>
</linearGradient>
<linearGradient id="paint10_linear_1015_9727" x1="59.8769" y1="0" x2="59.8769" y2="34" gradientUnits="userSpaceOnUse">
<stop stop-color="#BEBCE7"/>
<stop offset="1" stop-color="#BE8BD5"/>
</linearGradient>
<linearGradient id="paint11_linear_1015_9727" x1="59.8769" y1="0" x2="59.8769" y2="34" gradientUnits="userSpaceOnUse">
<stop stop-color="#BEBCE7"/>
<stop offset="1" stop-color="#BE8BD5"/>
</linearGradient>
<linearGradient id="paint12_linear_1015_9727" x1="59.8769" y1="0" x2="59.8769" y2="34" gradientUnits="userSpaceOnUse">
<stop stop-color="#BEBCE7"/>
<stop offset="1" stop-color="#BE8BD5"/>
</linearGradient>
<linearGradient id="paint13_linear_1015_9727" x1="59.8769" y1="0" x2="59.8769" y2="34" gradientUnits="userSpaceOnUse">
<stop stop-color="#BEBCE7"/>
<stop offset="1" stop-color="#BE8BD5"/>
</linearGradient>
<linearGradient id="paint14_linear_1015_9727" x1="59.8769" y1="0" x2="59.8769" y2="34" gradientUnits="userSpaceOnUse">
<stop stop-color="#BEBCE7"/>
<stop offset="1" stop-color="#BE8BD5"/>
</linearGradient>
<linearGradient id="paint15_linear_1015_9727" x1="59.8769" y1="0" x2="59.8769" y2="34" gradientUnits="userSpaceOnUse">
<stop stop-color="#BEBCE7"/>
<stop offset="1" stop-color="#BE8BD5"/>
</linearGradient>
</defs>
</svg>
