<svg width="119" height="30" viewBox="0 0 119 30" fill="none" xmlns="http://www.w3.org/2000/svg">
<path d="M5.93922 16.3037C5.87075 15.7815 5.8363 15.2554 5.83609 14.7287C5.83885 12.6273 6.39058 10.5631 7.4366 8.74046C8.48262 6.91787 9.98665 5.40017 11.7997 4.3377C13.6128 3.27524 15.6719 2.70487 17.7733 2.68309C19.8746 2.66131 21.9451 3.18889 23.7798 4.21355L26.5379 2.80799C24.3393 1.21221 21.7423 0.255385 19.0339 0.0432734C16.3255 -0.168838 13.6112 0.37202 11.1909 1.60607C8.77071 2.84012 6.7388 4.71931 5.31979 7.03595C3.90078 9.35259 3.14992 12.0165 3.1502 14.7331C3.1502 15.1084 3.16444 15.4821 3.19293 15.8544C3.23282 16.3815 3.1159 16.9087 2.85689 17.3696C2.59787 17.8305 2.20833 18.2045 1.73727 18.4445L0.47168 19.0898V22.0998L35.2954 4.35499V1.34644L5.93922 16.3037Z" fill="url(#paint0_linear)"/>
<path d="M35.2954 7.36648L0.47168 25.1025V28.1095L29.8352 13.1478C29.9037 13.6735 29.9382 14.203 29.9383 14.7331C29.937 16.837 29.3855 18.9039 28.3384 20.7287C27.2914 22.5536 25.7853 24.0728 23.9696 25.1356C22.1539 26.1984 20.0919 26.7678 17.9881 26.7873C15.8843 26.8068 13.812 26.2758 11.9769 25.2469L11.8296 25.3249L9.2277 26.6509C11.4258 28.2468 14.0223 29.2039 16.7303 29.4165C19.4382 29.6291 22.1523 29.089 24.5725 27.8558C26.9927 26.6226 29.0249 24.7443 30.4446 22.4285C31.8642 20.1126 32.616 17.4495 32.6169 14.7331C32.6169 14.3545 32.6021 13.9759 32.5741 13.6016C32.5343 13.0746 32.6511 12.5476 32.9098 12.0868C33.1685 11.626 33.5577 11.2519 34.0283 11.0115L35.2954 10.3662V7.36648Z" fill="url(#paint1_linear)"/>
<path d="M76.7005 9.45569C72.4956 9.45569 69.2336 12.5497 69.2336 17.4367C69.2336 21.9849 71.9224 25.4752 76.7859 25.4752C80.5341 25.4752 82.9931 23.2726 83.6796 20.6398H80.9908C80.3337 22.1558 79.0755 23.1857 76.7859 23.1857C74.5258 23.1857 72.1228 21.5842 72.0374 18.2662H83.88C84.1953 13.3748 81.4196 9.45569 76.7005 9.45569ZM72.0654 16.0341C72.2952 12.9401 74.4109 11.6863 76.7005 11.6863C79.4748 11.6863 81.0483 13.861 81.1337 16.0341H72.0654Z" fill="url(#paint2_linear)"/>
<path d="M53.4027 13.2024L51.007 12.6587C49.0548 12.2285 47.6183 11.315 47.6183 9.48368C47.6183 7.16613 50.4177 6.45156 52.0236 6.45156C54.0863 6.45156 56.4863 7.28105 57.1729 9.65459H60.0061C59.1752 5.67659 55.8808 3.99109 52.1385 3.99109C48.7911 3.99109 44.6437 5.67953 44.6437 9.65459C44.6437 13.0875 47.4754 14.6904 50.3366 15.3196L52.9223 15.8632C55.5257 16.4643 57.3851 17.3218 57.3851 19.5244C57.3851 21.5871 55.6406 23.0148 52.5511 23.0148C49.3186 23.0148 47.3738 21.5267 46.8301 18.667H43.963C44.5067 22.7923 47.5962 25.4752 52.4877 25.4752C56.613 25.4752 60.3833 23.3006 60.3833 19.2666C60.3833 15.0912 56.5792 13.8889 53.4027 13.2024Z" fill="url(#paint3_linear)"/>
<path d="M65.9731 5.85044H63.3697V9.71204H60.9373V11.8012H63.3697V21.2409C63.3697 24.4454 64.0563 25.1025 67.003 25.1025H68.8903V22.9293H67.5746C66.0866 22.9293 65.9731 22.5286 65.9731 20.9271V11.8012H68.8903V9.71204H65.9731V5.85044Z" fill="url(#paint4_linear)"/>
<path d="M117.556 9.62659C115.524 9.71205 113.98 10.6579 113.208 12.4009V9.71205H110.661V25.1025H113.264V17.036C113.264 13.6031 114.466 12.3213 116.869 12.3213C117.358 12.3215 117.846 12.3599 118.328 12.4362V9.65459C118.071 9.63228 117.814 9.62293 117.556 9.62659Z" fill="url(#paint5_linear)"/>
<path d="M108.156 19.3005L108.184 15.7527C108.214 11.3754 106.382 9.40265 102.062 9.40265C99.0878 9.40265 96.1116 11.262 95.8833 14.5799H98.5721C98.687 12.6646 99.9172 11.5198 102.09 11.5198C104.037 11.5198 105.581 12.4348 105.581 15.2665V15.6378C99.2881 16.3258 95.1687 17.4058 95.1687 21.0449C95.1687 23.8767 97.5717 25.4797 100.461 25.4797C103.207 25.4797 104.781 24.5957 105.724 22.9912C105.746 23.6999 105.813 24.4066 105.924 25.1069H108.555C108.242 23.6439 108.127 21.8995 108.156 19.3005ZM105.781 18.6714C105.781 22.3031 103.465 23.4199 101.033 23.4199C99.1732 23.4199 98.0579 22.4475 98.0579 20.9875C98.0579 18.8703 101.061 18.1557 105.781 17.6975V18.6714Z" fill="url(#paint6_linear)"/>
<path d="M88.2352 4.35206H85.6318V25.1025H88.2352V4.35206Z" fill="url(#paint7_linear)"/>
<path d="M93.4405 4.35206H90.8371V25.1025H93.4405V4.35206Z" fill="url(#paint8_linear)"/>
<defs>
<linearGradient id="paint0_linear" x1="59.3999" y1="-0.00170898" x2="59.3999" y2="29.4617" gradientUnits="userSpaceOnUse">
<stop stop-color="#BEBCE7"/>
<stop offset="1" stop-color="#BE8BD5"/>
</linearGradient>
<linearGradient id="paint1_linear" x1="59.3999" y1="-0.00170898" x2="59.3999" y2="29.4617" gradientUnits="userSpaceOnUse">
<stop stop-color="#BEBCE7"/>
<stop offset="1" stop-color="#BE8BD5"/>
</linearGradient>
<linearGradient id="paint2_linear" x1="59.3999" y1="-0.00170898" x2="59.3999" y2="29.4617" gradientUnits="userSpaceOnUse">
<stop stop-color="#BEBCE7"/>
<stop offset="1" stop-color="#BE8BD5"/>
</linearGradient>
<linearGradient id="paint3_linear" x1="59.3999" y1="-0.00170898" x2="59.3999" y2="29.4617" gradientUnits="userSpaceOnUse">
<stop stop-color="#BEBCE7"/>
<stop offset="1" stop-color="#BE8BD5"/>
</linearGradient>
<linearGradient id="paint4_linear" x1="59.3999" y1="-0.00170898" x2="59.3999" y2="29.4617" gradientUnits="userSpaceOnUse">
<stop stop-color="#BEBCE7"/>
<stop offset="1" stop-color="#BE8BD5"/>
</linearGradient>
<linearGradient id="paint5_linear" x1="59.3999" y1="-0.00170898" x2="59.3999" y2="29.4617" gradientUnits="userSpaceOnUse">
<stop stop-color="#BEBCE7"/>
<stop offset="1" stop-color="#BE8BD5"/>
</linearGradient>
<linearGradient id="paint6_linear" x1="59.3999" y1="-0.00170898" x2="59.3999" y2="29.4617" gradientUnits="userSpaceOnUse">
<stop stop-color="#BEBCE7"/>
<stop offset="1" stop-color="#BE8BD5"/>
</linearGradient>
<linearGradient id="paint7_linear" x1="59.3999" y1="-0.00170898" x2="59.3999" y2="29.4617" gradientUnits="userSpaceOnUse">
<stop stop-color="#BEBCE7"/>
<stop offset="1" stop-color="#BE8BD5"/>
</linearGradient>
<linearGradient id="paint8_linear" x1="59.3999" y1="-0.00170898" x2="59.3999" y2="29.4617" gradientUnits="userSpaceOnUse">
<stop stop-color="#BEBCE7"/>
<stop offset="1" stop-color="#BE8BD5"/>
</linearGradient>
</defs>
</svg>
