<svg width="103" height="34" viewBox="0 0 103 34" fill="none" xmlns="http://www.w3.org/2000/svg">
<path fill-rule="evenodd" clip-rule="evenodd" d="M17.6992 0C8.31038 0 0.699219 7.61116 0.699219 17C0.699219 26.3888 8.31038 34 17.6992 34C27.0881 34 34.6992 26.3888 34.6992 17C34.6992 7.61116 27.0881 0 17.6992 0ZM17.5169 11.4199C17.5169 9.89267 18.3511 8.44436 19.7599 7.64233H19.7602C20.4206 7.2434 21.2548 7.07925 21.9989 7.08341C22.747 7.08341 23.5749 7.2434 24.2396 7.64649C25.6527 8.44862 26.4826 9.89693 26.4826 11.4241C26.4826 12.9513 25.6484 14.3996 24.2396 15.2016C23.4911 15.6047 22.5776 15.7647 21.7499 15.7647C20.757 15.7647 20.0086 16.4858 20.0086 17.4519C20.0086 18.6592 21.0015 19.1392 21.7499 19.1392C22.6613 19.1392 23.4911 19.2992 24.2396 19.7023C25.6527 20.5065 26.4826 21.9547 26.4826 23.482C26.4826 25.0093 25.6483 26.4576 24.2393 27.2596C22.8304 28.0616 21.1685 28.0616 19.7597 27.2596C18.3445 26.4575 17.5167 25.0113 17.5167 23.482C17.5167 22.68 17.7654 21.8758 18.1814 21.1506C18.5932 20.3486 18.3445 19.2992 17.5167 18.8192C16.3566 18.1751 15.4431 18.9003 15.1108 19.4633C14.6989 20.1886 14.1179 20.8285 13.3695 21.2316C11.9606 22.0337 10.2987 22.0337 8.88985 21.2316C7.47697 20.4274 6.64922 18.9796 6.64922 17.4519C6.64922 15.9243 7.48125 14.4723 8.89017 13.6703C10.2991 12.8683 11.961 12.8683 13.3698 13.6703C14.1182 14.1504 14.6993 14.7945 15.1947 15.4386C15.69 16.2427 16.7729 16.5627 17.6007 16.0827C18.7606 15.5196 18.5977 14.3954 18.2653 13.7513C17.8493 13.0302 17.5169 12.222 17.5169 11.4199Z" fill="url(#paint0_linear)"/>
<path d="M46.9521 15.5143C46.4678 15.4486 46.041 15.4158 45.6716 15.4158C44.3254 15.4158 43.443 15.8714 43.0243 16.7825V25.5H39.4659V12.1775H42.8273L42.9258 13.7659C43.64 12.5428 44.6291 11.9313 45.8932 11.9313C46.2872 11.9313 46.6566 11.9846 47.0014 12.0913L46.9521 15.5143Z" fill="url(#paint1_linear)"/>
<path d="M52.4313 25.5H48.8606V12.1775H52.4313V25.5ZM48.6513 8.72993C48.6513 8.19638 48.8278 7.75722 49.1808 7.41246C49.5419 7.0677 50.0303 6.89532 50.646 6.89532C51.2534 6.89532 51.7377 7.0677 52.0989 7.41246C52.4601 7.75722 52.6407 8.19638 52.6407 8.72993C52.6407 9.2717 52.456 9.71496 52.0866 10.0597C51.7254 10.4045 51.2452 10.5769 50.646 10.5769C50.0468 10.5769 49.5625 10.4045 49.1931 10.0597C48.8319 9.71496 48.6513 9.2717 48.6513 8.72993Z" fill="url(#paint2_linear)"/>
<path d="M67.3668 18.9619C67.3668 21.014 66.8989 22.6598 65.9631 23.8993C65.0356 25.1306 63.7797 25.7463 62.1954 25.7463C60.8492 25.7463 59.7616 25.2784 58.9325 24.3426V30.6221H55.3741V12.1775H58.6739L58.7971 13.4827C59.659 12.4484 60.7835 11.9313 62.1708 11.9313C63.8125 11.9313 65.0889 12.5387 66.0001 13.7536C66.9112 14.9684 67.3668 16.643 67.3668 18.7772V18.9619ZM63.8084 18.7033C63.8084 17.4638 63.5868 16.5075 63.1435 15.8344C62.7085 15.1613 62.0723 14.8248 61.235 14.8248C60.1187 14.8248 59.3512 15.2516 58.9325 16.1053V21.5599C59.3676 22.4382 60.1433 22.8774 61.2596 22.8774C62.9588 22.8774 63.8084 21.486 63.8084 18.7033Z" fill="url(#paint3_linear)"/>
<path d="M81.5758 18.9619C81.5758 21.014 81.1079 22.6598 80.1721 23.8993C79.2446 25.1306 77.9887 25.7463 76.4044 25.7463C75.0582 25.7463 73.9706 25.2784 73.1415 24.3426V30.6221H69.5831V12.1775H72.883L73.0061 13.4827C73.868 12.4484 74.9925 11.9313 76.3798 11.9313C78.0215 11.9313 79.2979 12.5387 80.2091 13.7536C81.1202 14.9684 81.5758 16.643 81.5758 18.7772V18.9619ZM78.0174 18.7033C78.0174 17.4638 77.7958 16.5075 77.3525 15.8344C76.9175 15.1613 76.2813 14.8248 75.444 14.8248C74.3277 14.8248 73.5602 15.2516 73.1415 16.1053V21.5599C73.5766 22.4382 74.3523 22.8774 75.4686 22.8774C77.1678 22.8774 78.0174 21.486 78.0174 18.7033Z" fill="url(#paint4_linear)"/>
<path d="M87.5475 25.5H83.9768V6.5875H87.5475V25.5Z" fill="url(#paint5_linear)"/>
<path d="M96.6221 25.7463C94.6684 25.7463 93.076 25.147 91.8447 23.9486C90.6216 22.7501 90.0101 21.1536 90.0101 19.1589V18.8141C90.0101 17.4761 90.2687 16.2818 90.7858 15.2311C91.3029 14.1722 92.0335 13.3596 92.9775 12.7932C93.9297 12.2186 95.0132 11.9313 96.2281 11.9313C98.0504 11.9313 99.4828 12.5059 100.525 13.6551C101.576 14.8043 102.101 16.4337 102.101 18.5433V19.9962H93.6177C93.7327 20.8663 94.0774 21.564 94.652 22.0893C95.2348 22.6147 95.9695 22.8774 96.856 22.8774C98.2268 22.8774 99.2981 22.3808 100.07 21.3875L101.818 23.3453C101.285 24.1004 100.562 24.6915 99.651 25.1183C98.7399 25.5369 97.7302 25.7463 96.6221 25.7463ZM96.2158 14.8125C95.5098 14.8125 94.9352 15.0505 94.492 15.5266C94.0569 16.0027 93.7778 16.684 93.6547 17.5705H98.6044V17.2873C98.588 16.4993 98.3746 15.8919 97.9642 15.465C97.5537 15.03 96.9709 14.8125 96.2158 14.8125Z" fill="url(#paint6_linear)"/>
<defs>
<linearGradient id="paint0_linear" x1="51.4003" y1="0" x2="51.4003" y2="34" gradientUnits="userSpaceOnUse">
<stop stop-color="#BEBCE7"/>
<stop offset="1" stop-color="#BE8BD5"/>
</linearGradient>
<linearGradient id="paint1_linear" x1="51.4003" y1="0" x2="51.4003" y2="34" gradientUnits="userSpaceOnUse">
<stop stop-color="#BEBCE7"/>
<stop offset="1" stop-color="#BE8BD5"/>
</linearGradient>
<linearGradient id="paint2_linear" x1="51.4003" y1="0" x2="51.4003" y2="34" gradientUnits="userSpaceOnUse">
<stop stop-color="#BEBCE7"/>
<stop offset="1" stop-color="#BE8BD5"/>
</linearGradient>
<linearGradient id="paint3_linear" x1="51.4003" y1="0" x2="51.4003" y2="34" gradientUnits="userSpaceOnUse">
<stop stop-color="#BEBCE7"/>
<stop offset="1" stop-color="#BE8BD5"/>
</linearGradient>
<linearGradient id="paint4_linear" x1="51.4003" y1="0" x2="51.4003" y2="34" gradientUnits="userSpaceOnUse">
<stop stop-color="#BEBCE7"/>
<stop offset="1" stop-color="#BE8BD5"/>
</linearGradient>
<linearGradient id="paint5_linear" x1="51.4003" y1="0" x2="51.4003" y2="34" gradientUnits="userSpaceOnUse">
<stop stop-color="#BEBCE7"/>
<stop offset="1" stop-color="#BE8BD5"/>
</linearGradient>
<linearGradient id="paint6_linear" x1="51.4003" y1="0" x2="51.4003" y2="34" gradientUnits="userSpaceOnUse">
<stop stop-color="#BEBCE7"/>
<stop offset="1" stop-color="#BE8BD5"/>
</linearGradient>
</defs>
</svg>
