<svg width="585" height="247" viewBox="0 0 585 247" fill="none" xmlns="http://www.w3.org/2000/svg">
<g style="mix-blend-mode:screen" opacity="0.45">
<path d="M594.821 3.00002C594.821 1.34317 593.478 1.52588e-05 591.821 1.52588e-05H577.147C575.49 1.52588e-05 574.147 1.34317 574.147 3.00002V5.70486C574.147 7.36172 575.49 8.70486 577.147 8.70486H591.821C593.478 8.70486 594.821 7.36172 594.821 5.70486V3.00002Z" fill="url(#paint0_linear)"/>
<path d="M594.821 37.8194C594.821 36.1626 593.478 34.8194 591.821 34.8194H577.147C575.49 34.8194 574.147 36.1626 574.147 37.8194V40.5242C574.147 42.1811 575.49 43.5242 577.147 43.5242H591.821C593.478 43.5242 594.821 42.1811 594.821 40.5242V37.8194Z" fill="url(#paint1_linear)"/>
<path d="M594.821 72.6388C594.821 70.9819 593.478 69.6388 591.821 69.6388H577.147C575.49 69.6388 574.147 70.9819 574.147 72.6388V75.3436C574.147 77.0005 575.49 78.3436 577.147 78.3436H591.821C593.478 78.3436 594.821 77.0005 594.821 75.3436V72.6388Z" fill="url(#paint2_linear)"/>
<path d="M594.821 107.458C594.821 105.801 593.478 104.458 591.821 104.458H577.147C575.49 104.458 574.147 105.801 574.147 107.458V110.163C574.147 111.82 575.49 113.163 577.147 113.163H591.821C593.478 113.163 594.821 111.82 594.821 110.163V107.458Z" fill="url(#paint3_linear)"/>
<path d="M594.821 142.278C594.821 140.621 593.478 139.278 591.821 139.278H577.147C575.49 139.278 574.147 140.621 574.147 142.278V144.982C574.147 146.639 575.49 147.982 577.147 147.982H591.821C593.478 147.982 594.821 146.639 594.821 144.982V142.278Z" fill="url(#paint4_linear)"/>
<path d="M594.821 177.097C594.821 175.44 593.478 174.097 591.821 174.097H577.147C575.49 174.097 574.147 175.44 574.147 177.097V179.802C574.147 181.459 575.49 182.802 577.147 182.802H591.821C593.478 182.802 594.821 181.459 594.821 179.802V177.097Z" fill="url(#paint5_linear)"/>
<path d="M594.821 211.916C594.821 210.259 593.478 208.916 591.821 208.916H577.147C575.49 208.916 574.147 210.259 574.147 211.916V214.621C574.147 216.278 575.49 217.621 577.147 217.621H591.821C593.478 217.621 594.821 216.278 594.821 214.621V211.916Z" fill="url(#paint6_linear)"/>
<path d="M574.147 4.35243H564.97L547.545 21.5845H533.888M574.147 39.7159H510.493L483.835 13.0573M574.147 73.9912H510.493L483.835 46.5165H468.057M574.147 108.267H495.26M574.147 143.358H532.255H505.597L495.26 153.423M574.147 178.449H548.577L538.24 188.514H522.462M574.147 213.269H492.255L476.478 239.655H13.9382" stroke="#7D6CA7"/>
<path d="M533.976 17.9538C533.976 16.7032 532.962 15.6894 531.711 15.6894H524.639C523.388 15.6894 522.374 16.7032 522.374 17.9538V25.0264C522.374 26.277 523.388 27.2908 524.639 27.2908H531.711C532.962 27.2908 533.976 26.277 533.976 25.0264V17.9538ZM484.467 3.80838C484.467 2.55785 483.453 1.54407 482.202 1.54407H475.13C473.879 1.54407 472.865 2.55785 472.865 3.80838V10.8811C472.865 12.1316 473.879 13.1454 475.13 13.1454H482.202C483.453 13.1454 484.467 12.1316 484.467 10.8811V3.80838ZM467.601 42.9802C467.601 41.7296 466.587 40.7159 465.337 40.7159H458.264C457.014 40.7159 456 41.7296 456 42.9802V50.0529C456 51.3034 457.014 52.3172 458.264 52.3172H465.337C466.587 52.3172 467.601 51.3034 467.601 50.0529V42.9802ZM494.804 104.458C494.804 103.208 493.79 102.194 492.539 102.194H485.467C484.216 102.194 483.202 103.208 483.202 104.458V111.531C483.202 112.781 484.216 113.795 485.467 113.795H492.539C493.79 113.795 494.804 112.781 494.804 111.531V104.458ZM495.348 155.599C495.348 154.349 494.334 153.335 493.084 153.335H486.011C484.76 153.335 483.747 154.349 483.747 155.599V162.672C483.747 163.922 484.76 164.936 486.011 164.936H493.084C494.334 164.936 495.348 163.922 495.348 162.672V155.599ZM522.006 184.978C522.006 183.727 520.993 182.714 519.742 182.714H512.669C511.419 182.714 510.405 183.727 510.405 184.978V192.051C510.405 193.301 511.419 194.315 512.669 194.315H519.742C520.993 194.315 522.006 193.301 522.006 192.051V184.978ZM12.9227 235.663C12.9227 234.412 11.909 233.399 10.6584 233.399H3.58569C2.33514 233.399 1.32141 234.412 1.32141 235.663V242.736C1.32141 243.986 2.33514 245 3.58569 245H10.6584C11.909 245 12.9227 243.986 12.9227 242.736V235.663Z" fill="#826EA6" fill-opacity="0.17" stroke="#7F6FA5" stroke-width="2"/>
</g>
<defs>
<linearGradient id="paint0_linear" x1="594.821" y1="108.811" x2="574.147" y2="108.811" gradientUnits="userSpaceOnUse">
<stop stop-color="#876BAB"/>
<stop offset="1" stop-color="#7D6FA3"/>
</linearGradient>
<linearGradient id="paint1_linear" x1="594.821" y1="108.811" x2="574.147" y2="108.811" gradientUnits="userSpaceOnUse">
<stop stop-color="#876BAB"/>
<stop offset="1" stop-color="#7D6FA3"/>
</linearGradient>
<linearGradient id="paint2_linear" x1="594.821" y1="108.811" x2="574.147" y2="108.811" gradientUnits="userSpaceOnUse">
<stop stop-color="#876BAB"/>
<stop offset="1" stop-color="#7D6FA3"/>
</linearGradient>
<linearGradient id="paint3_linear" x1="594.821" y1="108.811" x2="574.147" y2="108.811" gradientUnits="userSpaceOnUse">
<stop stop-color="#876BAB"/>
<stop offset="1" stop-color="#7D6FA3"/>
</linearGradient>
<linearGradient id="paint4_linear" x1="594.821" y1="108.811" x2="574.147" y2="108.811" gradientUnits="userSpaceOnUse">
<stop stop-color="#876BAB"/>
<stop offset="1" stop-color="#7D6FA3"/>
</linearGradient>
<linearGradient id="paint5_linear" x1="594.821" y1="108.811" x2="574.147" y2="108.811" gradientUnits="userSpaceOnUse">
<stop stop-color="#876BAB"/>
<stop offset="1" stop-color="#7D6FA3"/>
</linearGradient>
<linearGradient id="paint6_linear" x1="594.821" y1="108.811" x2="574.147" y2="108.811" gradientUnits="userSpaceOnUse">
<stop stop-color="#876BAB"/>
<stop offset="1" stop-color="#7D6FA3"/>
</linearGradient>
</defs>
</svg>
