<svg width="585" height="247" viewBox="0 0 585 247" fill="none" xmlns="http://www.w3.org/2000/svg">
<g style="mix-blend-mode:screen" opacity="0.45">
<path d="M-9.82129 3.00002C-9.82129 1.34317 -8.47814 1.52588e-05 -6.82129 1.52588e-05H7.85272C9.50957 1.52588e-05 10.8527 1.34317 10.8527 3.00002V5.70486C10.8527 7.36172 9.50957 8.70486 7.85272 8.70486H-6.82129C-8.47814 8.70486 -9.82129 7.36172 -9.82129 5.70486V3.00002Z" fill="url(#paint0_linear)"/>
<path d="M-9.82129 37.8194C-9.82129 36.1626 -8.47814 34.8194 -6.82129 34.8194H7.85272C9.50957 34.8194 10.8527 36.1626 10.8527 37.8194V40.5242C10.8527 42.1811 9.50957 43.5242 7.85272 43.5242H-6.82129C-8.47814 43.5242 -9.82129 42.1811 -9.82129 40.5242V37.8194Z" fill="url(#paint1_linear)"/>
<path d="M-9.82129 72.6388C-9.82129 70.9819 -8.47814 69.6388 -6.82129 69.6388H7.85272C9.50957 69.6388 10.8527 70.9819 10.8527 72.6388V75.3436C10.8527 77.0005 9.50957 78.3436 7.85272 78.3436H-6.82129C-8.47814 78.3436 -9.82129 77.0005 -9.82129 75.3436V72.6388Z" fill="url(#paint2_linear)"/>
<path d="M-9.82129 107.458C-9.82129 105.801 -8.47814 104.458 -6.82129 104.458H7.85272C9.50957 104.458 10.8527 105.801 10.8527 107.458V110.163C10.8527 111.82 9.50957 113.163 7.85272 113.163H-6.82129C-8.47814 113.163 -9.82129 111.82 -9.82129 110.163V107.458Z" fill="url(#paint3_linear)"/>
<path d="M-9.82129 142.278C-9.82129 140.621 -8.47814 139.278 -6.82129 139.278H7.85272C9.50957 139.278 10.8527 140.621 10.8527 142.278V144.982C10.8527 146.639 9.50957 147.982 7.85272 147.982H-6.82129C-8.47814 147.982 -9.82129 146.639 -9.82129 144.982V142.278Z" fill="url(#paint4_linear)"/>
<path d="M-9.82129 177.097C-9.82129 175.44 -8.47814 174.097 -6.82129 174.097H7.85272C9.50957 174.097 10.8527 175.44 10.8527 177.097V179.802C10.8527 181.459 9.50957 182.802 7.85272 182.802H-6.82129C-8.47814 182.802 -9.82129 181.459 -9.82129 179.802V177.097Z" fill="url(#paint5_linear)"/>
<path d="M-9.82129 211.916C-9.82129 210.259 -8.47814 208.916 -6.82129 208.916H7.85272C9.50957 208.916 10.8527 210.259 10.8527 211.916V214.621C10.8527 216.278 9.50957 217.621 7.85272 217.621H-6.82129C-8.47814 217.621 -9.82129 216.278 -9.82129 214.621V211.916Z" fill="url(#paint6_linear)"/>
<path d="M10.8525 4.35243H20.0298L37.4554 21.5845H51.1124M10.8525 39.7159H74.5067L101.165 13.0573M10.8525 73.9912H74.5067L101.165 46.5165H116.943M10.8525 108.267H89.7402M10.8525 143.358H52.7446H79.4032L89.7402 153.423M10.8525 178.449H36.423L46.76 188.514H62.5376M10.8525 213.269H92.7446L108.522 239.655H571.062" stroke="#7D6CA7"/>
<path d="M51.0244 17.9538C51.0244 16.7032 52.0382 15.6894 53.2887 15.6894H60.3614C61.612 15.6894 62.6257 16.7032 62.6257 17.9538V25.0264C62.6257 26.277 61.612 27.2908 60.3614 27.2908H53.2887C52.0382 27.2908 51.0244 26.277 51.0244 25.0264V17.9538ZM100.533 3.80838C100.533 2.55785 101.547 1.54407 102.798 1.54407H109.87C111.121 1.54407 112.135 2.55785 112.135 3.80838V10.8811C112.135 12.1316 111.121 13.1454 109.87 13.1454H102.798C101.547 13.1454 100.533 12.1316 100.533 10.8811V3.80838ZM117.399 42.9802C117.399 41.7296 118.413 40.7159 119.663 40.7159H126.736C127.986 40.7159 129 41.7296 129 42.9802V50.0529C129 51.3034 127.986 52.3172 126.736 52.3172H119.663C118.413 52.3172 117.399 51.3034 117.399 50.0529V42.9802ZM90.1962 104.458C90.1962 103.208 91.21 102.194 92.4605 102.194H99.5332C100.784 102.194 101.798 103.208 101.798 104.458V111.531C101.798 112.781 100.784 113.795 99.5332 113.795H92.4605C91.21 113.795 90.1962 112.781 90.1962 111.531V104.458ZM89.6522 155.599C89.6522 154.349 90.6659 153.335 91.9165 153.335H98.9892C100.24 153.335 101.253 154.349 101.253 155.599V162.672C101.253 163.922 100.24 164.936 98.9892 164.936H91.9165C90.6659 164.936 89.6522 163.922 89.6522 162.672V155.599ZM62.9936 184.978C62.9936 183.727 64.0073 182.714 65.2579 182.714H72.3306C73.5811 182.714 74.5949 183.727 74.5949 184.978V192.051C74.5949 193.301 73.5811 194.315 72.3306 194.315H65.2579C64.0073 194.315 62.9936 193.301 62.9936 192.051V184.978ZM572.077 235.663C572.077 234.412 573.091 233.399 574.342 233.399H581.414C582.665 233.399 583.679 234.412 583.679 235.663V242.736C583.679 243.986 582.665 245 581.414 245H574.342C573.091 245 572.077 243.986 572.077 242.736V235.663Z" fill="#826EA6" fill-opacity="0.17" stroke="#7F6FA5" stroke-width="2"/>
</g>
<defs>
<linearGradient id="paint0_linear" x1="-9.82129" y1="108.811" x2="10.8527" y2="108.811" gradientUnits="userSpaceOnUse">
<stop stop-color="#876BAB"/>
<stop offset="1" stop-color="#7D6FA3"/>
</linearGradient>
<linearGradient id="paint1_linear" x1="-9.82129" y1="108.811" x2="10.8527" y2="108.811" gradientUnits="userSpaceOnUse">
<stop stop-color="#876BAB"/>
<stop offset="1" stop-color="#7D6FA3"/>
</linearGradient>
<linearGradient id="paint2_linear" x1="-9.82129" y1="108.811" x2="10.8527" y2="108.811" gradientUnits="userSpaceOnUse">
<stop stop-color="#876BAB"/>
<stop offset="1" stop-color="#7D6FA3"/>
</linearGradient>
<linearGradient id="paint3_linear" x1="-9.82129" y1="108.811" x2="10.8527" y2="108.811" gradientUnits="userSpaceOnUse">
<stop stop-color="#876BAB"/>
<stop offset="1" stop-color="#7D6FA3"/>
</linearGradient>
<linearGradient id="paint4_linear" x1="-9.82129" y1="108.811" x2="10.8527" y2="108.811" gradientUnits="userSpaceOnUse">
<stop stop-color="#876BAB"/>
<stop offset="1" stop-color="#7D6FA3"/>
</linearGradient>
<linearGradient id="paint5_linear" x1="-9.82129" y1="108.811" x2="10.8527" y2="108.811" gradientUnits="userSpaceOnUse">
<stop stop-color="#876BAB"/>
<stop offset="1" stop-color="#7D6FA3"/>
</linearGradient>
<linearGradient id="paint6_linear" x1="-9.82129" y1="108.811" x2="10.8527" y2="108.811" gradientUnits="userSpaceOnUse">
<stop stop-color="#876BAB"/>
<stop offset="1" stop-color="#7D6FA3"/>
</linearGradient>
</defs>
</svg>
