<svg width="168" height="147" viewBox="0 0 168 147" fill="none" xmlns="http://www.w3.org/2000/svg">
<g style="mix-blend-mode:multiply" opacity="0.25">
<path d="M193.578 3.42154H188.148L177.837 13.618H169.756M193.578 24.3466H155.913L140.139 8.57233M193.578 44.6279H155.913L140.139 28.3707H130.803M193.578 64.9092H146.899M193.578 85.6733H168.79H153.016L146.899 91.6289M193.578 106.437H178.448L172.331 112.393H162.995M193.578 127.041H145.121L135.785 142.654H116.531" stroke="#7D6CA7"/>
<path d="M169.399 11.4697C169.399 10.9552 168.982 10.5381 168.468 10.5381H164.283C163.768 10.5381 163.351 10.9552 163.351 11.4697V15.6547C163.351 16.1692 163.768 16.5862 164.283 16.5862H168.468C168.982 16.5862 169.399 16.1692 169.399 15.6547V11.4697ZM140.104 3.09962C140.104 2.58514 139.687 2.16808 139.173 2.16808H134.988C134.473 2.16808 134.056 2.58514 134.056 3.09962V7.28465C134.056 7.79913 134.473 8.2162 134.988 8.2162H139.173C139.687 8.2162 140.104 7.79913 140.104 7.28465V3.09962ZM130.125 26.2782C130.125 25.7637 129.708 25.3467 129.193 25.3467H125.008C124.494 25.3467 124.076 25.7637 124.076 26.2782V30.4632C124.076 30.9777 124.494 31.3948 125.008 31.3948H129.193C129.708 31.3948 130.125 30.9777 130.125 30.4632V26.2782ZM146.221 62.6557C146.221 62.1412 145.804 61.7241 145.289 61.7241H141.104C140.59 61.7241 140.173 62.1412 140.173 62.6557V66.8407C140.173 67.3552 140.59 67.7723 141.104 67.7723H145.289C145.804 67.7723 146.221 67.3552 146.221 66.8407V62.6557ZM146.543 92.9166C146.543 92.4021 146.126 91.9851 145.611 91.9851H141.426C140.912 91.9851 140.495 92.4021 140.495 92.9166V97.1016C140.495 97.6161 140.912 98.0332 141.426 98.0332H145.611C146.126 98.0332 146.543 97.6161 146.543 97.1016V92.9166ZM162.317 110.301C162.317 109.786 161.9 109.369 161.386 109.369H157.2C156.686 109.369 156.269 109.786 156.269 110.301V114.486C156.269 115 156.686 115.417 157.2 115.417H161.386C161.9 115.417 162.317 115 162.317 114.486V110.301ZM127.356 140.292C127.356 139.777 126.939 139.36 126.425 139.36H122.24C121.725 139.36 121.308 139.777 121.308 140.292V144.477C121.308 144.991 121.725 145.408 122.24 145.408H126.425C126.939 145.408 127.356 144.991 127.356 144.477V140.292Z" fill="#826EA6" fill-opacity="0.17" stroke="#7F6FA5" stroke-width="2"/>
</g>
</svg>
