<svg width="172" height="147" viewBox="0 0 172 147" fill="none" xmlns="http://www.w3.org/2000/svg">
<g style="mix-blend-mode:multiply" opacity="0.25">
<path d="M-21.5781 3.42154H-16.1478L-5.83678 13.618H2.24431M-21.5781 24.3466H16.0871L31.8614 8.57233M-21.5781 44.6279H16.0871L31.8614 28.3707H41.1972M-21.5781 64.9092H25.101M-21.5781 85.6733H3.21008H18.9844L25.101 91.6289M-21.5781 106.437H-6.44766L-0.331093 112.393H9.00473M-21.5781 127.041H26.8787L36.2145 142.654H55.4687" stroke="#7D6CA7"/>
<path d="M2.60059 11.4697C2.60059 10.9552 3.01765 10.5381 3.53213 10.5381H7.71716C8.23164 10.5381 8.64871 10.9552 8.64871 11.4697V15.6547C8.64871 16.1692 8.23163 16.5862 7.71716 16.5862H3.53213C3.01766 16.5862 2.60059 16.1692 2.60059 15.6547V11.4697ZM31.8957 3.09962C31.8957 2.58514 32.3128 2.16808 32.8273 2.16808H37.0123C37.5268 2.16808 37.9439 2.58514 37.9439 3.09962V7.28465C37.9439 7.79913 37.5268 8.2162 37.0123 8.2162H32.8273C32.3128 8.2162 31.8957 7.79913 31.8957 7.28465V3.09962ZM41.8754 26.2782C41.8754 25.7637 42.2925 25.3467 42.807 25.3467H46.992C47.5065 25.3467 47.9235 25.7637 47.9235 26.2782V30.4632C47.9235 30.9777 47.5065 31.3948 46.992 31.3948H42.807C42.2925 31.3948 41.8754 30.9777 41.8754 30.4632V26.2782ZM25.7792 62.6557C25.7792 62.1412 26.1962 61.7241 26.7107 61.7241H30.8957C31.4102 61.7241 31.8273 62.1412 31.8273 62.6557V66.8407C31.8273 67.3552 31.4102 67.7723 30.8957 67.7723H26.7107C26.1962 67.7723 25.7792 67.3552 25.7792 66.8407V62.6557ZM25.4572 92.9166C25.4572 92.4021 25.8743 91.9851 26.3888 91.9851H30.5738C31.0883 91.9851 31.5054 92.4021 31.5054 92.9166V97.1016C31.5054 97.6161 31.0883 98.0332 30.5738 98.0332H26.3888C25.8743 98.0332 25.4572 97.6161 25.4572 97.1016V92.9166ZM9.68293 110.301C9.68293 109.786 10.1 109.369 10.6145 109.369H14.7995C15.314 109.369 15.7311 109.786 15.7311 110.301V114.486C15.7311 115 15.314 115.417 14.7995 115.417H10.6145C10.1 115.417 9.68293 115 9.68293 114.486V110.301ZM44.6437 140.292C44.6437 139.777 45.0608 139.36 45.5752 139.36H49.7603C50.2748 139.36 50.6918 139.777 50.6918 140.292V144.477C50.6918 144.991 50.2748 145.408 49.7603 145.408H45.5752C45.0608 145.408 44.6437 144.991 44.6437 144.477V140.292Z" fill="#826EA6" fill-opacity="0.17" stroke="#7F6FA5" stroke-width="2"/>
</g>
</svg>
