<svg width="345" height="247" viewBox="0 0 345 247" fill="none" xmlns="http://www.w3.org/2000/svg">
<g opacity="0.45">
<path d="M333 3C333 1.34314 331.657 0 330 0C328.343 0 327 1.34314 327 3V5.71999C327 7.37685 328.343 8.72 330 8.72C331.657 8.72 333 7.37685 333 5.72V3Z" fill="url(#paint0_linear)"/>
<path d="M333 37.88C333 36.2231 331.657 34.88 330 34.88C328.343 34.88 327 36.2231 327 37.88V40.6C327 42.2569 328.343 43.6 330 43.6C331.657 43.6 333 42.2569 333 40.6V37.88Z" fill="url(#paint1_linear)"/>
<path d="M333 72.76C333 71.1031 331.657 69.76 330 69.76C328.343 69.76 327 71.1031 327 72.76V75.48C327 77.1369 328.343 78.48 330 78.48C331.657 78.48 333 77.1369 333 75.48V72.76Z" fill="url(#paint2_linear)"/>
<path d="M333 107.64C333 105.983 331.657 104.64 330 104.64C328.343 104.64 327 105.983 327 107.64V110.36C327 112.017 328.343 113.36 330 113.36C331.657 113.36 333 112.017 333 110.36V107.64Z" fill="url(#paint3_linear)"/>
<path d="M333 142.52C333 140.863 331.657 139.52 330 139.52C328.343 139.52 327 140.863 327 142.52V145.24C327 146.897 328.343 148.24 330 148.24C331.657 148.24 333 146.897 333 145.24V142.52Z" fill="url(#paint4_linear)"/>
<path d="M333 177.4C333 175.743 331.657 174.4 330 174.4C328.343 174.4 327 175.743 327 177.4V180.12C327 181.777 328.343 183.12 330 183.12C331.657 183.12 333 181.777 333 180.12V177.4Z" fill="url(#paint5_linear)"/>
<path d="M333 212.28C333 210.623 331.657 209.28 330 209.28C328.343 209.28 327 210.623 327 212.28V215C327 216.657 328.343 218 330 218C331.657 218 333 216.657 333 215V212.28Z" fill="url(#paint6_linear)"/>
<path d="M327.147 4.35243H177.97L160.545 21.5845H146.888M327.147 39.7159H123.493L96.8347 13.0573M327.147 73.9912H123.493L96.8347 46.5165L81.0572 46.5165M327.147 108.267L18.2598 108.267M327.147 143.358H105.255H78.5968L68.2598 153.423M327.147 178.449H161.577L151.24 188.514H135.462M327.147 213.269H245.255L229.478 239.655H146.938" stroke="#D3D7DC"/>
<path d="M145.976 17.9538C145.976 16.7032 144.962 15.6894 143.711 15.6894H136.639C135.388 15.6894 134.374 16.7032 134.374 17.9538V25.0264C134.374 26.277 135.388 27.2908 136.639 27.2908H143.711C144.962 27.2908 145.976 26.277 145.976 25.0264V17.9538ZM96.4669 3.80838C96.4669 2.55785 95.4531 1.54407 94.2026 1.54407H87.1299C85.8793 1.54407 84.8656 2.55785 84.8656 3.80838V10.8811C84.8656 12.1316 85.8793 13.1454 87.1299 13.1454H94.2026C95.4531 13.1454 96.4669 12.1316 96.4669 10.8811V3.80838ZM79.6013 42.9802C79.6013 41.7296 78.5875 40.7159 77.3369 40.7159H70.2643C69.0137 40.7159 67.9999 41.7296 67.9999 42.9802V50.0529C67.9999 51.3034 69.0137 52.3172 70.2643 52.3172H77.3369C78.5875 52.3172 79.6013 51.3034 79.6013 50.0529V42.9802ZM17.8039 104.458C17.8039 103.208 16.7901 102.194 15.5396 102.194H8.4669C7.21637 102.194 6.20258 103.208 6.20258 104.458V111.531C6.20258 112.781 7.21637 113.795 8.4669 113.795H15.5396C16.7901 113.795 17.8039 112.781 17.8039 111.531V104.458ZM69.348 155.599C69.348 154.349 68.3342 153.335 67.0836 153.335H60.011C58.7604 153.335 57.7466 154.349 57.7466 155.599V162.672C57.7466 163.922 58.7604 164.936 60.011 164.936H67.0836C68.3342 164.936 69.348 163.922 69.348 162.672V155.599ZM134.007 184.978C134.007 183.727 132.993 182.714 131.742 182.714H124.67C123.419 182.714 122.405 183.727 122.405 184.978V192.051C122.405 193.301 123.419 194.315 124.67 194.315H131.742C132.993 194.315 134.007 193.301 134.007 192.051V184.978ZM146.923 236.663C146.923 235.412 145.909 234.399 144.659 234.399H137.586C136.335 234.399 135.322 235.412 135.322 236.663V243.736C135.322 244.986 136.335 246 137.586 246H144.659C145.909 246 146.923 244.986 146.923 243.736V236.663Z" fill="#D3D7DC" fill-opacity="0.15" stroke="#D3D7DC" stroke-width="2"/>
</g>
<defs>
<linearGradient id="paint0_linear" x1="333" y1="109" x2="327" y2="109" gradientUnits="userSpaceOnUse">
<stop stop-color="#D3D7DC"/>
<stop offset="1" stop-color="#D3D7DC"/>
</linearGradient>
<linearGradient id="paint1_linear" x1="333" y1="109" x2="327" y2="109" gradientUnits="userSpaceOnUse">
<stop stop-color="#D3D7DC"/>
<stop offset="1" stop-color="#D3D7DC"/>
</linearGradient>
<linearGradient id="paint2_linear" x1="333" y1="109" x2="327" y2="109" gradientUnits="userSpaceOnUse">
<stop stop-color="#D3D7DC"/>
<stop offset="1" stop-color="#D3D7DC"/>
</linearGradient>
<linearGradient id="paint3_linear" x1="333" y1="109" x2="327" y2="109" gradientUnits="userSpaceOnUse">
<stop stop-color="#D3D7DC"/>
<stop offset="1" stop-color="#D3D7DC"/>
</linearGradient>
<linearGradient id="paint4_linear" x1="333" y1="109" x2="327" y2="109" gradientUnits="userSpaceOnUse">
<stop stop-color="#D3D7DC"/>
<stop offset="1" stop-color="#D3D7DC"/>
</linearGradient>
<linearGradient id="paint5_linear" x1="333" y1="109" x2="327" y2="109" gradientUnits="userSpaceOnUse">
<stop stop-color="#D3D7DC"/>
<stop offset="1" stop-color="#D3D7DC"/>
</linearGradient>
<linearGradient id="paint6_linear" x1="333" y1="109" x2="327" y2="109" gradientUnits="userSpaceOnUse">
<stop stop-color="#D3D7DC"/>
<stop offset="1" stop-color="#D3D7DC"/>
</linearGradient>
</defs>
</svg>
