<svg width="345" height="247" viewBox="0 0 345 247" fill="none" xmlns="http://www.w3.org/2000/svg">
<g opacity="0.45">
<path d="M12 3C12 1.34314 13.3431 0 15 0C16.6569 0 18 1.34314 18 3V5.71999C18 7.37685 16.6569 8.72 15 8.72C13.3431 8.72 12 7.37685 12 5.72V3Z" fill="url(#paint0_linear)"/>
<path d="M12 37.88C12 36.2231 13.3431 34.88 15 34.88C16.6569 34.88 18 36.2231 18 37.88V40.6C18 42.2569 16.6569 43.6 15 43.6C13.3431 43.6 12 42.2569 12 40.6V37.88Z" fill="url(#paint1_linear)"/>
<path d="M12 72.76C12 71.1031 13.3431 69.76 15 69.76C16.6569 69.76 18 71.1031 18 72.76V75.48C18 77.1369 16.6569 78.48 15 78.48C13.3431 78.48 12 77.1369 12 75.48V72.76Z" fill="url(#paint2_linear)"/>
<path d="M12 107.64C12 105.983 13.3431 104.64 15 104.64C16.6569 104.64 18 105.983 18 107.64V110.36C18 112.017 16.6569 113.36 15 113.36C13.3431 113.36 12 112.017 12 110.36V107.64Z" fill="url(#paint3_linear)"/>
<path d="M12 142.52C12 140.863 13.3431 139.52 15 139.52C16.6569 139.52 18 140.863 18 142.52V145.24C18 146.897 16.6569 148.24 15 148.24C13.3431 148.24 12 146.897 12 145.24V142.52Z" fill="url(#paint4_linear)"/>
<path d="M12 177.4C12 175.743 13.3431 174.4 15 174.4C16.6569 174.4 18 175.743 18 177.4V180.12C18 181.777 16.6569 183.12 15 183.12C13.3431 183.12 12 181.777 12 180.12V177.4Z" fill="url(#paint5_linear)"/>
<path d="M12 212.28C12 210.623 13.3431 209.28 15 209.28C16.6569 209.28 18 210.623 18 212.28V215C18 216.657 16.6569 218 15 218C13.3431 218 12 216.657 12 215V212.28Z" fill="url(#paint6_linear)"/>
<path d="M17.8525 4.35243H167.03L184.455 21.5845H198.112M17.8525 39.7159H221.507L248.165 13.0573M17.8525 73.9912H221.507L248.165 46.5165L263.943 46.5165M17.8525 108.267L326.74 108.267M17.8525 143.358H239.745H266.403L276.74 153.423M17.8525 178.449H183.423L193.76 188.514H209.538M17.8525 213.269H99.7446L115.522 239.655H198.062" stroke="#D3D7DC"/>
<path d="M199.024 17.9538C199.024 16.7032 200.038 15.6894 201.289 15.6894H208.361C209.612 15.6894 210.626 16.7032 210.626 17.9538V25.0264C210.626 26.277 209.612 27.2908 208.361 27.2908H201.289C200.038 27.2908 199.024 26.277 199.024 25.0264V17.9538ZM248.533 3.80838C248.533 2.55785 249.547 1.54407 250.797 1.54407H257.87C259.121 1.54407 260.134 2.55785 260.134 3.80838V10.8811C260.134 12.1316 259.121 13.1454 257.87 13.1454H250.797C249.547 13.1454 248.533 12.1316 248.533 10.8811V3.80838ZM265.399 42.9802C265.399 41.7296 266.413 40.7159 267.663 40.7159H274.736C275.986 40.7159 277 41.7296 277 42.9802V50.0529C277 51.3034 275.986 52.3172 274.736 52.3172H267.663C266.413 52.3172 265.399 51.3034 265.399 50.0529V42.9802ZM327.196 104.458C327.196 103.208 328.21 102.194 329.46 102.194H336.533C337.784 102.194 338.797 103.208 338.797 104.458V111.531C338.797 112.781 337.784 113.795 336.533 113.795H329.46C328.21 113.795 327.196 112.781 327.196 111.531V104.458ZM275.652 155.599C275.652 154.349 276.666 153.335 277.916 153.335H284.989C286.24 153.335 287.253 154.349 287.253 155.599V162.672C287.253 163.922 286.24 164.936 284.989 164.936H277.916C276.666 164.936 275.652 163.922 275.652 162.672V155.599ZM210.993 184.978C210.993 183.727 212.007 182.714 213.258 182.714H220.33C221.581 182.714 222.595 183.727 222.595 184.978V192.051C222.595 193.301 221.581 194.315 220.33 194.315H213.258C212.007 194.315 210.993 193.301 210.993 192.051V184.978ZM198.077 236.663C198.077 235.412 199.091 234.399 200.341 234.399H207.414C208.665 234.399 209.678 235.412 209.678 236.663V243.736C209.678 244.986 208.665 246 207.414 246H200.341C199.091 246 198.077 244.986 198.077 243.736V236.663Z" fill="#D3D7DC" fill-opacity="0.15" stroke="#D3D7DC" stroke-width="2"/>
</g>
<defs>
<linearGradient id="paint0_linear" x1="12" y1="109" x2="18" y2="109" gradientUnits="userSpaceOnUse">
<stop stop-color="#D3D7DC"/>
<stop offset="1" stop-color="#D3D7DC"/>
</linearGradient>
<linearGradient id="paint1_linear" x1="12" y1="109" x2="18" y2="109" gradientUnits="userSpaceOnUse">
<stop stop-color="#D3D7DC"/>
<stop offset="1" stop-color="#D3D7DC"/>
</linearGradient>
<linearGradient id="paint2_linear" x1="12" y1="109" x2="18" y2="109" gradientUnits="userSpaceOnUse">
<stop stop-color="#D3D7DC"/>
<stop offset="1" stop-color="#D3D7DC"/>
</linearGradient>
<linearGradient id="paint3_linear" x1="12" y1="109" x2="18" y2="109" gradientUnits="userSpaceOnUse">
<stop stop-color="#D3D7DC"/>
<stop offset="1" stop-color="#D3D7DC"/>
</linearGradient>
<linearGradient id="paint4_linear" x1="12" y1="109" x2="18" y2="109" gradientUnits="userSpaceOnUse">
<stop stop-color="#D3D7DC"/>
<stop offset="1" stop-color="#D3D7DC"/>
</linearGradient>
<linearGradient id="paint5_linear" x1="12" y1="109" x2="18" y2="109" gradientUnits="userSpaceOnUse">
<stop stop-color="#D3D7DC"/>
<stop offset="1" stop-color="#D3D7DC"/>
</linearGradient>
<linearGradient id="paint6_linear" x1="12" y1="109" x2="18" y2="109" gradientUnits="userSpaceOnUse">
<stop stop-color="#D3D7DC"/>
<stop offset="1" stop-color="#D3D7DC"/>
</linearGradient>
</defs>
</svg>
