<svg width="341" height="281" viewBox="0 0 341 281" fill="none" xmlns="http://www.w3.org/2000/svg">
<g style="mix-blend-mode:screen" opacity="0.45">
<path d="M353.821 244C353.821 245.657 352.478 247 350.821 247H336.147C334.49 247 333.147 245.657 333.147 244V241.295C333.147 239.638 334.49 238.295 336.147 238.295H350.821C352.478 238.295 353.821 239.638 353.821 241.295V244Z" fill="url(#paint0_linear)"/>
<path d="M353.821 209.181C353.821 210.837 352.478 212.181 350.821 212.181H336.147C334.49 212.181 333.147 210.837 333.147 209.181V206.476C333.147 204.819 334.49 203.476 336.147 203.476H350.821C352.478 203.476 353.821 204.819 353.821 206.476V209.181Z" fill="url(#paint1_linear)"/>
<path d="M353.821 174.361C353.821 176.018 352.478 177.361 350.821 177.361H336.147C334.49 177.361 333.147 176.018 333.147 174.361V171.656C333.147 170 334.49 168.656 336.147 168.656H350.821C352.478 168.656 353.821 170 353.821 171.656V174.361Z" fill="url(#paint2_linear)"/>
<path d="M353.821 139.542C353.821 141.199 352.478 142.542 350.821 142.542H336.147C334.49 142.542 333.147 141.199 333.147 139.542V136.837C333.147 135.18 334.49 133.837 336.147 133.837H350.821C352.478 133.837 353.821 135.18 353.821 136.837V139.542Z" fill="url(#paint3_linear)"/>
<path d="M353.821 104.722C353.821 106.379 352.478 107.722 350.821 107.722H336.147C334.49 107.722 333.147 106.379 333.147 104.722V102.018C333.147 100.361 334.49 99.0176 336.147 99.0176H350.821C352.478 99.0176 353.821 100.361 353.821 102.018V104.722Z" fill="url(#paint4_linear)"/>
<path d="M353.821 69.9031C353.821 71.5599 352.478 72.9031 350.821 72.9031H336.147C334.49 72.9031 333.147 71.5599 333.147 69.9031V67.1982C333.147 65.5414 334.49 64.1982 336.147 64.1982H350.821C352.478 64.1982 353.821 65.5414 353.821 67.1982V69.9031Z" fill="url(#paint5_linear)"/>
<path d="M353.821 35.0837C353.821 36.7405 352.478 38.0837 350.821 38.0837H336.147C334.49 38.0837 333.147 36.7405 333.147 35.0837V32.3788C333.147 30.722 334.49 29.3788 336.147 29.3788H350.821C352.478 29.3788 353.821 30.722 353.821 32.3788V35.0837Z" fill="url(#paint6_linear)"/>
<path d="M333.147 242.648H323.97L306.545 225.416H292.888M333.147 207.284H269.493L206.777 270M333.147 173.009H269.493L242.835 200.483H227.057M333.147 138.733H254.26M333.147 103.642H291.255H264.597L214 53.0453M333.147 68.5507H307.577L297.24 58.4857H281.462M333.147 33.7313H251.255L235.478 7.34473L12.9382 7.34473" stroke="#7D6CA7"/>
<path d="M292.976 229.046C292.976 230.297 291.962 231.311 290.711 231.311H283.639C282.388 231.311 281.374 230.297 281.374 229.046V221.974C281.374 220.723 282.388 219.709 283.639 219.709H290.711C291.962 219.709 292.976 220.723 292.976 221.974V229.046ZM209.467 277.192C209.467 278.442 208.453 279.456 207.202 279.456H200.13C198.879 279.456 197.865 278.442 197.865 277.192V270.119C197.865 268.868 198.879 267.855 200.13 267.855H207.202C208.453 267.855 209.467 268.868 209.467 270.119V277.192ZM226.601 204.02C226.601 205.27 225.587 206.284 224.337 206.284H217.264C216.014 206.284 215 205.27 215 204.02V196.947C215 195.697 216.014 194.683 217.264 194.683H224.337C225.587 194.683 226.601 195.697 226.601 196.947V204.02ZM253.804 142.542C253.804 143.792 252.79 144.806 251.539 144.806H244.467C243.216 144.806 242.202 143.792 242.202 142.542V135.469C242.202 134.219 243.216 133.205 244.467 133.205H251.539C252.79 133.205 253.804 134.219 253.804 135.469V142.542ZM215.348 51.4009C215.348 52.6514 214.334 53.6652 213.084 53.6652H206.011C204.76 53.6652 203.747 52.6514 203.747 51.4009V44.3282C203.747 43.0776 204.76 42.0639 206.011 42.0639H213.084C214.334 42.0639 215.348 43.0776 215.348 44.3282V51.4009ZM281.006 62.022C281.006 63.2726 279.993 64.2863 278.742 64.2863H271.669C270.419 64.2863 269.405 63.2726 269.405 62.022V54.9493C269.405 53.6988 270.419 52.685 271.669 52.685H278.742C279.993 52.685 281.006 53.6988 281.006 54.9493V62.022ZM12.9227 11.337C12.9227 12.5876 11.909 13.6013 10.6584 13.6013H3.58569C2.33517 13.6013 1.32141 12.5876 1.32141 11.337V4.26432C1.32141 3.01376 2.33517 2 3.58569 2L10.6584 2C11.909 2 12.9227 3.01376 12.9227 4.26432V11.337Z" fill="#826EA6" fill-opacity="0.17" stroke="#7F6FA5" stroke-width="2"/>
</g>
<defs>
<linearGradient id="paint0_linear" x1="353.821" y1="138.189" x2="333.147" y2="138.189" gradientUnits="userSpaceOnUse">
<stop stop-color="#876BAB"/>
<stop offset="1" stop-color="#7D6FA3"/>
</linearGradient>
<linearGradient id="paint1_linear" x1="353.821" y1="138.189" x2="333.147" y2="138.189" gradientUnits="userSpaceOnUse">
<stop stop-color="#876BAB"/>
<stop offset="1" stop-color="#7D6FA3"/>
</linearGradient>
<linearGradient id="paint2_linear" x1="353.821" y1="138.189" x2="333.147" y2="138.189" gradientUnits="userSpaceOnUse">
<stop stop-color="#876BAB"/>
<stop offset="1" stop-color="#7D6FA3"/>
</linearGradient>
<linearGradient id="paint3_linear" x1="353.821" y1="138.189" x2="333.147" y2="138.189" gradientUnits="userSpaceOnUse">
<stop stop-color="#876BAB"/>
<stop offset="1" stop-color="#7D6FA3"/>
</linearGradient>
<linearGradient id="paint4_linear" x1="353.821" y1="138.189" x2="333.147" y2="138.189" gradientUnits="userSpaceOnUse">
<stop stop-color="#876BAB"/>
<stop offset="1" stop-color="#7D6FA3"/>
</linearGradient>
<linearGradient id="paint5_linear" x1="353.821" y1="138.189" x2="333.147" y2="138.189" gradientUnits="userSpaceOnUse">
<stop stop-color="#876BAB"/>
<stop offset="1" stop-color="#7D6FA3"/>
</linearGradient>
<linearGradient id="paint6_linear" x1="353.821" y1="138.189" x2="333.147" y2="138.189" gradientUnits="userSpaceOnUse">
<stop stop-color="#876BAB"/>
<stop offset="1" stop-color="#7D6FA3"/>
</linearGradient>
</defs>
</svg>
