<svg width="342" height="281" viewBox="0 0 342 281" fill="none" xmlns="http://www.w3.org/2000/svg">
<g style="mix-blend-mode:screen" opacity="0.45">
<path d="M-11.8213 244C-11.8213 245.657 -10.4781 247 -8.82129 247H5.85272C7.50957 247 8.85272 245.657 8.85272 244V241.295C8.85272 239.638 7.50957 238.295 5.85272 238.295H-8.82129C-10.4781 238.295 -11.8213 239.638 -11.8213 241.295V244Z" fill="url(#paint0_linear)"/>
<path d="M-11.8213 209.181C-11.8213 210.837 -10.4781 212.181 -8.82129 212.181H5.85272C7.50957 212.181 8.85272 210.837 8.85272 209.181V206.476C8.85272 204.819 7.50957 203.476 5.85272 203.476H-8.82129C-10.4781 203.476 -11.8213 204.819 -11.8213 206.476V209.181Z" fill="url(#paint1_linear)"/>
<path d="M-11.8213 174.361C-11.8213 176.018 -10.4781 177.361 -8.82129 177.361H5.85272C7.50957 177.361 8.85272 176.018 8.85272 174.361V171.656C8.85272 170 7.50957 168.656 5.85272 168.656H-8.82129C-10.4781 168.656 -11.8213 170 -11.8213 171.656V174.361Z" fill="url(#paint2_linear)"/>
<path d="M-11.8213 139.542C-11.8213 141.199 -10.4781 142.542 -8.82129 142.542H5.85272C7.50957 142.542 8.85272 141.199 8.85272 139.542V136.837C8.85272 135.18 7.50957 133.837 5.85272 133.837H-8.82129C-10.4781 133.837 -11.8213 135.18 -11.8213 136.837V139.542Z" fill="url(#paint3_linear)"/>
<path d="M-11.8213 104.722C-11.8213 106.379 -10.4781 107.722 -8.82129 107.722H5.85272C7.50957 107.722 8.85272 106.379 8.85272 104.722V102.018C8.85272 100.361 7.50957 99.0176 5.85272 99.0176H-8.82129C-10.4781 99.0176 -11.8213 100.361 -11.8213 102.018V104.722Z" fill="url(#paint4_linear)"/>
<path d="M-11.8213 69.9031C-11.8213 71.5599 -10.4781 72.9031 -8.82129 72.9031H5.85272C7.50957 72.9031 8.85272 71.5599 8.85272 69.9031V67.1982C8.85272 65.5414 7.50957 64.1982 5.85272 64.1982H-8.82129C-10.4781 64.1982 -11.8213 65.5414 -11.8213 67.1982V69.9031Z" fill="url(#paint5_linear)"/>
<path d="M-11.8213 35.0837C-11.8213 36.7405 -10.4781 38.0837 -8.82129 38.0837H5.85272C7.50957 38.0837 8.85272 36.7405 8.85272 35.0837V32.3788C8.85272 30.722 7.50957 29.3788 5.85272 29.3788H-8.82129C-10.4781 29.3788 -11.8213 30.722 -11.8213 32.3788V35.0837Z" fill="url(#paint6_linear)"/>
<path d="M8.85254 242.648H18.0298L35.4554 225.416H49.1124M8.85254 207.284H72.5067L135.223 270M8.85254 173.009H72.5067L99.1653 200.483H114.943M8.85254 138.733H87.7402M8.85254 103.642H50.7446H77.4032L128 53.0453M8.85254 68.5507H34.423L44.76 58.4857H60.5376M8.85254 33.7313H90.7446L106.522 7.34473L329.062 7.34473" stroke="#7D6CA7"/>
<path d="M49.0244 229.046C49.0244 230.297 50.0382 231.311 51.2887 231.311H58.3614C59.612 231.311 60.6257 230.297 60.6257 229.046V221.974C60.6257 220.723 59.612 219.709 58.3614 219.709H51.2887C50.0382 219.709 49.0244 220.723 49.0244 221.974V229.046ZM132.533 277.192C132.533 278.442 133.547 279.456 134.798 279.456H141.87C143.121 279.456 144.135 278.442 144.135 277.192V270.119C144.135 268.868 143.121 267.855 141.87 267.855H134.798C133.547 267.855 132.533 268.868 132.533 270.119V277.192ZM115.399 204.02C115.399 205.27 116.413 206.284 117.663 206.284H124.736C125.986 206.284 127 205.27 127 204.02V196.947C127 195.697 125.986 194.683 124.736 194.683H117.663C116.413 194.683 115.399 195.697 115.399 196.947V204.02ZM88.1962 142.542C88.1962 143.792 89.21 144.806 90.4605 144.806H97.5332C98.7838 144.806 99.7975 143.792 99.7975 142.542V135.469C99.7975 134.219 98.7838 133.205 97.5332 133.205H90.4605C89.21 133.205 88.1962 134.219 88.1962 135.469V142.542ZM126.652 51.4009C126.652 52.6514 127.666 53.6652 128.916 53.6652H135.989C137.24 53.6652 138.253 52.6514 138.253 51.4009V44.3282C138.253 43.0776 137.24 42.0639 135.989 42.0639H128.916C127.666 42.0639 126.652 43.0776 126.652 44.3282V51.4009ZM60.9936 62.022C60.9936 63.2726 62.0073 64.2863 63.2579 64.2863H70.3306C71.5811 64.2863 72.5949 63.2726 72.5949 62.022V54.9493C72.5949 53.6988 71.5811 52.685 70.3306 52.685H63.2579C62.0073 52.685 60.9936 53.6988 60.9936 54.9493V62.022ZM329.077 11.337C329.077 12.5876 330.091 13.6013 331.342 13.6013H338.414C339.665 13.6013 340.679 12.5876 340.679 11.337V4.26432C340.679 3.01376 339.665 2 338.414 2L331.342 2C330.091 2 329.077 3.01376 329.077 4.26432V11.337Z" fill="#826EA6" fill-opacity="0.17" stroke="#7F6FA5" stroke-width="2"/>
</g>
<defs>
<linearGradient id="paint0_linear" x1="-11.8213" y1="138.189" x2="8.85272" y2="138.189" gradientUnits="userSpaceOnUse">
<stop stop-color="#876BAB"/>
<stop offset="1" stop-color="#7D6FA3"/>
</linearGradient>
<linearGradient id="paint1_linear" x1="-11.8213" y1="138.189" x2="8.85272" y2="138.189" gradientUnits="userSpaceOnUse">
<stop stop-color="#876BAB"/>
<stop offset="1" stop-color="#7D6FA3"/>
</linearGradient>
<linearGradient id="paint2_linear" x1="-11.8213" y1="138.189" x2="8.85272" y2="138.189" gradientUnits="userSpaceOnUse">
<stop stop-color="#876BAB"/>
<stop offset="1" stop-color="#7D6FA3"/>
</linearGradient>
<linearGradient id="paint3_linear" x1="-11.8213" y1="138.189" x2="8.85272" y2="138.189" gradientUnits="userSpaceOnUse">
<stop stop-color="#876BAB"/>
<stop offset="1" stop-color="#7D6FA3"/>
</linearGradient>
<linearGradient id="paint4_linear" x1="-11.8213" y1="138.189" x2="8.85272" y2="138.189" gradientUnits="userSpaceOnUse">
<stop stop-color="#876BAB"/>
<stop offset="1" stop-color="#7D6FA3"/>
</linearGradient>
<linearGradient id="paint5_linear" x1="-11.8213" y1="138.189" x2="8.85272" y2="138.189" gradientUnits="userSpaceOnUse">
<stop stop-color="#876BAB"/>
<stop offset="1" stop-color="#7D6FA3"/>
</linearGradient>
<linearGradient id="paint6_linear" x1="-11.8213" y1="138.189" x2="8.85272" y2="138.189" gradientUnits="userSpaceOnUse">
<stop stop-color="#876BAB"/>
<stop offset="1" stop-color="#7D6FA3"/>
</linearGradient>
</defs>
</svg>
