<svg width="65" height="36" viewBox="0 0 65 36" fill="none" xmlns="http://www.w3.org/2000/svg">
<path d="M14.4297 23H12.5391V13.8672L9.75 14.8203V13.2188L14.1875 11.5859H14.4297V23ZM26.0312 23H18.3828V21.6953L22.1719 17.5625C22.7188 16.9531 23.1068 16.4453 23.3359 16.0391C23.5703 15.6276 23.6875 15.2161 23.6875 14.8047C23.6875 14.263 23.5339 13.8255 23.2266 13.4922C22.9245 13.1589 22.5156 12.9922 22 12.9922C21.3854 12.9922 20.9089 13.1797 20.5703 13.5547C20.2318 13.9297 20.0625 14.4427 20.0625 15.0938H18.1641C18.1641 14.401 18.3203 13.7786 18.6328 13.2266C18.9505 12.6693 19.401 12.237 19.9844 11.9297C20.5729 11.6224 21.25 11.4688 22.0156 11.4688C23.1198 11.4688 23.9896 11.7474 24.625 12.3047C25.2656 12.8568 25.5859 13.6224 25.5859 14.6016C25.5859 15.1693 25.4245 15.7656 25.1016 16.3906C24.7839 17.0104 24.2604 17.7161 23.5312 18.5078L20.75 21.4844H26.0312V23ZM34.8906 18.2109C34.8906 19.8464 34.5833 21.0807 33.9688 21.9141C33.3594 22.7422 32.4297 23.1562 31.1797 23.1562C29.9505 23.1562 29.0234 22.7526 28.3984 21.9453C27.7786 21.1328 27.4609 19.9323 27.4453 18.3438V16.375C27.4453 14.7396 27.75 13.513 28.3594 12.6953C28.974 11.8776 29.9089 11.4688 31.1641 11.4688C32.4089 11.4688 33.3359 11.8672 33.9453 12.6641C34.5599 13.4609 34.875 14.6536 34.8906 16.2422V18.2109ZM32.9922 16.0859C32.9922 15.0182 32.8464 14.237 32.5547 13.7422C32.263 13.2422 31.7995 12.9922 31.1641 12.9922C30.5443 12.9922 30.0885 13.2292 29.7969 13.7031C29.5052 14.1719 29.3516 14.9062 29.3359 15.9062V18.4844C29.3359 19.5469 29.4844 20.3385 29.7812 20.8594C30.0781 21.3802 30.5443 21.6406 31.1797 21.6406C31.7891 21.6406 32.2396 21.401 32.5312 20.9219C32.8229 20.4375 32.9766 19.6823 32.9922 18.6562V16.0859ZM43.9844 18.2109C43.9844 19.8464 43.6771 21.0807 43.0625 21.9141C42.4531 22.7422 41.5234 23.1562 40.2734 23.1562C39.0443 23.1562 38.1172 22.7526 37.4922 21.9453C36.8724 21.1328 36.5547 19.9323 36.5391 18.3438V16.375C36.5391 14.7396 36.8438 13.513 37.4531 12.6953C38.0677 11.8776 39.0026 11.4688 40.2578 11.4688C41.5026 11.4688 42.4297 11.8672 43.0391 12.6641C43.6536 13.4609 43.9688 14.6536 43.9844 16.2422V18.2109ZM42.0859 16.0859C42.0859 15.0182 41.9401 14.237 41.6484 13.7422C41.3568 13.2422 40.8932 12.9922 40.2578 12.9922C39.638 12.9922 39.1823 13.2292 38.8906 13.7031C38.599 14.1719 38.4453 14.9062 38.4297 15.9062V18.4844C38.4297 19.5469 38.5781 20.3385 38.875 20.8594C39.1719 21.3802 39.638 21.6406 40.2734 21.6406C40.8828 21.6406 41.3333 21.401 41.625 20.9219C41.9167 20.4375 42.0703 19.6823 42.0859 18.6562V16.0859ZM45.5859 13.8125C45.5859 13.125 45.8073 12.5625 46.25 12.125C46.6927 11.6823 47.2734 11.4609 47.9922 11.4609C48.7214 11.4609 49.3047 11.6823 49.7422 12.125C50.1849 12.5625 50.4062 13.138 50.4062 13.8516V14.4141C50.4062 15.0964 50.1849 15.6562 49.7422 16.0938C49.3047 16.5312 48.7266 16.75 48.0078 16.75C47.3047 16.75 46.724 16.5365 46.2656 16.1094C45.8125 15.6771 45.5859 15.0964 45.5859 14.3672V13.8125ZM46.9141 14.4141C46.9141 14.7734 47.013 15.0651 47.2109 15.2891C47.4141 15.5078 47.6797 15.6172 48.0078 15.6172C48.3307 15.6172 48.5911 15.5078 48.7891 15.2891C48.987 15.0651 49.0859 14.763 49.0859 14.3828V13.8125C49.0859 13.4531 48.9844 13.1615 48.7812 12.9375C48.5833 12.7135 48.3203 12.6016 47.9922 12.6016C47.6641 12.6016 47.401 12.7161 47.2031 12.9453C47.0104 13.1693 46.9141 13.4661 46.9141 13.8359V14.4141ZM51.0547 20.2109C51.0547 19.513 51.2812 18.9479 51.7344 18.5156C52.1875 18.0833 52.7656 17.8672 53.4688 17.8672C54.1771 17.8672 54.7552 18.0833 55.2031 18.5156C55.6562 18.9479 55.8828 19.5312 55.8828 20.2656V20.8203C55.8828 21.4974 55.6641 22.0573 55.2266 22.5C54.7943 22.9375 54.2135 23.1562 53.4844 23.1562C52.7552 23.1562 52.1667 22.9401 51.7188 22.5078C51.276 22.0703 51.0547 21.4948 51.0547 20.7812V20.2109ZM52.3828 20.8203C52.3828 21.1745 52.4844 21.4661 52.6875 21.6953C52.8958 21.9193 53.1615 22.0312 53.4844 22.0312C53.8177 22.0312 54.0781 21.9245 54.2656 21.7109C54.4583 21.4922 54.5547 21.1875 54.5547 20.7969V20.2109C54.5547 19.8464 54.4531 19.5547 54.25 19.3359C54.0469 19.1172 53.7865 19.0078 53.4688 19.0078C53.1458 19.0078 52.8828 19.1172 52.6797 19.3359C52.4818 19.5547 52.3828 19.8568 52.3828 20.2422V20.8203ZM48.3984 22.1484L47.4219 21.5859L52.9766 12.6953L53.9531 13.2578L48.3984 22.1484Z" fill="white"/>
<rect x="1" y="1" width="63" height="34" rx="7" stroke="url(#paint0_linear)" stroke-width="2"/>
<defs>
<linearGradient id="paint0_linear" x1="17.9228" y1="6.1791" x2="30.4418" y2="47.222" gradientUnits="userSpaceOnUse">
<stop stop-color="#A874B9"/>
<stop offset="1" stop-color="#485E8B"/>
</linearGradient>
</defs>
</svg>
